<?xml version="1.0" encoding="UTF-8"?>
<svg id="Ebene_1" data-name="Ebene 1" xmlns="http://www.w3.org/2000/svg" viewBox="0 0 841.89 595.28">
  <defs>
    <style>
      .cls-1 {
        fill: #1d1d1b;
      }
    </style>
  </defs>
  <path class="cls-1" d="M562.13,490.59c-21-15.87-32.39-12.84-58.6-38.25l-.1.11c-3.2-4.74-32.52-30.89-37.67-32.21-5.18-2.51-23.87-12.02-23.87-12.02.76.44,4.73,18.97-3.19,31.56,4.02-1.62,4.16-.21,10.25-7.56-.72,9.23,3.78,14.16,11.42,18.97-11.38-4.33-18.21-6.6-25.15-3.35,5.44,3.41,65.82,25.62,83.96,43.79,10.89,10.43,27.34,26.19,44.29,26.99,18.37,1.03,12.53-18.61-1.34-28.02Z">
  <path class="cls-1" d="M286.17,453.49c-9.82,25.85-24.16-12.83-43.77,1.73-.04.09-4.08,8.93-29.68,11.95-4.95.53-6.42,8.85-1.46,10.83,3.84,1.6,51.75,1.6,64.55,1.05.9.41,17.39-.85,16.37-8.74.08-.75-.82-13.68-6-16.83Z">
  <path class="cls-1" d="M249.14,445.81l.31.51c1.13,0,13.18,1.75,22.7,11.09,26.8,1.01-12.31-26.54-16.86-41.21-.56-1.3-12.03-27.33-25.44-25.55-.22-.37-20.19-.43-30.86,13.65,2.29,1.51,39.93,25.83,50.16,41.51Z">
  <path class="cls-1" d="M221.83,387.04c-1.06-1.54-5.1-3.24-5.78-3.17-27.33,2.85-27.17,6.92-21.66,18.01,4.43-8.56,25.64-14.14,27.44-14.84Z">
  <path class="cls-1" d="M303.44,397.71c-6.22-3.94-23.99-34.51-27.17-41.26-15.26-27.96-127.61-20.53-88.04,32.56,8.01-7.52,26.6-8.77,27.69-8.75-.65-4.25-3.24-5.06-8.48-8.78,38.35,17.8,56.78,41.76,87.97,32.45-18.01-2.63-19.5-2.05-38.16-14.26,9.88,3.61,55.59,17.48,46.19,8.03Z">
  <path class="cls-1" d="M290.24,168.27c6.67,1.42,10.51-.7,12.06-3.84-.11,2.92-.35,6.21-.57,9.16,10.61-6.58,6.11-16.5,21.19-20.94-6.04-11.43-34.13-5.31-37.73-.22-.76,4.96-1.09,12.65,5.06,15.84Z">
  <path class="cls-1" d="M309.2,183.4c11.36,10.03-3-16.17,26.31-25.96-8.6,1.4-25.53,32.12-10.44,32.49,2.48.06,3.39-4.72,3.43-5.51.83-17.21,10.96-21.93,21.04-24.77-17.76-12.63-41.97-6.58-40.34,23.75Z">
  <path class="cls-1" d="M483.59,304.38l1.77.65c-1.28-7.71,4.06-19.52,4.72-20.68-3.96-.86-15.23-7.57-18.97-4.03-12.01,11.18,9.69,24.13,12.48,24.05Z">
  <path class="cls-1" d="M425.31,395.41c.13,3.54.17,7.59-.24,11.46-1.93-13.65-38.72-47.96-57.72-48.74l.03-.02c-1.33-36.1-41.43-28.14-49.05,24.74,1.69.94,27.4,15.42,54.13,27.44-10.21-1.97-37.86-8.32-37.86-8.32,9.22,3.05,52.86,34.52,84.1,20.32-.57,4.53-9.99,8.04-19.05,7.41,39.58,28.13,51.25-21.77,25.66-34.29Z">
  <path class="cls-1" d="M369.69,209.23c-2.25,6.95-6.91,11.62-15.7,11.62-13.97,0-17.52-11.78-17.52-25.74s3.55-25.74,17.52-25.74c8.8,0,13.45,4.68,15.7,11.62h5.57c-2.7-10.12-9.07-17.01-21.27-17.01-17.31,0-22.91,13.83-22.91,31.13s5.6,31.13,22.91,31.13c12.2,0,18.57-6.89,21.27-17.01h-5.57Z">
  <path class="cls-1" d="M374.33,260.37c-2.15,2.15-13.61,4.52-18.7,21.15">
  <g>
    <path class="cls-1" d="M274.08,167.36c3.33,2.96,8.7,2.76,11.98,1.85-8.66-6.81-2.97-20.5-2.65-22.13-9.42,1.85-16.04,9.02-9.33,20.28Z">
    <path class="cls-1" d="M467.37,276.83c-7.23-.32-15.56-2.95-15.37-3.13-14.31-4.7-34.25-4.93-43.89-9.45-8.98-3.59-11.1-7.53-22.42-6.03,8.71-5.77-9.72-9.59-14.66-8.2,15.28-8.1-16.08-15.47-16.43-14.42,0,0-.88-.08-.88-.08-15.4,28.24-39.36,16.44-47.45,4.85-10.01-14.33-9.58-31.39-9.58-31.39-11.66-2.61-17.82-9.39-26.28-8.78-14.54-9.86-17.88-8.17-19.15-6.5v-.26c-2.87,1.45-9.34,7.06-21.78,4.67,6.04-.27,16.69-3.92,23.04-10-5.05.15-7.45,1.06-16.91-.71,10.3,1.36,27.29-7.73,36.55-12.3-3.04-1.57-4.84-2.51-11.41-5.89l13.85,2.52c-7.07-4.73-6.82-13.51-5.29-21.17-34.67,17.65-92.38,20.59-30.27,71.93,1.78.63,19.56,18.92,21.55,29.35,1.31-2.7-4.39-19.69.05-32.19l2.64,15.91c2.12-1.64,7.67-4.09,10.61-10.63-32.17,68.18,17.74,159.59,42.63,177.84h5.27c-14.06-8.95-6.87-39.24-6.24-39.56,15.53-37.92,40.65-33.81,40.65-33.81-7.1-19.77-21.85-8.61-37.84-7.77,19.38-7.76,35.68-13.6,39.91-25.48-12.15,9.48-28.29,8.86-36.26,2.21,33.6,1.51,22.29-30.45,52.31-38l-18.7,21.15c7.14-3.59,11.17-4.83,22.07-8.51-10.63,8.73-13.08,11.48-15.76,14.09,9.36,3.07,23.21-4.97,32.6-8.59-6.77,5.04-11.14,7.41-11.14,7.41-30.45,13.19,11.71,15.74,24.36,1.94-3.44,6.86-3.21,8.1-3.89,11.13,5.77-.69,9.45-5.25,16.79-10.52-5.25,10.21-4.83,11.08-3.1,13.44,8.66-5.83,14.56-10.43,27.29-11.04-8.02,2.38-14.86,4.57-17.4,9.92,8.55.66,34.34-1.79,38.15-4.77-4.02-7.95.96-17.47,1.77-19.19Z">
  </g>
  <path class="cls-1" d="M335.92,222.83c-8.2-7.23-9.34-22.21-9.15-26.26,0,0-3.1-1.67-6.74-3.53-.89-.46-1.97.11-2.06,1.11-.51,5.15-2.45,11.88-.38,23.3,0,0-5.11-10.91-4.3-25.84.06-1.06-.43-2.08-1.4-2.51-1.49-.65-3.44-1.87-3.91-1.87-24.22,35.68,19,91.53,45.2,42.43-4.4-1.27-9.25.22-17.25-6.83Z">
  <path class="cls-1" d="M715.17,457.36l-1.47.42c-4.21-8.53-52.07-87.53-184.52-155.23l-.28.51c7.11-14.18-1.79-36.51-26.74-21.54-24.3,14.58-11.67,58.23,17.81,33.88-6.15-4.66-10.56-17.01-9.04-13.97,1.52,3.04,14.57,8.82,14.57,8.82,2.6,1.42,145.33,75.43,184.8,149.36l-.74.7,2.59,4.78,5.27-1.83-2.24-5.9Z">
  <g>
    <path class="cls-1" d="M397.31,139.59h22.75l13.92,20.16h7.37l-41.84-60h-8.2l.09,39.85h5.9ZM397.31,134.16v-27.53h.16l18.78,27.53h-18.95Z">
    <path class="cls-1" d="M485.79,159.66v-59.91h5.99v59.91h-5.99Z">
    <path class="cls-1" d="M379.58,225.19v-59.91h5.99v59.91h-5.99Z">
    <path class="cls-1" d="M399.54,165.28h-8.26l-.02,39.77,6.01-.02h22.75l13.92,20.16h7.37l-41.78-59.91ZM397.28,199.61v-27.53h.16l18.78,27.53h-18.95Z">
    <path class="cls-1" d="M477.07,134.15h-26.05v5.42h21.6c-.89,5.03-2.65,9.3-5.77,12.15l3.37,4.29c5.38-4.76,7.83-12.63,8.38-21.86h-1.53Z">
    <path class="cls-1" d="M455.93,104.19c8.77,0,13.41,4.66,15.65,11.58h5.55c-2.69-10.09-9.04-16.95-21.19-16.95-17.24,0-22.82,13.78-22.82,31.02,0,3.41.23,6.68.71,9.73h5.41c-.53-3.02-.75-6.31-.75-9.73,0-13.92,3.54-25.65,17.45-25.65Z">
    <polygon class="cls-1" points="485.79 165.28 485.79 224.34 485.76 223.71 442.87 165.28 434.61 165.28 434.59 205.03 440.6 205.03 440.6 172.08 440.77 172.08 484.38 232.3 485.79 232.3 486.18 232.3 491.78 232.3 491.78 165.28 485.79 165.28">
    <g>
      <path class="cls-1" d="M517.21,183.59l-4.1-15.26h-.05l-4.07,15.26h-2.39l-5.3-18.6h1.91l4.55,16.21h.05l4.43-16.21h1.73l4.45,16.19h.05l4.55-16.19h1.89l-5.33,18.6h-2.36Z">
      <path class="cls-1" d="M537.06,183.59v-7.66c0-3.09-1.86-4.85-4.27-4.85-2.66,0-4.3,2.04-4.3,4.73v7.79h-1.76v-18.6h1.76v6.61h.05c.88-1.33,2.44-2.11,4.22-2.11,3.79,0,6.06,2.61,6.06,6.43v7.66h-1.76Z">
      <path class="cls-1" d="M543.27,177.36c.15,2.74,2.66,4.98,5.33,4.98,2.14,0,4.17-1.23,4.93-3.24h1.86c-1.06,2.97-3.82,4.83-6.76,4.83-3.9,0-7.16-3.17-7.16-7.19s3.29-7.24,7.14-7.24c4.12,0,7.22,3.54,7.22,7.34,0,.18-.03.35-.03.53h-12.52ZM554,175.77c-.5-2.77-2.69-4.7-5.41-4.7-2.56,0-4.85,1.86-5.33,4.7h10.73Z">
      <path class="cls-1" d="M558.49,183.59v-13.75h1.76v1.98h.05c.6-1.43,1.66-2.21,3.87-2.34v1.86h-.02c-2.54.25-3.9,1.91-3.9,4.12v8.12h-1.76Z">
      <path class="cls-1" d="M567.01,177.36c.15,2.74,2.66,4.98,5.33,4.98,2.14,0,4.17-1.23,4.93-3.24h1.86c-1.06,2.97-3.82,4.83-6.76,4.83-3.9,0-7.16-3.17-7.16-7.19s3.29-7.24,7.14-7.24c4.12,0,7.22,3.54,7.22,7.34,0,.18-.03.35-.03.53h-12.52ZM577.74,175.77c-.5-2.77-2.69-4.7-5.41-4.7-2.56,0-4.85,1.86-5.33,4.7h10.73Z">
      <path class="cls-1" d="M502.63,213.56v-18.57h1.76v2.41h.05c1.28-1.81,3.17-2.76,5.35-2.76,4.17,0,7.39,3.19,7.39,7.19s-3.17,7.24-7.39,7.24c-2.14,0-4.12-.96-5.35-2.74h-.05v7.24h-1.76ZM509.77,196.22c-2.97,0-5.48,2.51-5.48,5.66s2.39,5.6,5.51,5.6,5.63-2.44,5.63-5.58-2.31-5.68-5.65-5.68Z">
      <path class="cls-1" d="M519.81,208.74v-13.75h1.76v1.98h.05c.6-1.43,1.66-2.21,3.87-2.34v1.86h-.02c-2.54.25-3.9,1.91-3.9,4.12v8.12h-1.76Z">
      <path class="cls-1" d="M528.33,202.51c.15,2.74,2.66,4.98,5.33,4.98,2.14,0,4.17-1.23,4.93-3.24h1.86c-1.06,2.97-3.82,4.83-6.76,4.83-3.9,0-7.16-3.17-7.16-7.19s3.29-7.24,7.14-7.24c4.12,0,7.22,3.54,7.22,7.34,0,.18-.03.35-.03.53h-12.52ZM539.07,200.92c-.5-2.77-2.69-4.7-5.41-4.7-2.56,0-4.85,1.86-5.33,4.7h10.73Z">
      <path class="cls-1" d="M557.17,204.69c-1.41,2.79-3.64,4.37-6.83,4.37-4.1,0-7.39-3.04-7.39-7.34,0-3.77,3.32-7.09,7.39-7.09,3.02,0,5.71,1.68,6.83,4.5h-1.94c-1.03-1.91-2.86-2.92-4.85-2.92-3.17,0-5.68,2.49-5.68,5.61s2.49,5.65,5.68,5.65c2.09,0,3.87-.96,4.85-2.79h1.94Z">
      <path class="cls-1" d="M559.82,193.31v-3.17h1.76v3.17h-1.76ZM559.82,208.74v-13.75h1.76v13.75h-1.76Z">
      <path class="cls-1" d="M570.13,198.38c-.1-1.33-.93-2.16-2.06-2.16s-2.09.88-2.09,2.06c0,1.01.7,1.71,2.39,2.26,3.34,1.11,4,2.44,4,4.4,0,2.51-1.68,4.12-4.32,4.12-2.36,0-4.22-1.68-4.22-4.3v-.1h1.76c.02,1.83.98,2.81,2.46,2.81,1.58,0,2.56-.88,2.56-2.46,0-1.33-.85-2.06-2.44-2.64-2.41-.88-3.95-1.56-3.95-3.92,0-2.21,1.66-3.82,3.92-3.82,2.06,0,3.75,1.56,3.75,3.74h-1.76Z">
      <path class="cls-1" d="M574.61,193.31v-3.17h1.76v3.17h-1.76ZM574.61,208.74v-13.75h1.76v13.75h-1.76Z">
      <path class="cls-1" d="M579.06,201.95c0-4.05,3.27-7.31,7.16-7.31s7.21,3.37,7.21,7.21-3.34,7.21-7.21,7.21-7.16-3.29-7.16-7.11ZM591.68,201.78c0-2.99-2.41-5.56-5.45-5.56s-5.41,2.59-5.41,5.71,2.44,5.56,5.43,5.56,5.43-2.56,5.43-5.71Z">
      <path class="cls-1" d="M606.44,208.74v-7.66c0-3.09-1.86-4.85-4.27-4.85-2.66,0-4.3,2.04-4.3,4.73v7.79h-1.76v-13.75h1.76v1.76h.05c.88-1.33,2.44-2.11,4.22-2.11,3.8,0,6.06,2.61,6.06,6.43v7.66h-1.76Z">
      <path class="cls-1" d="M514.87,233.89v-2.41h-.05c-1.13,1.71-3.12,2.74-5.35,2.74-4.12,0-7.39-3.12-7.39-7.24s3.37-7.19,7.39-7.19c2.29,0,4.25,1.03,5.35,2.76h.05v-2.41h1.76v13.75h-1.76ZM514.97,227.03c0-3.07-2.41-5.66-5.53-5.66s-5.61,2.41-5.61,5.68,2.39,5.58,5.63,5.58c3.06,0,5.5-2.51,5.5-5.6Z">
      <path class="cls-1" d="M530.17,233.89v-7.66c0-3.09-1.86-4.85-4.27-4.85-2.66,0-4.3,2.04-4.3,4.73v7.79h-1.76v-13.75h1.76v1.76h.05c.88-1.33,2.44-2.11,4.22-2.11,3.8,0,6.06,2.61,6.06,6.43v7.66h-1.76Z">
      <path class="cls-1" d="M547.31,233.89v-2.41h-.05c-1.21,1.78-3.22,2.74-5.35,2.74-4.12,0-7.39-3.12-7.39-7.24s3.37-7.19,7.39-7.19c2.14,0,4.17,1,5.35,2.71h.05v-7.21h1.76v18.6h-1.76ZM547.41,227.03c0-3.07-2.39-5.66-5.53-5.66s-5.6,2.44-5.6,5.68,2.36,5.58,5.63,5.58c3.04,0,5.5-2.49,5.5-5.6Z">
      <path class="cls-1" d="M502.63,263.86v-18.57h1.76v2.41h.05c1.28-1.81,3.17-2.76,5.35-2.76,4.17,0,7.39,3.19,7.39,7.19s-3.17,7.24-7.39,7.24c-2.14,0-4.12-.96-5.35-2.74h-.05v7.24h-1.76ZM509.77,246.52c-2.97,0-5.48,2.51-5.48,5.66s2.39,5.6,5.51,5.6,5.63-2.44,5.63-5.58-2.31-5.68-5.65-5.68Z">
      <path class="cls-1" d="M532.03,259.04v-2.41h-.05c-1.13,1.71-3.12,2.74-5.35,2.74-4.12,0-7.39-3.12-7.39-7.24s3.37-7.19,7.39-7.19c2.29,0,4.25,1.03,5.35,2.76h.05v-2.41h1.76v13.75h-1.76ZM532.13,252.17c0-3.07-2.41-5.66-5.53-5.66s-5.61,2.41-5.61,5.68,2.39,5.58,5.63,5.58c3.06,0,5.5-2.51,5.5-5.6Z">
      <path class="cls-1" d="M542.26,248.68c-.1-1.33-.93-2.16-2.06-2.16s-2.09.88-2.09,2.06c0,1.01.7,1.71,2.39,2.26,3.34,1.11,4,2.44,4,4.4,0,2.51-1.68,4.12-4.32,4.12-2.36,0-4.22-1.68-4.22-4.3v-.1h1.76c.02,1.83.98,2.81,2.46,2.81,1.58,0,2.56-.88,2.56-2.46,0-1.33-.85-2.06-2.44-2.64-2.41-.88-3.95-1.56-3.95-3.92,0-2.21,1.66-3.82,3.92-3.82,2.06,0,3.75,1.56,3.75,3.74h-1.76Z">
      <path class="cls-1" d="M552.02,248.68c-.1-1.33-.93-2.16-2.06-2.16s-2.09.88-2.09,2.06c0,1.01.7,1.71,2.39,2.26,3.34,1.11,4,2.44,4,4.4,0,2.51-1.68,4.12-4.32,4.12-2.36,0-4.22-1.68-4.22-4.3v-.1h1.76c.02,1.83.98,2.81,2.46,2.81,1.58,0,2.56-.88,2.56-2.46,0-1.33-.85-2.06-2.44-2.64-2.41-.88-3.95-1.56-3.95-3.92,0-2.21,1.66-3.82,3.92-3.82,2.06,0,3.75,1.56,3.75,3.74h-1.76Z">
      <path class="cls-1" d="M556.5,243.6v-3.17h1.76v3.17h-1.76ZM556.5,259.04v-13.75h1.76v13.75h-1.76Z">
      <path class="cls-1" d="M560.95,252.25c0-4.05,3.27-7.31,7.16-7.31s7.21,3.37,7.21,7.21-3.34,7.21-7.21,7.21-7.16-3.29-7.16-7.11ZM573.57,252.07c0-2.99-2.41-5.56-5.45-5.56s-5.41,2.59-5.41,5.71,2.44,5.56,5.43,5.56,5.43-2.56,5.43-5.71Z">
      <path class="cls-1" d="M588.33,259.04v-7.66c0-3.09-1.86-4.85-4.27-4.85-2.66,0-4.3,2.04-4.3,4.73v7.79h-1.76v-13.75h1.76v1.76h.05c.88-1.33,2.44-2.11,4.22-2.11,3.8,0,6.06,2.61,6.06,6.43v7.66h-1.76Z">
      <path class="cls-1" d="M618.83,259.04v-8.07c0-2.62-1.26-4.45-3.75-4.45s-3.75,1.81-3.75,4.5v8.02h-1.76v-8.04c0-2.69-1.31-4.47-3.75-4.47s-3.75,1.79-3.75,4.47v8.04h-1.76v-13.75h1.76v1.58c.83-1.31,2.24-1.94,3.75-1.94,1.98,0,3.64.93,4.62,2.64,1.08-1.68,2.61-2.64,4.62-2.64,3.54,0,5.5,2.61,5.5,5.85v8.24h-1.76Z">
      <path class="cls-1" d="M625.03,252.8c.15,2.74,2.66,4.98,5.33,4.98,2.14,0,4.17-1.23,4.93-3.24h1.86c-1.06,2.97-3.82,4.83-6.76,4.83-3.9,0-7.16-3.17-7.16-7.19s3.29-7.24,7.14-7.24c4.12,0,7.22,3.54,7.22,7.34,0,.18-.03.35-.03.53h-12.52ZM635.76,251.22c-.5-2.77-2.69-4.7-5.41-4.7-2.56,0-4.85,1.86-5.33,4.7h10.73Z">
      <path class="cls-1" d="M641.37,252.8c.15,2.74,2.66,4.98,5.33,4.98,2.14,0,4.17-1.23,4.93-3.24h1.86c-1.06,2.97-3.82,4.83-6.76,4.83-3.9,0-7.16-3.17-7.16-7.19s3.29-7.24,7.14-7.24c4.12,0,7.22,3.54,7.22,7.34,0,.18-.03.35-.03.53h-12.52ZM652.11,251.22c-.5-2.77-2.69-4.7-5.41-4.7-2.56,0-4.85,1.86-5.33,4.7h10.73Z">
      <path class="cls-1" d="M658.2,259.04v-12.16h-2.89v-1.58h2.89v-4.85h1.76v4.85h3.29v1.58h-3.29v12.16h-1.76Z">
    </g>
    <g>
      <path class="cls-1" d="M278.12,118.44v-16.92h-4.27v-1.68h10.38v1.68h-4.24v16.92h-1.86Z">
      <path class="cls-1" d="M297.81,118.44v-8.72h-9.63v8.72h-1.86v-18.6h1.86v8.2h9.63v-8.2h1.86v18.6h-1.86Z">
      <path class="cls-1" d="M303.34,118.44v-18.6h10.18v1.68h-8.32v6.68h8.05v1.68h-8.05v6.86h8.32v1.68h-10.18Z">
    </g>
    <polygon class="cls-1" points="329.57 139.42 329.61 106.3 329.77 106.3 352.03 159.66 357.14 159.66 379.56 106.3 379.72 106.3 379.72 159.66 385.72 159.66 385.72 99.75 376.49 99.75 354.63 150.75 332.85 99.75 323.62 99.75 323.66 139.39 329.57 139.42">
  </g>
</svg>