<?xml version="1.0" encoding="UTF-8"?>
<svg id="Ebene_1" xmlns="http://www.w3.org/2000/svg" version="1.1" viewBox="0 0 630.09 591.32">
  <!-- Generator: Adobe Illustrator 30.0.0, SVG Export Plug-In . SVG Version: 2.1.1 Build 123)  -->
  <defs>
    <style>
      .st0 {
        stroke-width: .96px;
      }

      .st0, .st1 {
        stroke: #1d1d1b;
      }

      .st0, .st1, .st2, .st3 {
        fill: #1d1d1b;
      }

      .st0, .st1, .st3 {
        stroke-miterlimit: 10;
      }

      .st1 {
        stroke-width: .91px;
      }

      .st3 {
        stroke: #fff;
      }
    </style>
  </defs>
  <g>
    <g>
      <g>
        <path class="st2" d="M102.99,305.48s2.58,6.45,0,12.04c0,0,2.15-.7,4.14-4.78-2.39,8.56,3.49,9,13.01,15-.25.09-14.05-7.65-18.11-6.18,0,0,21.07,9.03,28.49,13.76,2.5.92,11.76,13.32,21.07,13.76,5.6.69,5.46-5.52-.91-10.27-5.26-4.81-11.27-3.92-23.22-15.16,0,0-9.62-9.94-14.84-12.63,0,0-7.07-3.25-8.04-5.54h-1.59Z">
        <path class="st2" d="M97.68,301.85s.13,4.37-.53,5.56c0,0-2.18-7.68-4.9-8.67,0,0-11.85-11.78-16.62-11.78,0,0-5.77-1.6-14.5,4.5,0,0,2.38-4.97,12.18-5.43,0,0-1.26-2.78-9.53-1.66,0,0,6.02-3.18,9.86.46,0,0-.73-9.47-8.41-6.09,0,0-8.08,3.18-9.93,17.08,0,0,13.77,7.75,24.89,12.31,0,0-11.78-1.72-18.73-4.9,0,0,10.86,5.96,20.06,8.94,0,0,7.81,1.72,13.57-1.26,0,0,.93,3.51-7.48,3.44l5.47,2.67c.31.15.63.26.97.33,1.32.25,4.49.38,7.04-3.2.27-.38.46-.82.55-1.28.4-2.11,1.14-8.51-3.96-11.03h0Z">
        <path class="st2" d="M41.42,324.26s-1.79,5.85-8.11,1.5c0,0-4.88-4.62-9.03-1.47,0,0-1.48,3.75-12.13,5.01-1.31.15-2.13,2.37-.56,3.39,0,0,5.47.84,16.39.53l9.13-.12s6.03.12,6.03-2.99c0,0-.15-4.35-1.71-5.85h-.01Z">
        <path class="st2" d="M27.27,320.65s5.14.61,8.93,4.39c0,0,4.39.53,2.65-2.65,0,0-8.62-9.53-9.99-13.01,0,0-5-10.31-9.88-10.15-.19,0-.38.01-.57-.01-1.34-.15-7.32-.21-11.56,4.57,0,0,16.87,10.97,20.42,16.87h0Z">
        <path class="st2" d="M15.08,297.41s-8,2.41-9.85,5.15c0,0-1.05-2.05-.84-2.98,0,0,.76-2.73,9.37-2.73,0,0,.6-.08,1.33.56h-.01Z">
        <path class="st2" d="M13.79,295.34s-7.72-.28-10.98,2.37c0,0-6.32-8.42,0-13.59,0,0,5.09-4.49,16.73-4.22,0,0,15.04-.48,17.62,5.78,0,0,4.61,9.77,6.45,11.42,0,0,1.17,2.33-.87,1.37,0,0-3.69-1.77-4.91-2.81,0,0,3.44,3.44,8.58,6.03,0,0,1.63.68-.53.71,0,0-9.15-1.5-17.02-6.71,0,0-12.56-7.12-15.81-6.83,0,0,9.67,5.2,14.36,8.88,0,0,9.78,5.76,16.73,6.86,0,0-8.28,1.74-19.63-5.85,0,0-11.81-7.93-17.37-8.74,0,0,6.16,3.55,6.64,5.32h.01Z">
        <path class="st2" d="M68.81,274.42s-12.38,2.48-15.96,13.62c0,0-3.23,10.66,1.72,15.34h-.69s-16.43-15.06-19.61-38.47c0,0-1.87-17.12-.41-21.44,0,0,4.62-12.86,4.93-15.32,0,0-4.31,9.09-4.77,9.78l-.71-8.85s-1.29,4.16-1.98,5.39c0,0-.87-3.02-1.61-5.02-.46-1.23-.78-2.5-.95-3.81-.25-1.89-.54-4.27-.47-4.44,0,0,1.19-1.18,6.97,2.88,0,0,4.09.24,5.85,1.51,0,0,1.89,1.27,4.37,1.69,0,0-.16,8.58,3.16,12.73,0,0,3.14,7.94,12.75,4.98,0,0,5.39-2.19,7.35-6.88,0,0,4.08.34,6.56,2.03,0,0,2.44,1.39.38,2.4l-2.33,1.43s4.58-.53,6.75.26c0,0,3.11,1.73.34,1.95,0,0-9.75,1.1-13.39,6.2,0,0-4.27,9.36-7.28,9.73,0,0-3.9.52-7.85-1.2,0,0,1.35,1.4,4.79,2.34,0,0,2.5.73,3.48,1.72,0,0,4.11.73,8.69-1.98,0,0-2.18,3.69-7.23,5.2,0,0-8.43,3.33-10.45,4.58,0,0,10.35-1.82,12.38-2.03,0,0,4.05-.48,5.25,3.69h-.03Z">
        <path class="st2" d="M31.17,241.39s.23-5.51-.65-7.33c0,0-3.17-9.15-3.17-12.26,0,0-5.46,3.46-10.33.59,0,0,5.63.29,9.8-2.99,0,0-5.46.35-7.57-1.41,0,0,5.28.47,8.92-1.06l6.86-3.29s-5.1-2.64-5.93-3.05l7.63.76s-1.11-2.93-1.76-3.87c0,0-.41-2.52-.35-3.05,0,0-17.6,6.98-20.12,9.8,0,0-3.64,1.94-1.76,5.81,0,0,3.52,5.93,10.56,12.03,0,0,6.63,5.57,7.86,9.33h0Z">
        <path class="st2" d="M38.71,203.04s-.58,4.82,1.62,8.02c0,0-2.89.69-3.93-2.66,0,0-1.2-4.39,2.31-5.36Z">
        <path class="st2" d="M53.71,203.31c-5.66,2.26-3.02,5.34-6.59,8.21,0,0,.39-5.13.04-5.86-.46,2.67-.68,5.08-4.93,4.39-1.99-1-1.97-3.27-1.81-5.59.47-.76,9.39-5.33,13.3-1.16h-.01Z">
        <path class="st2" d="M49.43,220.72s5.47,5.86,6.95,13.09c0,0,.72,1.34,3.5,1.21,0,0,3.62,2.04,5.98,2.83,0,0-2.94,4.42-6.66,4.72,0,0-3.65.8-6.86-3.35,0,0-4.25-4.75-4.25-9.4,0,0-.3-4.17,1.34-9.1h0Z">
        <path class="st2" d="M51.85,220.06s3.44,2.92,3.41,6.04l2.94,4.97s-1.24-8.98-2.31-9.24c0,0-2.64-1.66-4.04-1.77h0Z">
        <path class="st2" d="M51.27,217.61c.08-4.77,1.35-8.69,6.59-12.69,4.29-1.72,7.88.72,13.32,5.29,0,0-11.17-2.11-13.21,7.82,0,0-.56,2.54-1.77,1.71-2.9-2.15,2.09-9.86,5.58-12.72,1.38-2.5-4.05-1-5.86,4.34-.28.16-2.77,9.66-4.64,6.24h0Z">
        <path class="st2" d="M68.81,255.51s4.68-6.41,10.04-8.07c.28-.09.57-.13.86-.14l5.03-.17c.68-.02,1.34.2,1.87.64.75.61,1.97,1.44,3.27,1.68,0,0,2.96.76,3.79,1.36,0,0,10.39,1.06,13.5,2.35,0,0,2.05.91,5.54,1.21,0,0-1.9,3.87-.61,6.9,0,0-3.41,1.21-6.98,1.52l-6.52.15s1.29-1.74,3.34-2.12c0,0,3.18-.53,4.32-1.97,0,0-6.67.61-7.96,1.52l-4.47,2.88s-.76-.99,2.88-6.67c0,0-6.14,4.85-7.13,5.38l-.68.15s.76-4.02,4.02-6.98c0,0-6.07,5.76-9.63,5.76l-6.9.08s-2.05-.99,3.94-2.96c0,0,3.49-1.44,6.52-5,0,0-9.33,4.7-13.72,4.93l-.53-.15s3.18-3.18,7.81-6.67c0,0-10.99,3.56-11.6,4.4h0Z">
        <path class="st2" d="M121.2,257.4s-1.97,4.21-1.75,7.21c0,0-6.59-2.42-5.91-6.5,0,0,.22-3.18,3.05-2.42l4.61,1.7h0Z">
        <path class="st2" d="M133.31,252.76c-6.12-1.92-18.16,15.41-7.98,18.48,0,0,11.27.46,12.19-11.73,0,0,.13-5.71-4.21-6.76h0Z">
        <path class="st2" d="M137.55,263.94l-1.16,2.12s58.01,29.97,73.31,59.56l-.29.28.65,1.21,1.23-.43-.55-1.46-.53.15s-16.11-32.21-72.66-61.42h0Z">
      </g>
      <path class="st2" d="M74.59,229.58c-.89,2.75-2.74,4.61-6.22,4.61-5.53,0-6.94-4.67-6.94-10.2s1.41-10.2,6.94-10.2c3.48,0,5.33,1.85,6.22,4.61h2.21c-1.07-4.01-3.59-6.74-8.43-6.74-6.86,0-9.07,5.48-9.07,12.33s2.22,12.33,9.07,12.33c4.83,0,7.36-2.73,8.43-6.74h-2.21,0Z">
    </g>
    <g>
      <path class="st0" d="M520.26,136.2s2.58,6.45,0,12.04c0,0,2.15-.7,4.14-4.78-2.39,8.56,3.49,9,13.01,15-.25.09-14.05-7.65-18.11-6.18,0,0,21.07,9.03,28.49,13.76,2.5.92,11.76,13.32,21.07,13.76,5.6.69,5.46-5.52-.91-10.27-5.26-4.81-11.27-3.92-23.22-15.16,0,0-9.62-9.94-14.84-12.63,0,0-7.07-3.25-8.04-5.54h-1.59Z">
      <path class="st0" d="M514.96,132.57s.13,4.37-.53,5.56c0,0-2.18-7.68-4.9-8.67,0,0-11.85-11.78-16.62-11.78,0,0-5.77-1.6-14.5,4.5,0,0,2.38-4.97,12.18-5.43,0,0-1.26-2.78-9.53-1.66,0,0,6.02-3.18,9.86.46,0,0-.73-9.47-8.41-6.09,0,0-8.08,3.18-9.93,17.08,0,0,13.77,7.75,24.89,12.31,0,0-11.78-1.72-18.73-4.9,0,0,10.86,5.96,20.06,8.94,0,0,7.81,1.72,13.57-1.26,0,0,.93,3.51-7.48,3.44l5.47,2.67c.31.15.63.26.97.33,1.32.25,4.49.38,7.04-3.2.27-.38.46-.82.55-1.28.4-2.11,1.14-8.51-3.96-11.03h0Z">
      <path class="st1" d="M458.69,154.98s-1.79,5.85-8.11,1.5c0,0-4.88-4.62-9.03-1.47,0,0-1.48,3.75-12.13,5.01-1.31.15-2.13,2.37-.56,3.39,0,0,5.47.84,16.39.53l9.13-.12s6.03.12,6.03-2.99c0,0-.15-4.35-1.71-5.85h-.01Z">
      <path class="st0" d="M444.55,151.38s5.14.61,8.93,4.39c0,0,4.39.53,2.65-2.65,0,0-8.62-9.53-9.99-13.01,0,0-5-10.31-9.88-10.15-.19,0-.38,0-.57,0-1.34-.15-7.32-.21-11.56,4.57,0,0,16.87,10.97,20.42,16.87h0Z">
      <path class="st0" d="M432.35,128.13s-8,2.41-9.85,5.15c0,0-1.05-2.05-.84-2.98,0,0,.76-2.73,9.37-2.73,0,0,.6-.08,1.33.56h-.01Z">
      <path class="st0" d="M431.06,126.06s-7.72-.28-10.98,2.37c0,0-6.32-8.42,0-13.59,0,0,5.09-4.49,16.73-4.22,0,0,15.04-.48,17.62,5.78,0,0,4.61,9.77,6.45,11.42,0,0,1.17,2.33-.87,1.37,0,0-3.69-1.77-4.91-2.81,0,0,3.44,3.44,8.58,6.03,0,0,1.63.68-.53.71,0,0-9.15-1.5-17.02-6.71,0,0-12.56-7.12-15.81-6.83,0,0,9.67,5.2,14.36,8.88,0,0,9.78,5.76,16.73,6.86,0,0-8.28,1.74-19.63-5.85,0,0-11.81-7.93-17.37-8.74,0,0,6.16,3.55,6.64,5.32h.01Z">
      <path class="st0" d="M486.08,105.14s-12.38,2.48-15.96,13.62c0,0-3.23,10.66,1.72,15.34h-.69s-16.43-15.06-19.61-38.47c0,0-1.87-17.12-.41-21.44,0,0,4.62-12.86,4.93-15.32,0,0-4.31,9.09-4.77,9.78l-.71-8.85s-1.29,4.16-1.98,5.39c0,0-.87-3.02-1.61-5.02-.46-1.23-.78-2.5-.95-3.81-.25-1.89-.54-4.27-.47-4.44,0,0,1.19-1.18,6.97,2.88,0,0,4.09.24,5.85,1.51,0,0,1.89,1.27,4.37,1.69,0,0-.16,8.58,3.16,12.73,0,0,3.14,7.94,12.75,4.98,0,0,5.39-2.19,7.35-6.88,0,0,4.08.34,6.56,2.03,0,0,2.44,1.39.38,2.4l-2.33,1.43s4.58-.53,6.75.26c0,0,3.11,1.73.34,1.95,0,0-9.75,1.1-13.39,6.2,0,0-4.27,9.36-7.28,9.73,0,0-3.9.52-7.85-1.2,0,0,1.35,1.4,4.79,2.34,0,0,2.5.73,3.48,1.72,0,0,4.11.73,8.69-1.98,0,0-2.18,3.69-7.23,5.2,0,0-8.43,3.33-10.45,4.58,0,0,10.35-1.82,12.38-2.03,0,0,4.05-.48,5.25,3.69h-.03Z">
      <path class="st0" d="M448.44,72.11s.23-5.51-.65-7.33c0,0-3.17-9.15-3.17-12.26,0,0-5.46,3.46-10.33.59,0,0,5.63.29,9.8-2.99,0,0-5.46.35-7.57-1.41,0,0,5.28.47,8.92-1.06l6.86-3.29s-5.1-2.64-5.93-3.05l7.63.76s-1.11-2.93-1.76-3.87c0,0-.41-2.52-.35-3.05,0,0-17.6,6.98-20.12,9.8,0,0-3.64,1.94-1.76,5.81,0,0,3.52,5.93,10.56,12.03,0,0,6.63,5.57,7.86,9.33h.01Z">
      <path class="st0" d="M455.98,33.77s-.58,4.82,1.62,8.02c0,0-2.89.69-3.93-2.66,0,0-1.2-4.39,2.31-5.36Z">
      <path class="st0" d="M470.98,34.04c-5.66,2.26-3.02,5.34-6.59,8.21,0,0,.39-5.13.04-5.86-.46,2.67-.68,5.08-4.93,4.39-1.99-1-1.97-3.27-1.81-5.59.47-.76,9.39-5.33,13.3-1.16h0Z">
      <path class="st0" d="M466.7,51.44s5.47,5.86,6.95,13.09c0,0,.72,1.34,3.5,1.21,0,0,3.62,2.04,5.98,2.83,0,0-2.94,4.42-6.66,4.72,0,0-3.65.8-6.86-3.35,0,0-4.25-4.75-4.25-9.4,0,0-.3-4.17,1.34-9.1h0Z">
      <path class="st0" d="M469.12,50.78s3.44,2.92,3.41,6.04l2.94,4.97s-1.24-8.98-2.31-9.24c0,0-2.64-1.66-4.04-1.77Z">
      <path class="st2" d="M488.76,40.57c-5.31-4.46-9.15-7.24-13.81-5.37l-.11.06c-5.84,4.45-6.71,8.91-6.78,13.07v.13l.06.11c.38.7.87,1.04,1.4.99,1.44-.12,2.6-3.1,3.66-6.14.14-.39.28-.79.35-.97l.1-.2c.92-2.72,2.92-4.53,4.39-5.06.36-.13.59-.14.69-.14h.06s.02.11-.12.4c-2.75,2.29-6.63,7.71-6.55,11.14.02,1,.38,1.76,1.08,2.28.28.19.53.26.75.26.16,0,.3-.04.41-.08.92-.36,1.29-1.88,1.36-2.18,1.93-9.35,12.21-7.53,12.65-7.45l1.8.34-1.41-1.18h.02Z">
      <path class="st0" d="M486.08,86.24s4.68-6.41,10.04-8.07c.28-.09.57-.13.86-.14l5.03-.17c.68-.02,1.34.2,1.87.64.75.61,1.97,1.44,3.27,1.68,0,0,2.96.76,3.79,1.36,0,0,10.39,1.06,13.5,2.35,0,0,2.05.91,5.54,1.21,0,0-1.9,3.87-.61,6.9,0,0-3.41,1.21-6.98,1.52l-6.52.15s1.29-1.74,3.34-2.12c0,0,3.18-.53,4.32-1.97,0,0-6.67.61-7.96,1.52l-4.47,2.88s-.76-.99,2.88-6.67c0,0-6.14,4.85-7.13,5.38l-.68.15s.76-4.02,4.02-6.98c0,0-6.07,5.76-9.63,5.76l-6.9.08s-2.05-.99,3.94-2.96c0,0,3.49-1.44,6.52-5,0,0-9.33,4.7-13.72,4.93l-.53-.15s3.18-3.18,7.81-6.67c0,0-10.99,3.56-11.6,4.4h0Z">
      <path class="st0" d="M538.47,88.13s-1.97,4.21-1.75,7.21c0,0-6.59-2.42-5.91-6.5,0,0,.22-3.18,3.05-2.42l4.61,1.7h0Z">
      <path class="st0" d="M550.58,83.48c-6.12-1.92-18.16,15.41-7.98,18.48,0,0,11.27.46,12.19-11.73,0,0,.13-5.71-4.21-6.76h0Z">
      <path class="st0" d="M554.82,94.67l-1.16,2.12s58.01,29.97,73.31,59.56l-.29.28.65,1.21,1.23-.43-.55-1.46-.53.15s-16.11-32.21-72.66-61.42h0Z">
      <path class="st2" d="M491.86,60.31c-.89,2.75-2.74,4.61-6.22,4.61-5.53,0-6.94-4.67-6.94-10.2s1.41-10.2,6.94-10.2c3.48,0,5.33,1.85,6.22,4.61h2.21c-1.07-4.01-3.59-6.74-8.43-6.74-6.86,0-9.07,5.48-9.07,12.33s2.22,12.33,9.07,12.33c4.83,0,7.36-2.73,8.43-6.74h-2.21Z">
    </g>
    <path class="st2" d="M225.17,467.99l-.64-.57c-.87-.77-1.63-.69-1.65-.68-8.72,0-9.74,2.77-9.84,3.11-.23,1.04.7,2.93.89,3.3l.37.73.46-.68c1.73-2.56,9.51-4.93,9.59-4.96l.83-.25h0Z">
    <g>
      <path class="st2" d="M360.12,508.82c-2.12-1.94-4.37-2.98-6.97-4.19-4.03-1.87-9.04-4.19-16.23-10.95-.39-.41-9.74-10.03-14.98-12.73-1.92-.88-7.06-3.56-7.79-5.29l-.12-.29h-2.61l.26.66c.03.06,2.47,6.33,0,11.66l-.46,1,1.05-.34c.07-.02,1.45-.49,3.01-2.65-.29,3.65,1.5,5.61,4.52,7.52-3.7-1.48-7.03-2.39-8.82-1.74l-1.15.41,1.12.48c.21.09,21.12,9.07,28.42,13.72l.09.05c.64.24,2.03,1.56,3.63,3.1,4.31,4.13,10.83,10.38,17.55,10.69.3.04.59.05.86.05,1.71,0,2.96-.7,3.47-1.98,1.01-2.52-1-6.3-4.86-9.17h.01Z">
      <path class="st2" d="M311.25,483.34c.39-2.03,1.22-8.86-4.22-11.56l-.72-.36.02.8c.03,1.03,0,2.55-.12,3.74-.82-2.37-2.48-6.41-4.56-7.28-1.08-1.07-13.5-12.19-18.29-12.28-.2-.05,0,0,0,0l-.1-1.25c-.02-.2-.4-4.82-3.36-6.59-1.54-.92-3.46-.89-5.71.09-.34.13-8.36,3.44-10.23,17.46l-.04.32.28.16c.12.07,11.01,6.18,21.16,10.71-4.05-.78-10.28-2.19-14.57-4.16l-.43.86c.11.06,11,6.01,20.19,8.99.31.07,7.4,1.58,13.13-.94-.06.15-.14.32-.28.49-.63.78-2.26,1.72-6.65,1.68l-2.12-.02,7.38,3.6c.36.18.73.3,1.09.37.32.06.75.12,1.27.12,1.67,0,4.17-.59,6.26-3.51.31-.44.53-.94.62-1.47v.03Z">
      <path class="st2" d="M250.34,493.79c-3.89,10.24-9.58-5.08-17.34.69-.01.04-1.62,3.54-11.76,4.74-.82.1-1.54.81-1.75,1.75-1.23,4.58,10.73,2.71,17.64,3.08,3.38-.65,14.91,1.84,15.6-3.58.03-.3-.32-5.42-2.38-6.67h0Z">
      <path class="st2" d="M235.99,491.27l.12.2c.45,0,5.22.69,8.99,4.4,10.62.4-4.88-10.51-6.68-16.33-.22-.51-5.54-11.12-10.84-10.43-.08-.14-8.12-.43-12.34,5.14.91.6,16.69,10.81,20.74,17.02h.01Z">
      <path class="st2" d="M257.23,471.64c-2.09-1.84-8.43-12.71-10.49-15.77-7.02-10.44-50.56-8.16-34.88,12.9,3.17-2.98,11.26-2.56,11.7-2.56-.26-1.68-2.01-2.91-4.08-4.39,15.19,7.05,24.11,16.77,36.46,13.09-15.25-2.46-20.48-9.16-30.59-14.47,3.91,1.43,9.83,4.58,12.38,6.02,7.99,5.29,23.23,8.92,19.51,5.17h-.01Z">
      <path class="st2" d="M262.44,458.55c3.45-10.73,15.47-13.27,15.59-13.29l.51-.1c-2.81-7.83-8.66-3.41-14.99-3.08,7.68-3.07,14.14-5.39,15.81-10.1-2.85,2.38-9.3,3.38-9.84,2.89-1.93-1.45-3.35-1.58-4.53-2.01,6.6,2.22,10.17-7,12.41-9.36,8.84-9.32,13.91-6.98,13.77-7.32-1.07-2.52-4.51-2.52-6.77-2.47,6.05-3.21-6.37-6.13-6.51-5.71l-.35-.03c-6.91,12.16-17.11,6.17-19.34,2.23-3.65-6.44-3.16-12.46-3.13-12.54v-.42c-4.62-1.04-7.19-3.5-10.54-3.26-5.76-3.9-7.08-3.24-7.59-2.57v-.1c-1.14.57-3.7,2.79-8.63,1.85,2.39-.11,6.61-1.55,9.13-3.96-2,.06-2.96.42-6.7-.28,4.08.54,10.81-3.06,14.48-4.87-1.2-.62-1.92-.99-4.52-2.33l5.87.59c-.26-.68-.27-.73-.65-1.66,1.41,1.57,2.87,1.5,4.3,1.12-2.54-3.11-1.98-8.33-1.85-8.98-3.09.4-3.95,3.54-3.46,5.58-.8-1.5-.72-3.26-.62-4.29-2.16,1.7-27.57,8.33-22.86,16.59.04.06,3.64,6.06,10.66,12.15.71.25,8.35,7.64,8.54,11.63.05-2.87.41-4.35-.15-8.74.65-1.07,1.07-2.22,1.63-3.83l.63,7.85c1.18-1.67,1.53-2.62,3.16-5.94-12.75,27.01,7.03,63.23,16.89,70.46h2.09c-5.57-3.55-2.72-15.55-2.47-15.67l.03-.03ZM237.07,393.33c-.04-.3-.07-.57-.09-.81.02.22.05.49.09.81Z">
      <path class="st2" d="M251.52,380.4l.14.05c2.72.44,3.97-.33,4.64-1.57-.03.81-.08,1.69-.14,2.52l-.08,1.11.87-.7c1.62-1.31,2.07-2.69,2.45-3.91.51-1.62.96-3.01,4.02-4.23l.65-.26-.48-.51c-1.38-1.47-3.43-2.09-6.08-1.83-3.67.36-7.54,2.36-7.98,3.06l-.06.1v.12c-.14,1.93-.35,4.83,2.07,6.05h-.02Z">
      <path class="st2" d="M288.49,417.94c-5.45,1.69-10.08,7.97-10.29,8.24h0l.76.58c.43-.43,4.43-1.91,8.74-3.37-4.21,3.46-5.18,4.55-6.25,5.58,3.71,1.22,9.2-1.97,12.92-3.4-2.31,2.05-4.41,2.93-4.41,2.94-4.51,1.64-5.55,2.4-3.9,3.9,4.49.03,9.78.45,13.55-3.13-1.37,2.72-1.27,3.21-1.54,4.41,2.29-.27,3.74-2.08,6.65-4.17-2.08,4.04-1.91,4.39-1.23,5.32,3.43-2.31,5.77-4.13,10.81-4.37-3.18.94-5.89,1.81-6.9,3.93,3.39.26,13.6-.71,15.11-1.89-1.59-3.15.38-6.92.7-7.6-2.87-.13-6.16-1.17-6.09-1.24-5.67-1.86-13.57-1.95-17.39-3.75-2.16-.3-3.14-2.39-5.25-2.32-.67.08-5.46.06-6.02.33h.03Z">
      <path class="st2" d="M329.07,436.03l.7.26-.06-.75c-.21-2.84,1.68-6.93,1.7-6.97l.22-.47-5.15-1.9c-.93-.25-1.73-.15-2.37.3-1.15.82-1.28,2.48-1.28,2.5-.73,4.42,5.94,6.92,6.22,7.03h.02Z">
      <path class="st2" d="M420.82,495.59l-.58.17c-1.98-3.61-19.8-33.96-72.68-61.28l-.42-.22-.09.16c.37-1.15.63-2.45.74-3.93,0-.06.08-6.1-4.56-7.23-1.86-.57-4.34.4-6.8,2.67-3.39,3.14-6.49,8.64-5.57,12.65.46,2,1.88,3.41,4.12,4.09l.12.02h.18c1.16,0,7.14-.26,10.41-5.37l.26.13c.58.3,57.62,30.02,72.93,59.03l-.3.28,1.03,1.89,2.09-.72-.89-2.34h0Z">
      <path class="st2" d="M283.98,400.15c-.89,2.75-2.74,4.61-6.22,4.61-5.53,0-6.94-4.67-6.94-10.2s1.41-10.2,6.94-10.2c3.48,0,5.33,1.85,6.22,4.61h2.21c-1.07-4.01-3.59-6.74-8.43-6.74-6.86,0-9.07,5.48-9.07,12.33s2.22,12.33,9.07,12.33c4.83,0,7.36-2.73,8.43-6.74h-2.21Z">
      <path class="st2" d="M280.62,380.21c-5.31-4.46-9.15-7.24-13.81-5.37l-.11.06c-5.84,4.45-10.15,17.69-10.21,21.84h.01c-.93,12.55,10.78,22.91,18.29,12.77.08.04.09.04.02-.02.11-.14.21-.3.31-.45h.02l.58-.93s-4.45-.44-7.03-5.16c-2.29-4.78-1.91-10.32-1.13-14.47,1.77-9.38,12.21-7.53,12.65-7.45l1.8.34-1.41-1.18.02.02Z">
    </g>
    <g>
      <path class="st2" d="M549.13,267.28c-6.12-1.92-18.16,15.41-7.98,18.48,0,0,11.27.46,12.19-11.73,0,0,.13-5.71-4.21-6.76h0Z">
      <path class="st2" d="M551.55,278.73l-1.16,2.12s58.01,29.97,73.31,59.56l-.29.28.65,1.21,1.23-.43-.55-1.46-.53.15s-16.11-32.21-72.66-61.42h0Z">
      <path class="st2" d="M560.24,347.2s-14.01-7.36-19.34-14.48-16.87-12.16-16.87-12.16l-8.95-5.75-16.1-12.18s-2.44-2.63-5.95-2.72c0,0-2.24-5.31-3.47-6.68s-6.18-11.83-3.31-17.29c2.87-5.46,7.52-2.01,7.52-2.01,0,0,18.98,3.29,25.63,2.27,6.66-1.02,12.2-2.33,12.2-2.33,0,0,4.67,4.45,6.98,4.77,0,0,1.83-6.87,3.27-7.52,1.44-.64-10.63-3.66-11.76-3.79s-18.3-4.47-21.95-4.69-10.66-5.46-10.66-5.46c0,0-3.85-4.29-6.8-5.09-2.96-.8-4.56-1.03-4.56-1.03v-.06c-.33.03-.66.06-1.01.06-6.68.05-11.08-5.8-11.02-13.84.07-9.68,4.44-14.93,11.03-14.69,1.78.07,3.42.46,4.86,1.18-1.43-1.28-7.92-6.91-11.51-6.88-4.05.03-6.35,3.2-6.35,3.2,0,0-5.63,6.95-6.84,17.55l-.21,2.19s-2.57.54-6.41-1.69c0,0-12.68-5.77-14.45-5.75s4.8-3.76,4.8-3.76l8.71-4.57,6.78.46s2.59-2.12,2.59-4.55,4-3.66,4-3.66c0,0-1.08-2.65-8.22-1.19l-6.78.92-8.56,3.22-11.77,5.26-4.89,3.48s-1.83,1.51-1.29,3.27c.54,1.76,2.16,4.9,5.81,8.61,3.66,3.72,9.39,9.1,9.39,9.1,0,0,3.73,3.76,4.05,6.08.32,2.31,1.87,9.58,1.87,9.58,0,0,.22,20.14,5.93,30.47,0,0-23.24-6.55-36.44,2,0,0-4.49,2.72-2.36,8.77,2.13,6.06,5.34,9.97,10.28,13.52,4.95,3.56,16.43,12.51,16.54,14.24s-.34,2.56-.34,2.56c0,0-1.46.57-2.65,1.07s-3.29,4.5-12.13,5.01c0,0-3.17,1.36-.56,3.39s26.42.08,28.11.17c1.69.09,3.6-1.01,3.43-2.75-.17-1.73-1.71-5.85-1.71-5.85,0,0-9.11-8.58-11.62-13.12-2.5-4.55-6.28-10.95-8.84-11.43,0,0-1.07-3.66-1.82-4.27,1.07.74,10.77,6.97,14.62,7.94,4.22,1.06,16.19,1.81,20.8,0s21.22,6.68,21.22,6.68l18.28,7.31,36.45,17.94s19.26,18.68,24.33,12.97-11.99-14.04-11.99-14.04v.04Z">
      <path class="st2" d="M491.34,242.35c-.89,2.75-2.74,4.61-6.22,4.61-5.53,0-6.94-4.67-6.94-10.2s1.41-10.2,6.94-10.2c3.48,0,5.33,1.85,6.22,4.61h2.21c-1.07-4.01-3.59-6.74-8.43-6.74-6.86,0-9.07,5.48-9.07,12.33s2.22,12.33,9.07,12.33c4.83,0,7.36-2.73,8.43-6.74h-2.21Z">
    </g>
    <g>
      <path class="st2" d="M151.72,508.86c-8.32-6.29-12.83-5.09-23.22-15.15l-.04.04c-1.27-1.88-12.88-12.24-14.92-12.76-2.05-.99-9.46-4.76-9.46-4.76.3.17,1.88,7.52-1.26,12.5,1.59-.64,1.65-.08,4.06-2.99-.29,3.66,1.5,5.61,4.52,7.52-4.51-1.72-7.21-2.62-9.97-1.33,2.16,1.35,26.08,10.15,33.26,17.35,4.31,4.13,10.83,10.37,17.55,10.69,7.28.41,4.96-7.37-.53-11.1h.01Z">
      <path class="st2" d="M41.74,493.9c-3.89,10.24-9.57-5.08-17.34.69,0,.04-1.62,3.54-11.76,4.74-1.96.21-2.54,3.51-.58,4.29,1.52.63,20.5.64,25.57.42.36.16,6.89-.34,6.49-3.46.03-.3-.32-5.42-2.38-6.67h0Z">
      <path class="st2" d="M27.46,491.12l.12.2c.45,0,5.22.69,8.99,4.4,10.62.4-4.88-10.51-6.68-16.33-.22-.51-5.52-11.14-10.84-10.43-.09-.15-8.12-.43-12.34,5.14.91.6,16.69,10.81,20.74,17.02h0Z">
      <path class="st2" d="M16.64,467.83c-.42-.61-2.25-1.53-2.29-1.26-11.34.6-10.76,2.74-8.58,7.14,1.76-3.39,10.16-5.6,10.87-5.88Z">
      <path class="st2" d="M48.97,472.06c-2.46-1.56-9.5-13.67-10.76-16.35-6.04-11.08-50.56-8.13-34.88,12.9,3.17-2.98,10.68-2.86,11.11-2.86-.26-1.68-1.43-2.61-3.5-4.09,15.2,7.05,24.11,16.77,36.46,13.09-15.25-2.46-20.48-9.16-30.59-14.47,3.91,1.43,9.83,4.58,12.38,6.02,7.99,5.29,23.5,9.5,19.78,5.75h0Z">
      <path class="st2" d="M42.47,380.7c2.64.56,4.16-.28,4.78-1.52-.04,1.16-.14,2.46-.23,3.63,4.53-2.87,2.02-7.34,7.99-9.1-2.39-4.53-13.12-1.3-14.54.72-.3,1.96-.43,5.01,2,6.27h0Z">
      <path class="st2" d="M49.7,390.01c-6.67,15.4,8.56,32.04,17.38,17.8-2.3-.67-6.4-2.92-6.62-3.06-2,.18-3.1-.71-3.16-.91-2.29-7.81-6.69-12.72-7.6-13.83Z">
      <path class="st2" d="M58.7,403.26c.29-8.18-.53-12.93-8.2-13.91,2.74.35,8.2,13.91,8.2,13.91Z">
      <path class="st2" d="M51.26,387.94c3.75,4.23.77-9.79,10.73-11.41-3.41.56-10.32,13.15-4.44,14,.97.14,1.29-1.88,1.36-2.18,2.87-10.32,12.24-7.29,14.46-7.11-12.21-12.46-22.48-5.99-22.11,6.7h0Z">
      <path class="st2" d="M120.35,435.09l.7.26c-.51-3.05,1.61-7.73,1.87-8.19-1.57-.34-6.04-3-7.52-1.59-4.76,4.43,3.84,9.56,4.95,9.53h0Z">
      <path class="st2" d="M212.09,495.69l-.58.17c-1.67-3.38-20.63-34.68-73.1-61.5l-.11.2c2.82-5.62-.71-14.47-10.6-8.54-10.21,6.12-3.97,25.22,9.24,11.38,1.03.56,57.58,29.88,73.21,59.17l-.29.28,1.03,1.89,2.09-.72-.89-2.34h0Z">
      <path class="st2" d="M75.03,399.87c-.89,2.75-2.74,4.61-6.22,4.61-5.53,0-6.94-4.67-6.94-10.2s1.41-10.2,6.94-10.2c3.48,0,5.33,1.85,6.22,4.61h2.21c-1.07-4.01-3.59-6.74-8.43-6.74-6.86,0-9.07,5.48-9.07,12.33s2.22,12.33,9.07,12.33c4.83,0,7.36-2.73,8.43-6.74h-2.21,0Z">
      <path class="st2" d="M97.65,471.28c.05,1.4.07,3.01-.09,4.54-.76-5.41-15.34-19-22.87-19.31h0v-.25c-.76-14.08-16.43-10.73-19.43,10.04.67.37,10.86,6.11,21.45,10.87-4.05-.78-15-3.3-15-3.3,3.65,1.21,20.94,13.68,33.32,8.05-.22,1.8-3.96,3.18-7.55,2.94,5.35,2.7,11.48,7.02,15.11-1.67.59-2.13.88-9.82-4.94-11.91h0Z">
      <path class="st2" d="M113.92,424.17c-2.87-.13-6.16-1.17-6.09-1.24-5.67-1.86-13.57-1.95-17.39-3.75-2.16-.3-3.14-2.4-5.25-2.32-.47-.09-1.89-.13-3.64-.07,1.63-.37.85-2.13-.83-2.81-1.32-.48-3.42-.5-4.98-.44,6.05-3.21-6.37-6.13-6.51-5.71l-.35-.03c-5.64,11.76-16.34,6.96-19.34,2.23-3.29-5.18-3.25-12.74-3.25-12.74-4.62-1.03-7.06-3.72-10.41-3.48-5.76-3.91-7.08-3.24-7.59-2.58v-.1c-1.14.57-3.7,2.8-8.63,1.85,2.39-.11,6.61-1.55,9.13-3.96-2,.06-2.95.42-6.7-.28,4.08.54,10.81-3.06,14.48-4.87-1.2-.62-1.92-.99-4.52-2.33l5.87.59c-.26-.68-.27-.73-.65-1.66,1.41,1.57,2.87,1.5,4.3,1.12-2.54-3.11-1.98-8.33-1.85-8.98-3.08.4-3.94,3.54-3.46,5.58-.8-1.5-.72-3.25-.62-4.29-2.16,1.7-27.57,8.33-22.86,16.59.04.06,3.64,6.06,10.66,12.15.71.25,8.35,7.63,8.54,11.63.05-2.87.41-4.35-.15-8.74.65-1.07,1.07-2.22,1.63-3.83l-.03,6.68c1.18-1.67,2.19-1.44,3.82-4.77-12.74,27.01,7.03,63.22,16.89,70.46h2.09c-5.57-3.54-2.72-15.55-2.47-15.67,6.15-15.02,16.11-13.4,16.11-13.4-2.81-7.83-8.66-3.41-14.99-3.08,7.68-3.07,14.14-5.39,15.81-10.09-2.85,2.38-7.95,3.17-9.84,2.89-3.35-.47-3.31-1.71-4.53-2.01,11.55,2.9,11.92-10.4,14.24-12.31-1,2.39-.93,5.64-.93,5.64,2.83-1.42,4.43-1.91,8.74-3.37-4.21,3.46-5.18,4.55-6.25,5.58,3.71,1.22,9.2-1.97,12.92-3.4-2.68,2-4.41,2.93-4.41,2.94-2.53,1.13-5.55,2.4-3.9,3.9,1.69,1.38,9.78.45,13.55-3.13-1.36,2.72-1.27,3.21-1.54,4.41,2.29-.27,3.74-2.08,6.65-4.17-2.08,4.04-1.91,4.39-1.23,5.32,3.43-2.31,5.77-4.13,10.81-4.37-3.18.94-5.89,1.81-6.89,3.93,3.39.26,13.6-.71,15.11-1.89-1.59-3.15.38-6.92.7-7.6l.03-.02Z">
    </g>
    <g>
      <path class="st0" d="M102.31,135.79s2.58,6.44,0,12.02c0,0,2.15-.7,4.13-4.78,0,0-2.31,7.08,3.76,9.82,0,0,5.37,2.42,9.23,5.15,0,0-13.42-6.87-17.44-6.44l-.64.27s21.04,9.02,28.45,13.74c0,0,6.49,5.42,11.97,10.25,0,0,4.62,3.49,9.07,3.49,0,0,4.78.48,4.08-3.43,0,0-1.34-4.51-4.99-6.82,0,0-3.27-2.9-9.82-5.53,0,0-5.47-2.15-13.36-9.61,0,0-9.61-9.93-14.81-12.61,0,0-7.73-3.25-8.69-5.53h-.94Z">
      <path class="st0" d="M97.54,132.37s.13,4.36-.53,5.55c0,0-2.18-7.67-4.89-8.66,0,0-11.83-11.77-16.59-11.77,0,0-5.77-1.6-14.48,4.49,0,0,2.38-4.96,12.16-5.42,0,0-1.26-2.78-9.52-1.65,0,0,6.02-3.17,9.85.46,0,0-.73-9.45-8.39-6.08,0,0-8.06,3.17-9.92,17.05,0,0,13.75,7.73,24.85,12.29,0,0-11.77-1.72-18.71-4.89,0,0,10.84,5.95,20.03,8.92,0,0,7.8,1.72,13.55-1.26,0,0,.93,3.5-7.47,3.44l5.46,2.67c.31.15.63.26.96.33,1.31.25,4.49.38,7.03-3.2.27-.38.46-.82.54-1.28.4-2.1,1.14-8.49-3.96-11.02l.03.03Z">
      <path class="st0" d="M41.81,154.32s-1.81,6.5-8.23,1.66c0,0-4.76-3.78-9.82-.98,0,0-5.21,2.27-9.21-.3,0,0-2.57-.45-1.51,1.17,0,0,4.76,4.49,15.33,5.93,0,0,3.1.3,9.06,2.34,0,0,6.27,1.13,6.12-3.32,0,0-.15-4.83-1.74-6.5h0Z">
      <path class="st0" d="M27.23,151.14s5.14.6,8.91,4.38c0,0,4.38.53,2.64-2.64,0,0-8.61-9.52-9.97-12.99,0,0-4.99-10.29-9.87-10.14-.19,0-.38,0-.57,0-1.34-.15-7.31-.21-11.54,4.56,0,0,16.84,10.95,20.39,16.84h0Z">
      <path class="st0" d="M15.57,128.19s-7.99,2.41-9.84,5.14c0,0-1.04-2.05-.84-2.97,0,0,.76-2.73,9.35-2.73,0,0,.6-.08,1.32.56h.01Z">
      <path class="st0" d="M13.77,125.87s-7.71-.28-10.96,2.37c0,0-6.31-8.41,0-13.57,0,0,5.09-4.48,16.7-4.21,0,0,15.01-.48,17.6,5.77,0,0,4.6,9.76,6.44,11.4,0,0,1.17,2.32-.87,1.37,0,0-3.68-1.77-4.9-2.8,0,0,3.44,3.44,8.57,6.02,0,0,1.63.68-.53.71,0,0-9.14-1.5-17-6.7,0,0-12.55-7.11-15.78-6.82,0,0,9.65,5.2,14.34,8.87,0,0,9.77,5.75,16.71,6.85,0,0-8.27,1.73-19.6-5.84,0,0-11.79-7.92-17.34-8.73,0,0,6.15,3.54,6.63,5.31h0Z">
      <path class="st0" d="M68.7,104.98s-12.36,2.47-15.93,13.6c0,0-3.23,10.64,1.72,15.31h-.69s-16.41-15.04-19.58-38.42c0,0-1.87-17.1-.41-21.4,0,0,4.61-12.84,4.92-15.3,0,0-4.31,9.07-4.77,9.76l-.71-8.84s-1.29,4.15-1.98,5.38c0,0-.87-3.02-1.61-5.01-.46-1.23-.77-2.5-.94-3.8-.25-1.89-.54-4.27-.47-4.43,0,0,1.19-1.18,6.96,2.87,0,0,4.09.24,5.84,1.51,0,0,1.89,1.27,4.36,1.68,0,0-.16,8.57,3.16,12.71,0,0,3.14,7.93,12.73,4.97,0,0,5.39-2.19,7.34-6.87,0,0,4.08.34,6.55,2.03,0,0,2.43,1.39.37,2.4l-2.32,1.42s4.57-.52,6.74.26c0,0,3.11,1.72.34,1.95,0,0-9.73,1.1-13.37,6.19,0,0-4.26,9.35-7.27,9.71,0,0-3.9.52-7.84-1.19,0,0,1.35,1.4,4.78,2.34,0,0,2.49.73,3.48,1.71,0,0,4.1.73,8.67-1.97,0,0-2.18,3.69-7.22,5.19,0,0-8.41,3.32-10.44,4.57,0,0,10.33-1.82,12.36-2.03,0,0,4.04-.48,5.24,3.68v.02Z">
      <path class="st0" d="M30.92,72.13s.23-5.51-.64-7.32c0,0-3.16-9.14-3.16-12.24,0,0-5.45,3.46-10.31.59,0,0,5.62.29,9.78-2.99,0,0-5.45.35-7.56-1.41,0,0,5.27.47,8.9-1.05l6.85-3.28s-5.1-2.64-5.92-3.05l7.62.76s-1.11-2.93-1.76-3.87c0,0-.41-2.52-.35-3.05,0,0-17.57,6.97-20.09,9.78,0,0-3.63,1.93-1.76,5.8,0,0,3.51,5.92,10.54,12.01,0,0,6.62,5.57,7.85,9.31h0Z">
      <path class="st0" d="M38.65,33.71s-.58,4.81,1.62,8.01c0,0-2.89.69-3.93-2.66,0,0-1.19-4.39,2.31-5.35Z">
      <path class="st0" d="M53.62,33.98s-3.54,1.27-4.5,4.66c0,0-.23,2.66-2.08,3.54,0,0,.38-5.12.04-5.85,0,0-.54,3.96-1.85,4.27,0,0-2.73.31-3.08.12,0,0-1.66-1.08-1.85-2.39l.04-3.19s3.08-2.58,7.85-2.81c0,0,3.89-.35,5.43,1.66h0Z">
      <path class="st0" d="M49.35,51.36s6.48,5.05,7.95,12.26l-4.01-2.81s4.88,5.85,7.85,7.72c0,0-1.04,1.07-3.84-1.27,0,0,.63,2.67,3.41,2.54,0,0,2.14.03,3.31-.47,0,0-1.2,3.54-4.91,3.84,0,0-3.64.8-6.85-3.34,0,0-4.24-4.74-4.24-9.39,0,0-.3-4.16,1.34-9.09h0Z">
      <path class="st0" d="M51.48,49.82s3.3,3.34,3.28,6.45l1.5,2.49s1.09-6.06-.75-7.18c0,0-2.64-1.66-4.03-1.77h0Z">
      <path class="st0" d="M51.19,48.25c.02-1.76.3-6,2.35-8.13,0,0,1.83-3.11,4.23-4.54.63-.38,1.35-.59,2.09-.61.68-.02,1.61.05,2.57.44.13.05.25.1.39.14.56.15,2.16.6,2.38.75,0,0,1.57.51,1.59,1.16,0,0-2.73-.07-4.14,1.92,0,0-3.99,5.3-4.77,9.3,0,0-.56,2.54-1.77,1.7,0,0-1.42-.9-.87-2.63,0,0,1.92-5.51,3.65-7.18,0,0,1.46-1.89,2.79-2.88,0,0,1.24-1.24-.99-1.15,0,0-3.16.99-4.86,5.48,0,0-1.55,4.06-2.04,5.14,0,0-.54,1.35-1.53,1.8-.5.23-1.07-.16-1.07-.71h0Z">
      <path class="st0" d="M68.7,86.1s4.67-6.4,10.03-8.06c.28-.09.57-.13.86-.14l5.03-.17c.68-.02,1.34.2,1.87.63.74.61,1.96,1.44,3.27,1.67,0,0,2.95.76,3.79,1.36,0,0,10.37,1.06,13.48,2.35,0,0,2.04.91,5.53,1.21,0,0-1.89,3.86-.61,6.89,0,0-3.41,1.21-6.97,1.51l-6.51.15s1.29-1.74,3.33-2.12c0,0,3.18-.53,4.32-1.97,0,0-6.66.61-7.95,1.51l-4.47,2.88s-.76-.98,2.88-6.66c0,0-6.13,4.85-7.12,5.38l-.68.15s.76-4.01,4.01-6.97c0,0-6.06,5.75-9.62,5.75l-6.89.08s-2.04-.98,3.94-2.95c0,0,3.48-1.44,6.51-5,0,0-9.31,4.69-13.7,4.92l-.53-.15s3.18-3.18,7.8-6.66c0,0-10.98,3.56-11.58,4.39l-.02.02Z">
      <path class="st0" d="M120.76,87.99s-1.97,4.2-1.74,7.2c0,0-6.58-2.42-5.9-6.49,0,0,.22-3.18,3.04-2.42l4.61,1.7h0Z">
      <path class="st0" d="M132.65,83.35c-1.63-.39-3.35.08-4.63,1.16-2.64,2.22-7.88,7.39-7.12,12.87,0,0,.46,4.43,3.78,4.43,0,0,11.25.46,12.17-11.71,0,0,.13-5.7-4.21-6.75h.01Z">
      <path class="st0" d="M137.08,94.52l-1.15,2.12s57.92,29.93,73.2,59.47l-.29.27.65,1.21,1.23-.43-.55-1.46-.53.15s-16.09-32.16-72.55-61.33h-.01Z">
      <path class="st0" d="M71.75,38.82s-3.25-2.06-5.97-.04c0,0-8.5,7.09-7.59,17.46,0,0-.65,6.85,4.41,9.83,0,0,2.71,1.25,6.62-1.39,0,0,6.76-5.06,7.74-11.39,0,0,.9-5.13-.07-8.17,0,0-2.02-4.84-4.37-5.78,0,0-1.63-.33-.36.94,0,0,8.24,7.16.98,18.08,0,0-4.23,6.54-9,7.16,0,0-2.71-.29-3.33-4.05,0,0-.58-10.2,1.63-13.74,0,0,2.06-5.82,6.15-8.1,0,0,1.59-.33,2.6-.11l.58-.7h-.02Z">
    </g>
    <g>
      <g>
        <path class="st0" d="M310.94,135.95s2.58,6.45,0,12.04c0,0,2.15-.7,4.14-4.78,0,0-2.31,7.1,3.76,9.84,0,0,5.38,2.42,9.25,5.16,0,0-13.44-6.88-17.47-6.45l-.65.27s21.07,9.03,28.49,13.76c0,0,6.5,5.43,11.99,10.27,0,0,4.62,3.49,9.08,3.49,0,0,4.78.48,4.09-3.44,0,0-1.34-4.52-5-6.83,0,0-3.28-2.9-9.84-5.54,0,0-5.48-2.15-13.38-9.62,0,0-9.62-9.94-14.84-12.63,0,0-7.74-3.25-8.71-5.54h-.91Z">
        <path class="st0" d="M306.16,132.52s.13,4.37-.53,5.56c0,0-2.18-7.68-4.9-8.67,0,0-11.85-11.78-16.62-11.78,0,0-5.77-1.6-14.5,4.5,0,0,2.38-4.97,12.18-5.43,0,0-1.26-2.78-9.53-1.66,0,0,6.02-3.18,9.86.46,0,0-.73-9.47-8.41-6.09,0,0-8.08,3.18-9.93,17.08,0,0,13.77,7.75,24.89,12.31,0,0-11.78-1.72-18.73-4.9,0,0,10.86,5.96,20.06,8.94,0,0,7.81,1.72,13.57-1.26,0,0,.93,3.51-7.48,3.44l5.47,2.67c.31.15.63.26.97.33,1.32.25,4.49.38,7.04-3.2.27-.38.46-.82.55-1.28.4-2.11,1.14-8.51-3.96-11.03h0Z">
        <path class="st0" d="M250.35,154.5s-1.82,6.51-8.25,1.66c0,0-4.77-3.78-9.83-.98,0,0-5.22,2.27-9.23-.3,0,0-2.57-.45-1.51,1.17,0,0,4.77,4.5,15.36,5.94,0,0,3.1.3,9.08,2.34,0,0,6.28,1.13,6.13-3.33,0,0-.15-4.84-1.74-6.51h0Z">
        <path class="st0" d="M235.75,151.32s5.14.61,8.93,4.39c0,0,4.39.53,2.65-2.65,0,0-8.62-9.53-9.99-13.01,0,0-5-10.31-9.88-10.15-.19,0-.38,0-.57,0-1.34-.15-7.32-.21-11.56,4.57,0,0,16.87,10.97,20.42,16.87h0Z">
        <path class="st0" d="M224.07,128.34s-8,2.41-9.85,5.15c0,0-1.05-2.05-.84-2.98,0,0,.76-2.73,9.37-2.73,0,0,.6-.08,1.33.56h0Z">
        <path class="st0" d="M222.26,126.01s-7.72-.28-10.98,2.37c0,0-6.32-8.42,0-13.59,0,0,5.09-4.49,16.73-4.22,0,0,15.04-.48,17.62,5.78,0,0,4.61,9.77,6.45,11.42,0,0,1.17,2.33-.87,1.37,0,0-3.69-1.77-4.91-2.81,0,0,3.44,3.44,8.58,6.03,0,0,1.63.68-.53.71,0,0-9.15-1.5-17.02-6.71,0,0-12.56-7.12-15.81-6.83,0,0,9.67,5.2,14.36,8.88,0,0,9.78,5.76,16.73,6.86,0,0-8.28,1.74-19.63-5.85,0,0-11.81-7.93-17.37-8.74,0,0,6.16,3.55,6.64,5.32h0Z">
        <path class="st0" d="M277.28,105.09s-12.38,2.48-15.96,13.62c0,0-3.23,10.66,1.72,15.34h-.69s-16.43-15.06-19.61-38.47c0,0-1.87-17.12-.41-21.44,0,0,4.62-12.86,4.93-15.32,0,0-4.31,9.09-4.77,9.78l-.71-8.85s-1.29,4.16-1.98,5.39c0,0-.87-3.02-1.61-5.02-.46-1.23-.78-2.5-.95-3.81-.25-1.89-.54-4.27-.47-4.44,0,0,1.19-1.18,6.97,2.88,0,0,4.09.24,5.85,1.51,0,0,1.89,1.27,4.37,1.69,0,0-.16,8.58,3.16,12.73,0,0,3.14,7.94,12.75,4.98,0,0,5.39-2.19,7.35-6.88,0,0,4.08.34,6.56,2.03,0,0,2.44,1.39.38,2.4l-2.33,1.43s4.58-.53,6.75.26c0,0,3.11,1.73.34,1.95,0,0-9.75,1.1-13.39,6.2,0,0-4.27,9.36-7.28,9.73,0,0-3.9.52-7.85-1.2,0,0,1.35,1.4,4.79,2.34,0,0,2.5.73,3.48,1.72,0,0,4.11.73,8.69-1.98,0,0-2.18,3.69-7.23,5.2,0,0-8.43,3.33-10.45,4.58,0,0,10.35-1.82,12.38-2.03,0,0,4.05-.48,5.25,3.69h-.03Z">
        <path class="st0" d="M239.44,72.19s.23-5.51-.65-7.33c0,0-3.17-9.15-3.17-12.26,0,0-5.46,3.46-10.33.59,0,0,5.63.29,9.8-2.99,0,0-5.46.35-7.57-1.41,0,0,5.28.47,8.92-1.06l6.86-3.29s-5.1-2.64-5.93-3.05l7.63.76s-1.11-2.93-1.76-3.87c0,0-.41-2.52-.35-3.05,0,0-17.6,6.98-20.12,9.8,0,0-3.64,1.94-1.76,5.81,0,0,3.52,5.93,10.56,12.03,0,0,6.63,5.57,7.86,9.33h.01Z">
        <path class="st0" d="M247.18,33.71s-.58,4.82,1.62,8.02c0,0-2.89.69-3.93-2.66,0,0-1.2-4.39,2.31-5.36Z">
        <path class="st0" d="M262.18,33.98s-3.55,1.27-4.51,4.66c0,0-.23,2.66-2.08,3.55,0,0,.39-5.13.04-5.86,0,0-.54,3.97-1.85,4.28,0,0-2.74.31-3.08.12,0,0-1.66-1.08-1.85-2.39l.04-3.2s3.08-2.58,7.86-2.81c0,0,3.89-.35,5.44,1.66h-.01Z">
        <path class="st0" d="M257.9,51.39s5.47,5.86,6.95,13.09c0,0,1.4.75,4.18.62,0,0,2.94,2.64,5.31,3.42,0,0-2.94,4.42-6.66,4.72,0,0-3.65.8-6.86-3.35,0,0-4.25-4.75-4.25-9.4,0,0-.3-4.17,1.34-9.1h-.01Z">
        <path class="st0" d="M260.32,50.73s3.44,2.92,3.41,6.04l2.94,4.97s-1.24-8.98-2.31-9.24c0,0-2.64-1.66-4.04-1.77Z">
        <path class="st0" d="M259.74,48.28c.02-1.77.3-6.01,2.35-8.14,0,0,1.83-3.11,4.24-4.55.63-.38,1.35-.59,2.09-.62.68-.02,1.61.05,2.57.44.13.05.25.1.39.14.56.16,2.16.61,2.38.75,0,0,3.34.95,6.85,4.3,0,0-9.48-1.6-14.18,8.1,0,0-.56,2.54-1.77,1.71,0,0-1.43-.9-.87-2.64,0,0,1.92-5.52,3.66-7.2,0,0,1.46-1.89,2.79-2.88,0,0,1.24-1.24-.99-1.15,0,0-3.16.99-4.87,5.49,0,0-1.55,4.06-2.05,5.15,0,0-.54,1.35-1.53,1.81-.5.23-1.07-.16-1.07-.71h0Z">
        <path class="st0" d="M277.28,86.18s4.68-6.41,10.04-8.07c.28-.09.57-.13.86-.14l5.03-.17c.68-.02,1.34.2,1.87.64.75.61,1.97,1.44,3.27,1.68,0,0,2.96.76,3.79,1.36,0,0,10.39,1.06,13.5,2.35,0,0,2.05.91,5.54,1.21,0,0-1.9,3.87-.61,6.9,0,0-3.41,1.21-6.98,1.52l-6.52.15s1.29-1.74,3.34-2.12c0,0,3.18-.53,4.32-1.97,0,0-6.67.61-7.96,1.52l-4.47,2.88s-.76-.99,2.88-6.67c0,0-6.14,4.85-7.13,5.38l-.68.15s.76-4.02,4.02-6.98c0,0-6.07,5.76-9.63,5.76l-6.9.08s-2.05-.99,3.94-2.96c0,0,3.49-1.44,6.52-5,0,0-9.33,4.7-13.72,4.93l-.53-.15s3.18-3.18,7.81-6.67c0,0-10.99,3.56-11.6,4.4h0Z">
        <path class="st0" d="M329.41,88.07s-1.97,4.21-1.75,7.21c0,0-6.59-2.42-5.91-6.5,0,0,.22-3.18,3.05-2.42l4.61,1.7h0Z">
        <path class="st0" d="M341.33,83.43c-1.63-.39-3.35.08-4.64,1.16-2.65,2.23-7.89,7.4-7.13,12.89,0,0,.46,4.43,3.79,4.43,0,0,11.27.46,12.19-11.73,0,0,.13-5.71-4.21-6.76h0Z">
        <path class="st0" d="M345.76,94.61l-1.16,2.12s58.01,29.97,73.31,59.56l-.29.28.65,1.21,1.23-.43-.55-1.46-.53.15s-16.11-32.21-72.66-61.42h0Z">
      </g>
      <path class="st2" d="M290.83,60.37c-2.32,4.15-6.19,6.74-10.7,6.74-6.79,0-12.46-5.38-12.46-12.3s5.57-12.33,12.43-12.33c4.41,0,9.01,2.54,10.91,6.5h-2.67c-1.84-2.74-5.05-4.35-8.27-4.35-5.31,0-10.01,4.7-10.01,10.21s4.7,10.11,10.04,10.11c3.25,0,5.72-1.29,8.93-4.74l1.8.16h0Z">
      <path class="st2" d="M283.68,64.41c.98,1.84.94-.58,1.92,1.26,2.01-.86,5.15-3.79,6.36-7.66l-2.31.03c-1.06,3.03-3.07,4.9-5.97,6.37Z">
    </g>
    <path class="st3" d="M360.2,349.61c-8.32-6.29-12.83-5.09-23.22-15.15l-.04.04c-1.27-1.88-12.88-12.24-14.92-12.76-2.05-.99-9.46-4.76-9.46-4.76.3.17,1.88,7.52-1.26,12.5,1.59-.64,1.65-.08,4.06-2.99-.29,3.66,1.5,5.61,4.52,7.52-4.51-1.72-7.21-2.62-9.97-1.33,2.16,1.35,26.08,10.15,33.26,17.35,4.31,4.13,10.83,10.37,17.55,10.69,7.28.41,4.96-7.37-.53-11.1h.01Z">
    <path class="st3" d="M250.21,334.65c-3.89,10.24-9.57-5.08-17.34.69-.01.04-1.62,3.54-11.76,4.74-1.96.21-2.54,3.51-.58,4.29,1.52.63,20.5.64,25.57.42.36.16,6.89-.34,6.49-3.46.03-.3-.32-5.42-2.38-6.67h0Z">
    <path class="st3" d="M235.94,331.87l.12.2c.45,0,5.22.69,8.99,4.4,10.62.4-4.88-10.51-6.68-16.33-.22-.51-4.77-10.83-10.08-10.12-.09-.15-8-.17-12.22,5.41.91.6,15.82,10.23,19.87,16.44h0Z">
    <path class="st3" d="M225.11,308.59c-.42-.61-2.02-1.28-2.29-1.26-10.83,1.13-10.76,2.74-8.58,7.14,1.76-3.39,10.16-5.6,10.87-5.88Z">
    <path class="st3" d="M257.45,312.81c-2.46-1.56-9.5-13.67-10.76-16.35-6.04-11.08-50.56-8.13-34.88,12.9,3.17-2.98,10.54-3.47,10.97-3.47-.26-1.68-1.28-2-3.36-3.48,15.2,7.05,24.11,16.77,36.46,13.09-15.25-2.46-20.48-9.16-30.59-14.47,3.91,1.43,9.83,4.58,12.38,6.02,7.99,5.29,23.5,9.5,19.78,5.75h0Z">
    <path class="st3" d="M252.22,221.91c2.64.56,4.16-.28,4.78-1.52-.04,1.16-.14,2.46-.23,3.63,4.53-2.87,2.02-7.34,7.99-9.1-2.39-4.53-13.12-1.3-14.54.72-.3,1.96-.43,5.01,2,6.27h0Z">
    <path class="st3" d="M259.73,228.3c3.75,4.23.77-9.79,10.73-11.41-3.41.56-10.32,13.15-4.44,14,.97.14,1.26-1.88,1.36-2.18,3.66-11.23,12.24-7.29,14.46-7.11-12.21-12.46-22.48-5.99-22.11,6.7Z">
    <path class="st3" d="M328.82,275.84l.7.26c-.51-3.05,1.61-7.73,1.87-8.19-1.57-.34-6.04-3-7.52-1.59-4.76,4.43,3.84,9.56,4.95,9.53h0Z">
    <path class="st3" d="M420.57,336.45l-.58.17c-1.67-3.38-20.63-34.68-73.1-61.5l-.11.2c2.82-5.62-.71-14.47-10.6-8.54-10.21,6.12-3.97,25.22,9.24,11.38,1.03.56,57.58,29.88,73.21,59.17l-.29.28,1.03,1.89,2.09-.72-.89-2.34h0Z">
    <path class="st3" d="M306.12,312.03c.05,1.4.07,3.01-.09,4.54-.76-5.41-15.34-19-22.87-19.31h.01v-.25c-.76-14.08-16.43-10.73-19.43,10.04.67.37,10.86,6.11,21.45,10.87-4.05-.78-15-3.3-15-3.3,3.65,1.21,20.94,13.68,33.32,8.05-.22,1.8-3.96,3.18-7.55,2.94,5.35,2.7,11.48,7.02,15.11-1.67.59-2.13.88-9.82-4.94-11.91h-.01Z">
    <path class="st2" d="M283.92,239.89c-.89,2.75-2.74,4.61-6.22,4.61-5.53,0-6.94-4.67-6.94-10.2s1.41-10.2,6.94-10.2c3.48,0,5.33,1.85,6.22,4.61h2.21c-1.07-4.01-3.59-6.74-8.43-6.74-6.86,0-9.07,5.48-9.07,12.33s2.22,12.33,9.07,12.33c4.83,0,7.36-2.73,8.43-6.74h-2.21Z">
    <path class="st3" d="M285.53,258.4c-.85.85-5.39,1.79-7.41,8.38">
    <g>
      <path class="st3" d="M246.21,221.36s.03.03.05.04c.08.08.18.14.28.21,1.38.92,3.2.8,4.42.48-3.43-2.7-1.18-8.12-1.05-8.77-1.77.23-3.34,1.31-4.27,2.57-.02.07-1.27,3.73.57,5.46h0Z">
      <path class="st3" d="M322.39,264.92c-2.87-.13-6.16-1.17-6.09-1.24-5.67-1.86-13.57-1.95-17.39-3.75-2.16-.3-3.14-2.4-5.25-2.32-.47-.09-1.89-.13-3.64-.07,1.63-.37.85-2.13-.83-2.81-1.32-.48-3.42-.5-4.98-.44,6.05-3.21-6.37-6.13-6.51-5.71l-.35-.03c-6.1,11.19-15.59,6.51-18.8,1.92-3.96-5.68-3.79-12.44-3.79-12.44-4.62-1.03-7.06-3.72-10.41-3.48-5.76-3.91-7.08-3.24-7.59-2.58v-.1c-1.14.57-3.7,2.8-8.63,1.85,2.39-.11,6.61-1.55,9.13-3.96-2,.06-2.95.42-6.7-.28,4.08.54,10.81-3.06,14.48-4.87-1.2-.62-1.92-.99-4.52-2.33l5.87.59c-2.8-1.88-2.39-5.29-1.78-8.32-2.43,1.79-28.06,8.43-23.36,16.7.04.06,3.64,6.06,10.66,12.15.71.25,8.35,7.63,8.54,11.63.05-2.87.41-4.35-.15-8.74.65-1.07,1.07-2.22,1.63-3.83l-.03,6.68c1.18-1.67,2.19-1.44,3.82-4.77-12.74,27.01,7.03,63.22,16.89,70.46h2.09c-5.57-3.54-2.72-15.55-2.47-15.67,6.15-15.02,16.11-13.4,16.11-13.4-2.81-7.83-8.66-3.41-14.99-3.08,7.68-3.07,14.14-5.39,15.81-10.09-2.85,2.38-7.95,3.17-9.84,2.89-3.35-.47-3.27-1.96-4.53-2.01,13.31.6,8.83-12.06,20.72-15.05l-7.41,8.38c2.83-1.42,4.43-1.91,8.74-3.37-4.21,3.46-5.18,4.55-6.25,5.58,3.71,1.22,9.2-1.97,12.92-3.4-2.68,2-4.41,2.93-4.41,2.94-2.53,1.13-5.55,2.4-3.9,3.9,1.69,1.38,9.78.45,13.55-3.13-1.36,2.72-1.27,3.21-1.54,4.41,2.29-.27,3.74-2.08,6.65-4.17-2.08,4.04-1.91,4.39-1.23,5.32,3.43-2.31,5.77-4.13,10.81-4.37-3.18.94-5.89,1.81-6.89,3.93,3.39.26,13.6-.71,15.11-1.89-1.59-3.15.38-6.92.7-7.6l.03-.03Z">
    </g>
    <path class="st2" d="M270.26,245.49h0c-3.49-2.56-3.64-10.75-3.56-12.36,0,0-6.28-3.38-7.13-3.38l-1.24,2.93c-6.97,12.85,8.4,30.12,17.23,15.88-1.75-.5-3.7-1.93-5.29-3.07h-.01Z">
  </g>
  <g>
    <path class="st2" d="M568.12,508.68c-8.38-6.34-12.93-5.13-23.4-15.27l-.04.04c-1.28-1.89-12.98-12.33-15.04-12.86-2.07-1-9.53-4.8-9.53-4.8.3.18,1.89,7.58-1.27,12.6,1.61-.65,1.66-.08,4.09-3.02-.29,3.68,1.51,5.65,4.56,7.57-4.54-1.73-7.27-2.64-10.04-1.34,2.17,1.36,26.28,10.23,33.52,17.48,4.35,4.16,10.92,10.45,17.68,10.77,7.33.41,5-7.43-.53-11.19v.02Z">
    <path class="st2" d="M457.94,493.87c-3.92,10.32-9.65-5.12-17.47.69-.01.04-1.63,3.56-11.85,4.77-1.98.21-2.56,3.53-.58,4.32,1.53.64,20.66.64,25.77.42.36.16,6.94-.34,6.54-3.49.03-.3-.33-5.46-2.4-6.72h-.01Z">
    <path class="st2" d="M443.16,490.81l.12.2c.45,0,5.26.7,9.06,4.43,10.7.4-4.91-10.59-6.73-16.45-.23-.52-4.8-10.91-10.16-10.2-.09-.15-8.06-.17-12.32,5.45.91.6,15.94,10.31,20.02,16.57h0Z">
    <path class="st2" d="M432.25,467.35c-.42-.62-2.03-1.29-2.31-1.27-10.91,1.14-10.85,2.76-8.65,7.19,1.77-3.42,10.24-5.64,10.96-5.93h0Z">
    <path class="st2" d="M464.84,471.6c-2.48-1.57-9.58-13.78-10.85-16.47-6.09-11.16-50.95-8.2-35.15,13,3.2-3,10.62-3.5,11.06-3.49-.26-1.7-1.29-2.02-3.39-3.5,15.31,7.11,22.67,16.67,35.12,12.96-7.19-1.05-7.78-.82-15.24-5.69,3.94,1.44,22.19,6.98,18.44,3.21v-.02Z">
    <path class="st2" d="M459.57,380c2.66.57,4.2-.28,4.81-1.53-.04,1.17-.14,2.48-.23,3.66,4.24-2.63,2.44-6.59,8.46-8.36-2.41-4.56-13.63-2.12-15.06-.09-.3,1.98-.44,5.05,2.02,6.32h0Z">
    <path class="st2" d="M467.14,386.44c4.54,4.01-1.2-6.45,10.51-10.36-3.43.56-10.19,12.82-4.17,12.97.99.02,1.32-1.89,1.37-2.2,1.49-8.83,5.87-9.33,9.52-9.89-7.09-5.04-17.6-3.31-17.23,9.48h0Z">
    <path class="st2" d="M536.76,434.34l.71.26c-.51-3.08,1.62-7.79,1.88-8.26-1.58-.34-6.08-3.02-7.57-1.61-4.8,4.46,3.87,9.63,4.98,9.6h0Z">
    <path class="st2" d="M513.49,470.68c.05,1.41.07,3.03-.09,4.57-.77-5.45-15.46-19.15-23.04-19.46h.01c-.53-14.42-16.54-11.24-19.58,9.87.67.38,10.94,6.16,21.61,10.96-4.08-.79-15.12-3.32-15.12-3.32,3.68,1.22,21.1,13.78,33.58,8.11-.23,1.81-3.99,3.21-7.61,2.96,15.8,11.23,20.46-8.69,10.24-13.69h0Z">
    <path class="st2" d="M491.29,396.35c-.9,2.77-2.76,4.64-6.27,4.64-5.58,0-6.99-4.7-6.99-10.28s1.42-10.28,6.99-10.28c3.51,0,5.37,1.87,6.27,4.64h2.22c-1.08-4.04-3.62-6.79-8.49-6.79-6.91,0-9.14,5.52-9.14,12.43s2.24,12.43,9.14,12.43c4.87,0,7.41-2.75,8.49-6.79h-2.22Z">
    <path class="st2" d="M493.14,416.77c-.86.86-5.43,1.81-7.47,8.44">
    <g>
      <path class="st2" d="M453.11,379.64c1.33,1.18,3.47,1.1,4.78.74-3.46-2.72-1.18-8.18-1.06-8.83-3.76.74-6.4,3.6-3.73,8.1h0Z">
      <path class="st2" d="M530.29,423.34c-2.89-.13-6.21-1.18-6.14-1.25-5.71-1.88-13.67-1.97-17.52-3.77-3.59-1.43-4.43-3.01-8.95-2.41,3.48-2.3-3.88-3.83-5.85-3.27,6.1-3.23-6.42-6.18-6.56-5.76l-.35-.03c-6.15,11.27-15.71,6.56-18.94,1.94-3.99-5.72-3.82-12.53-3.82-12.53-4.65-1.04-7.11-3.75-10.49-3.51-5.8-3.94-7.14-3.26-7.65-2.6v-.1c-1.15.58-3.73,2.82-8.69,1.87,2.41-.11,6.66-1.56,9.2-3.99-2.02.06-2.97.42-6.75-.28,4.11.54,10.9-3.09,14.59-4.91-1.21-.63-1.93-1-4.56-2.35l5.53,1.01c-2.82-1.89-2.72-5.4-2.11-8.45-13.84,7.05-36.88,8.22-12.08,28.72.71.25,7.81,7.55,8.61,11.72.52-1.08-1.75-7.86.02-12.85l1.05,6.35c.85-.66,3.06-1.63,4.24-4.24-12.84,27.22,7.08,63.71,17.02,71h2.1c-5.61-3.57-2.74-15.67-2.49-15.79,6.2-15.14,16.23-13.5,16.23-13.5-2.83-7.89-8.72-3.44-15.11-3.1,7.74-3.1,14.25-5.43,15.93-10.17-4.85,3.78-11.29,3.54-14.48.88,13.42.6,8.9-12.16,20.88-15.17l-7.47,8.44c2.85-1.43,4.46-1.93,8.81-3.4-4.24,3.49-5.22,4.58-6.29,5.63,3.74,1.23,9.27-1.98,13.02-3.43-2.7,2.01-4.45,2.96-4.45,2.96-12.16,5.26,4.68,6.28,9.72.78-1.37,2.74-1.28,3.23-1.55,4.45,2.3-.28,3.77-2.09,6.7-4.2-2.1,4.08-1.93,4.43-1.24,5.36,3.46-2.33,5.81-4.17,10.9-4.41-3.2.95-5.93,1.82-6.95,3.96,3.41.26,13.71-.72,15.23-1.91-1.6-3.17.38-6.98.71-7.66v-.03Z">
    </g>
    <path class="st2" d="M477.8,401.79c-3.27-2.89-3.73-8.87-3.65-10.48,0,0-1.24-.67-2.69-1.41-.36-.18-.78.04-.82.44-.2,2.06-.98,4.74-.15,9.3,0,0-2.04-4.36-1.72-10.32.02-.42-.17-.83-.56-1-.6-.26-1.37-.75-1.56-.75-9.67,14.25,7.58,36.54,18.05,16.94-1.76-.51-3.69.09-6.89-2.73h0Z">
    <path class="st2" d="M629.21,495.42l-.59.17c-1.68-3.4-20.79-34.95-73.67-61.97l-.11.2c2.84-5.66-.71-14.58-10.68-8.6-9.7,5.82-4.66,23.25,7.11,13.53-2.46-1.86-4.22-6.79-3.61-5.58.61,1.21,5.82,3.52,5.82,3.52,1.04.57,58.02,30.11,73.78,59.63l-.3.28,1.03,1.91,2.1-.73-.89-2.35h0Z">
  </g>
</svg>