<?xml version="1.0" encoding="UTF-8"?>
<svg id="Ebene_1" data-name="Ebene 1" xmlns="http://www.w3.org/2000/svg" viewBox="0 0 103.35 122.01">
  <defs>
    <style>
      .cls-1 {
        fill: #4825f5;
      }
    </style>
  </defs>
  <path class="cls-1" d="M98.61,51.82c-1.68-1.21-18.68-7.27-18.7-7.28.83-7.81-.82-16-4.32-22.62h0c-.93-1.64-1.37-2.53-1.83-4.78-1.17-6.5-7.65-13.25-13.61-11.4h0C10.09-21.47-26.82,55.73,25.19,77.81h0s3.25,6.84,4,18.92c.75,12.08-2,13.12-2,13.12-1.12,1.92-8.29,4.48-7.02,9.07,1.62,3.01,3.87,2.77,3.87,2.77.98.7,18.62,1.18,12.6-9.71-3.12-5.72-2.6-9.59-2.6-9.59,0,0-.4-9.65.92-14.33,1.33-4.68,1.33-6.24,1.73-6.7,2.76-1.35,7-.48,10.01-1.31.21.75,2.67,9.34,3.11,11.66,1.03,4.08-3.58,17.85-3.06,21.44,5.26,2.86,22.43,4.01,23.81,3.64,4.75-.33,9.6-2.45,2.25-6.94-4.92-3.56-17.67-.19-19.25-3.41-1.08-2.9.87-11.44,1.45-13.93.35-9.07,4.83-17.17,4.83-17.17h0c3.07-1.76,5.89-3.91,8.38-6.38,3.46,1.25,13.13,8.81,15.57,10.31,18.91,4.74,24.63-22.69,14.8-27.45Z"/>
</svg>