<?xml version="1.0" encoding="UTF-8"?>
<svg id="Ebene_1" data-name="Ebene 1" xmlns="http://www.w3.org/2000/svg" viewBox="0 0 360.37 425.45">
  <defs>
    <style>
      .cls-1 {
        fill: #4825f5;
      }
    </style>
  </defs>
  <path class="cls-1" d="M343.84,180.69c-5.84-4.23-65.15-25.36-65.21-25.38,2.89-27.22-2.85-55.79-15.07-78.88h0c-3.26-5.7-4.77-8.83-6.39-16.66-4.09-22.65-26.69-46.2-47.44-39.76h0C35.2-74.87-93.51,194.31,87.83,271.32h0s11.34,23.85,13.96,65.97c2.62,42.12-6.98,45.75-6.98,45.75-3.9,6.7-28.92,15.62-24.46,31.64,5.64,10.48,13.5,9.67,13.5,9.67,3.43,2.45,64.92,4.12,43.94-33.86-10.88-19.95-9.07-33.46-9.07-33.46,0,0-1.41-33.66,3.22-49.98,4.64-16.32,4.64-21.77,6.05-23.38,9.63-4.71,24.4-1.68,34.91-4.58.75,2.61,9.3,32.56,10.84,40.65,3.6,14.22-12.47,62.26-10.68,74.77,18.33,9.98,78.22,13.97,83.04,12.69,16.56-1.15,33.47-8.54,7.86-24.18-17.15-12.42-61.62-.67-67.11-11.89-3.75-10.1,3.02-39.88,5.04-48.57,1.21-31.64,16.84-59.87,16.84-59.87h0c10.71-6.12,20.53-13.62,29.23-22.25,12.07,4.36,45.77,30.73,54.31,35.96,65.93,16.53,85.89-79.11,51.59-95.73Z"/>
</svg>