<?xml version="1.0" encoding="UTF-8"?>
<svg id="Ebene_1" data-name="Ebene 1" xmlns="http://www.w3.org/2000/svg" viewBox="0 0 341.77 501.62">
  <defs>
    <style>
      .cls-1 {
        font-family: 'Talk_Schrift-Regular', Talk_Schrift;
        font-size: 94px;
      }

      .cls-2 {
        letter-spacing: -.13em;
      }
    </style>
  </defs>
  <text class="cls-1"><tspan x="-437.08" y="44.43">0123456789</tspan><tspan x="-424.86" y="130.43">ABCDEFGHI</tspan><tspan x="-443.19" y="216.43">JKLMNOPQR</tspan><tspan x="-424.86" y="302.43">STUVWXYZ</tspan><tspan x="-443.24" y="388.43">abcdefch</tspan><tspan class="cls-2" x="-247.72" y="388.43">i</tspan><tspan x="-247.63" y="388.43">jk</tspan><tspan x="-430.97" y="474.43">lmnopqrst</tspan><tspan x="-400.42" y="560.43">uvwxyz</tspan></text>
  <g>
    <path d="M55.53,32.43c0-2.82,2.26-5.08,5.08-5.08h12.97c2.82,0,5.08,2.26,5.08,5.08v55.55c0,2.82-2.26,5.17-5.08,5.17h-12.97c-2.82,0-5.08-2.35-5.08-5.17v-55.55ZM66.44,82.25h1.32v-43.99h-1.32v43.99Z"/>
    <path d="M90.87,27.36v65.8h-10.9V27.36h10.9Z"/>
    <path d="M104.41,74.45h10.9v18.71h-23.12v-22.46c0-2.82,2.26-5.08,5.08-5.08h7.14v-27.35h-1.32v26.04h-10.9v-31.77c0-2.82,2.26-5.17,5.08-5.17h12.97c2.82,0,5.08,2.35,5.08,5.17v40.61h-12.22v9.12h1.32v-7.8Z"/>
    <path d="M127.53,38.26v7.9h-10.9v-13.72c0-2.82,2.26-5.08,5.08-5.08h12.97c2.82,0,5.08,2.26,5.08,5.08v55.55c0,2.82-2.26,5.17-5.08,5.17h-12.97c-2.82,0-5.08-2.35-5.08-5.17v-31.68h10.9v25.94h1.32v-27.26h-12.22v-7.52h12.22v-9.21h-1.32Z"/>
    <path d="M151.97,63.45h1.32V27.36h10.9v65.8h-10.9v-18.8h-7.14c-2.82,0-5.08-2.35-5.08-5.17V27.36h10.9v36.09Z"/>
    <path d="M176.41,38.26v9.12h7.14c2.82,0,5.08,2.26,5.08,5.08v35.53c0,2.82-2.26,5.17-5.08,5.17h-12.97c-2.82,0-5.08-2.35-5.08-5.17v-31.77h10.9v26.04h1.32v-27.35h-12.22v-27.54h23.12v18.71h-10.9v-7.8h-1.32Z"/>
    <path d="M189.95,32.43c0-2.82,2.35-5.08,5.08-5.08h12.97c2.73,0,5.08,2.26,5.08,5.08v12.41h-10.9v-6.58h-1.32v7.9h7.14c2.82,0,5.08,2.26,5.08,5.08v36.75c0,2.82-2.26,5.17-5.08,5.17h-12.97c-2.82,0-5.08-2.35-5.08-5.17v-55.55ZM200.85,82.25h1.32v-25.19h-1.32v25.19Z"/>
    <path d="M214.39,64.3V27.36h23.12v40.7c0,2.82-2.26,5.08-5.08,5.08h-7.14v20.02h-10.9v-22.46c0-2.82,2.26-5.08,5.08-5.08h7.14v-27.35h-1.32v26.04h-10.9Z"/>
    <path d="M238.83,64.3c0-2.82,2.26-5.08,5.08-5.08-2.82,0-5.08-2.35-5.08-5.17v-21.62c0-2.82,2.35-5.08,5.08-5.08h12.97c2.73,0,5.08,2.26,5.08,5.08v21.62c0,2.82-2.26,5.17-5.08,5.17,2.82,0,5.08,2.26,5.08,5.08v23.78c0,2.82-2.35,5.08-5.08,5.08h-12.97c-2.73,0-5.08-2.26-5.08-5.08v-23.78ZM251.05,38.26h-1.32v17.11h1.32v-17.11ZM251.05,82.25v-19.36h-1.32v19.36h1.32Z"/>
    <path d="M263.27,75.67h10.9v6.58h1.32v-7.9h-7.14c-2.82,0-5.08-2.26-5.08-5.08v-36.75c0-2.82,2.26-5.17,5.08-5.17h12.97c2.82,0,5.08,2.35,5.08,5.17v55.55c0,2.82-2.35,5.08-5.08,5.08h-12.97c-2.73,0-5.08-2.26-5.08-5.08v-12.41ZM275.49,38.26h-1.32v25.19h1.32v-25.19Z"/>
    <path d="M17.84,113.36h12.97c2.73,0,5.08,2.26,5.08,5.08v60.72h-10.9v-29.14h-1.32v29.14h-10.9v-60.72c0-2.82,2.35-5.08,5.08-5.08ZM24.98,142.5v-18.23h-1.32v18.23h1.32Z"/>
    <path d="M60.33,118.43v21.62c0,2.82-2.26,5.17-5.08,5.17,2.82,0,5.08,2.26,5.08,5.08v23.78c0,2.82-2.35,5.08-5.08,5.08h-18.05v-65.8h18.05c2.73,0,5.08,2.26,5.08,5.08ZM49.42,141.37v-17.11h-1.32v17.11h1.32ZM49.42,168.25v-19.36h-1.32v19.36h1.32Z"/>
    <path d="M72.54,168.25h1.32v-21.34h10.9v27.07c0,2.82-2.26,5.17-5.08,5.17h-12.97c-2.82,0-5.08-2.35-5.08-5.17v-55.55c0-2.82,2.26-5.08,5.08-5.08h12.97c2.82,0,5.08,2.26,5.08,5.08v27.16h-10.9v-21.34h-1.32v43.99Z"/>
    <path d="M86.08,113.36h18.05c2.82,0,5.08,2.26,5.08,5.08v55.55c0,2.82-2.26,5.17-5.08,5.17h-18.05v-65.8ZM96.98,168.25h1.32v-43.99h-1.32v43.99Z"/>
    <path d="M121.42,132.16h12.22v10.9h-12.22v25.19h1.32v-23.87h10.9v34.78h-23.12v-65.8h23.12v17.48h-10.9v-6.58h-1.32v7.9Z"/>
    <path d="M134.96,179.15v-65.8h23.12v34.78h-10.9v-23.87h-1.32v25.19h12.22v10.9h-12.22v18.8h-10.9Z"/>
    <path d="M170.3,168.25h1.32v-34.87h10.9v40.61c0,2.82-2.26,5.17-5.08,5.17h-5.83v-5.08c0,2.82-2.26,5.08-5.08,5.08h-2.07c-2.82,0-5.08-2.35-5.08-5.17v-55.55c0-2.82,2.26-5.08,5.08-5.08h12.97c2.82,0,5.08,2.26,5.08,5.08v13.72h-10.9v-7.9h-1.32v43.99Z"/>
    <path d="M194.74,113.36v29.14h1.32v-29.14h10.9v65.8h-10.9v-29.14h-1.32v29.14h-10.9v-65.8h10.9Z"/>
    <path d="M219.18,113.36v65.8h-10.9v-65.8h10.9Z"/>
    <path d="M238.54,179.15h-12.97c-2.73,0-5.08-2.26-5.08-5.08v-41.92h10.9v36.09h1.32v-54.89h10.9v60.72c0,2.82-2.35,5.08-5.08,5.08Z"/>
    <path d="M244.94,179.15v-65.8h10.9v25.38h1.32v-25.38h10.9v27.82c0,2.82-2.26,5.08-5.08,5.08,2.82,0,5.08,2.26,5.08,5.08v27.82h-10.9v-25.38h-1.32v25.38h-10.9Z"/>
    <path d="M269.38,113.36h10.9v54.89h1.32v-36.09h10.9v41.92c0,2.82-2.35,5.08-5.08,5.08h-12.97c-2.73,0-5.08-2.26-5.08-5.08v-60.72Z"/>
    <path d="M293.82,179.15v-60.72c0-2.82,2.35-5.08,5.08-5.08h25.19c2.73,0,5.08,2.26,5.08,5.08v60.72h-10.9v-54.89h-1.32v54.89h-10.9v-54.89h-1.32v54.89h-10.9Z"/>
    <path d="M11.45,210.26v54.89H.54v-60.72c0-2.82,2.35-5.08,5.08-5.08h18.05v54.89h1.32v-54.89h10.9v60.72c0,2.82-2.35,5.08-5.08,5.08H12.76v-54.89h-1.32Z"/>
    <path d="M37.2,204.43c0-2.82,2.26-5.08,5.08-5.08h12.97c2.82,0,5.08,2.26,5.08,5.08v55.55c0,2.82-2.26,5.17-5.08,5.17h-12.97c-2.82,0-5.08-2.35-5.08-5.17v-55.55ZM48.11,254.25h1.32v-43.99h-1.32v43.99Z"/>
    <path d="M79.69,199.36c2.82,0,5.08,2.26,5.08,5.08v36.75c0,2.82-2.26,5.17-5.08,5.17h-7.14v18.8h-10.9v-65.8h18.05ZM73.86,235.45v-25.19h-1.32v25.19h1.32Z"/>
    <path d="M86.08,204.43c0-2.82,2.26-5.08,5.08-5.08h12.97c2.82,0,5.08,2.26,5.08,5.08v55.55c0,2.82-2.26,5.17-5.08,5.17h-1.03v7.9h-10.9v-7.9h-1.03c-2.82,0-5.08-2.35-5.08-5.17v-55.55ZM96.98,254.25h1.32v-43.99h-1.32v43.99Z"/>
    <path d="M133.64,204.43v21.62c0,2.82-2.26,5.17-5.08,5.17,2.82,0,5.08,2.26,5.08,5.08v28.86h-10.9v-30.27h-1.32v30.27h-10.9v-65.8h18.05c2.73,0,5.08,2.26,5.08,5.08ZM122.74,227.37v-17.11h-1.32v17.11h1.32Z"/>
    <path d="M134.96,259.98v-31.77h11v26.13h1.22v-27.35h-12.22v-22.56c0-2.82,2.26-5.08,5.08-5.08h12.97c2.82,0,5.08,2.26,5.08,5.08v13.72h-10.9v-7.99h-1.22v9.21h12.13v40.61c0,2.16-1.41,4.14-3.29,4.89-.38.09-1.03.28-1.69.28h-13.06c-2.82,0-5.08-2.35-5.08-5.17Z"/>
    <path d="M176.41,210.26v54.8h-10.9v-54.8h-6.11v-10.9h23.12v10.9h-6.11Z"/>
    <path d="M201.89,265.15h-12.97c-2.73,0-5.08-2.26-5.08-5.08v-60.72h10.9v54.89h1.32v-54.89h10.9v60.72c0,2.82-2.35,5.08-5.08,5.08Z"/>
    <path d="M219.18,254.25h1.32v-54.89h10.9v60.72c0,2.82-2.26,5.08-5.08,5.08h-18.05v-65.8h10.9v54.89Z"/>
    <path d="M243.62,254.25h1.32v-54.89h10.9v54.89h1.32v-54.89h10.9v60.72c0,2.82-2.35,5.08-5.08,5.08h-25.19c-2.73,0-5.08-2.26-5.08-5.08v-60.72h10.9v54.89Z"/>
    <path d="M280.28,224.74h1.32v-25.38h10.9v27.82c0,2.82-2.26,5.08-5.08,5.08,2.82,0,5.08,2.26,5.08,5.08v27.82h-10.9v-25.38h-1.32v25.38h-10.9v-27.82c0-2.82,2.26-5.08,5.08-5.08-2.82,0-5.08-2.26-5.08-5.08v-27.82h10.9v25.38Z"/>
    <path d="M311.86,246.36h-1.03v18.8h-10.9v-18.8h-1.03c-2.73,0-5.08-2.26-5.08-5.08v-41.92h10.9v36.09h1.32v-36.09h10.9v41.92c0,2.82-2.35,5.08-5.08,5.08Z"/>
    <path d="M329.16,227.27h-10.9v-27.92h23.12v31.58c0,2.82-2.26,5.08-5.08,5.08h-7.14v18.23h1.32v-17.01h10.9v27.92h-23.12v-31.58c0-2.82,2.26-5.08,5.08-5.08h7.14v-18.23h-1.32v17.01Z"/>
    <path d="M24.94,319.48h12.22v-4.42h-1.32v3.1h-10.9v-8.83c0-2.82,2.26-5.17,5.08-5.17h12.97c2.82,0,5.08,2.35,5.08,5.17v36.75c0,2.82-2.26,5.08-5.08,5.08h-12.97c-2.82,0-5.08-2.26-5.08-5.08v-26.6ZM37.16,327h-1.32v13.25h1.32v-13.25Z"/>
    <path d="M60.28,285.36v18.8h7.14c2.82,0,5.08,2.26,5.08,5.08v36.75c0,2.82-2.26,5.17-5.08,5.17h-18.05v-65.8h10.9ZM61.59,340.25v-25.19h-1.32v25.19h1.32Z"/>
    <path d="M84.72,340.25h1.32v-11.94h10.9v17.67c0,2.82-2.26,5.17-5.08,5.17h-12.97c-2.82,0-5.08-2.35-5.08-5.17v-36.75c0-2.82,2.26-5.08,5.08-5.08h12.97c2.82,0,5.08,2.26,5.08,5.08v17.76h-10.9v-11.94h-1.32v25.19Z"/>
    <path d="M121.38,351.15h-18.05c-2.82,0-5.08-2.35-5.08-5.17v-36.75c0-2.82,2.26-5.08,5.08-5.08h7.14v-18.8h10.9v65.8ZM110.47,340.25v-25.19h-1.32v25.19h1.32Z"/>
    <path d="M122.69,309.23c0-2.82,2.26-5.08,5.08-5.08h12.97c2.82,0,5.08,2.26,5.08,5.08v17.76h-12.22v13.25h1.32v-11.94h10.9v17.67c0,2.82-2.26,5.17-5.08,5.17h-12.97c-2.82,0-5.08-2.35-5.08-5.17v-36.75ZM133.6,319.38h1.32v-4.32h-1.32v4.32Z"/>
    <path d="M170.26,327h-10.9v-30.74h-1.32v32.05h12.22v10.9h-12.22v11.94h-10.9v-60.72c0-2.82,2.35-5.08,5.08-5.08h12.97c2.73,0,5.08,2.26,5.08,5.08v36.56Z"/>
    <path d="M182.48,340.25h1.32v-11.94h10.9v17.67c0,2.82-2.26,5.17-5.08,5.17h-12.97c-2.82,0-5.08-2.35-5.08-5.17v-36.75c0-2.82,2.26-5.08,5.08-5.08h12.97c2.82,0,5.08,2.26,5.08,5.08v17.76h-10.9v-11.94h-1.32v25.19Z"/>
    <path d="M206.91,285.36v18.8h7.14c2.82,0,5.08,2.26,5.08,5.08v41.92h-10.9v-36.09h-1.32v36.09h-10.9v-65.8h10.9Z"/>
    <path d="M220.45,285.36h10.9v17.48h-10.9v-17.48ZM231.35,351.15h-10.9v-47h10.9v47Z"/>
    <path d="M238.59,369.95h-12.97c-2.73,0-5.08-2.26-5.08-5.08v-12.5h10.9v6.67h1.32v-54.89h10.9v60.72c0,2.82-2.35,5.08-5.08,5.08ZM232.76,285.36h10.9v17.48h-10.9v-17.48Z"/>
    <path d="M257.2,320.14v-15.98h10.9v18.33c0,2.82-2.26,5.17-5.08,5.17,2.82,0,5.08,2.26,5.08,5.08v18.42h-10.9v-15.98h-1.32v15.98h-10.9v-65.8h10.9v34.78h1.32Z"/>
    <path d="M280.33,285.36v65.8h-10.9v-65.8h10.9Z"/>
    <path d="M281.64,309.23c0-2.82,2.26-5.08,5.08-5.08h25.19c2.82,0,5.08,2.26,5.08,5.08v41.92h-10.9v-36.09h-1.32v36.09h-10.9v-36.09h-1.32v36.09h-10.9v-41.92Z"/>
    <path d="M29.78,395.23v41.92h-10.9v-36.09h-1.32v36.09H6.65v-41.92c0-2.82,2.26-5.08,5.08-5.08h12.97c2.82,0,5.08,2.26,5.08,5.08Z"/>
    <path d="M31.09,395.23c0-2.82,2.26-5.08,5.08-5.08h12.97c2.82,0,5.08,2.26,5.08,5.08v36.75c0,2.82-2.26,5.17-5.08,5.17h-12.97c-2.82,0-5.08-2.35-5.08-5.17v-36.75ZM41.99,426.25h1.32v-25.19h-1.32v25.19Z"/>
    <path d="M73.58,390.16c2.82,0,5.08,2.26,5.08,5.08v36.75c0,2.82-2.26,5.17-5.08,5.17h-7.14v18.8h-10.9v-65.8h18.05ZM67.75,426.25v-25.19h-1.32v25.19h1.32Z"/>
    <path d="M103.09,455.95h-10.9v-18.8h-7.14c-2.82,0-5.08-2.35-5.08-5.17v-36.75c0-2.82,2.26-5.08,5.08-5.08h18.05v65.8ZM92.19,426.25v-25.19h-1.32v25.19h1.32Z"/>
    <path d="M115.31,437.15h-10.9v-41.92c0-2.82,2.26-5.08,5.08-5.08h12.97c2.82,0,5.08,2.26,5.08,5.08v17.76h-10.9v-11.94h-1.32v36.09Z"/>
    <path d="M139.75,401.06v8.83h12.22v22.09c0,2.82-2.26,5.17-5.08,5.17h-12.97c-2.82,0-5.08-2.35-5.08-5.17v-13.25h10.9v7.52h1.32v-8.84h-12.22v-22.18c0-2.82,2.26-5.08,5.08-5.08h12.97c2.82,0,5.08,2.26,5.08,5.08v13.35h-10.9v-7.52h-1.32Z"/>
    <path d="M171.34,437.15h-12.97c-2.73,0-5.08-2.26-5.08-5.08v-60.72h10.9v18.8h12.22v10.9h-12.22v25.19h1.32v-23.88h10.9v29.7c0,2.82-2.35,5.08-5.08,5.08Z"/>
    <path d="M195.78,437.15h-12.97c-2.73,0-5.08-2.26-5.08-5.08v-41.92h10.9v36.09h1.32v-36.09h10.9v41.92c0,2.82-2.35,5.08-5.08,5.08Z"/>
    <path d="M220.21,437.15h-18.05v-47h10.9v36.09h1.32v-36.09h10.9v41.92c0,2.82-2.26,5.08-5.08,5.08Z"/>
    <path d="M226.61,432.08v-41.92h10.9v36.09h1.32v-36.09h10.9v36.09h1.32v-36.09h10.9v41.92c0,2.82-2.26,5.08-5.08,5.08h-25.19c-2.82,0-5.08-2.26-5.08-5.08Z"/>
    <path d="M274.17,406.14h1.32v-15.98h10.9v18.42c0,2.82-2.26,5.08-5.08,5.08,2.82,0,5.08,2.26,5.08,5.08v18.42h-10.9v-15.98h-1.32v15.98h-10.9v-18.42c0-2.82,2.26-5.08,5.08-5.08-2.82,0-5.08-2.26-5.08-5.08v-18.42h10.9v15.98Z"/>
    <path d="M310.83,390.16v65.8h-10.9v-18.8h-7.14c-2.73,0-5.08-2.26-5.08-5.08v-41.92h10.9v36.09h1.32v-36.09h10.9Z"/>
    <path d="M323.05,408.58h-10.9v-18.42h23.12v22.18c0,2.82-2.26,5.08-5.08,5.08h-7.14v8.84h1.32v-7.52h10.9v18.42h-23.12v-22.18c0-2.82,2.26-5.08,5.08-5.08h7.14v-8.83h-1.32v7.52Z"/>
  </g>
</svg>