<?xml version="1.0" encoding="UTF-8"?>
<svg id="Ebene_1" xmlns="http://www.w3.org/2000/svg" xmlns:xlink="http://www.w3.org/1999/xlink" version="1.1" viewBox="0 0 214.24 216.03">
  <!-- Generator: Adobe Illustrator 30.0.0, SVG Export Plug-In . SVG Version: 2.1.1 Build 123)  -->
  <defs>
    <style>
      .st0, .st1, .st2, .st3, .st4, .st5, .st6, .st7 {
        fill: none;
      }

      .st1 {
        stroke-width: .05px;
      }

      .st1, .st8, .st9, .st2, .st10, .st3, .st4, .st5, .st11, .st6, .st7 {
        stroke: #2f2912;
      }

      .st1, .st8, .st3, .st4, .st5, .st11, .st7 {
        stroke-miterlimit: 10;
      }

      .st8, .st9, .st2, .st10, .st4, .st11, .st6 {
        stroke-width: .25px;
      }

      .st8, .st9, .st10, .st11 {
        fill: #fff;
      }

      .st8, .st9, .st6 {
        stroke-linecap: round;
      }

      .st9, .st2, .st10, .st6 {
        stroke-linejoin: round;
      }

      .st12 {
        font-size: 10.65px;
      }

      .st12, .st13, .st14, .st15, .st16 {
        isolation: isolate;
      }

      .st12, .st14, .st17, .st15, .st16 {
        fill: #2f2912;
      }

      .st12, .st14, .st15 {
        font-weight: 700;
      }

      .st12, .st15 {
        font-family: Helvetica-Bold, Helvetica;
      }

      .st18 {
        fill: #312b16;
      }

      .st14 {
        font-family: HelveticaNeue-Bold, 'Helvetica Neue';
        font-size: 5.33px;
      }

      .st19 {
        clip-path: url(#clippath-1);
      }

      .st20 {
        clip-path: url(#clippath-2);
      }

      .st3 {
        stroke-width: .81px;
      }

      .st5 {
        stroke-width: .54px;
      }

      .st15 {
        font-size: 4.92px;
      }

      .st7 {
        stroke-width: .13px;
      }

      .st21 {
        clip-path: url(#clippath);
      }

      .st16 {
        font-family: Helvetica, Helvetica;
        font-size: 9.83px;
      }
    </style>
    <clipPath id="clippath">
      <polygon class="st0" points="39.38 103.25 239.99 -12.59 367.45 61.01 166.83 176.84 39.38 103.25"/>
    </clipPath>
    <clipPath id="clippath-1">
      <polygon class="st0" points="-276.03 147.02 319.28 -196.71 740.2 46.34 144.9 390.07 -276.03 147.02"/>
    </clipPath>
    <clipPath id="clippath-2">
      <polygon class="st0" points="-276.03 147.02 319.28 -196.71 740.2 46.34 144.9 390.07 -276.03 147.02"/>
    </clipPath>
  </defs>
  <g>
    <g>
      <g>
        <path class="st4" d="M206.47,73.9c27.99,16.16,27.99,42.37,0,58.53s-73.38,16.16-101.37,0-27.99-42.37,0-58.53,73.38-16.16,101.37,0Z"/>
        <path class="st4" d="M177.78,115.93c-12.18,7.03-31.92,7.03-44.1,0s-12.18-18.43,0-25.46,31.92-7.03,44.1,0,12.18,18.43,0,25.46Z"/>
        <path class="st4" d="M145.19,88c10.21-2.36,22.32-1.15,30.59,3.62,11.07,6.39,11.07,16.75,0,23.15-11.07,6.39-29.02,6.39-40.09,0-8.27-4.77-10.36-11.76-6.28-17.66"/>
        <path class="st4" d="M151.2,88.7c7.29-.76,15.05.33,21.02,3.25"/>
        <path class="st4" d="M136.26,112.71c-5.07-3.45-6.94-7.93-5.63-12.14"/>
        <path class="st4" d="M160.27,117.69c-7.29.76-15.05-.33-21.02-3.25"/>
        <path class="st4" d="M179.75,108.18c-1.23,1.98-3.22,3.85-5.98,5.44s-5.98,2.74-9.41,3.45"/>
        <path class="st4" d="M175.21,93.68c5.07,3.45,6.94,7.93,5.63,12.14"/>
        <path class="st4" d="M151.57,89.49c6.82-.69,14.05.33,19.64,3.04"/>
        <path class="st4" d="M137.27,112.13c-4.7-3.23-6.46-7.41-5.26-11.34"/>
        <path class="st4" d="M159.91,116.9c-6.82.69-14.05-.32-19.65-3.04"/>
        <path class="st4" d="M178.38,107.96c-1.17,1.85-3.03,3.59-5.6,5.07s-5.58,2.56-8.78,3.24"/>
        <path class="st4" d="M174.2,94.26c4.7,3.23,6.46,7.41,5.26,11.34"/>
        <path class="st4" d="M170.77,111.87c-8.3,4.79-21.76,4.79-30.07,0-8.3-4.79-8.3-12.57,0-17.36s21.76-4.79,30.07,0,8.3,12.57,0,17.36h0Z"/>
        <path class="st4" d="M167.76,110.14c-6.64,3.84-17.41,3.84-24.05,0-6.64-3.84-6.64-10.05,0-13.89,6.64-3.84,17.41-3.84,24.05,0,6.64,3.84,6.64,10.05,0,13.89Z"/>
        <path class="st4" d="M168.76,110.72c-7.2,4.15-18.86,4.15-26.06,0s-7.2-10.89,0-15.05c7.2-4.15,18.86-4.15,26.06,0s7.2,10.89,0,15.05Z"/>
        <path class="st4" d="M166.76,109.56c-6.09,3.52-15.96,3.52-22.05,0s-6.09-9.22,0-12.73c1.47-.85,3.17-1.5,4.98-1.94,1.32-.32,2.69-.53,4.09-.63,4.61-.33,9.44.52,12.98,2.57,6.09,3.52,6.09,9.22,0,12.73h0Z"/>
        <line class="st4" x1="165.49" y1="99.29" x2="162.5" y2="97.56"/>
        <polyline class="st4" points="168.15 97.75 165.49 99.29 162.5 97.56 165.16 96.02"/>
        <polyline class="st4" points="143.32 108.64 145.98 107.1 148.97 108.83 146.31 110.37"/>
        <polyline class="st4" points="153.78 94.26 154.76 96.36 150.67 96.99 149.69 94.89"/>
        <polyline class="st4" points="157.69 112.13 156.71 110.03 160.8 109.39 161.78 111.5"/>
        <polyline class="st4" points="141.36 99.71 145 100.27 143.9 102.63 140.27 102.07"/>
        <polyline class="st4" points="170.11 106.68 166.47 106.12 167.57 103.76 171.2 104.32"/>
        <line class="st4" x1="169.27" y1="93.65" x2="174.28" y2="90.76"/>
        <line class="st4" x1="177.28" y1="92.49" x2="172.26" y2="95.38"/>
        <line class="st4" x1="134.19" y1="113.9" x2="139.21" y2="111.01"/>
        <line class="st4" x1="142.2" y1="112.74" x2="137.19" y2="115.63"/>
        <line class="st4" x1="150.44" y1="87.07" x2="152.28" y2="91.02"/>
        <line class="st4" x1="163.28" y1="114.74" x2="165.12" y2="118.69"/>
        <line class="st4" x1="161.03" y1="119.32" x2="159.19" y2="115.37"/>
        <line class="st4" x1="134.65" y1="101.2" x2="127.81" y2="100.14"/>
        <line class="st4" x1="182.57" y1="108.61" x2="175.72" y2="107.55"/>
        <line class="st4" x1="176.82" y1="105.19" x2="183.66" y2="106.25"/>
        <path class="st0" d="M143.28,91.49c.31-.08.62-.15.92-.2l-1.29-2.73h0c-2.62.76-5.08,1.78-7.27,3.04s-3.94,2.68-5.27,4.2h0l4.73.74c.09-.17.21-.35.35-.53.79-1.02,2.2-2.1,3.18-2.68l1.4.81-1.4-.81c.99-.57,2.87-1.38,4.63-1.84h.02Z"/>
        <path class="st8" d="M140.09,94.16c.99-.57,2.87-1.38,4.63-1.84.84-.22,1.66-.35,2.35-.34.32-.09.73-1.17.73-1.17l-.69-1.49-.52-.02c-.48-.01-.88-.2-1.01-.47l-1.13-2.4v-.03c-3.93.88-7.61,2.23-10.77,4.05s-5.5,3.95-7.02,6.21h.05l4.16.66c.46.07.79.31.81.58l.03.3,2.58.4s1.86-.24,2.02-.42c-.02-.4.22-.87.59-1.36.79-1.02,2.2-2.1,3.18-2.68v.02ZM135.5,96.03c-.14.18-.26.36-.35.53l-4.73-.74h0c1.32-1.51,3.08-2.93,5.27-4.2s4.65-2.28,7.27-3.04h0l1.29,2.73c-.3.05-.61.12-.92.2-1.77.46-3.64,1.27-4.63,1.84h0c-.99.57-2.39,1.66-3.18,2.68h-.02Z"/>
      </g>
      <path class="st4" d="M218.32,67.06c-12.18-7.03-12.18-18.43,0-25.46s31.92-7.03,44.1,0,12.18,18.43,0,25.46-31.92,7.03-44.1,0Z"/>
      <path class="st4" d="M266.69,48.24c4.08,5.9,1.99,12.89-6.28,17.66-11.07,6.39-29.02,6.39-40.09,0s-11.07-16.75,0-23.15c8.27-4.77,20.38-5.98,30.59-3.62"/>
      <path class="st4" d="M265.48,51.71c1.31,4.21-.57,8.69-5.63,12.14"/>
      <path class="st4" d="M223.89,43.08c5.97-2.93,13.73-4.01,21.02-3.25"/>
      <path class="st4" d="M215.26,56.95c-1.31-4.21.57-8.69,5.63-12.14"/>
      <path class="st4" d="M231.74,68.19c-3.44-.71-6.66-1.86-9.41-3.45s-4.74-3.45-5.98-5.44"/>
      <path class="st4" d="M256.85,65.57c-5.97,2.93-13.73,4.01-21.02,3.25"/>
      <path class="st4" d="M264.1,51.92c1.19,3.94-.56,8.11-5.26,11.34"/>
      <path class="st4" d="M224.89,43.66c5.6-2.71,12.83-3.73,19.64-3.04"/>
      <path class="st4" d="M216.64,56.74c-1.19-3.94.56-8.11,5.26-11.35"/>
      <path class="st4" d="M232.11,67.4c-3.2-.67-6.21-1.75-8.78-3.24s-4.44-3.22-5.6-5.07"/>
      <path class="st4" d="M255.84,64.99c-5.6,2.71-12.83,3.73-19.64,3.04"/>
      <path class="st4" d="M225.33,63.01c-8.3-4.79-8.3-12.57,0-17.36,8.3-4.79,21.76-4.79,30.07,0s8.3,12.57,0,17.36-21.76,4.79-30.07,0Z"/>
      <path class="st4" d="M228.34,61.27c-6.64-3.84-6.64-10.05,0-13.89,6.64-3.84,17.41-3.84,24.05,0s6.64,10.05,0,13.89c-6.64,3.84-17.41,3.84-24.05,0Z"/>
      <path class="st4" d="M227.34,61.85c-7.2-4.15-7.2-10.89,0-15.05s18.86-4.15,26.06,0,7.2,10.89,0,15.05-18.86,4.15-26.06,0Z"/>
      <path class="st4" d="M229.34,60.69c-6.09-3.52-6.09-9.22,0-12.73s15.96-3.52,22.05,0c1.47.85,2.59,1.83,3.35,2.88.55.76.92,1.56,1.09,2.36.58,2.66-.9,5.45-4.44,7.49-6.09,3.52-15.96,3.52-22.05,0h0Z"/>
      <line class="st4" x1="247.13" y1="59.96" x2="250.13" y2="58.23"/>
      <polyline class="st4" points="249.79 61.5 247.13 59.96 250.13 58.23 252.79 59.77"/>
      <polyline class="st4" points="230.94 47.16 233.6 48.69 230.61 50.42 227.95 48.88"/>
      <polyline class="st4" points="255.84 53.2 252.2 53.76 251.11 51.4 254.74 50.84"/>
      <polyline class="st4" points="224.9 55.45 228.53 54.89 229.63 57.25 225.99 57.82"/>
      <polyline class="st4" points="246.41 46.03 245.44 48.13 241.35 47.49 242.32 45.4"/>
      <polyline class="st4" points="234.32 62.63 235.3 60.53 239.39 61.16 238.41 63.26"/>
      <line class="st4" x1="256.9" y1="62.14" x2="261.91" y2="65.04"/>
      <line class="st4" x1="258.92" y1="66.76" x2="253.9" y2="63.87"/>
      <line class="st4" x1="221.82" y1="41.89" x2="226.83" y2="44.78"/>
      <line class="st4" x1="223.84" y1="46.51" x2="218.83" y2="43.62"/>
      <line class="st4" x1="268.3" y1="51.27" x2="261.45" y2="52.33"/>
      <line class="st4" x1="220.38" y1="58.68" x2="213.53" y2="59.74"/>
      <line class="st4" x1="212.44" y1="57.38" x2="219.28" y2="56.32"/>
      <line class="st4" x1="243.83" y1="42.15" x2="245.66" y2="38.2"/>
      <line class="st4" x1="230.99" y1="69.82" x2="232.82" y2="65.87"/>
      <line class="st4" x1="236.91" y1="66.5" x2="235.08" y2="70.45"/>
      <path class="st0" d="M260.64,47.13c.14.18.26.36.35.53l4.73-.74h0c-1.32-1.51-3.08-2.93-5.27-4.2s-4.65-2.28-7.27-3.04h0l-1.29,2.73c.3.05.61.12.92.2,1.77.46,3.64,1.27,4.63,1.84l-1.4.81,1.4-.81c.99.57,2.39,1.66,3.18,2.68h.02Z"/>
      <path class="st8" d="M256.02,45.29c.99.57,2.39,1.66,3.18,2.68.38.49.61.96.59,1.36.16.18,2.02.42,2.02.42l2.58-.4.03-.3c.02-.27.35-.51.81-.58l4.16-.65h.05c-1.52-2.27-3.86-4.4-7.02-6.22s-6.84-3.18-10.76-4.05v.03l-1.15,2.4c-.13.27-.53.45-1.01.47l-.52.02-.69,1.49s.42,1.08.73,1.17c.69-.01,1.51.12,2.35.34,1.77.46,3.64,1.27,4.63,1.84l.02-.02ZM252.78,42.65c-.31-.08-.62-.15-.92-.2l1.29-2.73h0c2.62.76,5.08,1.78,7.27,3.04s3.94,2.68,5.27,4.2h0l-4.73.74c-.09-.17-.21-.35-.35-.53-.79-1.02-2.2-2.1-3.18-2.68h0c-.99-.57-2.87-1.38-4.63-1.84h-.02Z"/>
      <path class="st4" d="M56.6,100.37c2.77,1.6,2.77,4.19,0,5.79s-7.25,1.6-10.02,0-2.77-4.19,0-5.79,7.25-1.6,10.02,0Z"/>
      <path class="st4" d="M52.58,96.92h-.02l-5.95,3.44c-2.78,1.61-2.78,4.21,0,5.81l11.73,5.77"/>
      <path class="st4" d="M362.19,63.96l-190.25,109.85c-2.81,1.62-7.37,1.62-10.19,0L44.66,106.2c-2.81-1.62-2.81-4.26,0-5.88L234.91-9.53c2.81-1.62,7.37-1.62,10.19,0l117.09,67.61c2.81,1.62,2.81,4.26,0,5.88h0Z"/>
      <path class="st4" d="M55.6,100.95c2.21,1.28,2.21,3.35,0,4.63s-5.8,1.28-8.02,0-2.21-3.35,0-4.63,5.8-1.28,8.02,0Z"/>
      <line class="st4" x1="79.52" y1="124.18" x2="276.22" y2="10.6"/>
      <line class="st4" x1="52.96" y1="109.26" x2="250.45" y2="-4.77"/>
      <line class="st4" x1="117.6" y1="146.17" x2="314.3" y2="32.59"/>
      <path class="st4" d="M81.03,119.1c.83.48.83,1.26,0,1.74s-2.18.48-3.01,0-.83-1.26,0-1.74,2.18-.48,3.01,0Z"/>
      <path class="st4" d="M335.21,79.54l-136.3,78.7-22.86-20.33c-.47-.42-.37-.97.24-1.33l121.41-70.1c.61-.35,1.57-.41,2.3-.14l35.21,13.2h0Z"/>
      <path class="st4" d="M321.54,48.09l-177.1,102.26c-.91.52-2.38.52-3.29,0l-14.75-8.52c-.91-.52-.91-1.38,0-1.9l177.1-102.26c.91-.52,2.38-.52,3.29,0l14.75,8.52c.91.52.91,1.38,0,1.9h0Z"/>
      <path class="st4" d="M267.43,9.73c.83-.48,2.18-.48,3.01,0s.83,1.26,0,1.74-2.18.48-3.01,0-.83-1.26,0-1.74Z"/>
      <path class="st4" d="M154.94,54.15c.83-.48,2.18-.48,3.01,0s.83,1.26,0,1.74-2.18.48-3.01,0-.83-1.26,0-1.74Z"/>
      <path class="st4" d="M183.13,153.44c4.7,2.72,4.7,7.12,0,9.84s-12.33,2.72-17.04,0c-4.7-2.72-4.7-7.12,0-9.84s12.33-2.72,17.04,0Z"/>
      <path class="st4" d="M177.62,156.62c1.66.96,1.66,2.51,0,3.47s-4.35.96-6.01,0-1.66-2.51,0-3.47,4.35-.96,6.01,0Z"/>
      <path class="st4" d="M176.12,157.49c.83.48.83,1.26,0,1.74s-2.18.48-3.01,0-.83-1.26,0-1.74,2.18-.48,3.01,0Z"/>
      <path class="st4" d="M337.08,64.73c.83.48.83,1.26,0,1.74s-2.18.48-3.01,0-.83-1.26,0-1.74,2.18-.48,3.01,0Z"/>
      <path class="st4" d="M335.37,47.65c1.11.64,1.11,1.68,0,2.31s-2.9.64-4.01,0-1.11-1.68,0-2.31,2.9-.64,4.01,0Z"/>
      <path class="st4" d="M53.6,102.11c1.11.64,1.11,1.68,0,2.31s-2.9.64-4.01,0-1.11-1.68,0-2.31,2.9-.64,4.01,0Z"/>
      <path class="st4" d="M167.81,96.22c6.64,3.84,6.64,10.05,0,13.89-6.64,3.84-17.41,3.84-24.05,0-6.64-3.84-6.64-10.05,0-13.89,6.64-3.84,17.41-3.84,24.05,0Z"/>
      <path class="st4" d="M168.82,95.64c7.2,4.15,7.2,10.89,0,15.05-7.2,4.15-18.86,4.15-26.06,0-7.2-4.15-7.2-10.89,0-15.05,7.2-4.15,18.86-4.15,26.06,0Z"/>
      <path class="st4" d="M252.4,47.38c6.64,3.84,6.64,10.05,0,13.89-6.64,3.84-17.41,3.84-24.05,0-6.64-3.84-6.64-10.05,0-13.89,6.64-3.84,17.41-3.84,24.05,0Z"/>
      <path class="st4" d="M253.4,46.8c7.2,4.15,7.2,10.89,0,15.05-7.2,4.15-18.86,4.15-26.06,0s-7.2-10.89,0-15.05c7.2-4.15,18.86-4.15,26.06,0Z"/>
      <path class="st0" d="M135.51,110.36c-.14-.18-.26-.36-.35-.53l-4.73.74h0c1.32,1.51,3.08,2.93,5.27,4.2s4.65,2.28,7.27,3.04h0l1.29-2.73c-.3-.05-.61-.12-.92-.2-1.77-.46-3.64-1.27-4.63-1.84l1.4-.81-1.4.81c-.99-.57-2.39-1.66-3.18-2.68h-.02Z"/>
      <path class="st4" d="M347.04,54.38c1.11.64,1.11,1.68,0,2.31s-2.9.64-4.01,0-1.11-1.68,0-2.31,2.9-.64,4.01,0Z"/>
      <path class="st4" d="M147.69,156.02c1.11.64,1.11,1.68,0,2.31s-2.9.64-4.01,0-1.11-1.68,0-2.31,2.9-.64,4.01,0Z"/>
      <path class="st4" d="M159.36,162.75c1.11.64,1.11,1.68,0,2.31s-2.9.64-4.01,0-1.11-1.68,0-2.31,2.9-.64,4.01,0Z"/>
      <path class="st4" d="M71.21,96.57l-9.62,5.55-10.02-5.79,13.03-7.52,6.61,3.82c1.88,1.09,1.88,2.85,0,3.94Z"/>
      <line class="st4" x1="73.5" y1="83.67" x2="66.49" y2="87.72"/>
      <polygon class="st4" points="77.48 88.16 71.47 91.63 67.46 89.32 73.48 85.84 77.48 88.16"/>
      <polyline class="st2" points="63.48 102.19 59.61 104.42 58.61 103.85 62.48 101.61"/>
      <line class="st4" x1="67.46" y1="89.32" x2="71.47" y2="91.63"/>
      <line class="st4" x1="45.08" y1="100.08" x2="52.46" y2="95.82"/>
      <path class="st4" d="M65.09,94.31c1.11.64,1.11,1.68,0,2.31s-2.9.64-4.01,0-1.11-1.68,0-2.31,2.9-.64,4.01,0Z"/>
      <g>
        <path class="st4" d="M235.01-2.64c2.77,1.6,7.25,1.6,10.02,0s2.77-4.19,0-5.79c-2.77-1.6-7.25-1.6-10.02,0s-2.77,4.19,0,5.79h0Z"/>
        <line class="st4" x1="159.81" y1="170.54" x2="58.33" y2="111.95"/>
        <polyline class="st4" points="333.35 78.46 197.05 157.16 171.35 172"/>
        <path class="st4" d="M229.04-4.96h0s5.95-3.45,5.95-3.45c2.78-1.61,7.29-1.61,10.07,0l9.98,6.78,101.55,58.63"/>
        <path class="st4" d="M236.01-3.22c2.21,1.28,5.8,1.28,8.02,0s2.21-3.35,0-4.63-5.8-1.28-8.02,0-2.21,3.35,0,4.63h0Z"/>
        <path class="st4" d="M238.02-4.38c1.11.64,2.9.64,4.01,0,1.11-.64,1.11-1.68,0-2.31s-2.9-.64-4.01,0-1.11,1.68,0,2.31Z"/>
        <path class="st4" d="M228.43,5.79L238.05.24l-10.02-5.79-13.03,7.52,6.61,3.82c1.88,1.09,4.93,1.09,6.82,0h0Z"/>
        <polygon class="st4" points="213.86 9.42 219.87 5.95 215.86 3.63 209.85 7.1 213.86 9.42"/>
        <path class="st4" d="M224.52,2.26c1.11.64,2.9.64,4.01,0s1.11-1.68,0-2.31-2.9-.64-4.01,0-1.11,1.68,0,2.31Z"/>
        <polyline class="st2" points="238.09 1.37 241.96 -.86 240.96 -1.44 237.08 .79"/>
      </g>
      <path class="st4" d="M62.59,102.7l9.62-5.56c2.35-1.35,2.43-3.52.26-4.93h0l4.84-2.8c1.2-.69,1.22-1.81.04-2.48l-2.88-1.66L208.84,7.69l2.88,1.66c1.18.68,3.1.67,4.3-.02l4.84-2.8h0c2.45,1.25,6.2,1.2,8.55-.15l9.62-5.56"/>
      <polygon class="st4" points="229.05 -3.83 217.98 2.57 215.97 1.41 227.05 -4.98 229.05 -3.83"/>
      <path class="st4" d="M360.27,58.13c2.77,1.6,2.77,4.19,0,5.79-1.04.6-2.32.97-3.66,1.12-2.23.25-4.63-.12-6.36-1.12-2.77-1.6-2.77-4.19,0-5.79,1.72-.99,4.11-1.37,6.33-1.13,1.35.15,2.64.52,3.69,1.13h0Z"/>
      <path class="st4" d="M359.27,58.71c2.21,1.28,2.21,3.35,0,4.63s-5.8,1.28-8.02,0-2.21-3.35,0-4.63,5.8-1.28,8.02,0Z"/>
      <path class="st4" d="M357.27,59.86c1.11.64,1.11,1.68,0,2.31s-2.9.64-4.01,0-1.11-1.68,0-2.31,2.9-.64,4.01,0Z"/>
      <g>
        <line class="st4" x1="134.23" y1="157.92" x2="334.67" y2="42.19"/>
        <line class="st4" x1="135.76" y1="158.81" x2="336.2" y2="43.08"/>
        <line class="st4" x1="137.3" y1="159.7" x2="337.74" y2="43.96"/>
        <line class="st4" x1="138.84" y1="160.59" x2="339.28" y2="44.85"/>
        <line class="st4" x1="140.38" y1="161.47" x2="340.82" y2="45.74"/>
        <line class="st4" x1="141.91" y1="162.36" x2="342.35" y2="46.63"/>
        <line class="st4" x1="143.45" y1="163.25" x2="343.89" y2="47.52"/>
        <line class="st4" x1="144.99" y1="164.14" x2="345.43" y2="48.4"/>
        <line class="st4" x1="146.53" y1="165.03" x2="346.97" y2="49.29"/>
        <line class="st4" x1="148.06" y1="165.91" x2="348.5" y2="50.18"/>
        <line class="st4" x1="149.6" y1="166.8" x2="350.04" y2="51.07"/>
        <line class="st4" x1="151.14" y1="167.69" x2="351.58" y2="51.95"/>
        <line class="st4" x1="152.68" y1="168.58" x2="353.12" y2="52.84"/>
        <line class="st4" x1="154.21" y1="169.46" x2="354.65" y2="53.73"/>
        <line class="st4" x1="155.75" y1="170.35" x2="356.19" y2="54.62"/>
        <line class="st4" x1="353.6" y1="57.89" x2="357.73" y2="55.51"/>
        <line class="st4" x1="165.22" y1="166.66" x2="349.84" y2="60.06"/>
        <line class="st4" x1="157.29" y1="171.24" x2="161.39" y2="168.87"/>
        <line class="st4" x1="356.73" y1="57.86" x2="359.27" y2="56.39"/>
        <line class="st4" x1="168.32" y1="166.65" x2="349.78" y2="61.87"/>
        <line class="st4" x1="158.83" y1="172.13" x2="161.35" y2="170.67"/>
        <line class="st4" x1="358.78" y1="58.45" x2="360.8" y2="57.28"/>
        <line class="st4" x1="170.36" y1="167.24" x2="350.81" y2="63.05"/>
        <line class="st4" x1="160.36" y1="173.02" x2="162.39" y2="171.84"/>
        <line class="st4" x1="360.2" y1="59.41" x2="362.34" y2="58.17"/>
        <line class="st4" x1="171.77" y1="168.2" x2="352.47" y2="63.87"/>
        <line class="st4" x1="161.9" y1="173.9" x2="164.05" y2="172.66"/>
        <line class="st4" x1="360.91" y1="60.77" x2="363.59" y2="59.22"/>
        <line class="st4" x1="172.48" y1="169.57" x2="354.82" y2="64.28"/>
        <line class="st4" x1="163.73" y1="174.62" x2="166.42" y2="173.07"/>
        <line class="st4" x1="362.19" y1="61.81" x2="364.26" y2="60.61"/>
        <line class="st4" x1="166.13" y1="175.01" x2="356.59" y2="65.04"/>
      </g>
      <path class="st4" d="M161.81,172.7c2.77,1.6,7.25,1.6,10.02,0,1.04-.6,1.69-1.34,1.95-2.11.43-1.29-.22-2.68-1.95-3.67-2.77-1.6-7.25-1.6-10.02,0-1.72.99-2.37,2.37-1.95,3.66.26.78.91,1.53,1.95,2.13h0Z"/>
      <path class="st4" d="M162.81,172.12c.38.22.8.4,1.24.54.74.24,1.55.37,2.37.41,1.58.06,3.2-.25,4.41-.95s1.76-1.63,1.65-2.55c-.06-.47-.29-.94-.71-1.37-.25-.26-.56-.5-.94-.72-.15-.09-.31-.17-.47-.24-.62-.28-1.31-.48-2.04-.6-1.02-.16-2.09-.15-3.11.02-.88.15-1.71.42-2.4.83-1.49.86-1.98,2.08-1.46,3.18.2.42.54.82,1.04,1.18.13.09.27.19.42.27h0Z"/>
      <path class="st4" d="M164.82,170.96c1.11.64,2.9.64,4.01,0s1.11-1.68,0-2.31c-1.11-.64-2.9-.64-4.01,0s-1.11,1.68,0,2.31Z"/>
      <path class="st11" d="M217.09,139.8c2.77,1.6,2.77,4.19,0,5.79s-7.25,1.6-10.02,0-2.77-4.19,0-5.79,7.25-1.6,10.02,0Z"/>
      <path class="st11" d="M313.3,84.25c2.77,1.6,2.77,4.19,0,5.79s-7.25,1.6-10.02,0-2.77-4.19,0-5.79,7.25-1.6,10.02,0Z"/>
      <path class="st11" d="M235.21,130.34l-3.43,1.98c-1.54.89-4.05.89-5.59,0l-2.57-1.48c-1.54-.89-1.54-2.34,0-3.23l3.43-1.98c1.54-.89,4.05-.89,5.59,0l2.57,1.48c1.54.89,1.54,2.34,0,3.23Z"/>
      <path class="st4" d="M328.42,59.74c.83.48.83,1.26,0,1.74s-2.18.48-3.01,0-.83-1.26,0-1.74,2.18-.48,3.01,0Z"/>
      <path class="st4" d="M234.07,137.91l-6.18,3.57c-.51.29-1.33.29-1.84,0h0c-.51-.29-.51-.77,0-1.06l6.18-3.57c.51-.29,1.33-.29,1.84,0h0c.51.29.51.77,0,1.06Z"/>
      <path class="st4" d="M306.22,96.25l-6.18,3.57c-.51.29-1.33.29-1.84,0h0c-.51-.29-.51-.77,0-1.06l6.18-3.57c.51-.29,1.33-.29,1.84,0h0c.51.29.51.77,0,1.06Z"/>
      <path class="st11" d="M217.08,139.78c2.77,1.6,2.77,4.19,0,5.79s-7.25,1.6-10.02,0-2.77-4.19,0-5.79,7.25-1.6,10.02,0Z"/>
      <path class="st11" d="M313.3,84.22c2.77,1.6,2.77,4.19,0,5.79s-7.25,1.6-10.02,0-2.77-4.19,0-5.79,7.25-1.6,10.02,0Z"/>
      <path class="st11" d="M235.2,130.32l-3.43,1.98c-1.54.89-4.05.89-5.59,0l-2.57-1.48c-1.54-.89-1.54-2.34,0-3.23l3.43-1.98c1.54-.89,4.05-.89,5.59,0l2.57,1.48c1.54.89,1.54,2.34,0,3.23Z"/>
      <path class="st4" d="M251.52,126.68h0c.55.32.55.84,0,1.16l-7.1,4.1c-.51.29-1.33.29-1.84,0h0c-.51-.29-.51-.77,0-1.06l7.1-4.1-.16-.09-10.02-5.79,1-.58,11.02,6.37"/>
      <path class="st11" d="M289.01,99.17l-.95.55c-1.95,1.13-5.12,1.13-7.07,0l-.95-.55c-1.95-1.13-1.95-2.95,0-4.08l.95-.55c1.95-1.13,5.12-1.13,7.07,0l.95.55c1.95,1.13,1.95,2.95,0,4.08Z"/>
      <line class="st4" x1="214.12" y1="137.86" x2="212.83" y2="138.6"/>
      <path class="st4" d="M214.17,137.59c.09.08.08.19-.05.26"/>
      <g>
        <path class="st4" d="M249.35,105.48c1.51.87,1.51,2.28,0,3.16s-3.96.87-5.47,0-1.51-2.28,0-3.16,3.96-.87,5.47,0Z"/>
        <path class="st4" d="M309.04,83.05l1.29-.74c.12-.07.14-.18.05-.26l-2.23-1.95,11.26-6.5"/>
        <path class="st4" d="M188.65,149.09l11.26-6.5,3.37,1.29c.14.05.33.04.45-.03l1.29-.74"/>
        <path class="st4" d="M187.07,147.69l28.87-16.67,13.03-10.99,15.65-9.03h0c-1.11-.19-2.15-.53-3.02-1.03-2.77-1.6-2.77-4.19,0-5.79s7.25-1.6,10.02,0c.87.5,1.47,1.11,1.79,1.74h0l15.65-9.03,19.04-7.52,28.87-16.67"/>
        <path class="st4" d="M214.17,137.59l-2.23-1.95,6.01-3.47,13.03-10.99,17.66-10.2h0c1.09-.19,2.12-.53,2.98-1.03s1.46-1.09,1.78-1.72h0l17.66-10.2,1.79-.71,4.91,2.84c.55.32,1.45.32,2,0h0c.55-.32.55-.84,0-1.16l-4.54-2.62,9.52-3.76,3.04,1.75c.55.32,1.45.32,2,0h0c.55-.32.55-.84,0-1.16l-2.66-1.54h0l2.98-1.18,6.01-3.47,3.37,1.29c.14.05.33.04.45-.03l1.29-.74"/>
      </g>
      <path class="st4" d="M246.01,123.49l-.61-.35-.89-.52,1-.58.05-.03c.25-.14.65-.14.89,0s.25.37,0,.52l-.05.03.61.35c.28.16.28.42,0,.58l-.5.29"/>
      <path class="st4" d="M280.59,109.9h0c.55.32,1.45.32,2,0l7.1-4.1c.51-.29.51-.77,0-1.06h0c-.51-.29-1.33-.29-1.84,0l-7.1,4.1-.16-.09-10.02-5.79-1,.58,11.02,6.37"/>
      <path class="st4" d="M275.08,106.71l-.61-.35-.89-.52-1,.58-.05.03c-.25.14-.25.37,0,.52s.65.14.89,0l.05-.03.61.35c.28.16.73.16,1,0l.5-.29"/>
      <polyline class="st4" points="218.76 131.49 230.11 138.04 228.11 139.2 216.95 132.75"/>
      <polyline class="st4" points="288.92 90.98 300.29 97.55 302.3 96.39 291.11 89.93"/>
      <path class="st4" d="M323.18,80.67c1.66.96,1.66,2.51,0,3.47s-4.35.96-6.01,0-1.66-2.51,0-3.47,4.35-.96,6.01,0Z"/>
      <path class="st4" d="M200.91,151.27c1.66.96,4.35.96,6.01,0s1.66-2.51,0-3.47-4.35-.96-6.01,0-1.66,2.51,0,3.47Z"/>
      <path class="st11" d="M320.71,69.17l-10-5.77c-.66-.38-.66-1,0-1.38l18.65-10.77c.66-.38,1.73-.38,2.39,0l10,5.77c.66.38.66,1,0,1.38l-18.65,10.77c-.66.38-1.73.38-2.39,0Z"/>
      <path class="st4" d="M327.79,59.37c.86.49.88,1.28.05,1.76s-2.2.47-3.05-.03-.88-1.28-.05-1.76,2.2-.47,3.05.03Z"/>
      <polygon class="st10" points="320.69 69.16 310.73 63.41 323.73 61.65 320.69 69.16"/>
      <path class="st4" d="M343.93,60.59c4.7,2.72,4.7,7.12,0,9.84s-12.33,2.72-17.04,0c-4.7-2.72-4.7-7.12,0-9.84s12.33-2.72,17.04,0Z"/>
      <path class="st4" d="M338.42,63.77c1.66.96,1.66,2.51,0,3.47s-4.35.96-6.01,0-1.66-2.51,0-3.47,4.35-.96,6.01,0Z"/>
      <polygon class="st4" points="65.62 90.54 54.55 96.93 52.54 95.77 63.61 89.38 65.62 90.54"/>
      <line class="st4" x1="269.44" y1="47.81" x2="333.16" y2="47.17"/>
      <line class="st4" x1="335.94" y1="48.11" x2="346.94" y2="63.44"/>
      <line class="st4" x1="144.55" y1="158.67" x2="171.12" y2="165.04"/>
      <line class="st4" x1="101.54" y1="130.21" x2="143.68" y2="158.33"/>
    </g>
    <g class="st21">
      <g>
        <g class="st19">
          <g>
            <path class="st7" d="M362.18,63.95l-190.25,109.85c-2.81,1.62-7.37,1.62-10.19,0L44.65,106.19c-2.81-1.62-2.81-4.26,0-5.88L234.9-9.54c2.81-1.62,7.37-1.62,10.19,0l117.09,67.61c2.81,1.62,2.81,4.26,0,5.88Z"/>
            <line class="st7" x1="83.71" y1="104.44" x2="124.8" y2="80.71"/>
            <line class="st7" x1="85.38" y1="105.4" x2="124.8" y2="82.64"/>
            <line class="st7" x1="87.05" y1="106.37" x2="124.8" y2="84.57"/>
            <line class="st7" x1="88.72" y1="107.33" x2="124.8" y2="86.5"/>
            <line class="st7" x1="90.39" y1="108.29" x2="124.8" y2="88.43"/>
            <line class="st7" x1="92.06" y1="109.26" x2="124.8" y2="90.36"/>
            <line class="st7" x1="93.73" y1="110.22" x2="124.8" y2="92.29"/>
            <line class="st7" x1="95.4" y1="111.19" x2="124.8" y2="94.21"/>
            <line class="st7" x1="97.07" y1="112.15" x2="124.8" y2="96.14"/>
            <line class="st7" x1="98.74" y1="113.12" x2="124.8" y2="98.07"/>
            <line class="st5" x1="83.97" y1="104.59" x2="112.97" y2="87.85"/>
            <line class="st5" x1="85.64" y1="105.56" x2="112.97" y2="89.78"/>
            <line class="st5" x1="87.31" y1="106.52" x2="112.97" y2="91.71"/>
            <line class="st5" x1="88.98" y1="107.48" x2="112.97" y2="93.64"/>
            <line class="st5" x1="90.65" y1="108.45" x2="112.97" y2="95.57"/>
            <line class="st5" x1="92.32" y1="109.41" x2="112.97" y2="97.49"/>
            <line class="st5" x1="93.99" y1="110.38" x2="112.97" y2="99.42"/>
            <line class="st5" x1="95.67" y1="111.34" x2="112.97" y2="101.35"/>
            <line class="st5" x1="97.34" y1="112.31" x2="112.97" y2="103.28"/>
            <line class="st5" x1="99.01" y1="113.27" x2="112.97" y2="105.21"/>
            <line class="st3" x1="84.17" y1="104.7" x2="100.9" y2="95.04"/>
            <line class="st3" x1="85.84" y1="105.67" x2="100.9" y2="96.97"/>
            <line class="st3" x1="87.51" y1="106.63" x2="100.9" y2="98.9"/>
            <line class="st3" x1="89.18" y1="107.6" x2="100.9" y2="100.83"/>
            <line class="st3" x1="90.85" y1="108.56" x2="100.9" y2="102.76"/>
            <line class="st3" x1="92.52" y1="109.53" x2="100.9" y2="104.69"/>
            <line class="st3" x1="94.19" y1="110.49" x2="100.9" y2="106.61"/>
            <line class="st3" x1="95.86" y1="111.46" x2="100.9" y2="108.54"/>
            <line class="st3" x1="97.53" y1="112.42" x2="100.9" y2="110.47"/>
            <line class="st3" x1="99.2" y1="113.38" x2="100.9" y2="112.4"/>
          </g>
        </g>
        <g class="st13">
          <text class="st15" transform="translate(174.05 122.61) rotate(-30) scale(1 .87) skewX(26.56)"><tspan x="0" y="0">DYNAMIC CASSETTE LOW NOISE HIGH OUTPUT</tspan></text>
        </g>
        <g class="st13">
          <text class="st16" transform="translate(139.24 144.4) rotate(-30) scale(1 .87) skewX(26.56)"><tspan x="0" y="0">A:</tspan></text>
        </g>
        <g class="st13">
          <text class="st14" transform="translate(139.03 86.61) rotate(-30) scale(1 .87) skewX(26.56)"><tspan x="0" y="0">IECI/TYPE1 NORMAL POSITION</tspan></text>
        </g>
        <g class="st13">
          <text class="st12" transform="translate(140.99 79.11) rotate(-30) scale(1 .87) skewX(26.56)"><tspan x="0" y="0">TDK</tspan></text>
        </g>
        <g class="st20">
          <g>
            <polyline class="st18" points="132.31 76.6 132.3 78.19 129.54 78.19"/>
            <polyline class="st18" points="135.06 78.18 132.3 78.19 132.29 79.78"/>
            <polyline class="st18" points="135.06 78.18 137.44 78.98 136.07 80.36"/>
            <polyline class="st18" points="139.82 79.78 137.44 78.98 138.81 77.6 135.06 78.18 132.31 76.6 138.81 77.6"/>
            <polyline class="st18" points="135.06 82.53 133.68 81.16 131.29 81.95 132.29 79.78 129.54 78.19 131.29 81.95"/>
            <polyline class="st17" points="132.29 79.78 133.68 81.16 136.07 80.36"/>
            <polyline class="st18" points="136.07 80.36 135.06 82.53 139.82 79.78"/>
            <path class="st17" d="M243.46,13.07c-2.11.09-3.51,2.82-3.11,6.11.4,3.29,2.44,5.89,4.55,5.8,2.11-.08,3.51-2.82,3.11-6.11-.4-3.29-2.43-5.89-4.55-5.8M246.18,18.79c.69,2.88.35,5.29-.77,5.38s-2.58-2.17-3.27-5.05c-.69-2.88-.35-5.29.77-5.38s2.58,2.17,3.27,5.05"/>
            <path class="st1" d="M243.46,13.07c-2.11.09-3.51,2.82-3.11,6.11.4,3.29,2.44,5.89,4.55,5.8,2.11-.08,3.51-2.82,3.11-6.11-.4-3.29-2.43-5.89-4.55-5.8ZM246.18,18.79c.69,2.88.35,5.29-.77,5.38s-2.58-2.17-3.27-5.05c-.69-2.88-.35-5.29.77-5.38s2.58,2.17,3.27,5.05Z"/>
            <path class="st17" d="M235.6,32.22c.19-.15.45-.37.73-.63.31-.3,1.26-1.22,2.21-3.06.73-1.42,1.06-2.59,1.22-3.26.36-1.53.34-2.69.3-3.27-.02-.41-.09-1.26-.51-2.29-.07-.18-.33-.8-1.02-1.5-.5-.51-.86-.68-1.2-.79-.13-.04-.84-.25-1.61-.11-.18.04-.39.1-.83.34-.43.24-1.03.58-1.52,1.16-.29.34-.47.67-.63,1.16-.08.25-.42,1.2-.31,2.59.05.55.15,1.04.35,1.54.38.98.8,1.25,1.12,1.4.14.07.65.3,1.24.29,1.02-.02,2.08-.77,2.38-1.89,0-.03,0-.08-.04-.09-.06-.02-.17.04-.24.08-.29.16-.44.28-.55.35-.2.12-.53.23-.8.22-.46-.01-.79-.37-1-.64-.77-.97-.95-1.92-1.01-2.36-.08-.58-.15-1.2.14-1.99.13-.34.28-.62.41-.82.03-.04.08-.11.16-.17.02-.02.25-.19.55-.23.14-.02.41-.02.85.19.74.35,1.11.89,1.32,1.23.55.89.76,1.6.83,1.86.15.55.19.97.22,1.32.07.81.02,1.42-.03,2.01-.06.66-.1,1.13-.28,1.76-.13.46-.29.86-.62,1.64-.29.68-.46,1.11-.78,1.68-.37.67-.67,1.1-.91,1.4-.16.2-.3.37-.4.48-.02.01-.12.06-.13.15,0,.02,0,.09.09.16.11.07.26.08.28.08"/>
            <path class="st1" d="M235.6,32.22c.19-.15.45-.37.73-.63.31-.3,1.26-1.22,2.21-3.06.73-1.42,1.06-2.59,1.22-3.26.36-1.53.34-2.69.3-3.27-.02-.41-.09-1.26-.51-2.29-.07-.18-.33-.8-1.02-1.5-.5-.51-.86-.68-1.2-.79-.13-.04-.84-.25-1.61-.11-.18.04-.39.1-.83.34-.43.24-1.03.58-1.52,1.16-.29.34-.47.67-.63,1.16-.08.25-.42,1.2-.31,2.59.05.55.15,1.04.35,1.54.38.98.8,1.25,1.12,1.4.14.07.65.3,1.24.29,1.02-.02,2.08-.77,2.38-1.89,0-.03,0-.08-.04-.09-.06-.02-.17.04-.24.08-.29.16-.44.28-.55.35-.2.12-.53.23-.8.22-.46-.01-.79-.37-1-.64-.77-.97-.95-1.92-1.01-2.36-.08-.58-.15-1.2.14-1.99.13-.34.28-.62.41-.82.03-.04.08-.11.16-.17.02-.02.25-.19.55-.23.14-.02.41-.02.85.19.74.35,1.11.89,1.32,1.23.55.89.76,1.6.83,1.86.15.55.19.97.22,1.32.07.81.02,1.42-.03,2.01-.06.66-.1,1.13-.28,1.76-.13.46-.29.86-.62,1.64-.29.68-.46,1.11-.78,1.68-.37.67-.67,1.1-.91,1.4-.16.2-.3.37-.4.48-.02.01-.12.06-.13.15,0,.02,0,.09.09.16.11.07.26.08.28.08h.02Z"/>
            <path class="st17" d="M226.9,35.47l-4.68,2.7-.25-.55c.46-.27.79-.5.99-.71.2-.21.29-.44.27-.71-.02-.27-.13-.62-.33-1.05l-2.92-6.73c-.17-.41-.35-.68-.53-.81-.19-.13-.42-.16-.69-.07-.27.08-.63.25-1.07.51l-.23-.58,4.9-2.83c.91-.52,1.77-.91,2.59-1.17.82-.25,1.58-.37,2.29-.34.71.03,1.36.2,1.94.52.58.32,1.1.79,1.54,1.42.74,1.05,1.17,2.06,1.29,3.03.13.97-.01,1.9-.41,2.77-.39.88-.99,1.7-1.8,2.46-.8.76-1.77,1.47-2.91,2.13M226.46,34.8c1.27-.73,2.21-1.51,2.84-2.34s.9-1.74.82-2.73c-.08-.99-.54-2.08-1.38-3.25-.34-.47-.72-.87-1.13-1.18-.42-.31-.88-.53-1.4-.63-.52-.11-1.11-.09-1.76.06-.66.15-1.4.46-2.22.93-.13.08-.25.15-.35.21-.1.07-.23.16-.39.27l3.93,9.24c.17-.07.34-.15.51-.25l.54-.31v-.02Z"/>
          </g>
        </g>
      </g>
    </g>
  </g>
  <g>
    <line class="st6" x1="196.87" y1="179.03" x2="171.77" y2="193.53"/>
    <polyline class="st6" points="367.25 61 367.25 80.67 337.18 98.03"/>
    <polygon class="st9" points="198.87 154.15 335.18 75.46 337.18 78.36 337.18 98.03 335.18 103.24 198.88 181.93 196.87 179.03 196.87 159.36 198.87 154.15"/>
    <line class="st6" x1="335.18" y1="103.24" x2="337.18" y2="98.03"/>
    <line class="st6" x1="335.18" y1="75.46" x2="337.18" y2="78.36"/>
    <line class="st6" x1="196.87" y1="159.36" x2="198.87" y2="154.15"/>
    <line class="st6" x1="196.87" y1="179.03" x2="198.88" y2="181.93"/>
    <polyline class="st6" points="339.19 81.25 355.22 71.99 355.22 83.57 339.19 92.82"/>
    <polyline class="st6" points="199.17 156.3 334.89 77.95 334.89 101.09 199.17 179.44"/>
    <polygon class="st6" points="263.02 137.95 263.02 124.07 271.04 119.44 271.04 133.33 263.02 137.95"/>
    <polygon class="st6" points="253 148.37 253 125.22 281.06 109.02 281.06 132.17 253 148.37"/>
    <polygon class="st6" points="243.98 149.53 235.96 154.15 235.96 139.11 243.98 134.48 243.98 149.53"/>
    <polygon class="st6" points="290.08 107.87 298.1 103.24 298.1 118.28 290.08 122.91 290.08 107.87"/>
    <polygon class="st6" points="306.12 117.7 281.06 132.17 281.06 109.02 306.11 94.56 306.12 117.7"/>
    <polygon class="st6" points="253 148.37 227.94 162.83 227.94 139.69 253 125.22 253 148.37"/>
    <line class="st6" x1="281.06" y1="120.6" x2="290.08" y2="115.39"/>
    <line class="st6" x1="298.1" y1="110.76" x2="306.11" y2="106.13"/>
    <line class="st6" x1="253" y1="136.8" x2="243.98" y2="142"/>
    <line class="st6" x1="235.96" y1="146.63" x2="227.94" y2="151.26"/>
    <polygon class="st6" points="304.11 118.86 302.11 120.02 302.11 96.87 304.11 95.72 304.11 118.86"/>
    <polygon class="st6" points="229.94 138.53 231.95 137.37 231.95 160.52 229.94 161.68 229.94 138.53"/>
    <polyline class="st6" points="339.19 81.25 358.23 70.26 358.23 76.04 334.18 89.93 334.18 78.36"/>
    <polyline class="st6" points="334.18 101.5 334.18 89.93 361.24 74.31 361.24 80.09 339.19 92.82"/>
    <polygon class="st9" points="282.06 131.59 302.11 120.02 304.11 118.86 304.11 116.55 302.11 117.7 302.11 119.44 282.06 131.01 282.06 123.49 281.06 124.07 281.06 132.17 282.06 131.59 282.06 131.59"/>
    <polygon class="st9" points="282.06 109.02 302.11 97.45 302.11 99.19 304.11 98.03 304.11 95.72 302.11 96.87 282.06 108.44 281.06 109.02 281.06 117.12 282.06 116.55 282.06 109.02"/>
    <polygon class="st9" points="251.99 125.8 231.95 137.37 229.94 138.53 229.94 140.85 231.95 139.69 231.95 137.95 251.99 126.38 251.99 133.9 253 133.32 253 125.22 251.99 125.8 251.99 125.8"/>
    <polygon class="st9" points="251.99 148.37 231.95 159.94 231.95 158.2 229.94 159.36 229.94 161.68 231.95 160.52 251.99 148.95 253 148.37 253 140.27 251.99 140.85 251.99 148.37"/>
    <path class="st9" d="M279.56,133.04c-.83.48-1.5.09-1.5-.87s.67-2.12,1.5-2.6,1.5-.09,1.5.87-.67,2.12-1.5,2.6Z"/>
    <path class="st9" d="M279.56,113.36c-.83.48-1.5.09-1.5-.87s.67-2.12,1.5-2.6,1.5-.09,1.5.87-.67,2.12-1.5,2.6Z"/>
    <path class="st9" d="M254.5,147.5c-.83.48-1.5.09-1.5-.87s.67-2.12,1.5-2.6,1.5-.09,1.5.87-.67,2.12-1.5,2.6Z"/>
    <path class="st9" d="M254.5,127.83c-.83.48-1.5.09-1.5-.87s.67-2.12,1.5-2.6,1.5-.09,1.5.87-.67,2.12-1.5,2.6Z"/>
    <path class="st6" d="M339.19,92.82l-3.51,3.19v3.72c0,.5-.35,1.11-.79,1.36h0v-23.15h0c.43-.25.79-.05.79.45v3.72l3.51-.87v11.57h0Z"/>
    <line class="st6" x1="358.23" y1="76.04" x2="367.25" y2="70.84"/>
    <line class="st6" x1="273.32" y1="129.54" x2="273.32" y2="125.07"/>
    <line class="st6" x1="274.04" y1="128.7" x2="274.04" y2="124.65"/>
    <path class="st6" d="M271.04,133.33l1-.58v-1.45c0-.17.09-.38.22-.54l1.78-2.06"/>
    <polyline class="st6" points="263.02 137.95 262.02 138.53 262.02 124.65 272.04 118.86"/>
    <line class="st6" x1="273.31" y1="120.6" x2="273.31" y2="125.07"/>
    <line class="st6" x1="274.04" y1="120.6" x2="274.04" y2="124.65"/>
    <path class="st6" d="M271.03,119.44l1-.58v1.45c0,.17.09.28.22.28h1.78"/>
    <polyline class="st6" points="274.04 128.7 276.05 126.38 287.04 120.04 287.04 114.25 276.04 120.6 274.04 120.6"/>
    <line class="st6" x1="259.73" y1="137.38" x2="259.73" y2="132.91"/>
    <line class="st6" x1="259" y1="137.38" x2="259" y2="133.33"/>
    <path class="st6" d="M262.01,138.54l-1,.58v-1.45c0-.17-.09-.28-.22-.28h-1.78"/>
    <line class="st6" x1="259.74" y1="128.43" x2="259.74" y2="132.9"/>
    <line class="st6" x1="259.01" y1="129.27" x2="259.01" y2="133.32"/>
    <path class="st6" d="M262.02,124.65l-1,.58v1.45c0,.17-.09.38-.22.54l-1.78,2.06"/>
    <polyline class="st6" points="259 137.38 257 137.38 246.01 143.72 246.01 137.94 257 131.59 259.01 129.27"/>
    <path class="st6" d="M306.12,115.39v-18.52l23.98-13.85c1.14-.66,2.07-.12,2.07,1.19v13.74c0,1.32-.93,2.92-2.07,3.58l-23.98,13.85h0Z"/>
    <polygon class="st6" points="310.12 115.39 310.12 92.25 320.14 86.46 320.14 109.6 310.12 115.39"/>
    <polyline class="st6" points="194.87 164.57 178.83 173.83 178.83 185.4 194.87 176.14"/>
    <polyline class="st6" points="194.87 164.57 175.82 175.56 175.82 181.35 199.88 167.46 199.88 155.89"/>
    <polyline class="st6" points="199.88 179.03 199.88 167.46 172.82 183.08 172.82 188.87 194.87 176.14"/>
    <path class="st6" d="M194.87,176.14l3.51-.87v3.72c0,.5.35.71.79.45h0v-23.15h0c-.43.25-.79.86-.79,1.36v3.72l-3.51,3.19v11.57h0Z"/>
    <line class="st6" x1="175.82" y1="181.35" x2="171.52" y2="183.83"/>
    <path class="st6" d="M227.94,160.52v-18.52l-23.98,13.85c-1.14.66-2.07,2.26-2.07,3.58v13.74c0,1.32.93,1.85,2.07,1.19l23.98-13.85h0Z"/>
    <polygon class="st6" points="223.93 165.15 223.93 142 213.91 147.79 213.91 170.93 223.93 165.15"/>
  </g>
  <g>
    <line class="st6" x1="42.56" y1="122.86" x2="42.56" y2="105.01"/>
    <line class="st6" x1="162.18" y1="193.72" x2="44.66" y2="125.9"/>
    <polygon class="st6" points="73.59 125.22 73.59 140.27 71.59 139.11 71.59 124.07 73.59 125.22"/>
    <polygon class="st9" points="121.7 155.89 157.78 176.72 157.78 185.97 121.7 165.14 121.7 155.89"/>
    <polygon class="st6" points="155.78 177.87 155.78 182.5 123.71 163.99 123.71 159.36 155.78 177.87"/>
    <line class="st6" x1="123.71" y1="159.36" x2="121.7" y2="155.89"/>
    <line class="st6" x1="123.71" y1="163.99" x2="121.7" y2="165.14"/>
    <line class="st6" x1="155.78" y1="182.5" x2="157.78" y2="185.97"/>
    <line class="st6" x1="155.78" y1="177.87" x2="157.78" y2="176.72"/>
    <line class="st6" x1="42.55" y1="114.83" x2="162.09" y2="183.83"/>
    <path class="st6" d="M53.54,113.65l24.7,14.26.73,1.42c.5.52,1.24,1.24,2.16,1.94,1.32,1.01,2.35,1.5,3.17,1.86,3.47,1.57,5.2,2.24,6.34,2.59,8.07,2.52,18.25,10.5,20.23,12.35.25.24.94.9,1.89,1.5,0,0,2.94,1.76,3.99.63l16.2,9.35"/>
    <path class="st6" d="M81.14,131.27c1.32,1.01,2.35,1.5,3.17,1.86,3.47,1.57,5.2,2.24,6.34,2.59,8.07,2.52,18.25,10.5,20.23,12.35.25.24.94.9,1.89,1.5,0,0,2.94,1.76,3.99.63l16.34,9.43"/>
    <path class="st6" d="M78.97,129.32c.5.52,1.24,1.24,2.16,1.94"/>
    <path class="st6" d="M78.97,129.32l-.73-1.42-24.7-14.26c-.15-.09-.36-.19-.6-.22-.43-.06-.58.19-.83.32-.61.3-1.52-.25-2.08-.58-.62-.38-1.14-.86-1.49-1.24v6.36"/>
    <line class="st6" x1="52.56" y1="120.6" x2="52.56" y2="113.47"/>
    <path class="st6" d="M52.56,120.6v6.39c0,.63.44,1.39.98,1.7l24.7,14.26"/>
    <path class="st6" d="M134.23,159.65c.83.48,1.5,1.65,1.5,2.6s-.67,1.35-1.5.87-1.5-1.65-1.5-2.6.67-1.35,1.5-.87Z"/>
    <line class="st6" x1="163" y1="187.25" x2="163" y2="181.46"/>
    <line class="st6" x1="170.6" y1="187.25" x2="170.6" y2="181.46"/>
    <path class="st6" d="M52.55,128.12v-1.17l-6.01-3.47h0c0,.64.45,1.43,1.01,1.75l5,2.89Z"/>
    <line class="st6" x1="53.54" y1="128.69" x2="56.86" y2="130.61"/>
    <line class="st6" x1="42.57" y1="122.37" x2="52.55" y2="128.12"/>
    <polyline class="st6" points="157.78 174.24 159.79 175.4 159.79 189.62 157.78 188.46"/>
    <line class="st6" x1="135.65" y1="161.47" x2="159.76" y2="175.39"/>
    <path class="st6" d="M81.16,142.96c1.32.51,2.35,1.22,3.17,1.79,3.47,2.44,5.2,3.76,6.34,4.73,8.07,6.79,18.25,10.57,20.23,11.01.25.06.94.19,1.89.69,0,0,2.94,1.63,3.99,3.98l16.32,9.42"/>
    <path class="st6" d="M79,142.41c.5.06,1.24.2,2.16.55"/>
    <line class="st6" x1="79" y1="142.41" x2="78.26" y2="142.97"/>
    <path class="st6" d="M134.25,175.86c.83.48,1.5.09,1.5-.87s-.67-2.12-1.5-2.6-1.5-.09-1.5.87.67,2.12,1.5,2.6Z"/>
    <line class="st6" x1="135.65" y1="175.7" x2="159.78" y2="189.63"/>
    <polyline class="st6" points="48.54 111.92 42.56 108.45 42.55 103.24"/>
    <polygon class="st6" points="52.56 120.6 52.55 126.96 46.54 123.49 46.54 117.13 52.56 120.6"/>
  </g>
  <path class="st4" d="M171.9,193.45c-2.81,1.62-7.58,1.64-10.19,0"/>
  <path class="st4" d="M171.9,183.62c-2.81,1.62-7.37,1.62-10.19,0"/>
  <path class="st4" d="M170.6,181.47c-2.32.83-5.29.83-7.61,0"/>
  <path class="st4" d="M170.6,187.26c-2.32.83-5.29.83-7.61,0"/>
  <path class="st4" d="M171.67,179.12l195.58-112.91v9.26l-195.28,112.73-.08.05c-2.81,1.62-7.37,1.62-10.19,0h0l-1.93-1.12"/>
  <path class="st4" d="M171.96,178.96c-2.79,1.66-7.45,1.65-10.26.02l-.12-.07-1.79-1.03"/>
  <path class="st4" d="M44.66,125.9c-1.45-.84-2.15-1.94-2.1-3.03"/>
</svg>