<?xml version="1.0" encoding="UTF-8"?>
<svg id="Ebene_1" xmlns="http://www.w3.org/2000/svg" version="1.1" viewBox="0 0 289.13 180">
  <!-- Generator: Adobe Illustrator 30.0.0, SVG Export Plug-In . SVG Version: 2.1.1 Build 123)  -->
  <defs>
    <style>
      .st0, .st1, .st2, .st3, .st4, .st5 {
        fill: none;
      }

      .st1, .st6, .st2, .st7, .st3, .st4, .st5, .st8, .st9 {
        stroke: #1d1d1b;
      }

      .st1, .st6, .st2, .st3, .st5, .st8, .st9 {
        stroke-miterlimit: 10;
      }

      .st6, .st2 {
        stroke-linecap: round;
      }

      .st6, .st2, .st7, .st4, .st5, .st9 {
        stroke-width: .25px;
      }

      .st6, .st7, .st9 {
        fill: #fff;
      }

      .st10 {
        font-family: Helvetica, Helvetica;
        font-size: 12px;
      }

      .st10, .st11, .st12, .st13, .st8, .st14 {
        fill: #1d1d1b;
      }

      .st10, .st15, .st12, .st13, .st14 {
        isolation: isolate;
      }

      .st7, .st4 {
        stroke-linejoin: round;
      }

      .st3 {
        stroke-width: 1.5px;
      }

      .st12 {
        font-size: 6px;
      }

      .st12, .st13, .st14 {
        font-weight: 700;
      }

      .st12, .st14 {
        font-family: Helvetica-Bold, Helvetica;
      }

      .st16 {
        fill: #020202;
      }

      .st13 {
        font-family: HelveticaNeue-Bold, 'Helvetica Neue';
        font-size: 6.5px;
      }

      .st8 {
        stroke-width: .08px;
      }

      .st14 {
        font-size: 13px;
      }
    </style>
  </defs>
  <rect class="st9" x="2.84" width="283.46" height="180" rx="7.2" ry="7.2">
  <circle class="st0" cx="158.81" cy="197.85" r="2.13">
  <g>
    <circle class="st5" cx="85.14" cy="82.06" r="71.68">
    <circle class="st5" cx="85.07" cy="82.06" r="31.18">
    <path class="st5" d="M96.22,55.99c10.11,4.33,17.19,14.37,17.19,26.07,0,15.66-12.69,28.35-28.35,28.35s-28.35-12.69-28.35-28.35c0-11.69,7.08-21.73,17.19-26.07">
    <path class="st5" d="M99.61,61.1c6.08,4.23,10.24,11.04,10.88,18.85">
    <path class="st5" d="M59.64,79.94c.64-7.81,4.8-14.62,10.88-18.85">
    <path class="st5" d="M70.52,103.02c-6.08-4.23-10.24-11.04-10.88-18.85">
    <path class="st5" d="M95.95,105.14c-3.3,1.56-6.99,2.43-10.88,2.43s-7.58-.87-10.88-2.43">
    <path class="st5" d="M110.49,84.18c-.64,7.81-4.8,14.62-10.88,18.85">
    <path class="st5" d="M98.9,62.33c5.66,3.98,9.53,10.33,10.17,17.61">
    <path class="st5" d="M61.06,79.94c.63-7.28,4.51-13.64,10.17-17.61">
    <path class="st5" d="M71.24,101.79c-5.67-3.98-9.54-10.33-10.17-17.62">
    <path class="st5" d="M95.24,103.91c-3.09,1.44-6.54,2.25-10.17,2.25s-7.08-.8-10.17-2.25">
    <path class="st5" d="M109.07,84.18c-.63,7.28-4.51,13.64-10.17,17.61">
    <circle class="st5" cx="85.07" cy="82.06" r="21.26">
    <circle class="st5" cx="85.07" cy="82.06" r="17.01">
    <circle class="st5" cx="85.07" cy="82.06" r="18.43">
    <path class="st5" d="M85.07,97.65c-8.61,0-15.59-6.98-15.59-15.59s6.98-15.59,15.59-15.59c2.09,0,4.07.41,5.89,1.15,1.32.54,2.55,1.26,3.66,2.12,3.67,2.85,6.03,7.31,6.03,12.32,0,8.61-6.98,15.59-15.59,15.59h.01Z">
    <line class="st5" x1="96.75" y1="84.18" x2="96.75" y2="79.94">
    <polyline class="st5" points="100.51 84.18 96.75 84.18 96.75 79.94 100.51 79.94">
    <polyline class="st5" points="69.62 79.94 73.38 79.94 73.38 84.18 69.62 84.18">
    <polyline class="st5" points="94.62 69.74 92.74 73 89.08 70.88 90.96 67.62">
    <polyline class="st5" points="75.51 94.38 77.39 91.11 81.06 93.24 79.17 96.49">
    <polyline class="st5" points="79.17 67.62 81.06 70.88 77.39 73 75.51 69.74">
    <polyline class="st5" points="90.96 96.49 89.08 93.24 92.74 91.11 94.62 94.38">
    <line class="st5" x1="106.33" y1="79.94" x2="113.41" y2="79.94">
    <line class="st5" x1="113.41" y1="84.18" x2="106.33" y2="84.18">
    <line class="st5" x1="56.72" y1="79.94" x2="63.81" y2="79.94">
    <line class="st5" x1="63.81" y1="84.18" x2="56.72" y2="84.18">
    <line class="st5" x1="101.07" y1="58.57" x2="97.53" y2="64.71">
    <line class="st5" x1="76.27" y1="101.53" x2="72.73" y2="107.67">
    <line class="st5" x1="69.06" y1="105.55" x2="72.6" y2="99.41">
    <line class="st5" x1="72.6" y1="64.71" x2="69.06" y2="58.57">
    <line class="st5" x1="97.41" y1="107.67" x2="93.86" y2="101.53">
    <line class="st5" x1="97.53" y1="99.41" x2="101.07" y2="105.55">
    <path class="st0" d="M90.59,58.92c.32.12.62.26.9.4l2.43-4.25h0c-2.79-.92-5.77-1.41-8.86-1.41s-6.08.5-8.86,1.41h0l2.43,4.25c.28-.15.58-.28.9-.4,1.81-.69,4.13-1.02,5.53-1.03v1.98-1.98c1.4,0,3.72.33,5.53,1.03h0Z">
    <path class="st6" d="M85.07,59.93c1.4,0,3.72.33,5.53,1.03.86.33,1.61.74,2.08,1.24.34.11,1.95-.91,1.95-.91l1.33-2.31-.35-.38c-.32-.35-.38-.87-.14-1.29l2.14-3.74.03-.05c-3.84-1.69-8.1-2.64-12.57-2.64s-8.73.95-12.57,2.64l.03.05,2.14,3.74c.24.41.18.93-.14,1.29l-.35.38,1.33,2.31s1.61,1.02,1.95.91c.47-.5,1.22-.91,2.08-1.24,1.81-.69,4.13-1.02,5.53-1.03h0ZM79.54,58.98c-.32.12-.62.26-.9.4l-2.43-4.25h0c2.79-.92,5.77-1.41,8.86-1.41s6.08.5,8.86,1.41h0l-2.43,4.25c-.28-.15-.58-.28-.9-.4-1.81-.69-4.13-1.02-5.53-1.03h0c-1.4,0-3.72.33-5.53,1.03h0Z">
  </g>
  <circle class="st5" cx="204.76" cy="82.06" r="31.18">
  <path class="st5" d="M230.82,93.22c-4.33,10.11-14.37,17.19-26.07,17.19-15.66,0-28.35-12.69-28.35-28.35s12.69-28.35,28.35-28.35c11.69,0,21.73,7.08,26.07,17.19">
  <path class="st5" d="M225.72,96.6c-4.23,6.08-11.04,10.24-18.85,10.88">
  <path class="st5" d="M206.87,56.63c7.81.64,14.62,4.8,18.85,10.88">
  <path class="st5" d="M183.8,67.51c4.23-6.08,11.04-10.24,18.85-10.88">
  <path class="st5" d="M181.68,92.93c-1.56-3.3-2.43-6.99-2.43-10.88s.87-7.58,2.43-10.88">
  <path class="st5" d="M202.64,107.48c-7.81-.64-14.62-4.8-18.85-10.88">
  <path class="st5" d="M224.49,95.89c-3.98,5.66-10.33,9.53-17.61,10.17">
  <path class="st5" d="M206.87,58.06c7.28.63,13.64,4.51,17.61,10.17">
  <path class="st5" d="M185.02,68.23c3.98-5.67,10.33-9.54,17.62-10.17">
  <path class="st5" d="M182.91,92.23c-1.44-3.09-2.25-6.54-2.25-10.17s.8-7.08,2.25-10.17">
  <path class="st5" d="M202.64,106.05c-7.28-.63-13.64-4.51-17.61-10.17">
  <circle class="st5" cx="204.76" cy="82.06" r="21.26">
  <circle class="st5" cx="204.76" cy="82.06" r="17.01">
  <circle class="st5" cx="204.76" cy="82.06" r="18.43">
  <path class="st5" d="M189.17,82.06c0-8.61,6.98-15.59,15.59-15.59s15.59,6.98,15.59,15.59c0,2.09-.41,4.07-1.15,5.89-.54,1.32-1.26,2.55-2.12,3.66-2.85,3.67-7.31,6.03-12.32,6.03-8.61,0-15.59-6.98-15.59-15.59h0Z">
  <line class="st5" x1="202.64" y1="93.74" x2="206.87" y2="93.74">
  <polyline class="st5" points="202.64 97.51 202.64 93.74 206.87 93.74 206.87 97.51">
  <polyline class="st5" points="206.87 66.61 206.87 70.38 202.64 70.38 202.64 66.61">
  <polyline class="st5" points="217.08 91.61 213.82 89.73 215.93 86.07 219.19 87.95">
  <polyline class="st5" points="192.44 72.5 195.7 74.38 193.58 78.05 190.32 76.17">
  <polyline class="st5" points="219.2 76.17 215.93 78.05 213.82 74.38 217.08 72.5">
  <polyline class="st5" points="190.32 87.95 193.58 86.07 195.7 89.73 192.44 91.61">
  <line class="st5" x1="206.87" y1="103.32" x2="206.87" y2="110.4">
  <line class="st5" x1="202.64" y1="110.4" x2="202.64" y2="103.32">
  <line class="st5" x1="206.87" y1="53.71" x2="206.87" y2="60.8">
  <line class="st5" x1="202.64" y1="60.8" x2="202.64" y2="53.71">
  <line class="st5" x1="228.25" y1="98.05" x2="222.11" y2="94.52">
  <line class="st5" x1="185.29" y1="73.26" x2="179.15" y2="69.72">
  <line class="st5" x1="181.27" y1="66.05" x2="187.4" y2="69.6">
  <line class="st5" x1="222.11" y1="69.6" x2="228.25" y2="66.05">
  <line class="st5" x1="179.15" y1="94.4" x2="185.29" y2="90.86">
  <line class="st5" x1="187.4" y1="94.52" x2="181.27" y2="98.05">
  <path class="st0" d="M227.9,87.59c-.12.32-.26.62-.4.9l4.25,2.43h0c.92-2.79,1.41-5.77,1.41-8.86s-.5-6.08-1.41-8.86h0l-4.25,2.43c.15.28.28.58.4.9.69,1.81,1.02,4.13,1.03,5.53h-1.98,1.98c0,1.4-.33,3.72-1.03,5.53h0Z">
  <path class="st6" d="M226.89,82.06c0,1.4-.33,3.72-1.03,5.53-.33.86-.74,1.61-1.24,2.08-.11.34.91,1.95.91,1.95l2.31,1.33.38-.35c.35-.32.87-.38,1.29-.14l3.74,2.14.05.03c1.69-3.84,2.64-8.1,2.64-12.57s-.95-8.73-2.64-12.57l-.05.03-3.74,2.14c-.41.24-.93.18-1.29-.14l-.38-.35-2.31,1.33s-1.02,1.61-.91,1.95c.5.47.91,1.22,1.24,2.08.69,1.81,1.02,4.13,1.03,5.53h0ZM227.84,76.53c-.12-.32-.26-.62-.4-.9l4.25-2.43h0c.92,2.79,1.41,5.77,1.41,8.86s-.5,6.08-1.41,8.86h0l-4.25-2.43c.15-.28.28-.58.4-.9.69-1.81,1.02-4.13,1.03-5.53h0c0-1.4-.33-3.72-1.03-5.53h0Z">
  <circle class="st5" cx="11.34" cy="8.51" r="7.09">
  <path class="st5" d="M19.8,1.44h0s-8.42,0-8.42,0c-3.93,0-7.12,3.19-7.12,7.12l1.22,15.36">
  <circle class="st5" cx="11.34" cy="8.51" r="5.67">
  <line class="st5" x1="5.48" y1="53.86" x2="283.66" y2="53.86">
  <line class="st5" x1="4.96" y1="16.82" x2="284.25" y2="16.82">
  <line class="st5" x1="5.48" y1="107.72" x2="283.66" y2="107.72">
  <circle class="st5" cx="10.63" cy="48.71" r="2.13">
  <path class="st5" d="M240.95,179.99H48.19l8.73-41.06c.18-.85.93-1.46,1.8-1.46h171.7c.87,0,1.62.61,1.8,1.46l8.73,41.06Z">
  <rect class="st5" x="17.01" y="106.3" width="255.12" height="25.51" rx="2.33" ry="2.33">
  <circle class="st5" cx="278.51" cy="48.71" r="2.13">
  <circle class="st5" cx="144.57" cy="23.56" r="2.13">
  <circle class="st5" cx="30.86" cy="162.96" r="12.05">
  <circle class="st5" cx="30.86" cy="162.96" r="4.25">
  <circle class="st5" cx="30.86" cy="162.96" r="2.13">
  <circle class="st5" cx="258.27" cy="163.18" r="2.13">
  <circle class="st5" cx="277.28" cy="141.05" r="2.83">
  <circle class="st5" cx="11.34" cy="8.51" r="2.83">
  <circle class="st5" cx="85.14" cy="82.06" r="17.01">
  <circle class="st5" cx="85.14" cy="82.06" r="18.43">
  <circle class="st5" cx="204.76" cy="82.06" r="17.01">
  <circle class="st5" cx="204.76" cy="82.06" r="18.43">
  <path class="st0" d="M62,76.53c.12-.32.26-.62.4-.9l-4.25-2.43h0c-.92,2.79-1.41,5.77-1.41,8.86s.5,6.08,1.41,8.86h0l4.25-2.43c-.15-.28-.28-.58-.4-.9-.69-1.81-1.02-4.13-1.03-5.53h1.98-1.98c0-1.4.33-3.72,1.03-5.53h0Z">
  <polygon class="st2" points="289.13 162.99 286.3 165.83 286.3 114.8 289.13 117.64 289.13 162.99">
  <polygon class="st2" points="0 162.99 2.83 165.83 2.83 114.8 0 117.64 0 162.99">
  <circle class="st5" cx="277.28" cy="157.55" r="2.83">
  <circle class="st5" cx="11.86" cy="141.05" r="2.83">
  <circle class="st5" cx="11.86" cy="157.55" r="2.83">
  <path class="st5" d="M19.8,0h18.43v9.35c0,2.66-2.16,4.82-4.82,4.82h-13.61V0h0Z">
  <line class="st5" x1="50.83" x2="40.91">
  <rect class="st5" x="39.65" y="2.64" width="8.5" height="5.67">
  <polyline class="st4" points="21.07 15.59 15.59 15.59 15.59 14.18 21.07 14.18">
  <line class="st5" x1="39.65" y1="2.64" x2="39.65" y2="8.31">
  <line class="st5" x1="10.63" x2="21.07">
  <circle class="st5" cx="29.02" cy="7.09" r="2.83">
  <g>
    <circle class="st5" cx="277.82" cy="8.51" r="7.09">
    <line class="st5" x1="5.48" y1="167.41" x2="5.48" y2="23.9">
    <polyline class="st5" points="240.95 177.36 48.19 177.36 11.85 177.36">
    <path class="st5" d="M269.35,1.44s0,0,.01,0h8.42c3.93,0,7.12,3.19,7.12,7.12l-1.25,15.36v143.61">
    <circle class="st5" cx="277.82" cy="8.51" r="5.67">
    <circle class="st5" cx="277.82" cy="8.51" r="2.83">
    <path class="st5" d="M269.35,14.18h-13.61c-2.66,0-4.82-2.16-4.82-4.82V.01h18.43v14.17h0Z">
    <rect class="st5" x="241.01" y="2.64" width="8.5" height="5.67">
    <circle class="st5" cx="260.14" cy="7.09" r="2.83">
    <polyline class="st4" points="267.99 15.59 273.47 15.59 273.47 14.18 267.99 14.18">
  </g>
  <path class="st5" d="M19.8,15.59h13.61c3.32,0,6.03-2.59,6.22-5.86h6.86c1.7,0,3.07-1.35,3.07-3.01V2.65h190.02v4.07c0,1.66,1.38,3.01,3.07,3.01h6.86c.19,3.27,2.91,5.86,6.22,5.86h13.61">
  <rect class="st5" x="252.31" width="15.66" height="2.83">
  <path class="st5" d="M284.89,171.49c0,3.91-3.17,7.09-7.09,7.09-1.47,0-2.83-.45-3.96-1.21-1.89-1.27-3.12-3.43-3.12-5.88,0-3.91,3.17-7.09,7.09-7.09,2.44,0,4.58,1.23,5.86,3.1.77,1.14,1.23,2.51,1.23,3.99h-.01Z">
  <circle class="st5" cx="277.8" cy="171.49" r="5.67">
  <circle class="st5" cx="277.8" cy="171.49" r="2.83">
  <g>
    <line class="st5" x1="2.84" y1="133.86" x2="286.3" y2="133.86">
    <line class="st5" x1="2.84" y1="136.05" x2="286.3" y2="136.05">
    <line class="st5" x1="2.84" y1="138.22" x2="286.3" y2="138.22">
    <line class="st5" x1="2.84" y1="140.4" x2="286.3" y2="140.4">
    <line class="st5" x1="2.84" y1="142.57" x2="286.3" y2="142.57">
    <line class="st5" x1="2.84" y1="144.74" x2="286.3" y2="144.74">
    <line class="st5" x1="2.84" y1="146.92" x2="286.3" y2="146.92">
    <line class="st5" x1="2.84" y1="149.09" x2="286.3" y2="149.09">
    <line class="st5" x1="2.84" y1="151.27" x2="286.3" y2="151.27">
    <line class="st5" x1="2.84" y1="153.43" x2="286.3" y2="153.43">
    <line class="st5" x1="2.84" y1="155.61" x2="286.3" y2="155.61">
    <line class="st5" x1="2.84" y1="157.79" x2="286.3" y2="157.79">
    <line class="st5" x1="2.84" y1="159.97" x2="286.3" y2="159.97">
    <line class="st5" x1="2.84" y1="162.14" x2="286.3" y2="162.14">
    <line class="st5" x1="2.84" y1="164.32" x2="286.3" y2="164.32">
    <line class="st5" x1="280.46" y1="166.49" x2="286.3" y2="166.49">
    <line class="st5" x1="14.05" y1="166.49" x2="275.14" y2="166.49">
    <line class="st5" x1="2.84" y1="166.49" x2="8.63" y2="166.49">
    <line class="st5" x1="282.71" y1="168.66" x2="286.3" y2="168.66">
    <line class="st5" x1="16.26" y1="168.66" x2="272.89" y2="168.66">
    <line class="st5" x1="2.84" y1="168.66" x2="6.41" y2="168.66">
    <line class="st5" x1="283.43" y1="170.84" x2="286.3" y2="170.84">
    <line class="st5" x1="16.97" y1="170.84" x2="272.17" y2="170.84">
    <line class="st5" x1="2.84" y1="170.84" x2="5.7" y2="170.84">
    <line class="st5" x1="283.26" y1="173.01" x2="286.3" y2="173.01">
    <line class="st5" x1="16.79" y1="173.01" x2="272.33" y2="173.01">
    <line class="st5" x1="2.84" y1="173.01" x2="5.88" y2="173.01">
    <line class="st5" x1="282.11" y1="175.18" x2="285.89" y2="175.18">
    <line class="st5" x1="15.62" y1="175.18" x2="273.49" y2="175.18">
    <line class="st5" x1="3.24" y1="175.18" x2="7.05" y2="175.18">
    <line class="st5" x1="281.74" y1="177.36" x2="284.67" y2="177.36">
    <line class="st5" x1="4.46" y1="177.36" x2="273.82" y2="177.36">
  </g>
  <path class="st5" d="M4.25,171.47c0,3.91,3.17,7.09,7.09,7.09,1.47,0,2.83-.45,3.96-1.21,1.89-1.27,3.12-3.43,3.12-5.88,0-3.91-3.17-7.09-7.09-7.09-2.44,0-4.58,1.23-5.86,3.1-.77,1.14-1.23,2.51-1.23,3.99h.01Z">
  <path class="st5" d="M5.67,171.47c0,.53.07,1.05.21,1.54.23.81.64,1.55,1.18,2.17,1.04,1.2,2.57,1.95,4.28,1.95s3.24-.76,4.28-1.95c.54-.62.95-1.36,1.18-2.17.14-.49.21-1.01.21-1.54,0-.21,0-.43-.03-.63-.09-.78-.33-1.52-.71-2.17-.52-.91-1.29-1.67-2.22-2.17-.8-.44-1.73-.69-2.71-.69-2.11,0-3.95,1.15-4.93,2.86-.37.65-.62,1.39-.71,2.17-.02.21-.03.42-.03.63h0Z">
  <circle class="st5" cx="11.34" cy="171.47" r="2.83">
  <circle class="st9" cx="76.54" cy="170.27" r="7.09">
  <circle class="st9" cx="212.6" cy="170.27" r="7.09">
  <rect class="st9" x="99.21" y="159.97" width="12.76" height="11.53" rx="3.95" ry="3.95">
  <circle class="st5" cx="258.27" cy="150.95" r="2.13">
  <rect class="st5" x="87.9" y="177.36" width="11.34" height="2.61" rx="1.3" ry="1.3">
  <rect class="st5" x="189.95" y="177.36" width="11.34" height="2.61" rx="1.3" ry="1.3">
  <circle class="st9" cx="76.56" cy="170.24" r="7.09">
  <circle class="st9" cx="212.63" cy="170.24" r="7.09">
  <rect class="st9" x="99.24" y="159.93" width="12.76" height="11.53" rx="3.95" ry="3.95">
  <path class="st5" d="M124.04,178.55h0c0,.78-.63,1.42-1.42,1.42h-10.04c-.72,0-1.3-.58-1.3-1.3h0c0-.72.58-1.3,1.3-1.3h10.04v-14.4h1.42v15.59">
  <rect class="st9" x="177.9" y="160.03" width="11.34" height="11.34" rx="5" ry="5">
  <line class="st5" x1="83.91" y1="165.79" x2="82.08" y2="165.79">
  <path class="st5" d="M84.26,165.51c-.03.17-.18.29-.35.29">
  <g>
    <circle class="st5" cx="144.59" cy="151.05" r="3.87">
    <path class="st5" d="M218.15,165.79h1.82c.17,0,.32-.12.35-.29l.81-3.96h15.93">
    <path class="st5" d="M52.13,161.54h15.93l.81,3.96c.03.17.18.29.35.29h1.82">
    <path class="st5" d="M52.74,158.71h40.84l22.68-4.25h22.13c-.55-1.01-.87-2.17-.87-3.4,0-3.91,3.17-7.09,7.09-7.09s7.09,3.17,7.09,7.09c0,1.23-.31,2.39-.87,3.4h22.13l22.68,4.25h40.84">
    <path class="st5" d="M84.26,165.51l.81-3.96h8.5l22.68-4.25h24.98c1,.54,2.15.85,3.37.85s2.37-.31,3.37-.85h24.98l2.13.4v6.95c0,.78.63,1.42,1.42,1.42h0c.78,0,1.42-.63,1.42-1.42v-6.42l11.34,2.13v4.29c0,.78.63,1.42,1.42,1.42h0c.78,0,1.42-.63,1.42-1.42v-3.76h0l3.54.66h8.5l.81,3.96c.03.17.18.29.35.29h1.82">
  </g>
  <path class="st5" d="M124.04,170.74v-2.12h1.49c.35,0,.63.28.63.63s-.28.63-.63.63h-.07v.86c0,.39-.32.71-.71.71h-.71">
  <path class="st5" d="M165.15,178.55h0c0,.78.63,1.42,1.42,1.42h10.04c.72,0,1.3-.58,1.3-1.3h0c0-.72-.58-1.3-1.3-1.3h-10.04v-14.4h-1.42v15.59">
  <path class="st5" d="M165.14,170.74v-2.12h-1.49c-.35,0-.63.28-.63.63s.28.63.63.63h.07v.86c0,.39.32.71.71.71h.71">
  <polyline class="st5" points="94.99 161.28 94.99 177.33 92.15 177.33 92.15 161.54">
  <polyline class="st5" points="194.2 161.28 194.2 177.36 197.04 177.36 197.04 161.54">
  <circle class="st5" cx="226.8" cy="172.88" r="4.25">
  <circle class="st5" cx="62.39" cy="172.88" r="4.25">
  <rect class="st9" x="243.39" y="141.22" width="29.76" height="17.52" rx="1.69" ry="1.69">
  <ellipse class="st5" cx="258.27" cy="150.05" rx="2.13" ry="2.19">
  <polygon class="st7" points="243.39 157.02 243.39 142.93 254.73 149.98 243.39 157.02">
  <circle class="st5" cx="258.27" cy="162.96" r="12.05" transform="translate(56.04 391.79) rotate(-80.78)">
  <circle class="st5" cx="258.27" cy="162.96" r="4.25">
  <rect class="st5" x="21.19" width="15.66" height="2.83">
  <g>
    <line class="st5" x1="32.6" y1="32.68" x2="90.71" y2="32.68">
    <line class="st5" x1="32.6" y1="35.04" x2="88.35" y2="35.04">
    <line class="st5" x1="32.6" y1="37.4" x2="85.99" y2="37.4">
    <line class="st5" x1="32.6" y1="39.76" x2="83.62" y2="39.76">
    <line class="st5" x1="32.6" y1="42.13" x2="81.26" y2="42.13">
    <line class="st5" x1="32.6" y1="44.49" x2="78.9" y2="44.49">
    <line class="st5" x1="32.6" y1="46.85" x2="76.54" y2="46.85">
    <line class="st5" x1="32.6" y1="49.21" x2="74.17" y2="49.21">
    <line class="st5" x1="32.6" y1="51.58" x2="71.81" y2="51.58">
    <line class="st5" x1="32.6" y1="53.94" x2="69.45" y2="53.94">
  </g>
  <g>
    <line class="st1" x1="32.6" y1="33.06" x2="73.6" y2="33.06">
    <line class="st1" x1="32.6" y1="35.42" x2="71.24" y2="35.42">
    <line class="st1" x1="32.6" y1="37.78" x2="68.88" y2="37.78">
    <line class="st1" x1="32.6" y1="40.14" x2="66.52" y2="40.14">
    <line class="st1" x1="32.6" y1="42.5" x2="64.16" y2="42.5">
    <line class="st1" x1="32.6" y1="44.87" x2="61.79" y2="44.87">
    <line class="st1" x1="32.6" y1="47.23" x2="59.43" y2="47.23">
    <line class="st1" x1="32.6" y1="49.59" x2="57.07" y2="49.59">
    <line class="st1" x1="32.6" y1="51.95" x2="54.71" y2="51.95">
    <line class="st1" x1="32.6" y1="54.32" x2="52.34" y2="54.32">
  </g>
  <g>
    <line class="st3" x1="32.6" y1="33.33" x2="56.27" y2="33.33">
    <line class="st3" x1="32.6" y1="35.7" x2="53.9" y2="35.7">
    <line class="st3" x1="32.6" y1="38.06" x2="51.54" y2="38.06">
    <line class="st3" x1="32.6" y1="40.42" x2="49.18" y2="40.42">
    <line class="st3" x1="32.6" y1="42.78" x2="46.82" y2="42.78">
    <line class="st3" x1="32.6" y1="45.14" x2="44.46" y2="45.14">
    <line class="st3" x1="32.6" y1="47.51" x2="42.09" y2="47.51">
    <line class="st3" x1="32.6" y1="49.87" x2="39.73" y2="49.87">
    <line class="st3" x1="32.6" y1="52.23" x2="37.37" y2="52.23">
    <line class="st3" x1="32.6" y1="54.59" x2="35.01" y2="54.59">
  </g>
  <g class="st15">
    <g class="st15">
      <text class="st12" transform="translate(74.23 118.8)"><tspan x="0" y="0">DYNAMIC CASSETTE LOW NOISE HIGH OUTPUT</tspan></text>
    </g>
  </g>
  <g class="st15">
    <g class="st15">
      <text class="st10" transform="translate(22.93 120.88)"><tspan x="0" y="0">A:</tspan></text>
    </g>
  </g>
  <g class="st15">
    <g class="st15">
      <text class="st13" transform="translate(93.54 49.97)"><tspan x="0" y="0">IECI/TYPE1 NORMAL POSITION</tspan></text>
    </g>
  </g>
  <g class="st15">
    <g class="st15">
      <text class="st14" transform="translate(104.12 42.17)"><tspan x="0" y="0">TDK</tspan></text>
    </g>
  </g>
  <g>
    <g>
      <polyline class="st16" points="101.06 32.95 99.11 34.89 97.15 32.95">
      <g>
        <rect class="st0" x="97.15" y="32.95" width="3.91" height="3.89">
        <polyline class="st16" points="101.06 36.84 99.11 34.89 97.15 36.84">
      </g>
    </g>
    <g>
      <polyline class="st16" points="101.06 36.84 101.77 39.5 99.11 40.22">
      <g>
        <rect class="st0" x="99.81" y="37.56" width="3.91" height="3.89" transform="translate(16.68 107.89) rotate(-60)">
        <polyline class="st16" points="102.47 42.17 101.77 39.5 104.43 38.78 101.06 36.84 101.06 32.95 104.43 38.78">
      </g>
    </g>
    <polyline class="st16" points="95.74 42.17 96.45 39.5 93.78 38.78 97.15 36.84 97.15 32.95 93.78 38.78">
    <polyline points="97.15 36.84 96.45 39.5 99.11 40.22">
    <polyline class="st16" points="99.11 40.22 95.74 42.17 102.47 42.17">
  </g>
  <g>
    <g>
      <path class="st0" d="M228.5,28.08c-1.42-1.32-3.34-1.29-4.05-1.28-2.08.03-3.55,1-4.11,1.41-4.27,6.02-8.55,12.04-12.82,18.06-.08.18-.24.62-.06,1.06.14.34.44.58.94.77,1.75.68,4.09.17,4.09.17,2.47-.54,4.23-1.41,4.39-1.49,2.77-1.4,5.19-2.63,7.84-5.2,2.51-2.43,5.18-5.03,5.32-8.77.03-.82.12-3.19-1.53-4.73h-.01Z">
      <g>
        <path class="st8" d="M257.46,33.74c-1.6-1.39-5.93.98-9.68,5.29s-5.49,8.93-3.89,10.32,5.93-.98,9.68-5.29c3.75-4.31,5.49-8.93,3.89-10.32h0ZM252.38,42.67c-3.04,4.01-6.23,6.72-7.13,6.04s.84-4.49,3.87-8.5c3.04-4.01,6.23-6.72,7.13-6.04s-.84,4.49-3.87,8.5h0Z">
        <path class="st0" d="M256.25,34.17c-.9-.68-4.09,2.02-7.13,6.04-3.04,4.01-4.77,7.82-3.87,8.5s4.09-2.02,7.13-6.04c3.04-4.01,4.77-7.82,3.87-8.5Z">
      </g>
    </g>
    <path class="st8" d="M228.45,51.64c.32-.05.76-.13,1.29-.26.58-.14,2.38-.6,5.32-2.18,2.25-1.22,3.93-2.42,4.86-3.13,2.12-1.62,3.54-3.06,4.22-3.79.49-.52,1.48-1.61,2.44-3.16.17-.27.75-1.22,1.12-2.56.27-.99.23-1.45.11-1.81-.04-.14-.29-.91-1.01-1.26-.17-.08-.4-.16-1.01-.17-.59-.01-1.43-.02-2.5.34-.62.21-1.16.5-1.87.98-.36.24-1.77,1.17-3.39,2.96-.64.71-1.16,1.38-1.64,2.13-.93,1.46-.96,2.09-.92,2.5.02.18.09.83.52,1.24.74.7,2.41.53,3.99-.63.04-.04.09-.09.08-.14-.02-.06-.17-.07-.27-.07-.41,0-.65.03-.81.04-.29,0-.66-.1-.83-.29-.31-.34-.11-1.01.07-1.49.64-1.73,1.67-3.02,2.18-3.61.65-.76,1.35-1.57,2.53-2.34.51-.33.96-.56,1.3-.71.07-.03.18-.08.32-.1.04,0,.41-.05.67.11.13.08.32.27.37.83.1.95-.3,1.87-.57,2.44-.7,1.48-1.43,2.5-1.69,2.86-.57.78-1.05,1.31-1.46,1.77-.94,1.04-1.72,1.75-2.49,2.44-.85.76-1.45,1.31-2.36,1.97-.65.48-1.25.84-2.45,1.58-1.04.63-1.68,1.03-2.62,1.51-1.09.57-1.82.87-2.36,1.07-.36.13-.66.24-.88.31-.03,0-.16,0-.28.1-.02.02-.12.11-.13.26,0,.17.09.28.1.3l.05-.04h0Z">
  </g>
  <path class="st11" d="M218.32,49.47h-6.62l.5-.85c.65,0,1.18-.05,1.57-.16.39-.11.74-.33,1.05-.68.31-.34.66-.85,1.05-1.52l6.18-10.31c.38-.62.58-1.07.61-1.37.03-.29-.1-.48-.4-.58-.29-.09-.75-.14-1.38-.14l.55-.88h6.92c1.28,0,2.37.13,3.26.4s1.56.67,2.03,1.2c.47.54.71,1.2.74,2.01.02.8-.19,1.75-.65,2.83-.76,1.81-1.69,3.35-2.8,4.63-1.1,1.28-2.33,2.32-3.68,3.11-1.35.79-2.78,1.38-4.29,1.74-1.5.37-3.06.55-4.66.55l.02.02h0ZM218.81,48.34c1.79,0,3.42-.29,4.88-.87s2.77-1.5,3.93-2.77,2.16-2.93,3.01-4.97c.34-.82.55-1.57.65-2.24.09-.68.02-1.27-.21-1.77-.23-.5-.67-.89-1.32-1.18-.65-.28-1.55-.43-2.71-.43-.19,0-.36,0-.51.01-.15,0-.35.03-.61.06l-8.53,14.09c.2.03.43.05.67.05h.77l-.02.02h0Z">
  <line class="st5" x1="233.3" y1="94.63" x2="279.14" y2="138.91">
  <line class="st5" x1="279.95" y1="142.03" x2="268.95" y2="168.57">
  <line class="st5" x1="9.22" y1="142.09" x2="20.21" y2="168.67">
  <line class="st5" x1="13.66" y1="76.83" x2="9.02" y2="141.05">
</svg>