<?xml version="1.0" encoding="UTF-8"?>
<svg id="Ebene_1" xmlns="http://www.w3.org/2000/svg" xmlns:xlink="http://www.w3.org/1999/xlink" version="1.1" viewBox="0 0 214.24 228.43">
  <!-- Generator: Adobe Illustrator 30.0.0, SVG Export Plug-In . SVG Version: 2.1.1 Build 123)  -->
  <defs>
    <style>
      .st0, .st1, .st2, .st3, .st4, .st5, .st6, .st7 {
        fill: none;
      }

      .st1 {
        stroke-width: .05px;
      }

      .st1, .st8, .st9, .st2, .st10, .st3, .st4, .st5, .st11, .st6, .st7 {
        stroke: #2f2912;
      }

      .st1, .st8, .st3, .st4, .st5, .st11, .st7 {
        stroke-miterlimit: 10;
      }

      .st8, .st9, .st2, .st10, .st4, .st11, .st6 {
        stroke-width: .25px;
      }

      .st8, .st9, .st10, .st11 {
        fill: #fff;
      }

      .st8, .st9, .st6 {
        stroke-linecap: round;
      }

      .st9, .st2, .st10, .st6 {
        stroke-linejoin: round;
      }

      .st12 {
        font-size: 10.65px;
      }

      .st12, .st13, .st14, .st15, .st16 {
        isolation: isolate;
      }

      .st12, .st14, .st17, .st15, .st16 {
        fill: #2f2912;
      }

      .st12, .st14, .st15 {
        font-weight: 700;
      }

      .st12, .st15 {
        font-family: Helvetica-Bold, Helvetica;
      }

      .st18 {
        fill: #312b16;
      }

      .st14 {
        font-family: HelveticaNeue-Bold, 'Helvetica Neue';
        font-size: 5.33px;
      }

      .st19 {
        clip-path: url(#clippath-1);
      }

      .st20 {
        clip-path: url(#clippath-2);
      }

      .st3 {
        stroke-width: .81px;
      }

      .st5 {
        stroke-width: .54px;
      }

      .st15 {
        font-size: 4.92px;
      }

      .st7 {
        stroke-width: .13px;
      }

      .st21 {
        clip-path: url(#clippath);
      }

      .st16 {
        font-family: Helvetica, Helvetica;
        font-size: 9.83px;
      }
    </style>
    <clipPath id="clippath">
      <polygon class="st0" points="39.38 115.65 239.99 -.19 367.45 73.41 166.83 189.24 39.38 115.65"/>
    </clipPath>
    <clipPath id="clippath-1">
      <polygon class="st0" points="-276.03 159.42 319.28 -184.31 740.2 58.74 144.9 402.47 -276.03 159.42"/>
    </clipPath>
    <clipPath id="clippath-2">
      <polygon class="st0" points="-276.03 159.42 319.28 -184.31 740.2 58.74 144.9 402.47 -276.03 159.42"/>
    </clipPath>
  </defs>
  <g>
    <g>
      <g>
        <path class="st4" d="M206.47,86.3c27.99,16.16,27.99,42.37,0,58.53s-73.38,16.16-101.37,0-27.99-42.37,0-58.53,73.38-16.16,101.37,0Z"/>
        <path class="st4" d="M177.78,128.33c-12.18,7.03-31.92,7.03-44.1,0s-12.18-18.43,0-25.46,31.92-7.03,44.1,0,12.18,18.43,0,25.46Z"/>
        <path class="st4" d="M145.19,100.4c10.21-2.36,22.32-1.15,30.59,3.62,11.07,6.39,11.07,16.75,0,23.15-11.07,6.39-29.02,6.39-40.09,0-8.27-4.77-10.36-11.76-6.28-17.66"/>
        <path class="st4" d="M151.2,101.1c7.29-.76,15.05.33,21.02,3.25"/>
        <path class="st4" d="M136.26,125.11c-5.07-3.45-6.94-7.93-5.63-12.14"/>
        <path class="st4" d="M160.27,130.09c-7.29.76-15.05-.33-21.02-3.25"/>
        <path class="st4" d="M179.75,120.58c-1.23,1.98-3.22,3.85-5.98,5.44s-5.98,2.74-9.41,3.45"/>
        <path class="st4" d="M175.21,106.08c5.07,3.45,6.94,7.93,5.63,12.14"/>
        <path class="st4" d="M151.57,101.89c6.82-.69,14.05.33,19.64,3.04"/>
        <path class="st4" d="M137.27,124.53c-4.7-3.23-6.46-7.41-5.26-11.34"/>
        <path class="st4" d="M159.91,129.3c-6.82.69-14.05-.32-19.65-3.04"/>
        <path class="st4" d="M178.38,120.36c-1.17,1.85-3.03,3.59-5.6,5.07s-5.58,2.56-8.78,3.24"/>
        <path class="st4" d="M174.2,106.66c4.7,3.23,6.46,7.41,5.26,11.34"/>
        <path class="st4" d="M170.77,124.27c-8.3,4.79-21.76,4.79-30.07,0-8.3-4.79-8.3-12.57,0-17.36s21.76-4.79,30.07,0,8.3,12.57,0,17.36h0Z"/>
        <path class="st4" d="M167.76,122.54c-6.64,3.84-17.41,3.84-24.05,0-6.64-3.84-6.64-10.05,0-13.89,6.64-3.84,17.41-3.84,24.05,0,6.64,3.84,6.64,10.05,0,13.89Z"/>
        <path class="st4" d="M168.76,123.12c-7.2,4.15-18.86,4.15-26.06,0s-7.2-10.89,0-15.05c7.2-4.15,18.86-4.15,26.06,0s7.2,10.89,0,15.05Z"/>
        <path class="st4" d="M166.76,121.96c-6.09,3.52-15.96,3.52-22.05,0s-6.09-9.22,0-12.73c1.47-.85,3.17-1.5,4.98-1.94,1.32-.32,2.69-.53,4.09-.63,4.61-.33,9.44.52,12.98,2.57,6.09,3.52,6.09,9.22,0,12.73h0Z"/>
        <line class="st4" x1="165.49" y1="111.69" x2="162.5" y2="109.96"/>
        <polyline class="st4" points="168.15 110.15 165.49 111.69 162.5 109.96 165.16 108.42"/>
        <polyline class="st4" points="143.32 121.04 145.98 119.5 148.97 121.23 146.31 122.77"/>
        <polyline class="st4" points="153.78 106.66 154.76 108.76 150.67 109.39 149.69 107.29"/>
        <polyline class="st4" points="157.69 124.53 156.71 122.43 160.8 121.79 161.78 123.9"/>
        <polyline class="st4" points="141.36 112.11 145 112.67 143.9 115.03 140.27 114.47"/>
        <polyline class="st4" points="170.11 119.08 166.47 118.52 167.57 116.16 171.2 116.72"/>
        <line class="st4" x1="169.27" y1="106.05" x2="174.28" y2="103.16"/>
        <line class="st4" x1="177.28" y1="104.89" x2="172.26" y2="107.78"/>
        <line class="st4" x1="134.19" y1="126.3" x2="139.21" y2="123.41"/>
        <line class="st4" x1="142.2" y1="125.14" x2="137.19" y2="128.03"/>
        <line class="st4" x1="150.44" y1="99.47" x2="152.28" y2="103.42"/>
        <line class="st4" x1="163.28" y1="127.14" x2="165.12" y2="131.09"/>
        <line class="st4" x1="161.03" y1="131.72" x2="159.19" y2="127.77"/>
        <line class="st4" x1="134.65" y1="113.6" x2="127.81" y2="112.54"/>
        <line class="st4" x1="182.57" y1="121.01" x2="175.72" y2="119.95"/>
        <line class="st4" x1="176.82" y1="117.59" x2="183.66" y2="118.65"/>
        <path class="st0" d="M143.28,103.89c.31-.08.62-.15.92-.2l-1.29-2.73h0c-2.62.76-5.08,1.78-7.27,3.04s-3.94,2.68-5.27,4.2h0l4.73.74c.09-.17.21-.35.35-.53.79-1.02,2.2-2.1,3.18-2.68l1.4.81-1.4-.81c.99-.57,2.87-1.38,4.63-1.84h.02Z"/>
        <path class="st8" d="M140.09,106.56c.99-.57,2.87-1.38,4.63-1.84.84-.22,1.66-.35,2.35-.34.32-.09.73-1.17.73-1.17l-.69-1.49-.52-.02c-.48-.01-.88-.2-1.01-.47l-1.13-2.4v-.03c-3.93.88-7.61,2.23-10.77,4.05s-5.5,3.95-7.02,6.21h.05l4.16.66c.46.07.79.31.81.58l.03.3,2.58.4s1.86-.24,2.02-.42c-.02-.4.22-.87.59-1.36.79-1.02,2.2-2.1,3.18-2.68v.02ZM135.5,108.43c-.14.18-.26.36-.35.53l-4.73-.74h0c1.32-1.51,3.08-2.93,5.27-4.2s4.65-2.28,7.27-3.04h0l1.29,2.73c-.3.05-.61.12-.92.2-1.77.46-3.64,1.27-4.63,1.84h0c-.99.57-2.39,1.66-3.18,2.68h-.02Z"/>
      </g>
      <path class="st4" d="M218.32,79.46c-12.18-7.03-12.18-18.43,0-25.46s31.92-7.03,44.1,0,12.18,18.43,0,25.46-31.92,7.03-44.1,0Z"/>
      <path class="st4" d="M266.69,60.64c4.08,5.9,1.99,12.89-6.28,17.66-11.07,6.39-29.02,6.39-40.09,0s-11.07-16.75,0-23.15c8.27-4.77,20.38-5.98,30.59-3.62"/>
      <path class="st4" d="M265.48,64.11c1.31,4.21-.57,8.69-5.63,12.14"/>
      <path class="st4" d="M223.89,55.48c5.97-2.93,13.73-4.01,21.02-3.25"/>
      <path class="st4" d="M215.26,69.35c-1.31-4.21.57-8.69,5.63-12.14"/>
      <path class="st4" d="M231.74,80.59c-3.44-.71-6.66-1.86-9.41-3.45s-4.74-3.45-5.98-5.44"/>
      <path class="st4" d="M256.85,77.97c-5.97,2.93-13.73,4.01-21.02,3.25"/>
      <path class="st4" d="M264.1,64.32c1.19,3.94-.56,8.11-5.26,11.34"/>
      <path class="st4" d="M224.89,56.06c5.6-2.71,12.83-3.73,19.64-3.04"/>
      <path class="st4" d="M216.64,69.14c-1.19-3.94.56-8.11,5.26-11.35"/>
      <path class="st4" d="M232.11,79.8c-3.2-.67-6.21-1.75-8.78-3.24s-4.44-3.22-5.6-5.07"/>
      <path class="st4" d="M255.84,77.39c-5.6,2.71-12.83,3.73-19.64,3.04"/>
      <path class="st4" d="M225.33,75.41c-8.3-4.79-8.3-12.57,0-17.36,8.3-4.79,21.76-4.79,30.07,0s8.3,12.57,0,17.36-21.76,4.79-30.07,0Z"/>
      <path class="st4" d="M228.34,73.67c-6.64-3.84-6.64-10.05,0-13.89,6.64-3.84,17.41-3.84,24.05,0s6.64,10.05,0,13.89c-6.64,3.84-17.41,3.84-24.05,0Z"/>
      <path class="st4" d="M227.34,74.25c-7.2-4.15-7.2-10.89,0-15.05s18.86-4.15,26.06,0,7.2,10.89,0,15.05-18.86,4.15-26.06,0Z"/>
      <path class="st4" d="M229.34,73.09c-6.09-3.52-6.09-9.22,0-12.73s15.96-3.52,22.05,0c1.47.85,2.59,1.83,3.35,2.88.55.76.92,1.56,1.09,2.36.58,2.66-.9,5.45-4.44,7.49-6.09,3.52-15.96,3.52-22.05,0h0Z"/>
      <line class="st4" x1="247.13" y1="72.36" x2="250.13" y2="70.63"/>
      <polyline class="st4" points="249.79 73.9 247.13 72.36 250.13 70.63 252.79 72.17"/>
      <polyline class="st4" points="230.94 59.56 233.6 61.09 230.61 62.82 227.95 61.28"/>
      <polyline class="st4" points="255.84 65.6 252.2 66.16 251.11 63.8 254.74 63.24"/>
      <polyline class="st4" points="224.9 67.85 228.53 67.29 229.63 69.65 225.99 70.22"/>
      <polyline class="st4" points="246.41 58.43 245.44 60.53 241.35 59.89 242.32 57.8"/>
      <polyline class="st4" points="234.32 75.03 235.3 72.93 239.39 73.56 238.41 75.66"/>
      <line class="st4" x1="256.9" y1="74.54" x2="261.91" y2="77.44"/>
      <line class="st4" x1="258.92" y1="79.16" x2="253.9" y2="76.27"/>
      <line class="st4" x1="221.82" y1="54.29" x2="226.83" y2="57.18"/>
      <line class="st4" x1="223.84" y1="58.91" x2="218.83" y2="56.02"/>
      <line class="st4" x1="268.3" y1="63.67" x2="261.45" y2="64.73"/>
      <line class="st4" x1="220.38" y1="71.08" x2="213.53" y2="72.14"/>
      <line class="st4" x1="212.44" y1="69.78" x2="219.28" y2="68.72"/>
      <line class="st4" x1="243.83" y1="54.55" x2="245.66" y2="50.6"/>
      <line class="st4" x1="230.99" y1="82.22" x2="232.82" y2="78.27"/>
      <line class="st4" x1="236.91" y1="78.9" x2="235.08" y2="82.85"/>
      <path class="st0" d="M260.64,59.53c.14.18.26.36.35.53l4.73-.74h0c-1.32-1.51-3.08-2.93-5.27-4.2s-4.65-2.28-7.27-3.04h0l-1.29,2.73c.3.05.61.12.92.2,1.77.46,3.64,1.27,4.63,1.84l-1.4.81,1.4-.81c.99.57,2.39,1.66,3.18,2.68h.02Z"/>
      <path class="st8" d="M256.02,57.69c.99.57,2.39,1.66,3.18,2.68.38.49.61.96.59,1.36.16.18,2.02.42,2.02.42l2.58-.4.03-.3c.02-.27.35-.51.81-.58l4.16-.65h.05c-1.52-2.27-3.86-4.4-7.02-6.22s-6.84-3.18-10.76-4.05v.03l-1.15,2.4c-.13.27-.53.45-1.01.47l-.52.02-.69,1.49s.42,1.08.73,1.17c.69-.01,1.51.12,2.35.34,1.77.46,3.64,1.27,4.63,1.84l.02-.02ZM252.78,55.05c-.31-.08-.62-.15-.92-.2l1.29-2.73h0c2.62.76,5.08,1.78,7.27,3.04s3.94,2.68,5.27,4.2h0l-4.73.74c-.09-.17-.21-.35-.35-.53-.79-1.02-2.2-2.1-3.18-2.68h0c-.99-.57-2.87-1.38-4.63-1.84h-.02Z"/>
      <path class="st4" d="M56.6,112.77c2.77,1.6,2.77,4.19,0,5.79s-7.25,1.6-10.02,0-2.77-4.19,0-5.79,7.25-1.6,10.02,0Z"/>
      <path class="st4" d="M52.58,109.32h-.02l-5.95,3.44c-2.78,1.61-2.78,4.21,0,5.81l11.73,5.77"/>
      <path class="st4" d="M362.19,76.36l-190.25,109.85c-2.81,1.62-7.37,1.62-10.19,0L44.66,118.6c-2.81-1.62-2.81-4.26,0-5.88L234.91,2.87c2.81-1.62,7.37-1.62,10.19,0l117.09,67.61c2.81,1.62,2.81,4.26,0,5.88h0Z"/>
      <path class="st4" d="M55.6,113.35c2.21,1.28,2.21,3.35,0,4.63s-5.8,1.28-8.02,0-2.21-3.35,0-4.63,5.8-1.28,8.02,0Z"/>
      <line class="st4" x1="79.52" y1="136.58" x2="276.22" y2="23"/>
      <line class="st4" x1="52.96" y1="121.66" x2="250.45" y2="7.63"/>
      <line class="st4" x1="117.6" y1="158.57" x2="314.3" y2="44.99"/>
      <path class="st4" d="M81.03,131.5c.83.48.83,1.26,0,1.74s-2.18.48-3.01,0-.83-1.26,0-1.74,2.18-.48,3.01,0Z"/>
      <path class="st4" d="M335.21,91.94l-136.3,78.7-22.86-20.33c-.47-.42-.37-.97.24-1.33l121.41-70.1c.61-.35,1.57-.41,2.3-.14l35.21,13.2h0Z"/>
      <path class="st4" d="M321.54,60.49l-177.1,102.26c-.91.52-2.38.52-3.29,0l-14.75-8.52c-.91-.52-.91-1.38,0-1.9l177.1-102.26c.91-.52,2.38-.52,3.29,0l14.75,8.52c.91.52.91,1.38,0,1.9h0Z"/>
      <path class="st4" d="M267.43,22.13c.83-.48,2.18-.48,3.01,0s.83,1.26,0,1.74-2.18.48-3.01,0-.83-1.26,0-1.74Z"/>
      <path class="st4" d="M154.94,66.55c.83-.48,2.18-.48,3.01,0s.83,1.26,0,1.74-2.18.48-3.01,0-.83-1.26,0-1.74Z"/>
      <path class="st4" d="M183.13,165.84c4.7,2.72,4.7,7.12,0,9.84s-12.33,2.72-17.04,0c-4.7-2.72-4.7-7.12,0-9.84s12.33-2.72,17.04,0Z"/>
      <path class="st4" d="M177.62,169.02c1.66.96,1.66,2.51,0,3.47s-4.35.96-6.01,0-1.66-2.51,0-3.47,4.35-.96,6.01,0Z"/>
      <path class="st4" d="M176.12,169.89c.83.48.83,1.26,0,1.74s-2.18.48-3.01,0-.83-1.26,0-1.74,2.18-.48,3.01,0Z"/>
      <path class="st4" d="M337.08,77.13c.83.48.83,1.26,0,1.74s-2.18.48-3.01,0-.83-1.26,0-1.74,2.18-.48,3.01,0Z"/>
      <path class="st4" d="M335.37,60.05c1.11.64,1.11,1.68,0,2.31s-2.9.64-4.01,0-1.11-1.68,0-2.31,2.9-.64,4.01,0Z"/>
      <path class="st4" d="M53.6,114.51c1.11.64,1.11,1.68,0,2.31s-2.9.64-4.01,0-1.11-1.68,0-2.31,2.9-.64,4.01,0Z"/>
      <path class="st4" d="M167.81,108.62c6.64,3.84,6.64,10.05,0,13.89-6.64,3.84-17.41,3.84-24.05,0-6.64-3.84-6.64-10.05,0-13.89,6.64-3.84,17.41-3.84,24.05,0Z"/>
      <path class="st4" d="M168.82,108.04c7.2,4.15,7.2,10.89,0,15.05-7.2,4.15-18.86,4.15-26.06,0-7.2-4.15-7.2-10.89,0-15.05,7.2-4.15,18.86-4.15,26.06,0Z"/>
      <path class="st4" d="M252.4,59.78c6.64,3.84,6.64,10.05,0,13.89-6.64,3.84-17.41,3.84-24.05,0-6.64-3.84-6.64-10.05,0-13.89,6.64-3.84,17.41-3.84,24.05,0Z"/>
      <path class="st4" d="M253.4,59.2c7.2,4.15,7.2,10.89,0,15.05-7.2,4.15-18.86,4.15-26.06,0s-7.2-10.89,0-15.05c7.2-4.15,18.86-4.15,26.06,0Z"/>
      <path class="st0" d="M135.51,122.76c-.14-.18-.26-.36-.35-.53l-4.73.74h0c1.32,1.51,3.08,2.93,5.27,4.2s4.65,2.28,7.27,3.04h0l1.29-2.73c-.3-.05-.61-.12-.92-.2-1.77-.46-3.64-1.27-4.63-1.84l1.4-.81-1.4.81c-.99-.57-2.39-1.66-3.18-2.68h-.02Z"/>
      <path class="st4" d="M347.04,66.78c1.11.64,1.11,1.68,0,2.31s-2.9.64-4.01,0-1.11-1.68,0-2.31,2.9-.64,4.01,0Z"/>
      <path class="st4" d="M147.69,168.42c1.11.64,1.11,1.68,0,2.31s-2.9.64-4.01,0-1.11-1.68,0-2.31,2.9-.64,4.01,0Z"/>
      <path class="st4" d="M159.36,175.15c1.11.64,1.11,1.68,0,2.31s-2.9.64-4.01,0-1.11-1.68,0-2.31,2.9-.64,4.01,0Z"/>
      <path class="st4" d="M71.21,108.97l-9.62,5.55-10.02-5.79,13.03-7.52,6.61,3.82c1.88,1.09,1.88,2.85,0,3.94Z"/>
      <line class="st4" x1="73.5" y1="96.07" x2="66.49" y2="100.12"/>
      <polygon class="st4" points="77.48 100.56 71.47 104.03 67.46 101.72 73.48 98.24 77.48 100.56"/>
      <polyline class="st2" points="63.48 114.59 59.61 116.82 58.61 116.25 62.48 114.01"/>
      <line class="st4" x1="67.46" y1="101.72" x2="71.47" y2="104.03"/>
      <line class="st4" x1="45.08" y1="112.48" x2="52.46" y2="108.22"/>
      <path class="st4" d="M65.09,106.71c1.11.64,1.11,1.68,0,2.31s-2.9.64-4.01,0-1.11-1.68,0-2.31,2.9-.64,4.01,0Z"/>
      <g>
        <path class="st4" d="M235.01,9.76c2.77,1.6,7.25,1.6,10.02,0s2.77-4.19,0-5.79c-2.77-1.6-7.25-1.6-10.02,0s-2.77,4.19,0,5.79h0Z"/>
        <line class="st4" x1="159.81" y1="182.94" x2="58.33" y2="124.35"/>
        <polyline class="st4" points="333.35 90.86 197.05 169.56 171.35 184.4"/>
        <path class="st4" d="M229.04,7.44h0s5.95-3.45,5.95-3.45c2.78-1.61,7.29-1.61,10.07,0l9.98,6.78,101.55,58.63"/>
        <path class="st4" d="M236.01,9.18c2.21,1.28,5.8,1.28,8.02,0s2.21-3.35,0-4.63-5.8-1.28-8.02,0-2.21,3.35,0,4.63h0Z"/>
        <path class="st4" d="M238.02,8.02c1.11.64,2.9.64,4.01,0,1.11-.64,1.11-1.68,0-2.31s-2.9-.64-4.01,0-1.11,1.68,0,2.31Z"/>
        <path class="st4" d="M228.43,18.19l9.62-5.55-10.02-5.79-13.03,7.52,6.61,3.82c1.88,1.09,4.93,1.09,6.82,0h0Z"/>
        <polygon class="st4" points="213.86 21.82 219.87 18.35 215.86 16.03 209.85 19.5 213.86 21.82"/>
        <path class="st4" d="M224.52,14.66c1.11.64,2.9.64,4.01,0s1.11-1.68,0-2.31-2.9-.64-4.01,0-1.11,1.68,0,2.31Z"/>
        <polyline class="st2" points="238.09 13.77 241.96 11.54 240.96 10.96 237.08 13.19"/>
      </g>
      <path class="st4" d="M62.59,115.1l9.62-5.56c2.35-1.35,2.43-3.52.26-4.93h0l4.84-2.8c1.2-.69,1.22-1.81.04-2.48l-2.88-1.66L208.84,20.09l2.88,1.66c1.18.68,3.1.67,4.3-.02l4.84-2.8h0c2.45,1.25,6.2,1.2,8.55-.15l9.62-5.56"/>
      <polygon class="st4" points="229.05 8.57 217.98 14.97 215.97 13.81 227.05 7.42 229.05 8.57"/>
      <path class="st4" d="M360.27,70.53c2.77,1.6,2.77,4.19,0,5.79-1.04.6-2.32.97-3.66,1.12-2.23.25-4.63-.12-6.36-1.12-2.77-1.6-2.77-4.19,0-5.79,1.72-.99,4.11-1.37,6.33-1.13,1.35.15,2.64.52,3.69,1.13h0Z"/>
      <path class="st4" d="M359.27,71.11c2.21,1.28,2.21,3.35,0,4.63s-5.8,1.28-8.02,0-2.21-3.35,0-4.63,5.8-1.28,8.02,0Z"/>
      <path class="st4" d="M357.27,72.26c1.11.64,1.11,1.68,0,2.31s-2.9.64-4.01,0-1.11-1.68,0-2.31,2.9-.64,4.01,0Z"/>
      <g>
        <line class="st4" x1="134.23" y1="170.32" x2="334.67" y2="54.59"/>
        <line class="st4" x1="135.76" y1="171.21" x2="336.2" y2="55.48"/>
        <line class="st4" x1="137.3" y1="172.1" x2="337.74" y2="56.36"/>
        <line class="st4" x1="138.84" y1="172.99" x2="339.28" y2="57.25"/>
        <line class="st4" x1="140.38" y1="173.87" x2="340.82" y2="58.14"/>
        <line class="st4" x1="141.91" y1="174.76" x2="342.35" y2="59.03"/>
        <line class="st4" x1="143.45" y1="175.65" x2="343.89" y2="59.92"/>
        <line class="st4" x1="144.99" y1="176.54" x2="345.43" y2="60.8"/>
        <line class="st4" x1="146.53" y1="177.43" x2="346.97" y2="61.69"/>
        <line class="st4" x1="148.06" y1="178.31" x2="348.5" y2="62.58"/>
        <line class="st4" x1="149.6" y1="179.2" x2="350.04" y2="63.47"/>
        <line class="st4" x1="151.14" y1="180.09" x2="351.58" y2="64.35"/>
        <line class="st4" x1="152.68" y1="180.98" x2="353.12" y2="65.24"/>
        <line class="st4" x1="154.21" y1="181.86" x2="354.65" y2="66.13"/>
        <line class="st4" x1="155.75" y1="182.75" x2="356.19" y2="67.02"/>
        <line class="st4" x1="353.6" y1="70.29" x2="357.73" y2="67.91"/>
        <line class="st4" x1="165.22" y1="179.06" x2="349.84" y2="72.46"/>
        <line class="st4" x1="157.29" y1="183.64" x2="161.39" y2="181.27"/>
        <line class="st4" x1="356.73" y1="70.26" x2="359.27" y2="68.79"/>
        <line class="st4" x1="168.32" y1="179.05" x2="349.78" y2="74.27"/>
        <line class="st4" x1="158.83" y1="184.53" x2="161.35" y2="183.07"/>
        <line class="st4" x1="358.78" y1="70.85" x2="360.8" y2="69.68"/>
        <line class="st4" x1="170.36" y1="179.64" x2="350.81" y2="75.45"/>
        <line class="st4" x1="160.36" y1="185.42" x2="162.39" y2="184.24"/>
        <line class="st4" x1="360.2" y1="71.81" x2="362.34" y2="70.57"/>
        <line class="st4" x1="171.77" y1="180.6" x2="352.47" y2="76.27"/>
        <line class="st4" x1="161.9" y1="186.3" x2="164.05" y2="185.06"/>
        <line class="st4" x1="360.91" y1="73.17" x2="363.59" y2="71.62"/>
        <line class="st4" x1="172.48" y1="181.97" x2="354.82" y2="76.68"/>
        <line class="st4" x1="163.73" y1="187.02" x2="166.42" y2="185.47"/>
        <line class="st4" x1="362.19" y1="74.21" x2="364.26" y2="73.01"/>
        <line class="st4" x1="166.13" y1="187.41" x2="356.59" y2="77.44"/>
      </g>
      <path class="st4" d="M161.81,185.1c2.77,1.6,7.25,1.6,10.02,0,1.04-.6,1.69-1.34,1.95-2.11.43-1.29-.22-2.68-1.95-3.67-2.77-1.6-7.25-1.6-10.02,0-1.72.99-2.37,2.37-1.95,3.66.26.78.91,1.53,1.95,2.13h0Z"/>
      <path class="st4" d="M162.81,184.52c.38.22.8.4,1.24.54.74.24,1.55.37,2.37.41,1.58.06,3.2-.25,4.41-.95s1.76-1.63,1.65-2.55c-.06-.47-.29-.94-.71-1.37-.25-.26-.56-.5-.94-.72-.15-.09-.31-.17-.47-.24-.62-.28-1.31-.48-2.04-.6-1.02-.16-2.09-.15-3.11.02-.88.15-1.71.42-2.4.83-1.49.86-1.98,2.08-1.46,3.18.2.42.54.82,1.04,1.18.13.09.27.19.42.27h0Z"/>
      <path class="st4" d="M164.82,183.36c1.11.64,2.9.64,4.01,0s1.11-1.68,0-2.31c-1.11-.64-2.9-.64-4.01,0s-1.11,1.68,0,2.31Z"/>
      <path class="st11" d="M217.09,152.2c2.77,1.6,2.77,4.19,0,5.79s-7.25,1.6-10.02,0-2.77-4.19,0-5.79,7.25-1.6,10.02,0Z"/>
      <path class="st11" d="M313.3,96.65c2.77,1.6,2.77,4.19,0,5.79s-7.25,1.6-10.02,0-2.77-4.19,0-5.79,7.25-1.6,10.02,0Z"/>
      <path class="st11" d="M235.21,142.74l-3.43,1.98c-1.54.89-4.05.89-5.59,0l-2.57-1.48c-1.54-.89-1.54-2.34,0-3.23l3.43-1.98c1.54-.89,4.05-.89,5.59,0l2.57,1.48c1.54.89,1.54,2.34,0,3.23Z"/>
      <path class="st4" d="M328.42,72.14c.83.48.83,1.26,0,1.74s-2.18.48-3.01,0-.83-1.26,0-1.74,2.18-.48,3.01,0Z"/>
      <path class="st4" d="M234.07,150.31l-6.18,3.57c-.51.29-1.33.29-1.84,0h0c-.51-.29-.51-.77,0-1.06l6.18-3.57c.51-.29,1.33-.29,1.84,0h0c.51.29.51.77,0,1.06Z"/>
      <path class="st4" d="M306.22,108.65l-6.18,3.57c-.51.29-1.33.29-1.84,0h0c-.51-.29-.51-.77,0-1.06l6.18-3.57c.51-.29,1.33-.29,1.84,0h0c.51.29.51.77,0,1.06Z"/>
      <path class="st11" d="M217.08,152.18c2.77,1.6,2.77,4.19,0,5.79s-7.25,1.6-10.02,0-2.77-4.19,0-5.79,7.25-1.6,10.02,0Z"/>
      <path class="st11" d="M313.3,96.62c2.77,1.6,2.77,4.19,0,5.79s-7.25,1.6-10.02,0-2.77-4.19,0-5.79,7.25-1.6,10.02,0Z"/>
      <path class="st11" d="M235.2,142.72l-3.43,1.98c-1.54.89-4.05.89-5.59,0l-2.57-1.48c-1.54-.89-1.54-2.34,0-3.23l3.43-1.98c1.54-.89,4.05-.89,5.59,0l2.57,1.48c1.54.89,1.54,2.34,0,3.23Z"/>
      <path class="st4" d="M251.52,139.08h0c.55.32.55.84,0,1.16l-7.1,4.1c-.51.29-1.33.29-1.84,0h0c-.51-.29-.51-.77,0-1.06l7.1-4.1-.16-.09-10.02-5.79,1-.58,11.02,6.37"/>
      <path class="st11" d="M289.01,111.57l-.95.55c-1.95,1.13-5.12,1.13-7.07,0l-.95-.55c-1.95-1.13-1.95-2.95,0-4.08l.95-.55c1.95-1.13,5.12-1.13,7.07,0l.95.55c1.95,1.13,1.95,2.95,0,4.08Z"/>
      <line class="st4" x1="214.12" y1="150.26" x2="212.83" y2="151"/>
      <path class="st4" d="M214.17,149.99c.09.08.08.19-.05.26"/>
      <g>
        <path class="st4" d="M249.35,117.88c1.51.87,1.51,2.28,0,3.16s-3.96.87-5.47,0-1.51-2.28,0-3.16,3.96-.87,5.47,0Z"/>
        <path class="st4" d="M309.04,95.45l1.29-.74c.12-.07.14-.18.05-.26l-2.23-1.95,11.26-6.5"/>
        <path class="st4" d="M188.65,161.49l11.26-6.5,3.37,1.29c.14.05.33.04.45-.03l1.29-.74"/>
        <path class="st4" d="M187.07,160.09l28.87-16.67,13.03-10.99,15.65-9.03h0c-1.11-.19-2.15-.53-3.02-1.03-2.77-1.6-2.77-4.19,0-5.79s7.25-1.6,10.02,0c.87.5,1.47,1.11,1.79,1.74h0l15.65-9.03,19.04-7.52,28.87-16.67"/>
        <path class="st4" d="M214.17,149.99l-2.23-1.95,6.01-3.47,13.03-10.99,17.66-10.2h0c1.09-.19,2.12-.53,2.98-1.03s1.46-1.09,1.78-1.72h0l17.66-10.2,1.79-.71,4.91,2.84c.55.32,1.45.32,2,0h0c.55-.32.55-.84,0-1.16l-4.54-2.62,9.52-3.76,3.04,1.75c.55.32,1.45.32,2,0h0c.55-.32.55-.84,0-1.16l-2.66-1.54h0l2.98-1.18,6.01-3.47,3.37,1.29c.14.05.33.04.45-.03l1.29-.74"/>
      </g>
      <path class="st4" d="M246.01,135.89l-.61-.35-.89-.52,1-.58.05-.03c.25-.14.65-.14.89,0s.25.37,0,.52l-.05.03.61.35c.28.16.28.42,0,.58l-.5.29"/>
      <path class="st4" d="M280.59,122.3h0c.55.32,1.45.32,2,0l7.1-4.1c.51-.29.51-.77,0-1.06h0c-.51-.29-1.33-.29-1.84,0l-7.1,4.1-.16-.09-10.02-5.79-1,.58,11.02,6.37"/>
      <path class="st4" d="M275.08,119.11l-.61-.35-.89-.52-1,.58-.05.03c-.25.14-.25.37,0,.52s.65.14.89,0l.05-.03.61.35c.28.16.73.16,1,0l.5-.29"/>
      <polyline class="st4" points="218.76 143.89 230.11 150.44 228.11 151.6 216.95 145.15"/>
      <polyline class="st4" points="288.92 103.38 300.29 109.95 302.3 108.79 291.11 102.33"/>
      <path class="st4" d="M323.18,93.07c1.66.96,1.66,2.51,0,3.47s-4.35.96-6.01,0-1.66-2.51,0-3.47,4.35-.96,6.01,0Z"/>
      <path class="st4" d="M200.91,163.67c1.66.96,4.35.96,6.01,0s1.66-2.51,0-3.47-4.35-.96-6.01,0-1.66,2.51,0,3.47Z"/>
      <path class="st11" d="M320.71,81.57l-10-5.77c-.66-.38-.66-1,0-1.38l18.65-10.77c.66-.38,1.73-.38,2.39,0l10,5.77c.66.38.66,1,0,1.38l-18.65,10.77c-.66.38-1.73.38-2.39,0Z"/>
      <path class="st4" d="M327.79,71.77c.86.49.88,1.28.05,1.76s-2.2.47-3.05-.03-.88-1.28-.05-1.76,2.2-.47,3.05.03Z"/>
      <polygon class="st10" points="320.69 81.56 310.73 75.81 323.73 74.05 320.69 81.56"/>
      <path class="st4" d="M343.93,72.99c4.7,2.72,4.7,7.12,0,9.84s-12.33,2.72-17.04,0c-4.7-2.72-4.7-7.12,0-9.84s12.33-2.72,17.04,0Z"/>
      <path class="st4" d="M338.42,76.17c1.66.96,1.66,2.51,0,3.47s-4.35.96-6.01,0-1.66-2.51,0-3.47,4.35-.96,6.01,0Z"/>
      <polygon class="st4" points="65.62 102.94 54.55 109.33 52.54 108.17 63.61 101.78 65.62 102.94"/>
      <line class="st4" x1="269.44" y1="60.21" x2="333.16" y2="59.57"/>
      <line class="st4" x1="335.94" y1="60.51" x2="346.94" y2="75.84"/>
      <line class="st4" x1="144.55" y1="171.07" x2="171.12" y2="177.44"/>
      <line class="st4" x1="101.54" y1="142.61" x2="143.68" y2="170.73"/>
    </g>
    <g class="st21">
      <g>
        <g class="st19">
          <g>
            <path class="st7" d="M362.18,76.35l-190.25,109.85c-2.81,1.62-7.37,1.62-10.19,0L44.65,118.59c-2.81-1.62-2.81-4.26,0-5.88L234.9,2.86c2.81-1.62,7.37-1.62,10.19,0l117.09,67.61c2.81,1.62,2.81,4.26,0,5.88Z"/>
            <line class="st7" x1="83.71" y1="116.84" x2="124.8" y2="93.11"/>
            <line class="st7" x1="85.38" y1="117.8" x2="124.8" y2="95.04"/>
            <line class="st7" x1="87.05" y1="118.77" x2="124.8" y2="96.97"/>
            <line class="st7" x1="88.72" y1="119.73" x2="124.8" y2="98.9"/>
            <line class="st7" x1="90.39" y1="120.69" x2="124.8" y2="100.83"/>
            <line class="st7" x1="92.06" y1="121.66" x2="124.8" y2="102.76"/>
            <line class="st7" x1="93.73" y1="122.62" x2="124.8" y2="104.69"/>
            <line class="st7" x1="95.4" y1="123.59" x2="124.8" y2="106.61"/>
            <line class="st7" x1="97.07" y1="124.55" x2="124.8" y2="108.54"/>
            <line class="st7" x1="98.74" y1="125.52" x2="124.8" y2="110.47"/>
            <line class="st5" x1="83.97" y1="116.99" x2="112.97" y2="100.25"/>
            <line class="st5" x1="85.64" y1="117.96" x2="112.97" y2="102.18"/>
            <line class="st5" x1="87.31" y1="118.92" x2="112.97" y2="104.11"/>
            <line class="st5" x1="88.98" y1="119.88" x2="112.97" y2="106.04"/>
            <line class="st5" x1="90.65" y1="120.85" x2="112.97" y2="107.97"/>
            <line class="st5" x1="92.32" y1="121.81" x2="112.97" y2="109.89"/>
            <line class="st5" x1="93.99" y1="122.78" x2="112.97" y2="111.82"/>
            <line class="st5" x1="95.67" y1="123.74" x2="112.97" y2="113.75"/>
            <line class="st5" x1="97.34" y1="124.71" x2="112.97" y2="115.68"/>
            <line class="st5" x1="99.01" y1="125.67" x2="112.97" y2="117.61"/>
            <line class="st3" x1="84.17" y1="117.1" x2="100.9" y2="107.44"/>
            <line class="st3" x1="85.84" y1="118.07" x2="100.9" y2="109.37"/>
            <line class="st3" x1="87.51" y1="119.03" x2="100.9" y2="111.3"/>
            <line class="st3" x1="89.18" y1="120" x2="100.9" y2="113.23"/>
            <line class="st3" x1="90.85" y1="120.96" x2="100.9" y2="115.16"/>
            <line class="st3" x1="92.52" y1="121.93" x2="100.9" y2="117.09"/>
            <line class="st3" x1="94.19" y1="122.89" x2="100.9" y2="119.01"/>
            <line class="st3" x1="95.86" y1="123.86" x2="100.9" y2="120.94"/>
            <line class="st3" x1="97.53" y1="124.82" x2="100.9" y2="122.87"/>
            <line class="st3" x1="99.2" y1="125.78" x2="100.9" y2="124.8"/>
          </g>
        </g>
        <g class="st13">
          <text class="st15" transform="translate(174.05 135.01) rotate(-30) scale(1 .87) skewX(26.56)"><tspan x="0" y="0">DYNAMIC CASSETTE LOW NOISE HIGH OUTPUT</tspan></text>
        </g>
        <g class="st13">
          <text class="st16" transform="translate(139.24 156.8) rotate(-30) scale(1 .87) skewX(26.56)"><tspan x="0" y="0">A:</tspan></text>
        </g>
        <g class="st13">
          <text class="st14" transform="translate(139.03 99.01) rotate(-30) scale(1 .87) skewX(26.56)"><tspan x="0" y="0">IECI/TYPE1 NORMAL POSITION</tspan></text>
        </g>
        <g class="st13">
          <text class="st12" transform="translate(140.99 91.51) rotate(-30) scale(1 .87) skewX(26.56)"><tspan x="0" y="0">TDK</tspan></text>
        </g>
        <g class="st20">
          <g>
            <polyline class="st18" points="132.31 89 132.3 90.59 129.54 90.59"/>
            <polyline class="st18" points="135.06 90.58 132.3 90.59 132.29 92.18"/>
            <polyline class="st18" points="135.06 90.58 137.44 91.38 136.07 92.76"/>
            <polyline class="st18" points="139.82 92.18 137.44 91.38 138.81 90 135.06 90.58 132.31 89 138.81 90"/>
            <polyline class="st18" points="135.06 94.93 133.68 93.56 131.29 94.35 132.29 92.18 129.54 90.59 131.29 94.35"/>
            <polyline class="st17" points="132.29 92.18 133.68 93.56 136.07 92.76"/>
            <polyline class="st18" points="136.07 92.76 135.06 94.93 139.82 92.18"/>
            <path class="st17" d="M243.46,25.47c-2.11.09-3.51,2.82-3.11,6.11.4,3.29,2.44,5.89,4.55,5.8,2.11-.08,3.51-2.82,3.11-6.11-.4-3.29-2.43-5.89-4.55-5.8M246.18,31.19c.69,2.88.35,5.29-.77,5.38s-2.58-2.17-3.27-5.05c-.69-2.88-.35-5.29.77-5.38s2.58,2.17,3.27,5.05"/>
            <path class="st1" d="M243.46,25.47c-2.11.09-3.51,2.82-3.11,6.11.4,3.29,2.44,5.89,4.55,5.8,2.11-.08,3.51-2.82,3.11-6.11-.4-3.29-2.43-5.89-4.55-5.8ZM246.18,31.19c.69,2.88.35,5.29-.77,5.38s-2.58-2.17-3.27-5.05c-.69-2.88-.35-5.29.77-5.38s2.58,2.17,3.27,5.05Z"/>
            <path class="st17" d="M235.6,44.62c.19-.15.45-.37.73-.63.31-.3,1.26-1.22,2.21-3.06.73-1.42,1.06-2.59,1.22-3.26.36-1.53.34-2.69.3-3.27-.02-.41-.09-1.26-.51-2.29-.07-.18-.33-.8-1.02-1.5-.5-.51-.86-.68-1.2-.79-.13-.04-.84-.25-1.61-.11-.18.04-.39.1-.83.34-.43.24-1.03.58-1.52,1.16-.29.34-.47.67-.63,1.16-.08.25-.42,1.2-.31,2.59.05.55.15,1.04.35,1.54.38.98.8,1.25,1.12,1.4.14.07.65.3,1.24.29,1.02-.02,2.08-.77,2.38-1.89,0-.03,0-.08-.04-.09-.06-.02-.17.04-.24.08-.29.16-.44.28-.55.35-.2.12-.53.23-.8.22-.46-.01-.79-.37-1-.64-.77-.97-.95-1.92-1.01-2.36-.08-.58-.15-1.2.14-1.99.13-.34.28-.62.41-.82.03-.04.08-.11.16-.17.02-.02.25-.19.55-.23.14-.02.41-.02.85.19.74.35,1.11.89,1.32,1.23.55.89.76,1.6.83,1.86.15.55.19.97.22,1.32.07.81.02,1.42-.03,2.01-.06.66-.1,1.13-.28,1.76-.13.46-.29.86-.62,1.64-.29.68-.46,1.11-.78,1.68-.37.67-.67,1.1-.91,1.4-.16.2-.3.37-.4.48-.02.01-.12.06-.13.15,0,.02,0,.09.09.16.11.07.26.08.28.08"/>
            <path class="st1" d="M235.6,44.62c.19-.15.45-.37.73-.63.31-.3,1.26-1.22,2.21-3.06.73-1.42,1.06-2.59,1.22-3.26.36-1.53.34-2.69.3-3.27-.02-.41-.09-1.26-.51-2.29-.07-.18-.33-.8-1.02-1.5-.5-.51-.86-.68-1.2-.79-.13-.04-.84-.25-1.61-.11-.18.04-.39.1-.83.34-.43.24-1.03.58-1.52,1.16-.29.34-.47.67-.63,1.16-.08.25-.42,1.2-.31,2.59.05.55.15,1.04.35,1.54.38.98.8,1.25,1.12,1.4.14.07.65.3,1.24.29,1.02-.02,2.08-.77,2.38-1.89,0-.03,0-.08-.04-.09-.06-.02-.17.04-.24.08-.29.16-.44.28-.55.35-.2.12-.53.23-.8.22-.46-.01-.79-.37-1-.64-.77-.97-.95-1.92-1.01-2.36-.08-.58-.15-1.2.14-1.99.13-.34.28-.62.41-.82.03-.04.08-.11.16-.17.02-.02.25-.19.55-.23.14-.02.41-.02.85.19.74.35,1.11.89,1.32,1.23.55.89.76,1.6.83,1.86.15.55.19.97.22,1.32.07.81.02,1.42-.03,2.01-.06.66-.1,1.13-.28,1.76-.13.46-.29.86-.62,1.64-.29.68-.46,1.11-.78,1.68-.37.67-.67,1.1-.91,1.4-.16.2-.3.37-.4.48-.02.01-.12.06-.13.15,0,.02,0,.09.09.16.11.07.26.08.28.08h.02Z"/>
            <path class="st17" d="M226.9,47.87l-4.68,2.7-.25-.55c.46-.27.79-.5.99-.71.2-.21.29-.44.27-.71-.02-.27-.13-.62-.33-1.05l-2.92-6.73c-.17-.41-.35-.68-.53-.81-.19-.13-.42-.16-.69-.07-.27.08-.63.25-1.07.51l-.23-.58,4.9-2.83c.91-.52,1.77-.91,2.59-1.17.82-.25,1.58-.37,2.29-.34.71.03,1.36.2,1.94.52.58.32,1.1.79,1.54,1.42.74,1.05,1.17,2.06,1.29,3.03.13.97-.01,1.9-.41,2.77-.39.88-.99,1.7-1.8,2.46-.8.76-1.77,1.47-2.91,2.13M226.46,47.2c1.27-.73,2.21-1.51,2.84-2.34s.9-1.74.82-2.73c-.08-.99-.54-2.08-1.38-3.25-.34-.47-.72-.87-1.13-1.18-.42-.31-.88-.53-1.4-.63-.52-.11-1.11-.09-1.76.06-.66.15-1.4.46-2.22.93-.13.08-.25.15-.35.21-.1.07-.23.16-.39.27l3.93,9.24c.17-.07.34-.15.51-.25l.54-.31v-.02Z"/>
          </g>
        </g>
      </g>
    </g>
  </g>
  <g>
    <line class="st6" x1="196.87" y1="191.43" x2="171.77" y2="205.93"/>
    <polyline class="st6" points="367.25 73.4 367.25 93.07 337.18 110.43"/>
    <polygon class="st9" points="198.87 166.55 335.18 87.86 337.18 90.76 337.18 110.43 335.18 115.64 198.88 194.33 196.87 191.43 196.87 171.76 198.87 166.55"/>
    <line class="st6" x1="335.18" y1="115.64" x2="337.18" y2="110.43"/>
    <line class="st6" x1="335.18" y1="87.86" x2="337.18" y2="90.76"/>
    <line class="st6" x1="196.87" y1="171.76" x2="198.87" y2="166.55"/>
    <line class="st6" x1="196.87" y1="191.43" x2="198.88" y2="194.33"/>
    <polyline class="st6" points="339.19 93.65 355.22 84.39 355.22 95.97 339.19 105.22"/>
    <polyline class="st6" points="199.17 168.7 334.89 90.35 334.89 113.49 199.17 191.84"/>
    <polygon class="st6" points="263.02 150.35 263.02 136.47 271.04 131.84 271.04 145.73 263.02 150.35"/>
    <polygon class="st6" points="253 160.77 253 137.62 281.06 121.42 281.06 144.57 253 160.77"/>
    <polygon class="st6" points="243.98 161.93 235.96 166.55 235.96 151.51 243.98 146.88 243.98 161.93"/>
    <polygon class="st6" points="290.08 120.27 298.1 115.64 298.1 130.68 290.08 135.31 290.08 120.27"/>
    <polygon class="st6" points="306.12 130.1 281.06 144.57 281.06 121.42 306.11 106.96 306.12 130.1"/>
    <polygon class="st6" points="253 160.77 227.94 175.23 227.94 152.09 253 137.62 253 160.77"/>
    <line class="st6" x1="281.06" y1="133" x2="290.08" y2="127.79"/>
    <line class="st6" x1="298.1" y1="123.16" x2="306.11" y2="118.53"/>
    <line class="st6" x1="253" y1="149.2" x2="243.98" y2="154.4"/>
    <line class="st6" x1="235.96" y1="159.03" x2="227.94" y2="163.66"/>
    <polygon class="st6" points="304.11 131.26 302.11 132.42 302.11 109.27 304.11 108.12 304.11 131.26"/>
    <polygon class="st6" points="229.94 150.93 231.95 149.77 231.95 172.92 229.94 174.08 229.94 150.93"/>
    <polyline class="st6" points="339.19 93.65 358.23 82.66 358.23 88.44 334.18 102.33 334.18 90.76"/>
    <polyline class="st6" points="334.18 113.9 334.18 102.33 361.24 86.71 361.24 92.49 339.19 105.22"/>
    <polygon class="st9" points="282.06 143.99 302.11 132.42 304.11 131.26 304.11 128.95 302.11 130.1 302.11 131.84 282.06 143.41 282.06 135.89 281.06 136.47 281.06 144.57 282.06 143.99 282.06 143.99"/>
    <polygon class="st9" points="282.06 121.42 302.11 109.85 302.11 111.59 304.11 110.43 304.11 108.12 302.11 109.27 282.06 120.84 281.06 121.42 281.06 129.52 282.06 128.95 282.06 121.42"/>
    <polygon class="st9" points="251.99 138.2 231.95 149.77 229.94 150.93 229.94 153.25 231.95 152.09 231.95 150.35 251.99 138.78 251.99 146.3 253 145.72 253 137.62 251.99 138.2 251.99 138.2"/>
    <polygon class="st9" points="251.99 160.77 231.95 172.34 231.95 170.6 229.94 171.76 229.94 174.08 231.95 172.92 251.99 161.35 253 160.77 253 152.67 251.99 153.25 251.99 160.77"/>
    <path class="st9" d="M279.56,145.44c-.83.48-1.5.09-1.5-.87s.67-2.12,1.5-2.6,1.5-.09,1.5.87-.67,2.12-1.5,2.6Z"/>
    <path class="st9" d="M279.56,125.76c-.83.48-1.5.09-1.5-.87s.67-2.12,1.5-2.6,1.5-.09,1.5.87-.67,2.12-1.5,2.6Z"/>
    <path class="st9" d="M254.5,159.9c-.83.48-1.5.09-1.5-.87s.67-2.12,1.5-2.6,1.5-.09,1.5.87-.67,2.12-1.5,2.6Z"/>
    <path class="st9" d="M254.5,140.23c-.83.48-1.5.09-1.5-.87s.67-2.12,1.5-2.6,1.5-.09,1.5.87-.67,2.12-1.5,2.6Z"/>
    <path class="st6" d="M339.19,105.22l-3.51,3.19v3.72c0,.5-.35,1.11-.79,1.36h0v-23.15h0c.43-.25.79-.05.79.45v3.72l3.51-.87v11.57h0Z"/>
    <line class="st6" x1="358.23" y1="88.44" x2="367.25" y2="83.24"/>
    <line class="st6" x1="273.32" y1="141.94" x2="273.32" y2="137.47"/>
    <line class="st6" x1="274.04" y1="141.1" x2="274.04" y2="137.05"/>
    <path class="st6" d="M271.04,145.73l1-.58v-1.45c0-.17.09-.38.22-.54l1.78-2.06"/>
    <polyline class="st6" points="263.02 150.35 262.02 150.93 262.02 137.05 272.04 131.26"/>
    <line class="st6" x1="273.31" y1="133" x2="273.31" y2="137.47"/>
    <line class="st6" x1="274.04" y1="133" x2="274.04" y2="137.05"/>
    <path class="st6" d="M271.03,131.84l1-.58v1.45c0,.17.09.28.22.28h1.78"/>
    <polyline class="st6" points="274.04 141.1 276.05 138.78 287.04 132.44 287.04 126.65 276.04 133 274.04 133"/>
    <line class="st6" x1="259.73" y1="149.78" x2="259.73" y2="145.31"/>
    <line class="st6" x1="259" y1="149.78" x2="259" y2="145.73"/>
    <path class="st6" d="M262.01,150.94l-1,.58v-1.45c0-.17-.09-.28-.22-.28h-1.78"/>
    <line class="st6" x1="259.74" y1="140.83" x2="259.74" y2="145.3"/>
    <line class="st6" x1="259.01" y1="141.67" x2="259.01" y2="145.72"/>
    <path class="st6" d="M262.02,137.05l-1,.58v1.45c0,.17-.09.38-.22.54l-1.78,2.06"/>
    <polyline class="st6" points="259 149.78 257 149.78 246.01 156.12 246.01 150.34 257 143.99 259.01 141.67"/>
    <path class="st6" d="M306.12,127.79v-18.52l23.98-13.85c1.14-.66,2.07-.12,2.07,1.19v13.74c0,1.32-.93,2.92-2.07,3.58l-23.98,13.85h0Z"/>
    <polygon class="st6" points="310.12 127.79 310.12 104.65 320.14 98.86 320.14 122 310.12 127.79"/>
    <polyline class="st6" points="194.87 176.97 178.83 186.23 178.83 197.8 194.87 188.54"/>
    <polyline class="st6" points="194.87 176.97 175.82 187.96 175.82 193.75 199.88 179.86 199.88 168.29"/>
    <polyline class="st6" points="199.88 191.43 199.88 179.86 172.82 195.48 172.82 201.27 194.87 188.54"/>
    <path class="st6" d="M194.87,188.54l3.51-.87v3.72c0,.5.35.71.79.45h0v-23.15h0c-.43.25-.79.86-.79,1.36v3.72l-3.51,3.19v11.57h0Z"/>
    <line class="st6" x1="175.82" y1="193.75" x2="171.52" y2="196.23"/>
    <path class="st6" d="M227.94,172.92v-18.52l-23.98,13.85c-1.14.66-2.07,2.26-2.07,3.58v13.74c0,1.32.93,1.85,2.07,1.19l23.98-13.85h0Z"/>
    <polygon class="st6" points="223.93 177.55 223.93 154.4 213.91 160.19 213.91 183.33 223.93 177.55"/>
  </g>
  <g>
    <line class="st6" x1="42.56" y1="135.26" x2="42.56" y2="117.41"/>
    <line class="st6" x1="162.18" y1="206.12" x2="44.66" y2="138.3"/>
    <polygon class="st6" points="73.59 137.62 73.59 152.67 71.59 151.51 71.59 136.47 73.59 137.62"/>
    <polygon class="st9" points="121.7 168.29 157.78 189.12 157.78 198.37 121.7 177.54 121.7 168.29"/>
    <polygon class="st6" points="155.78 190.27 155.78 194.9 123.71 176.39 123.71 171.76 155.78 190.27"/>
    <line class="st6" x1="123.71" y1="171.76" x2="121.7" y2="168.29"/>
    <line class="st6" x1="123.71" y1="176.39" x2="121.7" y2="177.54"/>
    <line class="st6" x1="155.78" y1="194.9" x2="157.78" y2="198.37"/>
    <line class="st6" x1="155.78" y1="190.27" x2="157.78" y2="189.12"/>
    <line class="st6" x1="42.55" y1="127.23" x2="162.09" y2="196.23"/>
    <path class="st6" d="M53.54,126.05l24.7,14.26.73,1.42c.5.52,1.24,1.24,2.16,1.94,1.32,1.01,2.35,1.5,3.17,1.86,3.47,1.57,5.2,2.24,6.34,2.59,8.07,2.52,18.25,10.5,20.23,12.35.25.24.94.9,1.89,1.5,0,0,2.94,1.76,3.99.63l16.2,9.35"/>
    <path class="st6" d="M81.14,143.67c1.32,1.01,2.35,1.5,3.17,1.86,3.47,1.57,5.2,2.24,6.34,2.59,8.07,2.52,18.25,10.5,20.23,12.35.25.24.94.9,1.89,1.5,0,0,2.94,1.76,3.99.63l16.34,9.43"/>
    <path class="st6" d="M78.97,141.72c.5.52,1.24,1.24,2.16,1.94"/>
    <path class="st6" d="M78.97,141.72l-.73-1.42-24.7-14.26c-.15-.09-.36-.19-.6-.22-.43-.06-.58.19-.83.32-.61.3-1.52-.25-2.08-.58-.62-.38-1.14-.86-1.49-1.24v6.36"/>
    <line class="st6" x1="52.56" y1="133" x2="52.56" y2="125.87"/>
    <path class="st6" d="M52.56,133v6.39c0,.63.44,1.39.98,1.7l24.7,14.26"/>
    <path class="st6" d="M134.23,172.05c.83.48,1.5,1.65,1.5,2.6s-.67,1.35-1.5.87-1.5-1.65-1.5-2.6.67-1.35,1.5-.87Z"/>
    <line class="st6" x1="163" y1="199.65" x2="163" y2="193.86"/>
    <line class="st6" x1="170.6" y1="199.65" x2="170.6" y2="193.86"/>
    <path class="st6" d="M52.55,140.52v-1.17l-6.01-3.47h0c0,.64.45,1.43,1.01,1.75l5,2.89Z"/>
    <line class="st6" x1="53.54" y1="141.09" x2="56.86" y2="143.01"/>
    <line class="st6" x1="42.57" y1="134.77" x2="52.55" y2="140.52"/>
    <polyline class="st6" points="157.78 186.64 159.79 187.8 159.79 202.02 157.78 200.86"/>
    <line class="st6" x1="135.65" y1="173.87" x2="159.76" y2="187.79"/>
    <path class="st6" d="M81.16,155.36c1.32.51,2.35,1.22,3.17,1.79,3.47,2.44,5.2,3.76,6.34,4.73,8.07,6.79,18.25,10.57,20.23,11.01.25.06.94.19,1.89.69,0,0,2.94,1.63,3.99,3.98l16.32,9.42"/>
    <path class="st6" d="M79,154.81c.5.06,1.24.2,2.16.55"/>
    <line class="st6" x1="79" y1="154.81" x2="78.26" y2="155.37"/>
    <path class="st6" d="M134.25,188.26c.83.48,1.5.09,1.5-.87s-.67-2.12-1.5-2.6-1.5-.09-1.5.87.67,2.12,1.5,2.6Z"/>
    <line class="st6" x1="135.65" y1="188.1" x2="159.78" y2="202.03"/>
    <polyline class="st6" points="48.54 124.32 42.56 120.85 42.55 115.64"/>
    <polygon class="st6" points="52.56 133 52.55 139.36 46.54 135.89 46.54 129.53 52.56 133"/>
  </g>
  <path class="st4" d="M171.9,205.85c-2.81,1.62-7.58,1.64-10.19,0"/>
  <path class="st4" d="M171.9,196.02c-2.81,1.62-7.37,1.62-10.19,0"/>
  <path class="st4" d="M170.6,193.87c-2.32.83-5.29.83-7.61,0"/>
  <path class="st4" d="M170.6,199.66c-2.32.83-5.29.83-7.61,0"/>
  <path class="st4" d="M171.67,191.52l195.58-112.91v9.26l-195.28,112.73-.08.05c-2.81,1.62-7.37,1.62-10.19,0h0l-1.93-1.12"/>
  <path class="st4" d="M171.96,191.36c-2.79,1.66-7.45,1.65-10.26.02l-.12-.07-1.79-1.03"/>
  <path class="st4" d="M44.66,138.3c-1.45-.84-2.15-1.94-2.1-3.03"/>
</svg>