<?xml version="1.0" encoding="UTF-8"?>
<svg id="Ebene_1" xmlns="http://www.w3.org/2000/svg" version="1.1" viewBox="0 0 295.31 231.36">
  <!-- Generator: Adobe Illustrator 30.0.0, SVG Export Plug-In . SVG Version: 2.1.1 Build 123)  -->
  <defs>
    <style>
      .st0, .st1, .st2, .st3, .st4, .st5 {
        fill: none;
      }

      .st1, .st6, .st2, .st7, .st3, .st4, .st5, .st8, .st9 {
        stroke: #1d1d1b;
      }

      .st1, .st6, .st2, .st3, .st5, .st8, .st9 {
        stroke-miterlimit: 10;
      }

      .st6, .st2 {
        stroke-linecap: round;
      }

      .st6, .st2, .st7, .st4, .st5, .st9 {
        stroke-width: .25px;
      }

      .st6, .st7, .st9 {
        fill: #fff;
      }

      .st10 {
        font-family: Helvetica, Helvetica;
        font-size: 12px;
      }

      .st10, .st11, .st12, .st13, .st8, .st14 {
        fill: #1d1d1b;
      }

      .st10, .st15, .st12, .st13, .st14 {
        isolation: isolate;
      }

      .st7, .st4 {
        stroke-linejoin: round;
      }

      .st3 {
        stroke-width: 1.5px;
      }

      .st12 {
        font-size: 6px;
      }

      .st12, .st13, .st14 {
        font-weight: 700;
      }

      .st12, .st14 {
        font-family: Helvetica-Bold, Helvetica;
      }

      .st16 {
        fill: #020202;
      }

      .st13 {
        font-family: HelveticaNeue-Bold, 'Helvetica Neue';
        font-size: 6.5px;
      }

      .st8 {
        stroke-width: .08px;
      }

      .st14 {
        font-size: 13px;
      }

      .st17 {
        fill: #9e9e9e;
      }
    </style>
  </defs>
  <rect class="st9" x="6.23" y="42.25" width="283.46" height="180" rx="7.2" ry="7.2"/>
  <rect class="st17" x="5.83" y="222.47" width="283.46" height="180" rx="7.2" ry="7.2"/>
  <circle class="st0" cx="162.2" cy="240.1" r="2.13"/>
  <g>
    <circle class="st5" cx="88.53" cy="124.31" r="71.68"/>
    <circle class="st5" cx="88.46" cy="124.31" r="31.18"/>
    <path class="st5" d="M99.61,98.24c10.11,4.33,17.19,14.37,17.19,26.07,0,15.66-12.69,28.35-28.35,28.35s-28.35-12.69-28.35-28.35c0-11.69,7.08-21.73,17.19-26.07"/>
    <path class="st5" d="M103,103.35c6.08,4.23,10.24,11.04,10.88,18.85"/>
    <path class="st5" d="M63.03,122.19c.64-7.81,4.8-14.62,10.88-18.85"/>
    <path class="st5" d="M73.91,145.27c-6.08-4.23-10.24-11.04-10.88-18.85"/>
    <path class="st5" d="M99.34,147.39c-3.3,1.56-6.99,2.43-10.88,2.43s-7.58-.87-10.88-2.43"/>
    <path class="st5" d="M113.88,126.43c-.64,7.81-4.8,14.62-10.88,18.85"/>
    <path class="st5" d="M102.29,104.58c5.66,3.98,9.53,10.33,10.17,17.61"/>
    <path class="st5" d="M64.45,122.19c.63-7.28,4.51-13.64,10.17-17.61"/>
    <path class="st5" d="M74.63,144.04c-5.67-3.98-9.54-10.33-10.17-17.62"/>
    <path class="st5" d="M98.63,146.16c-3.09,1.44-6.54,2.25-10.17,2.25s-7.08-.8-10.17-2.25"/>
    <path class="st5" d="M112.46,126.43c-.63,7.28-4.51,13.64-10.17,17.61"/>
    <circle class="st5" cx="88.46" cy="124.31" r="21.26"/>
    <circle class="st5" cx="88.46" cy="124.31" r="17.01"/>
    <circle class="st5" cx="88.46" cy="124.31" r="18.43"/>
    <path class="st5" d="M88.46,139.9c-8.61,0-15.59-6.98-15.59-15.59s6.98-15.59,15.59-15.59c2.09,0,4.07.41,5.89,1.15,1.32.54,2.55,1.26,3.66,2.12,3.67,2.85,6.03,7.31,6.03,12.32,0,8.61-6.98,15.59-15.59,15.59h0Z"/>
    <line class="st5" x1="100.14" y1="126.43" x2="100.14" y2="122.19"/>
    <polyline class="st5" points="103.9 126.43 100.14 126.43 100.14 122.19 103.9 122.19"/>
    <polyline class="st5" points="73.01 122.19 76.77 122.19 76.77 126.43 73.01 126.43"/>
    <polyline class="st5" points="98.01 111.99 96.13 115.25 92.47 113.13 94.35 109.87"/>
    <polyline class="st5" points="78.9 136.63 80.78 133.36 84.45 135.49 82.56 138.74"/>
    <polyline class="st5" points="82.56 109.87 84.45 113.13 80.78 115.25 78.9 111.99"/>
    <polyline class="st5" points="94.35 138.74 92.47 135.49 96.13 133.36 98.01 136.63"/>
    <line class="st5" x1="109.72" y1="122.19" x2="116.8" y2="122.19"/>
    <line class="st5" x1="116.8" y1="126.43" x2="109.72" y2="126.43"/>
    <line class="st5" x1="60.11" y1="122.19" x2="67.2" y2="122.19"/>
    <line class="st5" x1="67.2" y1="126.43" x2="60.11" y2="126.43"/>
    <line class="st5" x1="104.46" y1="100.82" x2="100.92" y2="106.96"/>
    <line class="st5" x1="79.66" y1="143.78" x2="76.12" y2="149.92"/>
    <line class="st5" x1="72.45" y1="147.8" x2="75.99" y2="141.66"/>
    <line class="st5" x1="75.99" y1="106.96" x2="72.45" y2="100.82"/>
    <line class="st5" x1="100.8" y1="149.92" x2="97.25" y2="143.78"/>
    <line class="st5" x1="100.92" y1="141.66" x2="104.46" y2="147.8"/>
    <path class="st0" d="M93.98,101.17c.32.12.62.26.9.4l2.43-4.25h0c-2.79-.92-5.77-1.41-8.86-1.41s-6.08.5-8.86,1.41h0l2.43,4.25c.28-.15.58-.28.9-.4,1.81-.69,4.13-1.02,5.53-1.03v1.98-1.98c1.4,0,3.72.33,5.53,1.03h0Z"/>
    <path class="st6" d="M88.46,102.18c1.4,0,3.72.33,5.53,1.03.86.33,1.61.74,2.08,1.24.34.11,1.95-.91,1.95-.91l1.33-2.31-.35-.38c-.32-.35-.38-.87-.14-1.29l2.14-3.74.03-.05c-3.84-1.69-8.1-2.64-12.57-2.64s-8.73.95-12.57,2.64l.03.05,2.14,3.74c.24.41.18.93-.14,1.29l-.35.38,1.33,2.31s1.61,1.02,1.95.91c.47-.5,1.22-.91,2.08-1.24,1.81-.69,4.13-1.02,5.53-1.03h0ZM82.93,101.23c-.32.12-.62.26-.9.4l-2.43-4.25h0c2.79-.92,5.77-1.41,8.86-1.41s6.08.5,8.86,1.41h0l-2.43,4.25c-.28-.15-.58-.28-.9-.4-1.81-.69-4.13-1.02-5.53-1.03h0c-1.4,0-3.72.33-5.53,1.03h0Z"/>
  </g>
  <circle class="st5" cx="208.15" cy="124.31" r="31.18"/>
  <path class="st5" d="M234.21,135.47c-4.33,10.11-14.37,17.19-26.07,17.19-15.66,0-28.35-12.69-28.35-28.35s12.69-28.35,28.35-28.35c11.69,0,21.73,7.08,26.07,17.19"/>
  <path class="st5" d="M229.11,138.85c-4.23,6.08-11.04,10.24-18.85,10.88"/>
  <path class="st5" d="M210.26,98.88c7.81.64,14.62,4.8,18.85,10.88"/>
  <path class="st5" d="M187.19,109.76c4.23-6.08,11.04-10.24,18.85-10.88"/>
  <path class="st5" d="M185.07,135.18c-1.56-3.3-2.43-6.99-2.43-10.88s.87-7.58,2.43-10.88"/>
  <path class="st5" d="M206.03,149.73c-7.81-.64-14.62-4.8-18.85-10.88"/>
  <path class="st5" d="M227.88,138.14c-3.98,5.66-10.33,9.53-17.61,10.17"/>
  <path class="st5" d="M210.26,100.31c7.28.63,13.64,4.51,17.61,10.17"/>
  <path class="st5" d="M188.41,110.48c3.98-5.67,10.33-9.54,17.62-10.17"/>
  <path class="st5" d="M186.3,134.48c-1.44-3.09-2.25-6.54-2.25-10.17s.8-7.08,2.25-10.17"/>
  <path class="st5" d="M206.03,148.3c-7.28-.63-13.64-4.51-17.61-10.17"/>
  <circle class="st5" cx="208.15" cy="124.31" r="21.26"/>
  <circle class="st5" cx="208.15" cy="124.31" r="17.01"/>
  <circle class="st5" cx="208.15" cy="124.31" r="18.43"/>
  <path class="st5" d="M192.56,124.31c0-8.61,6.98-15.59,15.59-15.59s15.59,6.98,15.59,15.59c0,2.09-.41,4.07-1.15,5.89-.54,1.32-1.26,2.55-2.12,3.66-2.85,3.67-7.31,6.03-12.32,6.03-8.61,0-15.59-6.98-15.59-15.59h0Z"/>
  <line class="st5" x1="206.03" y1="135.99" x2="210.26" y2="135.99"/>
  <polyline class="st5" points="206.03 139.76 206.03 135.99 210.26 135.99 210.26 139.76"/>
  <polyline class="st5" points="210.26 108.86 210.26 112.63 206.03 112.63 206.03 108.86"/>
  <polyline class="st5" points="220.47 133.86 217.21 131.98 219.32 128.32 222.58 130.2"/>
  <polyline class="st5" points="195.83 114.75 199.09 116.63 196.97 120.3 193.71 118.42"/>
  <polyline class="st5" points="222.59 118.42 219.32 120.3 217.21 116.63 220.47 114.75"/>
  <polyline class="st5" points="193.71 130.2 196.97 128.32 199.09 131.98 195.83 133.86"/>
  <line class="st5" x1="210.26" y1="145.57" x2="210.26" y2="152.65"/>
  <line class="st5" x1="206.03" y1="152.65" x2="206.03" y2="145.57"/>
  <line class="st5" x1="210.26" y1="95.96" x2="210.26" y2="103.05"/>
  <line class="st5" x1="206.03" y1="103.05" x2="206.03" y2="95.96"/>
  <line class="st5" x1="231.64" y1="140.3" x2="225.5" y2="136.77"/>
  <line class="st5" x1="188.68" y1="115.51" x2="182.54" y2="111.97"/>
  <line class="st5" x1="184.66" y1="108.3" x2="190.79" y2="111.85"/>
  <line class="st5" x1="225.5" y1="111.85" x2="231.64" y2="108.3"/>
  <line class="st5" x1="182.54" y1="136.65" x2="188.68" y2="133.11"/>
  <line class="st5" x1="190.79" y1="136.77" x2="184.66" y2="140.3"/>
  <path class="st0" d="M231.29,129.84c-.12.32-.26.62-.4.9l4.25,2.43h0c.92-2.79,1.41-5.77,1.41-8.86s-.5-6.08-1.41-8.86h0l-4.25,2.43c.15.28.28.58.4.9.69,1.81,1.02,4.13,1.03,5.53h-1.98,1.98c0,1.4-.33,3.72-1.03,5.53h0Z"/>
  <path class="st6" d="M230.28,124.31c0,1.4-.33,3.72-1.03,5.53-.33.86-.74,1.61-1.24,2.08-.11.34.91,1.95.91,1.95l2.31,1.33.38-.35c.35-.32.87-.38,1.29-.14l3.74,2.14.05.03c1.69-3.84,2.64-8.1,2.64-12.57s-.95-8.73-2.64-12.57l-.05.03-3.74,2.14c-.41.24-.93.18-1.29-.14l-.38-.35-2.31,1.33s-1.02,1.61-.91,1.95c.5.47.91,1.22,1.24,2.08.69,1.81,1.02,4.13,1.03,5.53h0ZM231.23,118.78c-.12-.32-.26-.62-.4-.9l4.25-2.43h0c.92,2.79,1.41,5.77,1.41,8.86s-.5,6.08-1.41,8.86h0l-4.25-2.43c.15-.28.28-.58.4-.9.69-1.81,1.02-4.13,1.03-5.53h0c0-1.4-.33-3.72-1.03-5.53h0Z"/>
  <circle class="st5" cx="14.73" cy="50.76" r="7.09"/>
  <path class="st5" d="M23.19,43.69s0-.01,0-.01h-8.42c-3.93,0-7.12,3.19-7.12,7.12l1.22,15.36"/>
  <circle class="st5" cx="14.73" cy="50.76" r="5.67"/>
  <line class="st5" x1="8.87" y1="96.11" x2="287.05" y2="96.11"/>
  <line class="st5" x1="8.35" y1="59.07" x2="287.64" y2="59.07"/>
  <line class="st5" x1="8.87" y1="149.97" x2="287.05" y2="149.97"/>
  <circle class="st5" cx="14.02" cy="90.96" r="2.13"/>
  <path class="st5" d="M244.34,222.24H51.58l8.73-41.06c.18-.85.93-1.46,1.8-1.46h171.7c.87,0,1.62.61,1.8,1.46l8.73,41.06Z"/>
  <rect class="st5" x="20.4" y="148.55" width="255.12" height="25.51" rx="2.33" ry="2.33"/>
  <circle class="st5" cx="281.9" cy="90.96" r="2.13"/>
  <circle class="st5" cx="147.96" cy="65.81" r="2.13"/>
  <circle class="st5" cx="34.25" cy="205.21" r="12.05"/>
  <circle class="st5" cx="34.25" cy="205.21" r="4.25"/>
  <circle class="st5" cx="34.25" cy="205.21" r="2.13"/>
  <circle class="st5" cx="261.66" cy="205.43" r="2.13"/>
  <circle class="st5" cx="280.67" cy="183.3" r="2.83"/>
  <circle class="st5" cx="14.73" cy="50.76" r="2.83"/>
  <circle class="st5" cx="88.53" cy="124.31" r="17.01"/>
  <circle class="st5" cx="88.53" cy="124.31" r="18.43"/>
  <circle class="st5" cx="208.15" cy="124.31" r="17.01"/>
  <circle class="st5" cx="208.15" cy="124.31" r="18.43"/>
  <path class="st0" d="M65.39,118.78c.12-.32.26-.62.4-.9l-4.25-2.43h0c-.92,2.79-1.41,5.77-1.41,8.86s.5,6.08,1.41,8.86h0l4.25-2.43c-.15-.28-.28-.58-.4-.9-.69-1.81-1.02-4.13-1.03-5.53h1.98-1.98c0-1.4.33-3.72,1.03-5.53h0Z"/>
  <polygon class="st2" points="292.52 205.24 289.69 208.08 289.69 157.05 292.52 159.89 292.52 205.24"/>
  <polygon class="st2" points="3.39 205.24 6.22 208.08 6.22 157.05 3.39 159.89 3.39 205.24"/>
  <circle class="st5" cx="280.67" cy="199.8" r="2.83"/>
  <circle class="st5" cx="15.25" cy="183.3" r="2.83"/>
  <circle class="st5" cx="15.25" cy="199.8" r="2.83"/>
  <path class="st5" d="M23.19,42.25h18.43v9.35c0,2.66-2.16,4.82-4.82,4.82h-13.61v-14.17h0Z"/>
  <line class="st5" x1="54.22" y1="42.25" x2="44.3" y2="42.25"/>
  <rect class="st5" x="43.04" y="44.89" width="8.5" height="5.67"/>
  <polyline class="st4" points="24.46 57.84 18.98 57.84 18.98 56.43 24.46 56.43"/>
  <line class="st5" x1="43.04" y1="44.89" x2="43.04" y2="50.56"/>
  <line class="st5" x1="14.02" y1="42.25" x2="24.46" y2="42.25"/>
  <circle class="st5" cx="32.41" cy="49.34" r="2.83"/>
  <g>
    <circle class="st5" cx="281.21" cy="50.76" r="7.09"/>
    <line class="st5" x1="8.87" y1="209.66" x2="8.87" y2="66.15"/>
    <polyline class="st5" points="244.34 219.61 51.58 219.61 15.24 219.61"/>
    <path class="st5" d="M272.74,43.69s0-.01.01-.01h8.42c3.93,0,7.12,3.19,7.12,7.12l-1.25,15.36v143.61"/>
    <circle class="st5" cx="281.21" cy="50.76" r="5.67"/>
    <circle class="st5" cx="281.21" cy="50.76" r="2.83"/>
    <path class="st5" d="M272.74,56.43h-13.61c-2.66,0-4.82-2.16-4.82-4.82v-9.35h18.43v14.17h0Z"/>
    <rect class="st5" x="244.4" y="44.89" width="8.5" height="5.67"/>
    <circle class="st5" cx="263.53" cy="49.34" r="2.83"/>
    <polyline class="st4" points="271.38 57.84 276.86 57.84 276.86 56.43 271.38 56.43"/>
  </g>
  <path class="st5" d="M23.19,57.84h13.61c3.32,0,6.03-2.59,6.22-5.86h6.86c1.7,0,3.07-1.35,3.07-3.01v-4.07h190.02v4.07c0,1.66,1.38,3.01,3.07,3.01h6.86c.19,3.27,2.91,5.86,6.22,5.86h13.61"/>
  <rect class="st5" x="255.7" y="42.25" width="15.66" height="2.83"/>
  <path class="st5" d="M288.28,213.74c0,3.91-3.17,7.09-7.09,7.09-1.47,0-2.83-.45-3.96-1.21-1.89-1.27-3.12-3.43-3.12-5.88,0-3.91,3.17-7.09,7.09-7.09,2.44,0,4.58,1.23,5.86,3.1.77,1.14,1.23,2.51,1.23,3.99h-.01Z"/>
  <circle class="st5" cx="281.19" cy="213.74" r="5.67"/>
  <circle class="st5" cx="281.19" cy="213.74" r="2.83"/>
  <g>
    <line class="st5" x1="6.23" y1="176.11" x2="289.69" y2="176.11"/>
    <line class="st5" x1="6.23" y1="178.3" x2="289.69" y2="178.3"/>
    <line class="st5" x1="6.23" y1="180.47" x2="289.69" y2="180.47"/>
    <line class="st5" x1="6.23" y1="182.65" x2="289.69" y2="182.65"/>
    <line class="st5" x1="6.23" y1="184.82" x2="289.69" y2="184.82"/>
    <line class="st5" x1="6.23" y1="186.99" x2="289.69" y2="186.99"/>
    <line class="st5" x1="6.23" y1="189.17" x2="289.69" y2="189.17"/>
    <line class="st5" x1="6.23" y1="191.34" x2="289.69" y2="191.34"/>
    <line class="st5" x1="6.23" y1="193.52" x2="289.69" y2="193.52"/>
    <line class="st5" x1="6.23" y1="195.68" x2="289.69" y2="195.68"/>
    <line class="st5" x1="6.23" y1="197.86" x2="289.69" y2="197.86"/>
    <line class="st5" x1="6.23" y1="200.04" x2="289.69" y2="200.04"/>
    <line class="st5" x1="6.23" y1="202.22" x2="289.69" y2="202.22"/>
    <line class="st5" x1="6.23" y1="204.39" x2="289.69" y2="204.39"/>
    <line class="st5" x1="6.23" y1="206.57" x2="289.69" y2="206.57"/>
    <line class="st5" x1="283.85" y1="208.74" x2="289.69" y2="208.74"/>
    <line class="st5" x1="17.44" y1="208.74" x2="278.53" y2="208.74"/>
    <line class="st5" x1="6.23" y1="208.74" x2="12.02" y2="208.74"/>
    <line class="st5" x1="286.1" y1="210.91" x2="289.69" y2="210.91"/>
    <line class="st5" x1="19.65" y1="210.91" x2="276.28" y2="210.91"/>
    <line class="st5" x1="6.23" y1="210.91" x2="9.8" y2="210.91"/>
    <line class="st5" x1="286.82" y1="213.09" x2="289.69" y2="213.09"/>
    <line class="st5" x1="20.36" y1="213.09" x2="275.56" y2="213.09"/>
    <line class="st5" x1="6.23" y1="213.09" x2="9.09" y2="213.09"/>
    <line class="st5" x1="286.65" y1="215.26" x2="289.69" y2="215.26"/>
    <line class="st5" x1="20.18" y1="215.26" x2="275.72" y2="215.26"/>
    <line class="st5" x1="6.23" y1="215.26" x2="9.27" y2="215.26"/>
    <line class="st5" x1="285.5" y1="217.43" x2="289.28" y2="217.43"/>
    <line class="st5" x1="19.01" y1="217.43" x2="276.88" y2="217.43"/>
    <line class="st5" x1="6.63" y1="217.43" x2="10.44" y2="217.43"/>
    <line class="st5" x1="285.13" y1="219.61" x2="288.06" y2="219.61"/>
    <line class="st5" x1="7.85" y1="219.61" x2="277.21" y2="219.61"/>
  </g>
  <path class="st5" d="M7.64,213.72c0,3.91,3.17,7.09,7.09,7.09,1.47,0,2.83-.45,3.96-1.21,1.89-1.27,3.12-3.43,3.12-5.88,0-3.91-3.17-7.09-7.09-7.09-2.44,0-4.58,1.23-5.86,3.1-.77,1.14-1.23,2.51-1.23,3.99h0Z"/>
  <path class="st5" d="M9.06,213.72c0,.53.07,1.05.21,1.54.23.81.64,1.55,1.18,2.17,1.04,1.2,2.57,1.95,4.28,1.95s3.24-.76,4.28-1.95c.54-.62.95-1.36,1.18-2.17.14-.49.21-1.01.21-1.54,0-.21,0-.43-.03-.63-.09-.78-.33-1.52-.71-2.17-.52-.91-1.29-1.67-2.22-2.17-.8-.44-1.73-.69-2.71-.69-2.11,0-3.95,1.15-4.93,2.86-.37.65-.62,1.39-.71,2.17-.02.21-.03.42-.03.63h0Z"/>
  <circle class="st5" cx="14.73" cy="213.72" r="2.83"/>
  <circle class="st9" cx="79.93" cy="212.52" r="7.09"/>
  <circle class="st9" cx="215.99" cy="212.52" r="7.09"/>
  <rect class="st9" x="102.6" y="202.22" width="12.76" height="11.53" rx="3.95" ry="3.95"/>
  <circle class="st5" cx="261.66" cy="193.2" r="2.13"/>
  <rect class="st5" x="91.29" y="219.61" width="11.34" height="2.61" rx="1.3" ry="1.3"/>
  <rect class="st5" x="193.34" y="219.61" width="11.34" height="2.61" rx="1.3" ry="1.3"/>
  <circle class="st9" cx="79.95" cy="212.49" r="7.09"/>
  <circle class="st9" cx="216.02" cy="212.49" r="7.09"/>
  <rect class="st9" x="102.63" y="202.18" width="12.76" height="11.53" rx="3.95" ry="3.95"/>
  <path class="st5" d="M127.43,220.8h0c0,.78-.63,1.42-1.42,1.42h-10.04c-.72,0-1.3-.58-1.3-1.3h0c0-.72.58-1.3,1.3-1.3h10.04v-14.4h1.42v15.59"/>
  <rect class="st9" x="181.29" y="202.28" width="11.34" height="11.34" rx="5" ry="5"/>
  <line class="st5" x1="87.3" y1="208.04" x2="85.47" y2="208.04"/>
  <path class="st5" d="M87.65,207.76c-.03.17-.18.29-.35.29"/>
  <g>
    <circle class="st5" cx="147.98" cy="193.3" r="3.87"/>
    <path class="st5" d="M221.54,208.04h1.82c.17,0,.32-.12.35-.29l.81-3.96h15.93"/>
    <path class="st5" d="M55.52,203.79h15.93l.81,3.96c.03.17.18.29.35.29h1.82"/>
    <path class="st5" d="M56.13,200.96h40.84l22.68-4.25h22.13c-.55-1.01-.87-2.17-.87-3.4,0-3.91,3.17-7.09,7.09-7.09s7.09,3.17,7.09,7.09c0,1.23-.31,2.39-.87,3.4h22.13l22.68,4.25h40.84"/>
    <path class="st5" d="M87.65,207.76l.81-3.96h8.5l22.68-4.25h24.98c1,.54,2.15.85,3.37.85s2.37-.31,3.37-.85h24.98l2.13.4v6.95c0,.78.63,1.42,1.42,1.42h0c.78,0,1.42-.63,1.42-1.42v-6.42l11.34,2.13v4.29c0,.78.63,1.42,1.42,1.42h0c.78,0,1.42-.63,1.42-1.42v-3.76h0l3.54.66h8.5l.81,3.96c.03.17.18.29.35.29h1.82"/>
  </g>
  <path class="st5" d="M127.43,212.99v-2.12h1.49c.35,0,.63.28.63.63s-.28.63-.63.63h-.07v.86c0,.39-.32.71-.71.71h-.71"/>
  <path class="st5" d="M168.54,220.8h0c0,.78.63,1.42,1.42,1.42h10.04c.72,0,1.3-.58,1.3-1.3h0c0-.72-.58-1.3-1.3-1.3h-10.04v-14.4h-1.42v15.59"/>
  <path class="st5" d="M168.53,212.99v-2.12h-1.49c-.35,0-.63.28-.63.63s.28.63.63.63h.07v.86c0,.39.32.71.71.71h.71"/>
  <polyline class="st5" points="98.38 203.53 98.38 219.58 95.54 219.58 95.54 203.79"/>
  <polyline class="st5" points="197.59 203.53 197.59 219.61 200.43 219.61 200.43 203.79"/>
  <circle class="st5" cx="230.19" cy="215.13" r="4.25"/>
  <circle class="st5" cx="65.78" cy="215.13" r="4.25"/>
  <rect class="st9" x="246.78" y="183.47" width="29.76" height="17.52" rx="1.69" ry="1.69"/>
  <ellipse class="st5" cx="261.66" cy="192.3" rx="2.13" ry="2.19"/>
  <polygon class="st7" points="246.78 199.27 246.78 185.18 258.12 192.23 246.78 199.27"/>
  <circle class="st5" cx="261.66" cy="205.21" r="12.05"/>
  <circle class="st5" cx="261.66" cy="205.21" r="4.25"/>
  <rect class="st5" x="24.58" y="42.25" width="15.66" height="2.83"/>
  <g>
    <line class="st5" x1="35.99" y1="74.93" x2="94.1" y2="74.93"/>
    <line class="st5" x1="35.99" y1="77.29" x2="91.74" y2="77.29"/>
    <line class="st5" x1="35.99" y1="79.65" x2="89.38" y2="79.65"/>
    <line class="st5" x1="35.99" y1="82.01" x2="87.01" y2="82.01"/>
    <line class="st5" x1="35.99" y1="84.38" x2="84.65" y2="84.38"/>
    <line class="st5" x1="35.99" y1="86.74" x2="82.29" y2="86.74"/>
    <line class="st5" x1="35.99" y1="89.1" x2="79.93" y2="89.1"/>
    <line class="st5" x1="35.99" y1="91.46" x2="77.56" y2="91.46"/>
    <line class="st5" x1="35.99" y1="93.83" x2="75.2" y2="93.83"/>
    <line class="st5" x1="35.99" y1="96.19" x2="72.84" y2="96.19"/>
  </g>
  <g>
    <line class="st1" x1="35.99" y1="75.31" x2="76.99" y2="75.31"/>
    <line class="st1" x1="35.99" y1="77.67" x2="74.63" y2="77.67"/>
    <line class="st1" x1="35.99" y1="80.03" x2="72.27" y2="80.03"/>
    <line class="st1" x1="35.99" y1="82.39" x2="69.91" y2="82.39"/>
    <line class="st1" x1="35.99" y1="84.75" x2="67.55" y2="84.75"/>
    <line class="st1" x1="35.99" y1="87.12" x2="65.18" y2="87.12"/>
    <line class="st1" x1="35.99" y1="89.48" x2="62.82" y2="89.48"/>
    <line class="st1" x1="35.99" y1="91.84" x2="60.46" y2="91.84"/>
    <line class="st1" x1="35.99" y1="94.2" x2="58.1" y2="94.2"/>
    <line class="st1" x1="35.99" y1="96.57" x2="55.73" y2="96.57"/>
  </g>
  <g>
    <line class="st3" x1="35.99" y1="75.58" x2="59.66" y2="75.58"/>
    <line class="st3" x1="35.99" y1="77.95" x2="57.29" y2="77.95"/>
    <line class="st3" x1="35.99" y1="80.31" x2="54.93" y2="80.31"/>
    <line class="st3" x1="35.99" y1="82.67" x2="52.57" y2="82.67"/>
    <line class="st3" x1="35.99" y1="85.03" x2="50.21" y2="85.03"/>
    <line class="st3" x1="35.99" y1="87.39" x2="47.85" y2="87.39"/>
    <line class="st3" x1="35.99" y1="89.76" x2="45.48" y2="89.76"/>
    <line class="st3" x1="35.99" y1="92.12" x2="43.12" y2="92.12"/>
    <line class="st3" x1="35.99" y1="94.48" x2="40.76" y2="94.48"/>
    <line class="st3" x1="35.99" y1="96.84" x2="38.4" y2="96.84"/>
  </g>
  <g class="st15">
    <text class="st12" transform="translate(77.62 161.05)"><tspan x="0" y="0">DYNAMIC CASSETTE LOW NOISE HIGH OUTPUT</tspan></text>
  </g>
  <g class="st15">
    <text class="st10" transform="translate(26.32 163.13)"><tspan x="0" y="0">A:</tspan></text>
  </g>
  <g class="st15">
    <text class="st13" transform="translate(96.93 92.22)"><tspan x="0" y="0">IECI/TYPE1 NORMAL POSITION</tspan></text>
  </g>
  <g class="st15">
    <text class="st14" transform="translate(107.51 84.42)"><tspan x="0" y="0">TDK</tspan></text>
  </g>
  <g>
    <g>
      <polyline class="st16" points="104.45 75.2 102.5 77.14 100.54 75.2"/>
      <g>
        <rect class="st0" x="100.54" y="75.2" width="3.91" height="3.89"/>
        <polyline class="st16" points="104.45 79.09 102.5 77.14 100.54 79.09"/>
      </g>
    </g>
    <g>
      <polyline class="st16" points="104.45 79.09 105.16 81.75 102.5 82.47"/>
      <g>
        <rect class="st0" x="103.2" y="79.81" width="3.91" height="3.89" transform="translate(-18.22 131.94) rotate(-60)"/>
        <polyline class="st16" points="105.86 84.42 105.16 81.75 107.82 81.03 104.45 79.09 104.45 75.2 107.82 81.03"/>
      </g>
    </g>
    <polyline class="st16" points="99.13 84.42 99.84 81.75 97.17 81.03 100.54 79.09 100.54 75.2 97.17 81.03"/>
    <polyline points="100.54 79.09 99.84 81.75 102.5 82.47"/>
    <polyline class="st16" points="102.5 82.47 99.13 84.42 105.86 84.42"/>
  </g>
  <g>
    <g>
      <path class="st0" d="M231.89,70.33c-1.42-1.32-3.34-1.29-4.05-1.28-2.08.03-3.55,1-4.11,1.41-4.27,6.02-8.55,12.04-12.82,18.06-.08.18-.24.62-.06,1.06.14.34.44.58.94.77,1.75.68,4.09.17,4.09.17,2.47-.54,4.23-1.41,4.39-1.49,2.77-1.4,5.19-2.63,7.84-5.2,2.51-2.43,5.18-5.03,5.32-8.77.03-.82.12-3.19-1.53-4.73h-.01Z"/>
      <g>
        <path class="st8" d="M260.85,75.99c-1.6-1.39-5.93.98-9.68,5.29s-5.49,8.93-3.89,10.32c1.6,1.39,5.93-.98,9.68-5.29s5.49-8.93,3.89-10.32ZM255.77,84.92c-3.04,4.01-6.23,6.72-7.13,6.04s.84-4.49,3.87-8.5c3.04-4.01,6.23-6.72,7.13-6.04s-.84,4.49-3.87,8.5Z"/>
        <path class="st0" d="M259.64,76.42c-.9-.68-4.09,2.02-7.13,6.04-3.04,4.01-4.77,7.82-3.87,8.5s4.09-2.02,7.13-6.04c3.04-4.01,4.77-7.82,3.87-8.5Z"/>
      </g>
    </g>
    <path class="st8" d="M231.84,93.89c.32-.05.76-.13,1.29-.26.58-.14,2.38-.6,5.32-2.18,2.25-1.22,3.93-2.42,4.86-3.13,2.12-1.62,3.54-3.06,4.22-3.79.49-.52,1.48-1.61,2.44-3.16.17-.27.75-1.22,1.12-2.56.27-.99.23-1.45.11-1.81-.04-.14-.29-.91-1.01-1.26-.17-.08-.4-.16-1.01-.17-.59-.01-1.43-.02-2.5.34-.62.21-1.16.5-1.87.98-.36.24-1.77,1.17-3.39,2.96-.64.71-1.16,1.38-1.64,2.13-.93,1.46-.96,2.09-.92,2.5.02.18.09.83.52,1.24.74.7,2.41.53,3.99-.63.04-.04.09-.09.08-.14-.02-.06-.17-.07-.27-.07-.41,0-.65.03-.81.04-.29,0-.66-.1-.83-.29-.31-.34-.11-1.01.07-1.49.64-1.73,1.67-3.02,2.18-3.61.65-.76,1.35-1.57,2.53-2.34.51-.33.96-.56,1.3-.71.07-.03.18-.08.32-.1.04,0,.41-.05.67.11.13.08.32.27.37.83.1.95-.3,1.87-.57,2.44-.7,1.48-1.43,2.5-1.69,2.86-.57.78-1.05,1.31-1.46,1.77-.94,1.04-1.72,1.75-2.49,2.44-.85.76-1.45,1.31-2.36,1.97-.65.48-1.25.84-2.45,1.58-1.04.63-1.68,1.03-2.62,1.51-1.09.57-1.82.87-2.36,1.07-.36.13-.66.24-.88.31-.03,0-.16,0-.28.1-.02.02-.12.11-.13.26-.01.17.09.28.1.3l.05-.04Z"/>
  </g>
  <path class="st11" d="M221.71,91.72h-6.62l.5-.85c.65,0,1.18-.05,1.57-.16.39-.11.74-.33,1.05-.68.31-.34.66-.85,1.05-1.52l6.18-10.31c.38-.62.58-1.07.61-1.37.03-.29-.1-.48-.4-.58-.29-.09-.75-.14-1.38-.14l.55-.88h6.92c1.28,0,2.37.13,3.26.4s1.56.67,2.03,1.2c.47.54.71,1.2.74,2.01.02.8-.19,1.75-.65,2.83-.76,1.81-1.69,3.35-2.8,4.63-1.1,1.28-2.33,2.32-3.68,3.11-1.35.79-2.78,1.38-4.29,1.74-1.5.37-3.06.55-4.66.55l.02.02ZM222.2,90.59c1.79,0,3.42-.29,4.88-.87s2.77-1.5,3.93-2.77,2.16-2.93,3.01-4.97c.34-.82.55-1.57.65-2.24.09-.68.02-1.27-.21-1.77-.23-.5-.67-.89-1.32-1.18-.65-.28-1.55-.43-2.71-.43-.19,0-.36,0-.51.01-.15,0-.35.03-.61.06l-8.53,14.09c.2.03.43.05.67.05h.77l-.02.02Z"/>
  <line class="st5" x1="236.69" y1="136.88" x2="282.53" y2="181.16"/>
  <line class="st5" x1="283.34" y1="184.28" x2="272.34" y2="210.82"/>
  <line class="st5" x1="12.61" y1="184.34" x2="23.6" y2="210.92"/>
  <line class="st5" x1="17.05" y1="119.08" x2="12.41" y2="183.3"/>
</svg>