<?xml version="1.0" encoding="UTF-8"?>
<svg id="Ebene_1" xmlns="http://www.w3.org/2000/svg" version="1.1" viewBox="0 0 389.74 598.12">
  <!-- Generator: Adobe Illustrator 30.0.0, SVG Export Plug-In . SVG Version: 2.1.1 Build 123)  -->
  <defs>
    <style>
      .st0, .st1, .st2, .st3, .st4, .st5, .st6 {
        fill: none;
      }

      .st1, .st7, .st2, .st8, .st3, .st4, .st5, .st9, .st6, .st10 {
        stroke: #1d1d1b;
      }

      .st1, .st7, .st2, .st3, .st5, .st9, .st10 {
        stroke-miterlimit: 10;
      }

      .st7, .st2, .st8, .st4, .st5, .st6, .st10 {
        stroke-width: .25px;
      }

      .st7, .st2, .st6 {
        stroke-linecap: round;
      }

      .st7, .st8, .st10 {
        fill: #fff;
      }

      .st11 {
        font-family: Helvetica, Helvetica;
        font-size: 12px;
      }

      .st11, .st12, .st13, .st14, .st9, .st15 {
        fill: #1d1d1b;
      }

      .st11, .st16, .st13, .st14, .st15 {
        isolation: isolate;
      }

      .st8, .st4, .st6 {
        stroke-linejoin: round;
      }

      .st3 {
        stroke-width: 1.5px;
      }

      .st13 {
        font-size: 6px;
      }

      .st13, .st14, .st15 {
        font-weight: 700;
      }

      .st13, .st15 {
        font-family: Helvetica-Bold, Helvetica;
      }

      .st17 {
        fill: #020202;
      }

      .st14 {
        font-family: HelveticaNeue-Bold, 'Helvetica Neue';
        font-size: 6.5px;
      }

      .st9 {
        stroke-width: .08px;
      }

      .st15 {
        font-size: 13px;
      }
    </style>
  </defs>
  <circle class="st0" cx="209.27" cy="517.18" r="2.13"/>
  <g>
    <polyline class="st5" points="95.82 556.83 53.3 556.83 53.3 532.74 95.82 532.74"/>
    <polyline class="st5" points="294.24 532.74 336.76 532.74 336.76 556.83 294.24 556.83"/>
    <polygon class="st4" points="98.65 527.78 291.41 527.78 294.24 532.74 294.24 556.83 291.41 561.79 98.65 561.79 95.82 556.83 95.82 532.74 98.65 527.78"/>
    <line class="st5" x1="291.41" y1="561.79" x2="294.24" y2="556.83"/>
    <line class="st5" x1="291.41" y1="527.78" x2="294.24" y2="532.74"/>
    <line class="st5" x1="95.82" y1="532.74" x2="98.65" y2="527.78"/>
    <line class="st5" x1="95.82" y1="556.83" x2="98.65" y2="561.79"/>
    <polyline class="st2" points="297.08 537.7 319.75 537.7 319.75 551.87 297.08 551.87"/>
    <polyline class="st5" points="99.06 530.61 290.99 530.61 290.99 558.96 99.06 558.96"/>
    <rect class="st5" x="189.35" y="536.28" width="11.34" height="17.01"/>
    <rect class="st5" x="175.18" y="530.61" width="39.69" height="28.35"/>
    <rect class="st5" x="151.09" y="535.57" width="11.34" height="18.43"/>
    <rect class="st5" x="227.62" y="535.57" width="11.34" height="18.43"/>
    <rect class="st5" x="214.87" y="530.61" width="35.43" height="28.35"/>
    <rect class="st5" x="139.75" y="530.61" width="35.43" height="28.35"/>
    <line class="st5" x1="214.87" y1="544.78" x2="227.63" y2="544.78"/>
    <line class="st5" x1="238.96" y1="544.78" x2="250.3" y2="544.78"/>
    <line class="st5" x1="175.19" y1="544.78" x2="162.43" y2="544.78"/>
    <line class="st5" x1="151.09" y1="544.78" x2="139.75" y2="544.78"/>
    <rect class="st5" x="244.63" y="530.61" width="2.83" height="28.35"/>
    <rect class="st5" x="142.59" y="530.61" width="2.83" height="28.35"/>
    <polyline class="st5" points="297.08 537.7 324 537.7 324 544.78 289.99 544.78 289.99 530.61"/>
    <polyline class="st5" points="289.99 558.96 289.99 544.78 328.26 544.78 328.26 551.87 297.08 551.87"/>
    <polygon class="st5" points="336.76 549.04 336.76 540.53 339.59 541.95 339.59 547.62 336.76 549.04"/>
    <line class="st5" x1="336.76" y1="544.78" x2="339.59" y2="544.78"/>
    <polygon class="st5" points="53.3 540.53 53.3 549.04 50.46 547.62 50.46 541.95 53.3 540.53"/>
    <line class="st5" x1="53.3" y1="544.78" x2="50.46" y2="544.78"/>
    <polygon class="st10" points="216.29 558.96 244.63 558.96 247.47 558.96 247.47 556.12 244.63 556.12 244.63 558.25 216.29 558.25 216.29 549.04 214.87 549.04 214.87 558.96 216.29 558.96 216.29 558.96"/>
    <polygon class="st10" points="216.29 531.32 244.63 531.32 244.63 533.45 247.47 533.45 247.47 530.61 244.63 530.61 216.29 530.61 214.87 530.61 214.87 540.53 216.29 540.53 216.29 531.32"/>
    <rect class="st5" x="53.3" y="539.12" width="283.46" height="11.34"/>
    <polygon class="st10" points="173.77 530.61 145.42 530.61 142.59 530.61 142.59 533.45 145.42 533.45 145.42 531.32 173.77 531.32 173.77 540.53 175.19 540.53 175.19 530.61 173.77 530.61 173.77 530.61"/>
    <polygon class="st10" points="173.77 558.25 145.42 558.25 145.42 556.12 142.59 556.12 142.59 558.96 145.42 558.96 173.77 558.96 175.19 558.96 175.19 549.04 173.77 549.04 173.77 558.25"/>
    <circle class="st10" cx="212.74" cy="556.83" r="2.13"/>
    <circle class="st10" cx="212.74" cy="532.74" r="2.13"/>
    <circle class="st10" cx="177.31" cy="556.83" r="2.13"/>
    <circle class="st10" cx="177.31" cy="532.74" r="2.13"/>
    <path class="st5" d="M297.08,551.87l-4.97,1.42v4.56c0,.61-.5,1.11-1.11,1.11h0v-28.35h0c.61,0,1.11.5,1.11,1.11v4.56l4.97,1.42v14.17h0Z"/>
    <line class="st5" x1="324" y1="544.78" x2="336.76" y2="544.78"/>
    <line class="st5" x1="203.92" y1="550.26" x2="203.92" y2="544.78"/>
    <line class="st5" x1="204.95" y1="549.75" x2="204.95" y2="544.78"/>
    <path class="st5" d="M200.7,553.29h1.42v-1.78c0-.21.12-.41.31-.5l2.52-1.26"/>
    <polyline class="st5" points="189.36 553.29 187.94 553.29 187.94 536.28 202.11 536.28"/>
    <line class="st5" x1="203.91" y1="539.31" x2="203.91" y2="544.78"/>
    <line class="st5" x1="204.94" y1="539.82" x2="204.94" y2="544.78"/>
    <path class="st5" d="M200.69,536.28h1.42v1.78c0,.21.12.41.31.5l2.52,1.26"/>
    <polyline class="st5" points="204.95 549.75 207.78 548.33 223.33 548.33 223.33 541.24 207.78 541.24 204.94 539.82"/>
    <line class="st5" x1="184.71" y1="550.26" x2="184.71" y2="544.78"/>
    <line class="st5" x1="183.68" y1="549.75" x2="183.68" y2="544.78"/>
    <path class="st5" d="M187.93,553.29h-1.42v-1.78c0-.21-.12-.41-.31-.5l-2.52-1.26"/>
    <line class="st5" x1="184.72" y1="539.31" x2="184.72" y2="544.78"/>
    <line class="st5" x1="183.69" y1="539.82" x2="183.69" y2="544.78"/>
    <path class="st5" d="M187.94,536.28h-1.42v1.78c0,.21-.12.41-.31.5l-2.52,1.26"/>
    <polyline class="st5" points="183.68 549.75 180.85 548.33 165.3 548.33 165.3 541.24 180.85 541.24 183.69 539.82"/>
    <path class="st5" d="M287.15,536.37v16.83c0,1.61-1.31,2.92-2.92,2.92h-33.92v-22.68h33.92c1.61,0,2.92,1.31,2.92,2.92h0Z"/>
    <rect class="st5" x="255.97" y="530.61" width="14.17" height="28.35"/>
    <polyline class="st2" points="92.98 537.7 70.3 537.7 70.3 551.87 92.98 551.87"/>
    <polyline class="st5" points="92.98 537.7 66.05 537.7 66.05 544.78 100.07 544.78 100.07 530.61"/>
    <polyline class="st5" points="100.07 558.96 100.07 544.78 61.8 544.78 61.8 551.87 92.98 551.87"/>
    <path class="st5" d="M92.98,551.87l4.97,1.42v4.56c0,.61.5,1.11,1.11,1.11h0v-28.35h0c-.61,0-1.11.5-1.11,1.11v4.56l-4.97,1.42v14.17h0Z"/>
    <line class="st5" x1="66.05" y1="544.78" x2="53.3" y2="544.78"/>
    <path class="st5" d="M139.76,533.44v22.68h-33.92c-1.61,0-2.92-1.31-2.92-2.92v-16.83c0-1.61,1.31-2.92,2.92-2.92h33.92Z"/>
    <rect class="st5" x="119.92" y="530.61" width="14.17" height="28.35"/>
  </g>
  <g>
    <rect class="st5" x="53.3" y="266.67" width="283.46" height="24.09"/>
    <line class="st5" x1="73.14" y1="290.76" x2="316.92" y2="290.76"/>
    <line class="st5" x1="316.92" y1="286.51" x2="73.14" y2="286.51"/>
    <line class="st5" x1="73.14" y1="270.92" x2="316.92" y2="270.92"/>
    <line class="st5" x1="316.92" y1="266.67" x2="73.14" y2="266.67"/>
    <line class="st5" x1="299.68" y1="278.72" x2="53.3" y2="278.72"/>
    <line class="st5" x1="336.76" y1="278.72" x2="317.19" y2="278.72"/>
    <polygon class="st5" points="336.76 287.93 319.69 287.93 319.48 278.72 317.19 278.72 317.01 286.51 316.98 287.93 316.98 287.93 316.92 290.76 319.75 290.76 336.76 290.76 336.76 287.93"/>
    <polyline class="st5" points="316.92 266.67 317.01 270.92 317.19 278.72"/>
    <polyline class="st5" points="319.7 278.72 328.21 278.72 328.21 287.93 319.7 287.93"/>
    <polyline class="st5" points="316.87 266.67 323.95 266.67 323.95 269.5 316.89 269.5"/>
    <polyline class="st5" points="317.05 269.5 322.72 269.5 322.72 278.72 317.25 278.72"/>
    <rect class="st5" x="282.86" y="270.92" width="2.83" height="15.59"/>
    <polyline class="st5" points="299.86 286.51 297.03 286.51 297.03 270.92 299.86 270.92"/>
    <polygon class="st5" points="53.3 287.93 70.37 287.93 70.57 278.72 72.87 278.72 73.04 286.51 73.07 287.93 73.07 287.93 73.14 290.76 70.3 290.76 53.3 290.76 53.3 287.93"/>
    <polyline class="st5" points="73.07 269.5 73.07 269.5 73.14 266.67"/>
    <polyline class="st5" points="72.87 278.72 73.04 270.92 73.07 269.5"/>
    <polyline class="st5" points="70.35 278.72 61.85 278.72 61.85 287.93 70.35 287.93"/>
    <polyline class="st5" points="73.19 266.67 66.1 266.67 66.1 269.5 73.16 269.5"/>
    <polyline class="st5" points="73 269.5 67.33 269.5 67.33 278.72 72.8 278.72"/>
    <rect class="st5" x="104.37" y="270.92" width="2.83" height="15.59"/>
    <polyline class="st5" points="90.2 286.51 93.03 286.51 93.03 270.92 90.2 270.92"/>
    <line class="st5" x1="299.68" y1="278.72" x2="299.86" y2="286.51"/>
    <line class="st5" x1="299.86" y1="270.92" x2="299.68" y2="278.72"/>
    <rect class="st5" x="192.91" y="270.92" width="4.25" height="15.59"/>
    <polyline class="st5" points="90.2 286.51 93.03 286.51 93.03 270.92 90.2 270.92"/>
    <line class="st5" x1="90.37" y1="278.72" x2="90.2" y2="286.51"/>
    <line class="st5" x1="90.2" y1="270.92" x2="90.37" y2="278.72"/>
  </g>
  <g>
    <rect class="st5" x=".88" y="319.3" width="24.09" height="180"/>
    <rect class="st5" x="3.71" y="364.66" width="18.42" height="2.83"/>
    <rect class="st10" x="7.26" y="435.52" width="11.34" height="51.02"/>
    <rect class="st5" x="10.09" y="438.36" width="5.67" height="45.35"/>
    <line class="st5" x1="15.76" y1="438.36" x2="18.6" y2="435.52"/>
    <line class="st5" x1="10.09" y1="438.36" x2="7.26" y2="435.52"/>
    <line class="st5" x1="10.09" y1="483.71" x2="7.26" y2="486.55"/>
    <line class="st5" x1="15.76" y1="483.71" x2="18.6" y2="486.55"/>
    <line class="st5" x1="12.92" y1="319.3" x2="12.92" y2="499.3"/>
    <path class="st4" d="M22.14,339.13v34.93l-1.22,1.04c-.28.71-.64,1.76-.85,3.06-.31,1.87-.17,3.33-.04,4.48.53,4.91.93,7.35,1.3,8.97,2.61,11.41.04,25.81-.82,28.61-.11.36-.44,1.33-.49,2.68,0,0-.08,4.16,2.05,5.64v22.91"/>
    <path class="st4" d="M20.07,378.16c-.31,1.87-.17,3.33-.04,4.48.53,4.91.93,7.35,1.3,8.97,2.61,11.41.04,25.81-.82,28.61-.11.36-.44,1.33-.49,2.68,0,0-.08,4.16,2.05,5.64v23.11"/>
    <path class="st4" d="M20.92,375.1c-.28.71-.64,1.76-.85,3.06"/>
    <path class="st4" d="M20.92,375.1l1.22-1.04v-34.93c0-.21-.03-.51-.15-.84-.23-.61-.64-.82-.97-1.17-.8-.86-.77-2.15-.76-2.94.02-.88.25-1.61.46-2.11h-7.8"/>
    <line class="st4" x1="12.92" y1="337.74" x2="21.66" y2="337.74"/>
    <path class="st6" d="M12.92,337.74h-7.82c-.77,0-1.39.62-1.39,1.39v34.93"/>
    <circle class="st6" cx="20.72" cy="453.24" r="2.13"/>
    <rect class="st6" x="9.38" y="493.92" width="7.09" height="5.38"/>
    <path class="st6" d="M5.14,329.23h0v8.5h-1.43v-7.08c0-.79.64-1.43,1.43-1.43h0Z"/>
    <line class="st5" x1="3.71" y1="339.13" x2="3.71" y2="343.82"/>
    <line class="st5" x1="3.71" y1="319.3" x2="3.71" y2="337.74"/>
    <polyline class="st6" points="21.62 486.55 21.62 489.38 4.21 489.38 4.21 486.55"/>
    <polyline class="st5" points="21.62 455.24 21.62 499.3 18.79 499.3 18.79 489.38"/>
    <path class="st4" d="M5.76,378.19c.31,1.87.17,3.33.04,4.48-.53,4.91-.93,7.35-1.3,8.97-2.61,11.41-.04,25.81.82,28.61.11.36.44,1.33.49,2.68,0,0,.08,4.16-2.05,5.64v23.08"/>
    <path class="st4" d="M4.91,375.13c.28.71.64,1.76.85,3.06"/>
    <line class="st4" x1="4.91" y1="375.13" x2="3.7" y2="374.09"/>
    <circle class="st6" cx="5.13" cy="453.27" r="2.13"/>
    <polyline class="st5" points="4.21 455.27 4.21 499.33 7.04 499.33 7.04 489.41"/>
    <polyline class="st5" points="20.72 332.06 20.72 319.3 24.97 319.3 24.97 332.06"/>
    <rect class="st6" x="5.14" y="329.23" width="7.78" height="8.5"/>
  </g>
  <g>
    <rect class="st5" x="364.8" y="319.3" width="24.09" height="180"/>
    <rect class="st5" x="367.63" y="364.66" width="18.42" height="2.83"/>
    <rect class="st10" x="371.17" y="435.53" width="11.34" height="51.02"/>
    <rect class="st5" x="374" y="438.36" width="5.67" height="45.35"/>
    <line class="st5" x1="374" y1="438.36" x2="371.17" y2="435.52"/>
    <line class="st5" x1="379.67" y1="438.36" x2="382.51" y2="435.52"/>
    <line class="st5" x1="379.67" y1="483.71" x2="382.51" y2="486.55"/>
    <line class="st5" x1="374" y1="483.71" x2="371.17" y2="486.55"/>
    <line class="st5" x1="376.84" y1="319.3" x2="376.84" y2="499.3"/>
    <path class="st4" d="M367.63,339.13v34.93l1.22,1.04c.28.71.64,1.76.85,3.06.31,1.87.17,3.33.04,4.48-.53,4.91-.93,7.35-1.3,8.97-2.61,11.41-.04,25.81.82,28.61.11.36.44,1.33.49,2.68,0,0,.08,4.16-2.05,5.64v22.91"/>
    <path class="st4" d="M369.69,378.16c.31,1.87.17,3.33.04,4.48-.53,4.91-.93,7.35-1.3,8.97-2.61,11.41-.04,25.81.82,28.61.11.36.44,1.33.49,2.68,0,0,.08,4.16-2.05,5.64v23.11"/>
    <path class="st4" d="M368.84,375.1c.28.71.64,1.76.85,3.06"/>
    <path class="st4" d="M368.84,375.1l-1.22-1.04v-34.93c0-.21.03-.51.15-.84.23-.61.64-.82.97-1.17.8-.86.77-2.15.76-2.94-.02-.88-.25-1.61-.46-2.11h7.8"/>
    <line class="st4" x1="376.84" y1="337.74" x2="368.11" y2="337.74"/>
    <path class="st6" d="M376.84,337.74h7.82c.77,0,1.39.62,1.39,1.39v34.93"/>
    <circle class="st6" cx="369.04" cy="453.24" r="2.13"/>
    <rect class="st6" x="373.29" y="493.93" width="7.09" height="5.38"/>
    <path class="st6" d="M386.05,337.74h-1.43v-8.5h0c.79,0,1.43.64,1.43,1.43v7.08h0Z"/>
    <line class="st5" x1="386.05" y1="339.13" x2="386.05" y2="343.82"/>
    <line class="st5" x1="386.05" y1="319.3" x2="386.05" y2="337.74"/>
    <polyline class="st6" points="368.14 486.55 368.14 489.38 385.56 489.38 385.56 486.55"/>
    <polyline class="st5" points="368.14 455.24 368.14 499.3 370.97 499.3 370.97 489.38"/>
    <path class="st4" d="M384,378.19c-.31,1.87-.17,3.33-.04,4.48.53,4.91.93,7.35,1.3,8.97,2.61,11.41.04,25.81-.82,28.61-.11.36-.44,1.33-.49,2.68,0,0-.08,4.16,2.05,5.64v23.08"/>
    <path class="st4" d="M384.85,375.13c-.28.71-.64,1.76-.85,3.06"/>
    <line class="st4" x1="384.85" y1="375.13" x2="386.07" y2="374.09"/>
    <path class="st6" d="M386.76,453.27c0,1.17-.95,2.13-2.13,2.13s-2.13-.95-2.13-2.13.95-2.13,2.13-2.13,2.13.95,2.13,2.13Z"/>
    <polyline class="st5" points="385.56 455.27 385.56 499.33 382.72 499.33 382.72 489.41"/>
    <polyline class="st5" points="369.04 332.06 369.04 319.3 364.79 319.3 364.79 332.06"/>
    <rect class="st6" x="376.85" y="329.24" width="7.78" height="8.5"/>
  </g>
  <circle class="st5" cx="134.91" cy="156.07" r="71.68"/>
  <circle class="st5" cx="254.6" cy="156.07" r="31.18"/>
  <path class="st5" d="M280.66,167.23c-4.33,10.11-14.37,17.19-26.07,17.19-15.66,0-28.35-12.69-28.35-28.35s12.69-28.35,28.35-28.35c11.69,0,21.73,7.08,26.07,17.19"/>
  <path class="st5" d="M275.56,170.62c-4.23,6.08-11.04,10.24-18.85,10.88"/>
  <path class="st5" d="M256.71,130.64c7.81.64,14.62,4.8,18.85,10.88"/>
  <path class="st5" d="M233.63,141.52c4.23-6.08,11.04-10.24,18.85-10.88"/>
  <path class="st5" d="M231.51,166.95c-1.56-3.3-2.43-6.99-2.43-10.88s.87-7.58,2.43-10.88"/>
  <path class="st5" d="M252.48,181.5c-7.81-.64-14.62-4.8-18.85-10.88"/>
  <path class="st5" d="M274.32,169.9c-3.98,5.66-10.33,9.53-17.61,10.17"/>
  <path class="st5" d="M256.71,132.07c7.28.63,13.64,4.51,17.61,10.17"/>
  <path class="st5" d="M234.86,142.24c3.98-5.67,10.33-9.54,17.62-10.17"/>
  <path class="st5" d="M232.75,166.24c-1.44-3.09-2.25-6.54-2.25-10.17s.8-7.08,2.25-10.17"/>
  <path class="st5" d="M252.48,180.07c-7.28-.63-13.64-4.51-17.61-10.17"/>
  <circle class="st5" cx="254.6" cy="156.07" r="21.26"/>
  <circle class="st5" cx="254.6" cy="156.07" r="17.01"/>
  <circle class="st5" cx="254.6" cy="156.07" r="18.43"/>
  <path class="st5" d="M239,156.07c0-8.61,6.98-15.59,15.59-15.59s15.59,6.98,15.59,15.59c0,2.09-.41,4.07-1.15,5.89-.54,1.32-1.26,2.55-2.12,3.66-2.85,3.67-7.31,6.03-12.32,6.03-8.61,0-15.59-6.98-15.59-15.59h0Z"/>
  <line class="st5" x1="252.48" y1="167.75" x2="256.71" y2="167.75"/>
  <polyline class="st5" points="252.48 171.52 252.48 167.75 256.71 167.75 256.71 171.52"/>
  <polyline class="st5" points="256.71 140.62 256.71 144.39 252.48 144.39 252.48 140.62"/>
  <polyline class="st5" points="266.91 165.63 263.66 163.74 265.77 160.08 269.03 161.96"/>
  <polyline class="st5" points="242.28 146.51 245.54 148.4 243.42 152.06 240.16 150.18"/>
  <polyline class="st5" points="269.03 150.18 265.77 152.06 263.66 148.4 266.91 146.51"/>
  <polyline class="st5" points="240.16 161.96 243.42 160.08 245.54 163.74 242.28 165.63"/>
  <line class="st5" x1="256.71" y1="177.33" x2="256.71" y2="184.42"/>
  <line class="st5" x1="252.48" y1="184.42" x2="252.48" y2="177.33"/>
  <line class="st5" x1="256.71" y1="127.72" x2="256.71" y2="134.81"/>
  <line class="st5" x1="252.48" y1="134.81" x2="252.48" y2="127.72"/>
  <line class="st5" x1="278.09" y1="172.08" x2="271.95" y2="168.53"/>
  <line class="st5" x1="235.13" y1="147.27" x2="228.99" y2="143.73"/>
  <line class="st5" x1="231.1" y1="140.06" x2="237.24" y2="143.61"/>
  <line class="st5" x1="271.95" y1="143.61" x2="278.09" y2="140.06"/>
  <line class="st5" x1="228.99" y1="168.41" x2="235.13" y2="164.87"/>
  <line class="st5" x1="237.24" y1="168.53" x2="231.1" y2="172.08"/>
  <path class="st0" d="M249.07,179.21c-.32-.12-.62-.26-.9-.4l-2.43,4.25h0c2.79.92,5.77,1.41,8.86,1.41s6.08-.5,8.86-1.41h0l-2.43-4.25c-.28.15-.58.28-.9.4-1.81.69-4.13,1.02-5.53,1.03v-1.98,1.98c-1.4,0-3.72-.33-5.53-1.03Z"/>
  <path class="st7" d="M276.73,156.07c0,1.4-.33,3.72-1.03,5.53-.33.86-.74,1.61-1.24,2.08-.11.34.91,1.95.91,1.95l2.31,1.33.38-.35c.35-.32.87-.38,1.29-.14l3.74,2.14.05.03c1.69-3.84,2.64-8.1,2.64-12.57s-.95-8.73-2.64-12.57l-.05.03-3.74,2.14c-.41.24-.93.18-1.29-.14l-.38-.35-2.31,1.33s-1.02,1.61-.91,1.95c.5.47.91,1.22,1.24,2.08.69,1.81,1.02,4.13,1.03,5.53h0ZM277.68,150.54c-.12-.32-.26-.62-.4-.9l4.25-2.43h0c.92,2.79,1.41,5.77,1.41,8.86s-.5,6.08-1.41,8.86h0l-4.25-2.43c.15-.28.28-.58.4-.9.69-1.81,1.02-4.13,1.03-5.53h0c0-1.4-.33-3.72-1.03-5.53Z"/>
  <circle class="st5" cx="134.91" cy="156.07" r="31.18"/>
  <path class="st5" d="M123.75,182.13c-10.11-4.33-17.19-14.37-17.19-26.07,0-15.66,12.69-28.35,28.35-28.35s28.35,12.69,28.35,28.35c0,11.69-7.08,21.73-17.19,26.07"/>
  <path class="st5" d="M120.36,177.03c-6.08-4.23-10.24-11.04-10.88-18.85"/>
  <path class="st5" d="M160.33,158.18c-.64,7.81-4.8,14.62-10.88,18.85"/>
  <path class="st5" d="M149.45,135.11c6.08,4.23,10.24,11.04,10.88,18.85"/>
  <path class="st5" d="M124.02,132.99c3.3-1.56,6.99-2.43,10.88-2.43s7.58.87,10.88,2.43"/>
  <path class="st5" d="M109.48,153.95c.64-7.81,4.8-14.62,10.88-18.85"/>
  <path class="st5" d="M121.07,175.8c-5.66-3.98-9.53-10.33-10.17-17.61"/>
  <path class="st5" d="M158.91,158.18c-.63,7.28-4.51,13.64-10.17,17.61"/>
  <path class="st5" d="M148.73,136.33c5.67,3.98,9.54,10.33,10.17,17.62"/>
  <path class="st5" d="M124.73,134.22c3.09-1.44,6.54-2.25,10.17-2.25s7.08.8,10.17,2.25"/>
  <path class="st5" d="M110.9,153.95c.63-7.28,4.51-13.64,10.17-17.61"/>
  <circle class="st5" cx="134.91" cy="156.07" r="21.26"/>
  <circle class="st5" cx="134.91" cy="156.07" r="17.01"/>
  <circle class="st5" cx="134.91" cy="156.07" r="18.43"/>
  <path class="st5" d="M134.91,140.48c8.61,0,15.59,6.98,15.59,15.59s-6.98,15.59-15.59,15.59c-2.09,0-4.07-.41-5.89-1.15-1.32-.54-2.55-1.26-3.66-2.12-3.67-2.85-6.03-7.31-6.03-12.32,0-8.61,6.98-15.59,15.59-15.59h0Z"/>
  <line class="st5" x1="123.22" y1="153.95" x2="123.22" y2="158.18"/>
  <polyline class="st5" points="119.46 153.95 123.22 153.95 123.22 158.18 119.46 158.18"/>
  <polyline class="st5" points="150.35 158.18 146.59 158.18 146.59 153.95 150.35 153.95"/>
  <polyline class="st5" points="125.35 168.39 127.23 165.13 130.9 167.24 129.01 170.51"/>
  <polyline class="st5" points="144.46 143.75 142.58 147.01 138.91 144.89 140.8 141.63"/>
  <polyline class="st5" points="140.8 170.51 138.91 167.24 142.58 165.13 144.46 168.39"/>
  <polyline class="st5" points="129.01 141.63 130.9 144.89 127.23 147.01 125.35 143.75"/>
  <line class="st5" x1="113.65" y1="158.18" x2="106.56" y2="158.18"/>
  <line class="st5" x1="106.56" y1="153.95" x2="113.65" y2="153.95"/>
  <line class="st5" x1="163.25" y1="158.18" x2="156.17" y2="158.18"/>
  <line class="st5" x1="156.17" y1="153.95" x2="163.25" y2="153.95"/>
  <line class="st5" x1="118.9" y1="179.56" x2="122.44" y2="173.42"/>
  <line class="st5" x1="143.7" y1="136.6" x2="147.25" y2="130.46"/>
  <line class="st5" x1="150.91" y1="132.58" x2="147.37" y2="138.71"/>
  <line class="st5" x1="147.37" y1="173.42" x2="150.91" y2="179.56"/>
  <line class="st5" x1="122.56" y1="130.46" x2="126.11" y2="136.6"/>
  <line class="st5" x1="122.44" y1="138.71" x2="118.9" y2="132.58"/>
  <path class="st0" d="M129.38,179.21c-.32-.12-.62-.26-.9-.4l-2.43,4.25h0c2.79.92,5.77,1.41,8.86,1.41s6.08-.5,8.86-1.41h0l-2.43-4.25c-.28.15-.58.28-.9.4-1.81.69-4.13,1.02-5.53,1.03v-1.98,1.98c-1.4,0-3.72-.33-5.53-1.03h0Z"/>
  <path class="st7" d="M134.91,178.2c-1.4,0-3.72-.33-5.53-1.03-.86-.33-1.61-.74-2.08-1.24-.34-.11-1.95.91-1.95.91l-1.33,2.31.35.38c.32.35.38.87.14,1.29l-2.14,3.74-.03.05c3.84,1.69,8.1,2.64,12.57,2.64s8.73-.95,12.57-2.64l-.03-.05-2.14-3.74c-.24-.41-.18-.93.14-1.29l.35-.38-1.33-2.31s-1.61-1.02-1.95-.91c-.47.5-1.22.91-2.08,1.24-1.81.69-4.13,1.02-5.53,1.03h0ZM140.43,179.15c.32-.12.62-.26.9-.4l2.43,4.25h0c-2.79.92-5.77,1.41-8.86,1.41s-6.08-.5-8.86-1.41h0l2.43-4.25c.28.15.58.28.9.4,1.81.69,4.13,1.02,5.53,1.03h0c1.4,0,3.72-.33,5.53-1.03h0Z"/>
  <circle class="st5" cx="328.32" cy="229.62" r="7.09"/>
  <path class="st5" d="M319.86,236.69s0,.01.01.01h8.42c3.93,0,7.12-3.19,7.12-7.12l-1.22-15.36"/>
  <rect class="st5" x="53.37" y="58.13" width="283.46" height="180" rx="7.2" ry="7.2"/>
  <circle class="st5" cx="328.32" cy="229.62" r="5.67"/>
  <line class="st5" x1="334.19" y1="184.27" x2="56.01" y2="184.27"/>
  <line class="st5" x1="334.7" y1="221.31" x2="55.41" y2="221.31"/>
  <line class="st5" x1="334.19" y1="130.41" x2="56.01" y2="130.41"/>
  <circle class="st5" cx="329.03" cy="189.41" r="2.13"/>
  <path class="st5" d="M98.72,58.12h192.76l-8.73,41.06c-.18.85-.93,1.46-1.8,1.46H109.25c-.87,0-1.62-.61-1.8-1.46l-8.73-41.06Z"/>
  <rect class="st5" x="67.53" y="106.32" width="255.12" height="25.51" rx="2.33" ry="2.33"/>
  <circle class="st5" cx="61.15" cy="189.42" r="2.13"/>
  <circle class="st5" cx="195.1" cy="214.57" r="2.13"/>
  <circle class="st5" cx="308.8" cy="75.17" r="12.05"/>
  <circle class="st5" cx="308.8" cy="75.17" r="4.25"/>
  <circle class="st5" cx="308.8" cy="75.17" r="2.13"/>
  <circle class="st5" cx="81.39" cy="74.94" r="2.13"/>
  <circle class="st5" cx="62.38" cy="97.07" r="2.83"/>
  <circle class="st5" cx="328.32" cy="229.62" r="2.83"/>
  <circle class="st5" cx="254.6" cy="156.15" r="17.01"/>
  <circle class="st5" cx="254.6" cy="156.15" r="18.43"/>
  <circle class="st5" cx="134.91" cy="156.07" r="17.01"/>
  <circle class="st5" cx="134.91" cy="156.07" r="18.43"/>
  <path class="st0" d="M260.12,133c.32.12.62.26.9.4l2.43-4.25h0c-2.79-.92-5.77-1.41-8.86-1.41s-6.08.5-8.86,1.41h0l2.43,4.25c.28-.15.58-.28.9-.4,1.81-.69,4.13-1.02,5.53-1.03v1.98-1.98c1.4,0,3.72.33,5.53,1.03Z"/>
  <polygon class="st2" points="50.53 75.13 53.36 72.3 53.36 123.32 50.53 120.49 50.53 75.13"/>
  <polygon class="st2" points="339.66 75.13 336.83 72.3 336.83 123.32 339.66 120.49 339.66 75.13"/>
  <circle class="st5" cx="62.38" cy="80.57" r="2.83"/>
  <circle class="st5" cx="327.81" cy="97.07" r="2.83"/>
  <circle class="st5" cx="327.81" cy="80.57" r="2.83"/>
  <path class="st5" d="M319.86,238.13h-18.43v-9.35c0-2.66,2.16-4.82,4.82-4.82h13.61v14.17h0Z"/>
  <line class="st5" x1="288.83" y1="238.12" x2="298.75" y2="238.12"/>
  <rect class="st5" x="291.52" y="229.82" width="8.5" height="5.67"/>
  <polyline class="st4" points="318.6 222.53 324.07 222.53 324.07 223.95 318.6 223.95"/>
  <line class="st5" x1="300.02" y1="235.48" x2="300.02" y2="229.81"/>
  <line class="st5" x1="329.03" y1="238.12" x2="318.6" y2="238.12"/>
  <circle class="st5" cx="310.65" cy="231.04" r="2.83"/>
  <g>
    <circle class="st5" cx="61.84" cy="229.62" r="7.09"/>
    <line class="st5" x1="334.19" y1="70.71" x2="334.19" y2="214.22"/>
    <polyline class="st5" points="98.72 60.77 291.47 60.77 327.81 60.77"/>
    <path class="st5" d="M70.31,236.69s0,.01,0,.01h-8.42c-3.93,0-7.12-3.19-7.12-7.12l1.25-15.36V70.61"/>
    <circle class="st5" cx="61.84" cy="229.62" r="5.67"/>
    <circle class="st5" cx="61.84" cy="229.62" r="2.83"/>
    <path class="st5" d="M70.31,223.95h13.61c2.66,0,4.82,2.16,4.82,4.82v9.35h-18.43v-14.17h0Z"/>
    <rect class="st5" x="90.15" y="229.81" width="8.5" height="5.67"/>
    <circle class="st5" cx="79.52" cy="231.04" r="2.83"/>
    <polyline class="st4" points="71.67 222.53 66.19 222.53 66.19 223.95 71.67 223.95"/>
  </g>
  <path class="st5" d="M319.86,222.53h-13.61c-3.32,0-6.03,2.59-6.22,5.86h-6.86c-1.7,0-3.07,1.35-3.07,3.01v4.07H100.08v-4.07c0-1.66-1.38-3.01-3.07-3.01h-6.86c-.19-3.27-2.91-5.86-6.22-5.86h-13.61"/>
  <rect class="st5" x="71.69" y="235.29" width="15.66" height="2.83"/>
  <path class="st5" d="M54.78,66.63c0-3.91,3.17-7.09,7.09-7.09,1.47,0,2.83.45,3.96,1.21,1.89,1.27,3.12,3.43,3.12,5.88,0,3.91-3.17,7.09-7.09,7.09-2.44,0-4.58-1.23-5.86-3.1-.77-1.14-1.23-2.51-1.23-3.99h0Z"/>
  <circle class="st5" cx="61.86" cy="66.63" r="5.67"/>
  <circle class="st5" cx="61.86" cy="66.63" r="2.83"/>
  <g>
    <line class="st5" x1="336.83" y1="104.25" x2="53.36" y2="104.25"/>
    <line class="st5" x1="336.83" y1="102.08" x2="53.36" y2="102.08"/>
    <line class="st5" x1="336.83" y1="99.91" x2="53.36" y2="99.91"/>
    <line class="st5" x1="336.83" y1="97.73" x2="53.36" y2="97.73"/>
    <line class="st5" x1="336.83" y1="95.56" x2="53.36" y2="95.56"/>
    <line class="st5" x1="336.83" y1="93.38" x2="53.36" y2="93.38"/>
    <line class="st5" x1="336.83" y1="91.21" x2="53.36" y2="91.21"/>
    <line class="st5" x1="336.83" y1="89.03" x2="53.36" y2="89.03"/>
    <line class="st5" x1="336.83" y1="86.86" x2="53.36" y2="86.86"/>
    <line class="st5" x1="336.83" y1="84.68" x2="53.36" y2="84.68"/>
    <line class="st5" x1="336.83" y1="82.51" x2="53.36" y2="82.51"/>
    <line class="st5" x1="336.83" y1="80.34" x2="53.36" y2="80.34"/>
    <line class="st5" x1="336.83" y1="78.16" x2="53.36" y2="78.16"/>
    <line class="st5" x1="336.83" y1="75.99" x2="53.36" y2="75.99"/>
    <line class="st5" x1="336.83" y1="73.81" x2="53.36" y2="73.81"/>
    <line class="st5" x1="59.21" y1="71.64" x2="53.36" y2="71.64"/>
    <line class="st5" x1="325.62" y1="71.64" x2="64.52" y2="71.64"/>
    <line class="st5" x1="336.83" y1="71.64" x2="331.04" y2="71.64"/>
    <line class="st5" x1="56.95" y1="69.46" x2="53.36" y2="69.46"/>
    <line class="st5" x1="323.4" y1="69.46" x2="66.77" y2="69.46"/>
    <line class="st5" x1="336.83" y1="69.46" x2="333.25" y2="69.46"/>
    <line class="st5" x1="56.23" y1="67.29" x2="53.36" y2="67.29"/>
    <line class="st5" x1="322.69" y1="67.29" x2="67.5" y2="67.29"/>
    <line class="st5" x1="336.83" y1="67.29" x2="333.96" y2="67.29"/>
    <line class="st5" x1="56.4" y1="65.12" x2="53.36" y2="65.12"/>
    <line class="st5" x1="322.87" y1="65.12" x2="67.33" y2="65.12"/>
    <line class="st5" x1="336.83" y1="65.12" x2="333.78" y2="65.12"/>
    <line class="st5" x1="57.56" y1="62.94" x2="53.77" y2="62.94"/>
    <line class="st5" x1="324.05" y1="62.94" x2="66.17" y2="62.94"/>
    <line class="st5" x1="336.42" y1="62.94" x2="332.61" y2="62.94"/>
    <line class="st5" x1="57.93" y1="60.77" x2="54.99" y2="60.77"/>
    <line class="st5" x1="335.2" y1="60.77" x2="65.85" y2="60.77"/>
  </g>
  <path class="st5" d="M335.41,66.66c0-3.91-3.17-7.09-7.09-7.09-1.47,0-2.83.45-3.96,1.21-1.89,1.27-3.12,3.43-3.12,5.88,0,3.91,3.17,7.09,7.09,7.09,2.44,0,4.58-1.23,5.86-3.1.77-1.14,1.23-2.51,1.23-3.99h-.01Z"/>
  <path class="st5" d="M334,66.66c0-.53-.07-1.05-.21-1.54-.23-.81-.64-1.55-1.18-2.17-1.04-1.2-2.57-1.95-4.28-1.95s-3.24.76-4.28,1.95c-.54.62-.95,1.36-1.18,2.17-.14.49-.21,1.01-.21,1.54,0,.21.01.43.03.63.09.78.33,1.52.71,2.17.52.91,1.29,1.67,2.22,2.17.8.44,1.73.69,2.71.69,2.11,0,3.95-1.15,4.93-2.86.37-.65.62-1.39.71-2.17.02-.21.03-.42.03-.63Z"/>
  <circle class="st5" cx="328.33" cy="66.66" r="2.83"/>
  <circle class="st10" cx="263.13" cy="67.85" r="7.09"/>
  <circle class="st10" cx="127.06" cy="67.85" r="7.09"/>
  <rect class="st10" x="227.7" y="66.63" width="12.76" height="11.53" rx="3.95" ry="3.95"/>
  <circle class="st5" cx="81.39" cy="87.18" r="2.13"/>
  <rect class="st5" x="240.43" y="58.16" width="11.34" height="2.61" rx="1.3" ry="1.3"/>
  <rect class="st5" x="138.37" y="58.16" width="11.34" height="2.61" rx="1.3" ry="1.3"/>
  <circle class="st10" cx="263.1" cy="67.89" r="7.09"/>
  <circle class="st10" cx="127.04" cy="67.89" r="7.09"/>
  <rect class="st10" x="227.66" y="66.67" width="12.76" height="11.53" rx="3.95" ry="3.95"/>
  <path class="st5" d="M215.62,59.58h0c0-.78.63-1.42,1.42-1.42h10.04c.72,0,1.3.58,1.3,1.3h0c0,.72-.58,1.3-1.3,1.3h-10.04v14.4h-1.42v-15.59"/>
  <rect class="st10" x="150.43" y="66.76" width="11.34" height="11.34" rx="5" ry="5"/>
  <line class="st5" x1="255.76" y1="72.33" x2="257.58" y2="72.33"/>
  <path class="st5" d="M255.41,72.62c.03-.17.18-.29.35-.29"/>
  <g>
    <circle class="st5" cx="195.07" cy="87.07" r="3.87"/>
    <path class="st5" d="M121.52,72.33h-1.82c-.17,0-.32.12-.35.29l-.81,3.96h-15.93"/>
    <path class="st5" d="M287.53,76.59h-15.93l-.81-3.96c-.03-.17-.18-.29-.35-.29h-1.82"/>
    <path class="st5" d="M286.93,79.42h-40.84l-22.68,4.25h-22.13c.55,1.01.87,2.17.87,3.4,0,3.91-3.17,7.09-7.09,7.09s-7.09-3.17-7.09-7.09c0-1.23.31-2.39.87-3.4h-22.13l-22.68-4.25h-40.84"/>
    <path class="st5" d="M255.41,72.62l-.81,3.96h-8.5l-22.68,4.25h-24.98c-1-.54-2.15-.85-3.37-.85s-2.37.31-3.37.85h-24.98l-2.13-.4v-6.95c0-.78-.63-1.42-1.42-1.42h0c-.78,0-1.42.63-1.42,1.42v6.42l-11.34-2.13v-4.29c0-.78-.63-1.42-1.42-1.42h0c-.78,0-1.42.63-1.42,1.42v3.76h0l-3.54-.66h-8.5l-.81-3.96c-.03-.17-.18-.29-.35-.29h-1.82"/>
  </g>
  <path class="st5" d="M215.62,67.37v2.12h-1.49c-.35,0-.63-.28-.63-.63s.28-.63.63-.63h.07v-.86c0-.39.32-.71.71-.71h.71"/>
  <path class="st5" d="M174.52,59.58h0c0-.78-.63-1.42-1.42-1.42h-10.04c-.72,0-1.3.58-1.3,1.3h0c0,.72.58,1.3,1.3,1.3h10.04v14.4h1.42v-15.59"/>
  <path class="st5" d="M174.52,67.37v2.13h1.49c.35,0,.63-.28.63-.63s-.28-.63-.63-.63h-.07v-.86c0-.39-.32-.71-.71-.71h-.71"/>
  <polyline class="st5" points="244.68 76.85 244.68 60.8 247.51 60.8 247.51 76.59"/>
  <polyline class="st5" points="145.46 76.85 145.46 60.77 142.63 60.77 142.63 76.59"/>
  <circle class="st5" cx="112.87" cy="65.25" r="4.25"/>
  <circle class="st5" cx="277.27" cy="65.25" r="4.25"/>
  <rect class="st10" x="66.51" y="79.39" width="29.76" height="17.52" rx="1.69" ry="1.69"/>
  <ellipse class="st5" cx="81.39" cy="91.05" rx="2.13" ry="2.19"/>
  <polygon class="st8" points="96.27 81.1 96.27 95.19 84.94 88.15 96.27 81.1"/>
  <circle class="st5" cx="81.39" cy="75.17" r="12.05"/>
  <circle class="st5" cx="81.39" cy="75.17" r="4.25"/>
  <rect class="st5" x="302.82" y="235.29" width="15.66" height="2.83"/>
  <ellipse class="st10" cx="81.39" cy="85.25" rx="2.13" ry="2.19"/>
  <g class="st16">
    <text class="st14" transform="translate(246.13 188.24) rotate(-180)"><tspan x="0" y="0">IECI/TYPE1 NORMAL POSITION</tspan></text>
  </g>
  <g class="st16">
    <text class="st15" transform="translate(235.55 196.04) rotate(-180)"><tspan x="0" y="0">TDK</tspan></text>
  </g>
  <g>
    <line class="st5" x1="307.06" y1="205.45" x2="248.95" y2="205.45"/>
    <line class="st5" x1="307.06" y1="203.09" x2="251.32" y2="203.09"/>
    <line class="st5" x1="307.06" y1="200.73" x2="253.68" y2="200.73"/>
    <line class="st5" x1="307.06" y1="198.36" x2="256.04" y2="198.36"/>
    <line class="st5" x1="307.06" y1="196" x2="258.4" y2="196"/>
    <line class="st5" x1="307.06" y1="193.64" x2="260.77" y2="193.64"/>
    <line class="st5" x1="307.06" y1="191.28" x2="263.13" y2="191.28"/>
    <line class="st5" x1="307.06" y1="188.91" x2="265.49" y2="188.91"/>
    <line class="st5" x1="307.06" y1="186.55" x2="267.85" y2="186.55"/>
    <line class="st5" x1="307.06" y1="184.19" x2="270.21" y2="184.19"/>
  </g>
  <g>
    <line class="st1" x1="307.06" y1="205.07" x2="266.06" y2="205.07"/>
    <line class="st1" x1="307.06" y1="202.71" x2="268.42" y2="202.71"/>
    <line class="st1" x1="307.06" y1="200.35" x2="270.78" y2="200.35"/>
    <line class="st1" x1="307.06" y1="197.99" x2="273.15" y2="197.99"/>
    <line class="st1" x1="307.06" y1="195.62" x2="275.51" y2="195.62"/>
    <line class="st1" x1="307.06" y1="193.26" x2="277.87" y2="193.26"/>
    <line class="st1" x1="307.06" y1="190.9" x2="280.23" y2="190.9"/>
    <line class="st1" x1="307.06" y1="188.54" x2="282.59" y2="188.54"/>
    <line class="st1" x1="307.06" y1="186.17" x2="284.96" y2="186.17"/>
    <line class="st1" x1="307.06" y1="183.81" x2="287.32" y2="183.81"/>
  </g>
  <g>
    <line class="st3" x1="307.06" y1="204.79" x2="283.4" y2="204.79"/>
    <line class="st3" x1="307.06" y1="202.43" x2="285.76" y2="202.43"/>
    <line class="st3" x1="307.06" y1="200.07" x2="288.12" y2="200.07"/>
    <line class="st3" x1="307.06" y1="197.71" x2="290.48" y2="197.71"/>
    <line class="st3" x1="307.06" y1="195.35" x2="292.85" y2="195.35"/>
    <line class="st3" x1="307.06" y1="192.98" x2="295.21" y2="192.98"/>
    <line class="st3" x1="307.06" y1="190.62" x2="297.57" y2="190.62"/>
    <line class="st3" x1="307.06" y1="188.26" x2="299.93" y2="188.26"/>
    <line class="st3" x1="307.06" y1="185.9" x2="302.3" y2="185.9"/>
    <line class="st3" x1="307.06" y1="183.53" x2="304.66" y2="183.53"/>
  </g>
  <g class="st16">
    <text class="st13" transform="translate(265.44 119.32) rotate(-180)"><tspan x="0" y="0">DYNAMIC CASSETTE LOW NOISE HIGH OUTPUT</tspan></text>
  </g>
  <g class="st16">
    <text class="st11" transform="translate(316.74 117.25) rotate(-180)"><tspan x="0" y="0">B:</tspan></text>
  </g>
  <g>
    <g>
      <polyline class="st17" points="238.6 205.25 240.56 203.31 242.51 205.25"/>
      <g>
        <rect class="st0" x="238.61" y="201.36" width="3.91" height="3.89"/>
        <polyline class="st17" points="238.6 201.37 240.56 203.31 242.51 201.37"/>
      </g>
    </g>
    <g>
      <polyline class="st17" points="238.6 201.37 237.9 198.7 240.56 197.98"/>
      <g>
        <rect class="st0" x="235.93" y="196.76" width="3.91" height="3.89" transform="translate(-53.14 305.37) rotate(-60)"/>
        <polyline class="st17" points="237.19 196.04 237.9 198.7 235.24 199.42 238.6 201.37 238.6 205.25 235.24 199.42"/>
      </g>
    </g>
    <polyline class="st17" points="243.92 196.04 243.22 198.7 245.88 199.42 242.51 201.37 242.51 205.25 245.88 199.42"/>
    <polyline points="242.51 201.37 243.22 198.7 240.56 197.98"/>
    <polyline class="st17" points="240.56 197.98 243.92 196.04 237.19 196.04"/>
  </g>
  <g>
    <g>
      <path class="st0" d="M111.16,210.14c1.42,1.32,3.34,1.29,4.05,1.28,2.08-.03,3.55-1,4.11-1.41,4.27-6.02,8.55-12.04,12.82-18.06.08-.18.24-.62.06-1.06-.14-.34-.44-.58-.94-.77-1.75-.68-4.09-.17-4.09-.17-2.47.54-4.23,1.41-4.39,1.49-2.77,1.4-5.19,2.63-7.84,5.2-2.51,2.43-5.18,5.03-5.32,8.77-.03.82-.12,3.19,1.53,4.73h0Z"/>
      <g>
        <path class="st9" d="M82.21,204.48c1.6,1.39,5.93-.98,9.68-5.29,3.75-4.31,5.49-8.93,3.89-10.32s-5.93.98-9.68,5.29c-3.75,4.31-5.49,8.93-3.89,10.32ZM87.29,195.55c3.04-4.01,6.23-6.72,7.13-6.04.9.68-.84,4.49-3.87,8.5-3.04,4.01-6.23,6.72-7.13,6.04-.9-.68.84-4.49,3.87-8.5Z"/>
        <path class="st0" d="M83.41,204.05c.9.68,4.09-2.02,7.13-6.04,3.04-4.01,4.77-7.82,3.87-8.5-.9-.68-4.09,2.02-7.13,6.04-3.04,4.01-4.77,7.82-3.87,8.5Z"/>
      </g>
    </g>
    <path class="st9" d="M111.21,186.58c-.32.05-.76.13-1.29.26-.58.14-2.38.6-5.32,2.18-2.25,1.22-3.93,2.42-4.86,3.13-2.12,1.62-3.54,3.06-4.22,3.79-.49.52-1.48,1.61-2.44,3.16-.17.27-.75,1.22-1.12,2.56-.27.99-.23,1.45-.11,1.81.04.14.29.91,1.01,1.26.17.08.4.16,1.01.17.59.01,1.43.02,2.5-.34.62-.21,1.16-.5,1.87-.98.36-.24,1.77-1.17,3.39-2.96.64-.71,1.16-1.38,1.64-2.13.93-1.46.96-2.09.92-2.5-.02-.18-.09-.83-.52-1.24-.74-.7-2.41-.53-3.99.63-.04.04-.09.09-.08.14.02.06.17.07.27.07.41,0,.65-.03.81-.04.29,0,.66.1.83.29.31.34.11,1.01-.07,1.49-.64,1.73-1.67,3.02-2.18,3.61-.65.76-1.35,1.57-2.53,2.34-.51.33-.96.56-1.3.71-.07.03-.18.08-.32.1-.04,0-.41.05-.67-.11-.13-.08-.32-.27-.37-.83-.1-.95.3-1.87.57-2.44.7-1.48,1.43-2.5,1.69-2.86.57-.78,1.05-1.31,1.46-1.77.94-1.04,1.72-1.75,2.49-2.44.85-.76,1.45-1.31,2.36-1.97.65-.48,1.25-.84,2.45-1.58,1.04-.63,1.68-1.03,2.62-1.51,1.09-.57,1.82-.87,2.36-1.07.36-.13.66-.24.88-.31.03,0,.16,0,.28-.1.02-.02.12-.11.13-.26,0-.17-.09-.28-.1-.3l-.05.04Z"/>
  </g>
  <line class="st5" x1="283.14" y1="143.5" x2="329.85" y2="99.04"/>
  <line class="st5" x1="330.3" y1="95.7" x2="319.46" y2="69.47"/>
  <line class="st5" x1="59.73" y1="96.08" x2="70.1" y2="70.96"/>
  <line class="st5" x1="63.32" y1="159.48" x2="59.55" y2="97.07"/>
  <g>
    <circle class="st5" cx="135.6" cy="401.39" r="71.68"/>
    <circle class="st5" cx="135.53" cy="401.39" r="31.18"/>
    <path class="st5" d="M146.68,375.32c10.11,4.33,17.19,14.37,17.19,26.07,0,15.66-12.69,28.35-28.35,28.35s-28.35-12.69-28.35-28.35c0-11.69,7.08-21.73,17.19-26.07"/>
    <path class="st5" d="M150.07,380.43c6.08,4.23,10.24,11.04,10.88,18.85"/>
    <path class="st5" d="M110.1,399.27c.64-7.81,4.8-14.62,10.88-18.85"/>
    <path class="st5" d="M120.98,422.35c-6.08-4.23-10.24-11.04-10.88-18.85"/>
    <path class="st5" d="M146.41,424.47c-3.3,1.56-6.99,2.43-10.88,2.43s-7.58-.87-10.88-2.43"/>
    <path class="st5" d="M160.95,403.51c-.64,7.81-4.8,14.62-10.88,18.85"/>
    <path class="st5" d="M149.36,381.66c5.66,3.98,9.53,10.33,10.17,17.61"/>
    <path class="st5" d="M111.52,399.27c.63-7.28,4.51-13.64,10.17-17.61"/>
    <path class="st5" d="M121.7,421.12c-5.67-3.98-9.54-10.33-10.17-17.62"/>
    <path class="st5" d="M145.7,423.24c-3.09,1.44-6.54,2.25-10.17,2.25s-7.08-.8-10.17-2.25"/>
    <path class="st5" d="M159.53,403.51c-.63,7.28-4.51,13.64-10.17,17.61"/>
    <circle class="st5" cx="135.53" cy="401.39" r="21.26"/>
    <circle class="st5" cx="135.53" cy="401.39" r="17.01"/>
    <circle class="st5" cx="135.53" cy="401.39" r="18.43"/>
    <path class="st5" d="M135.53,416.98c-8.61,0-15.59-6.98-15.59-15.59s6.98-15.59,15.59-15.59c2.09,0,4.07.41,5.89,1.15,1.32.54,2.55,1.26,3.66,2.12,3.67,2.85,6.03,7.31,6.03,12.32,0,8.61-6.98,15.59-15.59,15.59h0Z"/>
    <line class="st5" x1="147.21" y1="403.51" x2="147.21" y2="399.27"/>
    <polyline class="st5" points="150.97 403.51 147.21 403.51 147.21 399.27 150.97 399.27"/>
    <polyline class="st5" points="120.08 399.27 123.84 399.27 123.84 403.51 120.08 403.51"/>
    <polyline class="st5" points="145.08 389.07 143.2 392.33 139.54 390.21 141.42 386.95"/>
    <polyline class="st5" points="125.97 413.71 127.85 410.45 131.52 412.57 129.63 415.83"/>
    <polyline class="st5" points="129.63 386.95 131.52 390.21 127.85 392.33 125.97 389.07"/>
    <polyline class="st5" points="141.42 415.83 139.54 412.57 143.2 410.45 145.08 413.71"/>
    <line class="st5" x1="156.79" y1="399.27" x2="163.87" y2="399.27"/>
    <line class="st5" x1="163.87" y1="403.51" x2="156.79" y2="403.51"/>
    <line class="st5" x1="107.18" y1="399.27" x2="114.27" y2="399.27"/>
    <line class="st5" x1="114.27" y1="403.51" x2="107.18" y2="403.51"/>
    <line class="st5" x1="151.53" y1="377.9" x2="147.99" y2="384.04"/>
    <line class="st5" x1="126.73" y1="420.86" x2="123.19" y2="427"/>
    <line class="st5" x1="119.52" y1="424.88" x2="123.06" y2="418.74"/>
    <line class="st5" x1="123.06" y1="384.04" x2="119.52" y2="377.9"/>
    <line class="st5" x1="147.87" y1="427" x2="144.32" y2="420.86"/>
    <line class="st5" x1="147.99" y1="418.74" x2="151.53" y2="424.88"/>
    <path class="st0" d="M141.05,378.25c.32.12.62.26.9.4l2.43-4.25h0c-2.79-.92-5.77-1.41-8.86-1.41s-6.08.5-8.86,1.41h0l2.43,4.25c.28-.15.58-.28.9-.4,1.81-.69,4.13-1.02,5.53-1.03v1.98-1.98c1.4,0,3.72.33,5.53,1.03h0Z"/>
    <path class="st7" d="M135.53,379.26c1.4,0,3.72.33,5.53,1.03.86.33,1.61.74,2.08,1.24.34.11,1.95-.91,1.95-.91l1.33-2.31-.35-.38c-.32-.35-.38-.87-.14-1.29l2.14-3.74.03-.05c-3.84-1.69-8.1-2.64-12.57-2.64s-8.73.95-12.57,2.64l.03.05,2.14,3.74c.24.41.18.93-.14,1.29l-.35.38,1.33,2.31s1.61,1.02,1.95.91c.47-.5,1.22-.91,2.08-1.24,1.81-.69,4.13-1.02,5.53-1.03h0ZM130,378.31c-.32.12-.62.26-.9.4l-2.43-4.25h0c2.79-.92,5.77-1.41,8.86-1.41s6.08.5,8.86,1.41h0l-2.43,4.25c-.28-.15-.58-.28-.9-.4-1.81-.69-4.13-1.02-5.53-1.03h0c-1.4,0-3.72.33-5.53,1.03h0Z"/>
  </g>
  <circle class="st5" cx="255.22" cy="401.39" r="31.18"/>
  <path class="st5" d="M281.28,412.55c-4.33,10.11-14.37,17.19-26.07,17.19-15.66,0-28.35-12.69-28.35-28.35s12.69-28.35,28.35-28.35c11.69,0,21.73,7.08,26.07,17.19"/>
  <path class="st5" d="M276.18,415.93c-4.23,6.08-11.04,10.24-18.85,10.88"/>
  <path class="st5" d="M257.33,375.96c7.81.64,14.62,4.8,18.85,10.88"/>
  <path class="st5" d="M234.26,386.84c4.23-6.08,11.04-10.24,18.85-10.88"/>
  <path class="st5" d="M232.14,412.27c-1.56-3.3-2.43-6.99-2.43-10.88s.87-7.58,2.43-10.88"/>
  <path class="st5" d="M253.1,426.81c-7.81-.64-14.62-4.8-18.85-10.88"/>
  <path class="st5" d="M274.95,415.22c-3.98,5.66-10.33,9.53-17.61,10.17"/>
  <path class="st5" d="M257.33,377.39c7.28.63,13.64,4.51,17.61,10.17"/>
  <path class="st5" d="M235.48,387.56c3.98-5.67,10.33-9.54,17.62-10.17"/>
  <path class="st5" d="M233.37,411.56c-1.44-3.09-2.25-6.54-2.25-10.17s.8-7.08,2.25-10.17"/>
  <path class="st5" d="M253.1,425.39c-7.28-.63-13.64-4.51-17.61-10.17"/>
  <circle class="st5" cx="255.22" cy="401.39" r="21.26"/>
  <circle class="st5" cx="255.22" cy="401.39" r="17.01"/>
  <circle class="st5" cx="255.22" cy="401.39" r="18.43"/>
  <path class="st5" d="M239.63,401.39c0-8.61,6.98-15.59,15.59-15.59s15.59,6.98,15.59,15.59c0,2.09-.41,4.07-1.15,5.89-.54,1.32-1.26,2.55-2.12,3.66-2.85,3.67-7.31,6.03-12.32,6.03-8.61,0-15.59-6.98-15.59-15.59h0Z"/>
  <line class="st5" x1="253.1" y1="413.07" x2="257.33" y2="413.07"/>
  <polyline class="st5" points="253.1 416.84 253.1 413.07 257.33 413.07 257.33 416.84"/>
  <polyline class="st5" points="257.33 385.94 257.33 389.71 253.1 389.71 253.1 385.94"/>
  <polyline class="st5" points="267.54 410.94 264.28 409.06 266.39 405.4 269.65 407.28"/>
  <polyline class="st5" points="242.9 391.83 246.16 393.71 244.04 397.38 240.78 395.5"/>
  <polyline class="st5" points="269.66 395.5 266.39 397.38 264.28 393.71 267.54 391.83"/>
  <polyline class="st5" points="240.78 407.28 244.04 405.4 246.16 409.06 242.9 410.94"/>
  <line class="st5" x1="257.33" y1="422.65" x2="257.33" y2="429.73"/>
  <line class="st5" x1="253.1" y1="429.73" x2="253.1" y2="422.65"/>
  <line class="st5" x1="257.33" y1="373.04" x2="257.33" y2="380.13"/>
  <line class="st5" x1="253.1" y1="380.13" x2="253.1" y2="373.04"/>
  <line class="st5" x1="278.71" y1="417.39" x2="272.57" y2="413.85"/>
  <line class="st5" x1="235.75" y1="392.59" x2="229.61" y2="389.05"/>
  <line class="st5" x1="231.73" y1="385.38" x2="237.86" y2="388.93"/>
  <line class="st5" x1="272.57" y1="388.93" x2="278.71" y2="385.38"/>
  <line class="st5" x1="229.61" y1="413.73" x2="235.75" y2="410.19"/>
  <line class="st5" x1="237.86" y1="413.85" x2="231.73" y2="417.39"/>
  <path class="st0" d="M278.36,406.92c-.12.32-.26.62-.4.9l4.25,2.43h0c.92-2.79,1.41-5.77,1.41-8.86s-.5-6.08-1.41-8.86h0l-4.25,2.43c.15.28.28.58.4.9.69,1.81,1.02,4.13,1.03,5.53h-1.98,1.98c0,1.4-.33,3.72-1.03,5.53h0Z"/>
  <path class="st7" d="M277.35,401.39c0,1.4-.33,3.72-1.03,5.53-.33.86-.74,1.61-1.24,2.08-.11.34.91,1.95.91,1.95l2.31,1.33.38-.35c.35-.32.87-.38,1.29-.14l3.74,2.14.05.03c1.69-3.84,2.64-8.1,2.64-12.57s-.95-8.73-2.64-12.57l-.05.03-3.74,2.14c-.41.24-.93.18-1.29-.14l-.38-.35-2.31,1.33s-1.02,1.61-.91,1.95c.5.47.91,1.22,1.24,2.08.69,1.81,1.02,4.13,1.03,5.53h0ZM278.3,395.86c-.12-.32-.26-.62-.4-.9l4.25-2.43h0c.92,2.79,1.41,5.77,1.41,8.86s-.5,6.08-1.41,8.86h0l-4.25-2.43c.15-.28.28-.58.4-.9.69-1.81,1.02-4.13,1.03-5.53h0c0-1.4-.33-3.72-1.03-5.53h0Z"/>
  <circle class="st5" cx="61.8" cy="327.84" r="7.09"/>
  <path class="st5" d="M70.26,320.77s0-.01,0-.01h-8.42c-3.93,0-7.12,3.19-7.12,7.12l1.22,15.36"/>
  <rect class="st5" x="53.3" y="319.33" width="283.46" height="180" rx="7.2" ry="7.2"/>
  <circle class="st5" cx="61.8" cy="327.84" r="5.67"/>
  <line class="st5" x1="55.94" y1="373.19" x2="334.12" y2="373.19"/>
  <line class="st5" x1="55.42" y1="336.15" x2="334.71" y2="336.15"/>
  <line class="st5" x1="55.94" y1="427.05" x2="334.12" y2="427.05"/>
  <circle class="st5" cx="61.09" cy="368.04" r="2.13"/>
  <path class="st5" d="M291.41,499.33H98.65l8.73-41.06c.18-.85.93-1.46,1.8-1.46h171.7c.87,0,1.62.61,1.8,1.46l8.73,41.06Z"/>
  <rect class="st5" x="67.47" y="425.63" width="255.12" height="25.51" rx="2.33" ry="2.33"/>
  <circle class="st5" cx="328.97" cy="368.04" r="2.13"/>
  <circle class="st5" cx="195.03" cy="342.89" r="2.13"/>
  <circle class="st5" cx="81.32" cy="482.29" r="12.05"/>
  <circle class="st5" cx="81.32" cy="482.29" r="4.25"/>
  <circle class="st5" cx="81.32" cy="482.29" r="2.13"/>
  <circle class="st5" cx="308.73" cy="482.52" r="2.13"/>
  <circle class="st5" cx="327.74" cy="460.39" r="2.83"/>
  <circle class="st5" cx="61.8" cy="327.84" r="2.83"/>
  <circle class="st5" cx="135.6" cy="401.39" r="17.01"/>
  <circle class="st5" cx="135.6" cy="401.39" r="18.43"/>
  <circle class="st5" cx="255.22" cy="401.39" r="17.01"/>
  <circle class="st5" cx="255.22" cy="401.39" r="18.43"/>
  <path class="st0" d="M112.46,395.86c.12-.32.26-.62.4-.9l-4.25-2.43h0c-.92,2.79-1.41,5.77-1.41,8.86s.5,6.08,1.41,8.86h0l4.25-2.43c-.15-.28-.28-.58-.4-.9-.69-1.81-1.02-4.13-1.03-5.53h1.98-1.98c0-1.4.33-3.72,1.03-5.53h0Z"/>
  <polygon class="st2" points="339.59 482.33 336.76 485.16 336.76 434.14 339.59 436.97 339.59 482.33"/>
  <polygon class="st2" points="50.46 482.33 53.29 485.16 53.29 434.14 50.46 436.97 50.46 482.33"/>
  <circle class="st5" cx="327.74" cy="476.89" r="2.83"/>
  <circle class="st5" cx="62.32" cy="460.39" r="2.83"/>
  <circle class="st5" cx="62.32" cy="476.89" r="2.83"/>
  <path class="st5" d="M70.26,319.33h18.43v9.35c0,2.66-2.16,4.82-4.82,4.82h-13.61v-14.17h0Z"/>
  <line class="st5" x1="101.29" y1="319.33" x2="91.37" y2="319.33"/>
  <rect class="st5" x="90.11" y="321.97" width="8.5" height="5.67"/>
  <polyline class="st4" points="71.53 334.92 66.05 334.92 66.05 333.51 71.53 333.51"/>
  <line class="st5" x1="90.11" y1="321.97" x2="90.11" y2="327.64"/>
  <line class="st5" x1="61.09" y1="319.33" x2="71.53" y2="319.33"/>
  <circle class="st5" cx="79.48" cy="326.42" r="2.83"/>
  <g>
    <circle class="st5" cx="328.28" cy="327.84" r="7.09"/>
    <line class="st5" x1="55.94" y1="486.74" x2="55.94" y2="343.23"/>
    <polyline class="st5" points="291.41 496.69 98.65 496.69 62.31 496.69"/>
    <path class="st5" d="M319.81,320.77s0-.01.01-.01h8.42c3.93,0,7.12,3.19,7.12,7.12l-1.25,15.36v143.61"/>
    <circle class="st5" cx="328.28" cy="327.84" r="5.67"/>
    <circle class="st5" cx="328.28" cy="327.84" r="2.83"/>
    <path class="st5" d="M319.81,333.51h-13.61c-2.66,0-4.82-2.16-4.82-4.82v-9.35h18.43v14.17h0Z"/>
    <rect class="st5" x="291.47" y="321.98" width="8.5" height="5.67"/>
    <circle class="st5" cx="310.6" cy="326.42" r="2.83"/>
    <polyline class="st4" points="318.45 334.92 323.93 334.92 323.93 333.51 318.45 333.51"/>
  </g>
  <path class="st5" d="M70.26,334.92h13.61c3.32,0,6.03-2.59,6.22-5.86h6.86c1.7,0,3.07-1.35,3.07-3.01v-4.07h190.02v4.07c0,1.66,1.38,3.01,3.07,3.01h6.86c.19,3.27,2.91,5.86,6.22,5.86h13.61"/>
  <rect class="st5" x="302.77" y="319.33" width="15.66" height="2.83"/>
  <path class="st5" d="M335.35,490.83c0,3.91-3.17,7.09-7.09,7.09-1.47,0-2.83-.45-3.96-1.21-1.89-1.27-3.12-3.43-3.12-5.88,0-3.91,3.17-7.09,7.09-7.09,2.44,0,4.58,1.23,5.86,3.1.77,1.14,1.23,2.51,1.23,3.99h-.01Z"/>
  <circle class="st5" cx="328.26" cy="490.83" r="5.67"/>
  <circle class="st5" cx="328.26" cy="490.83" r="2.83"/>
  <g>
    <line class="st5" x1="53.3" y1="453.2" x2="336.76" y2="453.2"/>
    <line class="st5" x1="53.3" y1="455.38" x2="336.76" y2="455.38"/>
    <line class="st5" x1="53.3" y1="457.55" x2="336.76" y2="457.55"/>
    <line class="st5" x1="53.3" y1="459.73" x2="336.76" y2="459.73"/>
    <line class="st5" x1="53.3" y1="461.9" x2="336.76" y2="461.9"/>
    <line class="st5" x1="53.3" y1="464.08" x2="336.76" y2="464.08"/>
    <line class="st5" x1="53.3" y1="466.25" x2="336.76" y2="466.25"/>
    <line class="st5" x1="53.3" y1="468.42" x2="336.76" y2="468.42"/>
    <line class="st5" x1="53.3" y1="470.6" x2="336.76" y2="470.6"/>
    <line class="st5" x1="53.3" y1="472.77" x2="336.76" y2="472.77"/>
    <line class="st5" x1="53.3" y1="474.95" x2="336.76" y2="474.95"/>
    <line class="st5" x1="53.3" y1="477.12" x2="336.76" y2="477.12"/>
    <line class="st5" x1="53.3" y1="479.3" x2="336.76" y2="479.3"/>
    <line class="st5" x1="53.3" y1="481.47" x2="336.76" y2="481.47"/>
    <line class="st5" x1="53.3" y1="483.65" x2="336.76" y2="483.65"/>
    <line class="st5" x1="330.92" y1="485.82" x2="336.76" y2="485.82"/>
    <line class="st5" x1="64.51" y1="485.82" x2="325.6" y2="485.82"/>
    <line class="st5" x1="53.3" y1="485.82" x2="59.09" y2="485.82"/>
    <line class="st5" x1="333.17" y1="487.99" x2="336.76" y2="487.99"/>
    <line class="st5" x1="66.72" y1="487.99" x2="323.35" y2="487.99"/>
    <line class="st5" x1="53.3" y1="487.99" x2="56.87" y2="487.99"/>
    <line class="st5" x1="333.89" y1="490.17" x2="336.76" y2="490.17"/>
    <line class="st5" x1="67.43" y1="490.17" x2="322.63" y2="490.17"/>
    <line class="st5" x1="53.3" y1="490.17" x2="56.16" y2="490.17"/>
    <line class="st5" x1="333.72" y1="492.34" x2="336.76" y2="492.34"/>
    <line class="st5" x1="67.25" y1="492.34" x2="322.79" y2="492.34"/>
    <line class="st5" x1="53.3" y1="492.34" x2="56.34" y2="492.34"/>
    <line class="st5" x1="332.57" y1="494.52" x2="336.35" y2="494.52"/>
    <line class="st5" x1="66.08" y1="494.52" x2="323.95" y2="494.52"/>
    <line class="st5" x1="53.7" y1="494.52" x2="57.51" y2="494.52"/>
    <line class="st5" x1="332.2" y1="496.69" x2="335.13" y2="496.69"/>
    <line class="st5" x1="54.92" y1="496.69" x2="324.28" y2="496.69"/>
  </g>
  <path class="st5" d="M54.71,490.8c0,3.91,3.17,7.09,7.09,7.09,1.47,0,2.83-.45,3.96-1.21,1.89-1.27,3.12-3.43,3.12-5.88,0-3.91-3.17-7.09-7.09-7.09-2.44,0-4.58,1.23-5.86,3.1-.77,1.14-1.23,2.51-1.23,3.99h0Z"/>
  <path class="st5" d="M56.13,490.8c0,.53.07,1.05.21,1.54.23.81.64,1.55,1.18,2.17,1.04,1.2,2.57,1.95,4.28,1.95s3.24-.76,4.28-1.95c.54-.62.95-1.36,1.18-2.17.14-.49.21-1.01.21-1.54,0-.21,0-.43-.03-.63-.09-.78-.33-1.52-.71-2.17-.52-.91-1.29-1.67-2.22-2.17-.8-.44-1.73-.69-2.71-.69-2.11,0-3.95,1.15-4.93,2.86-.37.65-.62,1.39-.71,2.17-.02.21-.03.42-.03.63h0Z"/>
  <circle class="st5" cx="61.8" cy="490.8" r="2.83"/>
  <circle class="st10" cx="127" cy="489.6" r="7.09"/>
  <circle class="st10" cx="263.06" cy="489.6" r="7.09"/>
  <rect class="st10" x="149.67" y="479.3" width="12.76" height="11.53" rx="3.95" ry="3.95"/>
  <circle class="st5" cx="308.73" cy="470.28" r="2.13"/>
  <rect class="st5" x="138.36" y="496.69" width="11.34" height="2.61" rx="1.3" ry="1.3"/>
  <rect class="st5" x="240.41" y="496.69" width="11.34" height="2.61" rx="1.3" ry="1.3"/>
  <circle class="st10" cx="127.02" cy="489.57" r="7.09"/>
  <circle class="st10" cx="263.09" cy="489.57" r="7.09"/>
  <rect class="st10" x="149.7" y="479.26" width="12.76" height="11.53" rx="3.95" ry="3.95"/>
  <path class="st5" d="M174.5,497.88h0c0,.78-.63,1.42-1.42,1.42h-10.04c-.72,0-1.3-.58-1.3-1.3h0c0-.72.58-1.3,1.3-1.3h10.04v-14.4h1.42v15.59"/>
  <rect class="st10" x="228.36" y="479.36" width="11.34" height="11.34" rx="5" ry="5"/>
  <line class="st5" x1="134.37" y1="485.12" x2="132.54" y2="485.12"/>
  <path class="st5" d="M134.72,484.84c-.03.17-.18.29-.35.29"/>
  <g>
    <circle class="st5" cx="195.05" cy="470.38" r="3.87"/>
    <path class="st5" d="M268.61,485.12h1.82c.17,0,.32-.12.35-.29l.81-3.96h15.93"/>
    <path class="st5" d="M102.59,480.87h15.93l.81,3.96c.03.17.18.29.35.29h1.82"/>
    <path class="st5" d="M103.2,478.04h40.84l22.68-4.25h22.13c-.55-1.01-.87-2.17-.87-3.4,0-3.91,3.17-7.09,7.09-7.09s7.09,3.17,7.09,7.09c0,1.23-.31,2.39-.87,3.4h22.13l22.68,4.25h40.84"/>
    <path class="st5" d="M134.72,484.84l.81-3.96h8.5l22.68-4.25h24.98c1,.54,2.15.85,3.37.85s2.37-.31,3.37-.85h24.98l2.13.4v6.95c0,.78.63,1.42,1.42,1.42h0c.78,0,1.42-.63,1.42-1.42v-6.42l11.34,2.13v4.29c0,.78.63,1.42,1.42,1.42h0c.78,0,1.42-.63,1.42-1.42v-3.76h0l3.54.66h8.5l.81,3.96c.03.17.18.29.35.29h1.82"/>
  </g>
  <path class="st5" d="M174.5,490.08v-2.12h1.49c.35,0,.63.28.63.63s-.28.63-.63.63h-.07v.86c0,.39-.32.71-.71.71h-.71"/>
  <path class="st5" d="M215.61,497.88h0c0,.78.63,1.42,1.42,1.42h10.04c.72,0,1.3-.58,1.3-1.3h0c0-.72-.58-1.3-1.3-1.3h-10.04v-14.4h-1.42v15.59"/>
  <path class="st5" d="M215.6,490.08v-2.12h-1.49c-.35,0-.63.28-.63.63s.28.63.63.63h.07v.86c0,.39.32.71.71.71h.71"/>
  <polyline class="st5" points="145.45 480.61 145.45 496.66 142.61 496.66 142.61 480.87"/>
  <polyline class="st5" points="244.66 480.61 244.66 496.69 247.5 496.69 247.5 480.87"/>
  <circle class="st5" cx="277.26" cy="492.21" r="4.25"/>
  <circle class="st5" cx="112.85" cy="492.21" r="4.25"/>
  <rect class="st10" x="293.85" y="460.55" width="29.76" height="17.52" rx="1.69" ry="1.69"/>
  <ellipse class="st5" cx="308.73" cy="469.38" rx="2.13" ry="2.19"/>
  <polygon class="st8" points="293.85 476.35 293.85 462.27 305.19 469.31 293.85 476.35"/>
  <circle class="st5" cx="308.73" cy="482.29" r="12.05"/>
  <circle class="st5" cx="308.73" cy="482.29" r="4.25"/>
  <rect class="st5" x="71.65" y="319.33" width="15.66" height="2.83"/>
  <g>
    <line class="st5" x1="83.06" y1="352.01" x2="141.17" y2="352.01"/>
    <line class="st5" x1="83.06" y1="354.37" x2="138.81" y2="354.37"/>
    <line class="st5" x1="83.06" y1="356.73" x2="136.45" y2="356.73"/>
    <line class="st5" x1="83.06" y1="359.09" x2="134.08" y2="359.09"/>
    <line class="st5" x1="83.06" y1="361.46" x2="131.72" y2="361.46"/>
    <line class="st5" x1="83.06" y1="363.82" x2="129.36" y2="363.82"/>
    <line class="st5" x1="83.06" y1="366.18" x2="127" y2="366.18"/>
    <line class="st5" x1="83.06" y1="368.54" x2="124.63" y2="368.54"/>
    <line class="st5" x1="83.06" y1="370.91" x2="122.27" y2="370.91"/>
    <line class="st5" x1="83.06" y1="373.27" x2="119.91" y2="373.27"/>
  </g>
  <g>
    <line class="st1" x1="83.06" y1="352.39" x2="124.06" y2="352.39"/>
    <line class="st1" x1="83.06" y1="354.75" x2="121.7" y2="354.75"/>
    <line class="st1" x1="83.06" y1="357.11" x2="119.34" y2="357.11"/>
    <line class="st1" x1="83.06" y1="359.47" x2="116.98" y2="359.47"/>
    <line class="st1" x1="83.06" y1="361.83" x2="114.62" y2="361.83"/>
    <line class="st1" x1="83.06" y1="364.2" x2="112.25" y2="364.2"/>
    <line class="st1" x1="83.06" y1="366.56" x2="109.89" y2="366.56"/>
    <line class="st1" x1="83.06" y1="368.92" x2="107.53" y2="368.92"/>
    <line class="st1" x1="83.06" y1="371.28" x2="105.17" y2="371.28"/>
    <line class="st1" x1="83.06" y1="373.65" x2="102.8" y2="373.65"/>
  </g>
  <g>
    <line class="st3" x1="83.06" y1="352.66" x2="106.73" y2="352.66"/>
    <line class="st3" x1="83.06" y1="355.03" x2="104.36" y2="355.03"/>
    <line class="st3" x1="83.06" y1="357.39" x2="102" y2="357.39"/>
    <line class="st3" x1="83.06" y1="359.75" x2="99.64" y2="359.75"/>
    <line class="st3" x1="83.06" y1="362.11" x2="97.28" y2="362.11"/>
    <line class="st3" x1="83.06" y1="364.47" x2="94.92" y2="364.47"/>
    <line class="st3" x1="83.06" y1="366.84" x2="92.55" y2="366.84"/>
    <line class="st3" x1="83.06" y1="369.2" x2="90.19" y2="369.2"/>
    <line class="st3" x1="83.06" y1="371.56" x2="87.83" y2="371.56"/>
    <line class="st3" x1="83.06" y1="373.92" x2="85.47" y2="373.92"/>
  </g>
  <g class="st16">
    <text class="st13" transform="translate(124.69 438.14)"><tspan x="0" y="0">DYNAMIC CASSETTE LOW NOISE HIGH OUTPUT</tspan></text>
  </g>
  <g class="st16">
    <text class="st11" transform="translate(73.39 440.21)"><tspan x="0" y="0">A:</tspan></text>
  </g>
  <g class="st16">
    <text class="st14" transform="translate(144 369.3)"><tspan x="0" y="0">IECI/TYPE1 NORMAL POSITION</tspan></text>
  </g>
  <g class="st16">
    <text class="st15" transform="translate(154.58 361.5)"><tspan x="0" y="0">TDK</tspan></text>
  </g>
  <g>
    <g>
      <polyline class="st17" points="151.52 352.28 149.57 354.22 147.61 352.28"/>
      <g>
        <rect class="st0" x="147.61" y="352.28" width="3.91" height="3.89"/>
        <polyline class="st17" points="151.52 356.17 149.57 354.22 147.61 356.17"/>
      </g>
    </g>
    <g>
      <polyline class="st17" points="151.52 356.17 152.23 358.83 149.57 359.55"/>
      <g>
        <rect class="st0" x="150.27" y="356.89" width="3.91" height="3.89" transform="translate(-234.65 311.25) rotate(-60)"/>
        <polyline class="st17" points="152.93 361.5 152.23 358.83 154.89 358.11 151.52 356.17 151.52 352.28 154.89 358.11"/>
      </g>
    </g>
    <polyline class="st17" points="146.2 361.5 146.91 358.83 144.24 358.11 147.61 356.17 147.61 352.28 144.24 358.11"/>
    <polyline points="147.61 356.17 146.91 358.83 149.57 359.55"/>
    <polyline class="st17" points="149.57 359.55 146.2 361.5 152.93 361.5"/>
  </g>
  <g>
    <g>
      <path class="st0" d="M278.96,347.41c-1.42-1.32-3.34-1.29-4.05-1.28-2.08.03-3.55,1-4.11,1.41-4.27,6.02-8.55,12.04-12.82,18.06-.08.18-.24.62-.06,1.06.14.34.44.58.94.77,1.75.68,4.09.17,4.09.17,2.47-.54,4.23-1.41,4.39-1.49,2.77-1.4,5.19-2.63,7.84-5.2,2.51-2.43,5.18-5.03,5.32-8.77.03-.82.12-3.19-1.53-4.73h-.01Z"/>
      <g>
        <path class="st9" d="M307.92,353.07c-1.6-1.39-5.93.98-9.68,5.29s-5.49,8.93-3.89,10.32c1.6,1.39,5.93-.98,9.68-5.29s5.49-8.93,3.89-10.32ZM302.84,362c-3.04,4.01-6.23,6.72-7.13,6.04s.84-4.49,3.87-8.5c3.04-4.01,6.23-6.72,7.13-6.04s-.84,4.49-3.87,8.5Z"/>
        <path class="st0" d="M306.71,353.5c-.9-.68-4.09,2.02-7.13,6.04-3.04,4.01-4.77,7.82-3.87,8.5s4.09-2.02,7.13-6.04c3.04-4.01,4.77-7.82,3.87-8.5Z"/>
      </g>
    </g>
    <path class="st9" d="M278.91,370.97c.32-.05.76-.13,1.29-.26.58-.14,2.38-.6,5.32-2.18,2.25-1.22,3.93-2.42,4.86-3.13,2.12-1.62,3.54-3.06,4.22-3.79.49-.52,1.48-1.61,2.44-3.16.17-.27.75-1.22,1.12-2.56.27-.99.23-1.45.11-1.81-.04-.14-.29-.91-1.01-1.26-.17-.08-.4-.16-1.01-.17-.59-.01-1.43-.02-2.5.34-.62.21-1.16.5-1.87.98-.36.24-1.77,1.17-3.39,2.96-.64.71-1.16,1.38-1.64,2.13-.93,1.46-.96,2.09-.92,2.5.02.18.09.83.52,1.24.74.7,2.41.53,3.99-.63.04-.04.09-.09.08-.14-.02-.06-.17-.07-.27-.07-.41,0-.65.03-.81.04-.29,0-.66-.1-.83-.29-.31-.34-.11-1.01.07-1.49.64-1.73,1.67-3.02,2.18-3.61.65-.76,1.35-1.57,2.53-2.34.51-.33.96-.56,1.3-.71.07-.03.18-.08.32-.1.04,0,.41-.05.67.11.13.08.32.27.37.83.1.95-.3,1.87-.57,2.44-.7,1.48-1.43,2.5-1.69,2.86-.57.78-1.05,1.31-1.46,1.77-.94,1.04-1.72,1.75-2.49,2.44-.85.76-1.45,1.31-2.36,1.97-.65.48-1.25.84-2.45,1.58-1.04.63-1.68,1.03-2.62,1.51-1.09.57-1.82.87-2.36,1.07-.36.13-.66.24-.88.31-.03,0-.16,0-.28.1-.02.02-.12.11-.13.26-.01.17.09.28.1.3l.05-.04Z"/>
  </g>
  <path class="st12" d="M268.78,368.8h-6.62l.5-.85c.65,0,1.18-.05,1.57-.16.39-.11.74-.33,1.05-.68.31-.34.66-.85,1.05-1.52l6.18-10.31c.38-.62.58-1.07.61-1.37.03-.29-.1-.48-.4-.58-.29-.09-.75-.14-1.38-.14l.55-.88h6.92c1.28,0,2.37.13,3.26.4s1.56.67,2.03,1.2c.47.54.71,1.2.74,2.01.02.8-.19,1.75-.65,2.83-.76,1.81-1.69,3.35-2.8,4.63-1.1,1.28-2.33,2.32-3.68,3.11-1.35.79-2.78,1.38-4.29,1.74-1.5.37-3.06.55-4.66.55l.02.02ZM269.27,367.67c1.79,0,3.42-.29,4.88-.87s2.77-1.5,3.93-2.77,2.16-2.93,3.01-4.97c.34-.82.55-1.57.65-2.24.09-.68.02-1.27-.21-1.77-.23-.5-.67-.89-1.32-1.18-.65-.28-1.55-.43-2.71-.43-.19,0-.36,0-.51.01-.15,0-.35.03-.61.06l-8.53,14.09c.2.03.43.05.67.05h.77l-.02.02Z"/>
  <line class="st5" x1="283.76" y1="413.96" x2="329.6" y2="458.24"/>
  <line class="st5" x1="330.41" y1="461.36" x2="319.41" y2="487.9"/>
  <line class="st5" x1="59.68" y1="461.42" x2="70.67" y2="488"/>
  <line class="st5" x1="64.12" y1="396.16" x2="59.48" y2="460.39"/>
  <g>
    <g>
      <path class="st0" d="M111.19,210.17c1.42,1.32,3.34,1.29,4.05,1.28,2.08-.03,3.55-1,4.11-1.41,4.27-6.02,8.55-12.04,12.82-18.06.08-.18.24-.62.06-1.06-.14-.34-.44-.58-.94-.77-1.75-.68-4.09-.17-4.09-.17-2.47.54-4.23,1.41-4.39,1.49-2.77,1.4-5.19,2.63-7.84,5.2-2.51,2.43-5.18,5.03-5.32,8.77-.03.82-.12,3.19,1.53,4.73h.01Z"/>
      <g>
        <g>
          <path class="st0" d="M82.24,204.51c1.6,1.39,5.93-.98,9.68-5.29,3.75-4.31,5.49-8.93,3.89-10.32s-5.93.98-9.68,5.29c-3.75,4.31-5.49,8.93-3.89,10.32ZM87.32,195.58c3.04-4.01,6.23-6.72,7.13-6.04.9.68-.84,4.49-3.87,8.5-3.04,4.01-6.23,6.72-7.13,6.04-.9-.68.84-4.49,3.87-8.5Z"/>
          <path class="st0" d="M94.6,188.46c.5,0,.92.13,1.23.4,1.62,1.4-.13,6.06-3.88,10.38-3.76,4.32-8.13,6.7-9.74,5.29h0c-1.62-1.4.13-6.06,3.88-10.38,3.02-3.48,6.45-5.69,8.51-5.69h0ZM83.46,204.87c2.03,0,5.42-2.21,8.43-5.67,3.73-4.29,5.47-8.89,3.89-10.26s-5.9,1-9.62,5.28c-3.73,4.29-5.47,8.89-3.89,10.26h0c.3.26.71.39,1.19.39h0ZM94.09,189.39c.15,0,.28.04.38.11.45.34.29,1.43-.45,3.05-.73,1.61-1.95,3.56-3.42,5.51-3.1,4.09-6.26,6.75-7.19,6.05-.45-.34-.29-1.43.45-3.05.73-1.61,1.95-3.56,3.42-5.51h0c2.76-3.65,5.57-6.16,6.81-6.16h0ZM83.8,204.15c1.19,0,4.02-2.55,6.73-6.13,1.47-1.94,2.68-3.89,3.41-5.49.71-1.56.89-2.64.47-2.95-.09-.07-.2-.1-.34-.1-1.19,0-4.02,2.55-6.73,6.13h0c-1.47,1.94-2.68,3.89-3.41,5.49-.71,1.56-.88,2.64-.47,2.95.09.07.2.1.34.1Z"/>
        </g>
        <path class="st0" d="M83.44,204.08c.9.68,4.09-2.02,7.13-6.04,3.04-4.01,4.77-7.82,3.87-8.5-.9-.68-4.09,2.02-7.13,6.04-3.04,4.01-4.77,7.82-3.87,8.5Z"/>
      </g>
    </g>
    <g>
      <path class="st12" d="M111.24,186.61c-.32.05-.76.13-1.29.26-.58.14-2.38.6-5.32,2.18-2.25,1.22-3.93,2.42-4.86,3.13-2.12,1.62-3.54,3.06-4.22,3.79-.49.52-1.48,1.61-2.44,3.16-.17.27-.75,1.22-1.12,2.56-.27.99-.23,1.45-.11,1.81.04.14.29.91,1.01,1.26.17.08.4.16,1.01.17.59.01,1.43.02,2.5-.34.62-.21,1.16-.5,1.87-.98.36-.24,1.77-1.17,3.39-2.96.64-.71,1.16-1.38,1.64-2.13.93-1.46.96-2.09.92-2.5-.02-.18-.09-.83-.52-1.24-.74-.7-2.41-.53-3.99.63-.04.04-.09.09-.08.14.02.06.17.07.27.07.41,0,.65-.03.81-.04.29,0,.66.1.83.29.31.34.11,1.01-.07,1.49-.64,1.73-1.67,3.02-2.18,3.61-.65.76-1.35,1.57-2.53,2.34-.51.33-.96.56-1.3.71-.07.03-.18.08-.32.1-.04,0-.41.05-.67-.11-.13-.08-.32-.27-.37-.83-.1-.95.3-1.87.57-2.44.7-1.48,1.43-2.5,1.69-2.86.57-.78,1.05-1.31,1.46-1.77.94-1.04,1.72-1.75,2.49-2.44.85-.76,1.45-1.31,2.36-1.97.65-.48,1.25-.84,2.45-1.58,1.04-.63,1.68-1.03,2.62-1.51,1.09-.57,1.82-.87,2.36-1.07.36-.13.66-.24.88-.31.03,0,.16,0,.28-.1.02-.02.12-.11.13-.26,0-.17-.09-.28-.1-.3l-.05.04Z"/>
      <path class="st12" d="M111.26,186.57l.02.02s.13.16.11.33c0,.15-.1.25-.14.29-.12.1-.25.11-.3.11-.29.1-.58.2-.87.31-.46.18-1.21.48-2.35,1.07-.91.47-1.52.84-2.61,1.51h-.02c-1.18.74-1.78,1.1-2.43,1.57-.9.66-1.51,1.21-2.35,1.96-.71.64-1.52,1.37-2.48,2.43-.39.43-.88.97-1.46,1.77-.63.85-1.21,1.84-1.69,2.85-.31.66-.66,1.52-.57,2.41.04.41.16.67.35.8.24.16.6.11.64.11.11-.02.21-.05.31-.09.45-.2.88-.44,1.29-.71,1.2-.78,1.9-1.6,2.53-2.33.98-1.15,1.71-2.36,2.17-3.59.19-.51.37-1.13.08-1.45-.17-.19-.54-.28-.8-.28-.05,0-.11,0-.18.01-.15.01-.35.03-.63.02-.13,0-.28-.01-.31-.1-.02-.05,0-.11.09-.18,1.52-1.11,3.26-1.38,4.05-.63.29.28.47.7.53,1.26.05.45-.02,1.1-.93,2.53-.46.73-.99,1.41-1.64,2.13-1.05,1.15-2.18,2.14-3.37,2.94l-.03.02c-.72.49-1.27.77-1.88.98-1.1.38-1.95.36-2.51.35-.64-.01-.86-.1-1.02-.18-.67-.33-.94-1.01-1.03-1.29-.11-.35-.17-.81.11-1.83.25-.9.64-1.79,1.13-2.57,1.03-1.65,2.1-2.79,2.45-3.17,1.25-1.33,2.67-2.61,4.23-3.8,1.52-1.16,3.16-2.21,4.86-3.14,1.39-.75,3.44-1.74,5.33-2.19.42-.1.86-.19,1.3-.26h.02ZM110.96,187.22s.14,0,.23-.09c.03-.03.11-.11.12-.23,0-.12-.04-.21-.08-.25-.43.07-.85.16-1.27.25-1.88.45-3.92,1.43-5.3,2.18-1.7.92-3.33,1.97-4.85,3.13-1.55,1.18-2.97,2.46-4.22,3.79-.35.37-1.41,1.51-2.44,3.15-.48.77-.87,1.65-1.12,2.55-.28,1-.22,1.45-.12,1.79.08.27.34.92.98,1.24.15.07.37.16.99.17.56,0,1.4.03,2.49-.34.6-.21,1.14-.49,1.86-.97l.03-.02c1.18-.8,2.31-1.78,3.35-2.93.65-.72,1.17-1.39,1.63-2.12.89-1.4.96-2.04.91-2.47-.06-.54-.23-.95-.5-1.21-.76-.72-2.46-.45-3.94.64-.06.05-.07.08-.07.09s.03.04.23.04c.27,0,.47-.01.62-.02.09,0,.15-.01.22-.01.27,0,.65.09.84.3.32.34.13,1-.06,1.53-.46,1.24-1.2,2.46-2.18,3.62-.63.73-1.34,1.56-2.54,2.35-.42.27-.85.51-1.3.72-.11.05-.22.08-.34.1-.07.01-.43.05-.69-.12-.22-.14-.35-.42-.39-.86-.09-.91.26-1.79.57-2.46.48-1.02,1.07-2.01,1.69-2.87.58-.8,1.09-1.36,1.46-1.77.96-1.07,1.77-1.8,2.49-2.44.84-.76,1.45-1.31,2.36-1.97.65-.48,1.25-.84,2.43-1.56h.02c1.09-.68,1.7-1.05,2.62-1.53,1.14-.59,1.89-.9,2.36-1.07.29-.11.58-.21.88-.31h0l.02-.02Z"/>
    </g>
  </g>
  <path class="st12" d="M121.38,188.78h6.62l-.5.85c-.65,0-1.18.05-1.57.16-.39.11-.74.33-1.05.68-.31.34-.66.85-1.05,1.52l-6.18,10.31c-.38.62-.58,1.07-.61,1.37-.03.29.1.48.4.58.29.09.75.14,1.38.14l-.55.88h-6.92c-1.28,0-2.37-.13-3.26-.4s-1.56-.67-2.03-1.2c-.47-.54-.71-1.2-.74-2.01-.02-.8.19-1.75.65-2.83.76-1.81,1.69-3.35,2.8-4.63,1.1-1.28,2.33-2.32,3.68-3.11,1.35-.79,2.78-1.38,4.29-1.74,1.5-.37,3.06-.55,4.66-.55l-.02-.02ZM120.88,189.91c-1.79,0-3.42.29-4.88.87s-2.77,1.5-3.93,2.77c-1.16,1.27-2.16,2.93-3.01,4.97-.34.82-.55,1.57-.65,2.24-.09.68-.02,1.27.21,1.77.23.5.67.89,1.32,1.18.65.28,1.55.43,2.71.43.19,0,.36,0,.51-.01.15,0,.35-.03.61-.06l8.53-14.09c-.2-.03-.43-.05-.67-.05h-.77l.02-.02Z"/>
</svg>