<?xml version="1.0" encoding="UTF-8"?>
<svg id="Ebene_1" xmlns="http://www.w3.org/2000/svg" version="1.1" viewBox="0 0 559.95 159.61">
  <!-- Generator: Adobe Illustrator 30.0.0, SVG Export Plug-In . SVG Version: 2.1.1 Build 123)  -->
  <path d="M26.44,133.16h3.19v-51.76h26.45v65.66c0,6.84-5.47,12.54-12.31,12.54H12.31c-6.84,0-12.31-5.7-12.31-12.54V12.32C0,5.48,5.47,0,12.31,0h31.46c6.84,0,12.31,5.47,12.31,12.31v65.89h-26.45V26.46h-3.19v106.7Z">
  <path d="M59.27,12.32C59.27,5.48,64.74,0,71.58,0h31.46c6.84,0,12.31,5.47,12.31,12.31v134.75c0,6.84-5.47,12.54-12.31,12.54h-31.46c-6.84,0-12.31-5.7-12.31-12.54,0,0,0-134.75,0-134.75ZM85.72,133.16h3.19V26.46h-3.19v106.7Z">
  <path d="M145,26.45v133.15h-26.45V12.32C118.55,5.48,124.25,0,130.86,0h43.78v133.15h3.19V0h26.45v147.29c0,6.84-5.7,12.31-12.31,12.31h-43.78V26.45h-3.19Z">
  <path d="M207.47,0h43.78c6.84,0,12.31,5.47,12.31,12.31v134.75c0,6.84-5.47,12.54-12.31,12.54h-43.78V0ZM233.92,133.16h3.19V26.46h-3.19v106.7Z">
  <path d="M293.2,45.61h29.64v26.45h-29.64v61.1h3.19v-57.91h26.45v84.36h-56.09V0h56.09v42.41h-26.45v-15.96h-3.19v19.15h0Z">
  <path d="M352.47,26.45v133.15h-26.45V12.32c0-6.84,5.7-12.31,12.31-12.31h43.78v133.15h3.19V0h26.45v147.29c0,6.84-5.7,12.31-12.31,12.31h-43.78V26.45h-3.19Z">
  <path d="M414.95,147.06v-77.06h26.68v63.38h2.96v-66.35h-29.64V12.31c0-6.84,5.47-12.31,12.31-12.31h31.46c6.84,0,12.31,5.47,12.31,12.31v33.29h-26.45v-19.38h-2.96v22.34h29.41v98.49c0,5.24-3.42,10.03-7.98,11.86-.91.23-2.51.68-4.1.68h-31.69c-6.84,0-12.31-5.7-12.31-12.54h0Z">
  <path d="M500.67,0v159.6h-26.45V0h26.45Z">
  <path d="M516.18,0h31.46c6.61,0,12.31,5.47,12.31,12.31v147.29h-26.45v-70.68h-3.19v70.68h-26.45V12.32c0-6.84,5.7-12.31,12.31-12.31,0,0,.01,0,.01,0ZM533.5,70.69V26.46h-3.19v44.23h3.19Z">
</svg>