<?xml version="1.0" encoding="UTF-8"?>
<svg id="Ebene_1" xmlns="http://www.w3.org/2000/svg" version="1.1" viewBox="0 0 411.75 159.6">
  <!-- Generator: Adobe Illustrator 30.0.0, SVG Export Plug-In . SVG Version: 2.1.1 Build 123)  -->
  <path d="M26.44,133.15h3.19v-51.76h26.45v65.66c0,6.84-5.47,12.54-12.31,12.54H12.31c-6.84,0-12.31-5.7-12.31-12.54V12.31C0,5.47,5.47,0,12.31,0h31.46C50.61,0,56.08,5.47,56.08,12.31v65.89h-26.45V26.45h-3.19v106.7Z"/>
  <path d="M59.27,12.31C59.27,5.47,64.74,0,71.58,0h31.46C109.88,0,115.35,5.47,115.35,12.31v134.75c0,6.84-5.47,12.54-12.31,12.54h-31.46c-6.84,0-12.31-5.7-12.31-12.54,0,0,0-134.75,0-134.75ZM85.72,133.15h3.19V26.45h-3.19v106.7Z"/>
  <path d="M145,26.44v133.15h-26.45V12.31C118.55,5.47,124.25,0,130.86,0h43.78v133.15h3.19V0h26.45v147.29c0,6.84-5.7,12.31-12.31,12.31h-43.78V26.44h-3.19Z"/>
  <path d="M207.47,0h43.78c6.84,0,12.31,5.47,12.31,12.31v134.75c0,6.84-5.47,12.54-12.31,12.54h-43.78V0ZM233.92,133.15h3.19V26.45h-3.19v106.7Z"/>
  <path d="M293.2,45.6h29.64v26.45h-29.64v61.1h3.19v-57.91h26.45v84.36h-56.09V0h56.09v42.41h-26.45v-15.96h-3.19v19.15h0Z"/>
  <path d="M352.47,26.44v133.15h-26.45V12.31C326.02,5.47,331.72,0,338.33,0h43.78v133.15h3.19V0h26.45v147.29c0,6.84-5.7,12.31-12.31,12.31h-43.78V26.44h-3.19Z"/>
</svg>