<?xml version="1.0" encoding="UTF-8"?>
<svg id="Ebene_1" xmlns="http://www.w3.org/2000/svg" version="1.1" viewBox="0 0 289.38 180.25">
  <!-- Generator: Adobe Illustrator 30.0.0, SVG Export Plug-In . SVG Version: 2.1.1 Build 123)  -->
  <defs>
    <style>
      .st0 {
        fill: none;
      }

      .st1 {
        fill: #1d1d1b;
      }

      .st2 {
        isolation: isolate;
      }

      .st3 {
        fill: #020202;
      }

      .st4 {
        fill: #fff;
      }
    </style>
  </defs>
  <g>
    <rect class="st4" x="2.96" y=".12" width="283.46" height="180" rx="7.2" ry="7.2">
    <path class="st1" d="M279.22,180.25H10.17c-4.04,0-7.33-3.29-7.33-7.33V7.33C2.84,3.29,6.13,0,10.17,0h269.06c4.04,0,7.33,3.29,7.33,7.33v165.6c0,4.04-3.29,7.33-7.33,7.33ZM10.17.25C6.26.25,3.09,3.42,3.09,7.33v165.6c0,3.9,3.17,7.08,7.08,7.08h269.06c3.9,0,7.08-3.17,7.08-7.08V7.33c0-3.9-3.17-7.08-7.08-7.08H10.17Z">
  </g>
  <circle class="st0" cx="158.93" cy="197.98" r="2.13">
  <g>
    <path class="st1" d="M85.27,153.99c-19.18,0-37.21-7.47-50.77-21.03s-21.03-31.59-21.03-50.77,7.47-37.21,21.03-50.77,31.59-21.03,50.77-21.03,37.21,7.47,50.77,21.03,21.03,31.59,21.03,50.77-7.47,37.21-21.03,50.77-31.59,21.03-50.77,21.03ZM85.27,10.63c-19.11,0-37.08,7.44-50.6,20.96s-20.96,31.48-20.96,50.6,7.44,37.08,20.96,50.6c13.52,13.51,31.48,20.96,50.6,20.96s37.08-7.44,50.6-20.96c13.51-13.52,20.96-31.48,20.96-50.6s-7.44-37.08-20.96-50.6c-13.52-13.52-31.48-20.96-50.6-20.96Z">
    <path class="st1" d="M85.19,113.49c-17.26,0-31.3-14.04-31.3-31.31s14.04-31.31,31.3-31.31,31.31,14.04,31.31,31.31-14.04,31.31-31.31,31.31ZM85.19,51.13c-17.12,0-31.05,13.93-31.05,31.06s13.93,31.06,31.05,31.06,31.06-13.93,31.06-31.06-13.93-31.06-31.06-31.06Z">
    <path class="st1" d="M85.19,110.66c-15.7,0-28.48-12.77-28.48-28.48,0-11.4,6.78-21.68,17.27-26.18l.1.23c-10.4,4.46-17.11,14.65-17.11,25.96,0,15.56,12.66,28.23,28.23,28.23s28.23-12.66,28.23-28.23c0-11.31-6.72-21.5-17.11-25.96l.1-.23c10.49,4.49,17.27,14.77,17.27,26.18,0,15.7-12.77,28.48-28.48,28.48Z">
    <path class="st1" d="M110.49,80.09c-.62-7.56-4.57-14.4-10.83-18.76l.14-.21c6.32,4.4,10.31,11.3,10.93,18.94l-.25.02Z">
    <path class="st1" d="M59.89,80.08l-.25-.02c.63-7.64,4.61-14.54,10.93-18.94l.14.21c-6.26,4.36-10.21,11.19-10.83,18.76Z">
    <path class="st1" d="M70.57,103.25c-6.32-4.4-10.31-11.3-10.93-18.94l.25-.02c.62,7.56,4.57,14.4,10.83,18.76l-.14.21Z">
    <path class="st1" d="M85.19,107.82c-3.83,0-7.51-.82-10.93-2.44l.11-.23c3.39,1.61,7.04,2.42,10.83,2.42s7.43-.81,10.83-2.42l.11.23c-3.43,1.62-7.11,2.44-10.93,2.44Z">
    <path class="st1" d="M99.81,103.26l-.14-.21c6.26-4.36,10.21-11.19,10.83-18.76l.25.02c-.63,7.64-4.61,14.54-10.93,18.94Z">
    <path class="st1" d="M109.07,80.08c-.62-7.05-4.31-13.43-10.12-17.52l.14-.2c5.87,4.13,9.6,10.58,10.22,17.7l-.25.02Z">
    <path class="st1" d="M61.31,80.08l-.25-.02c.62-7.13,4.34-13.58,10.22-17.7l.14.21c-5.82,4.08-9.51,10.47-10.12,17.52Z">
    <path class="st1" d="M71.29,102.02c-5.88-4.13-9.61-10.58-10.22-17.71l.25-.02c.61,7.05,4.3,13.44,10.12,17.53l-.14.21Z">
    <path class="st1" d="M85.19,106.41c-3.59,0-7.02-.76-10.22-2.26l.11-.23c3.16,1.49,6.57,2.24,10.12,2.24s6.93-.75,10.12-2.24l.11.23c-3.22,1.5-6.66,2.26-10.22,2.26Z">
    <path class="st1" d="M99.1,102.02l-.14-.21c5.82-4.08,9.51-10.47,10.12-17.52l.25.02c-.62,7.13-4.34,13.58-10.22,17.7Z">
    <path class="st1" d="M85.19,103.57c-11.79,0-21.38-9.59-21.38-21.39s9.59-21.39,21.38-21.39,21.39,9.59,21.39,21.39-9.59,21.39-21.39,21.39ZM85.19,61.05c-11.65,0-21.13,9.48-21.13,21.14s9.48,21.14,21.13,21.14,21.14-9.48,21.14-21.14-9.48-21.14-21.14-21.14Z">
    <path class="st1" d="M85.19,99.32c-9.45,0-17.13-7.69-17.13-17.14s7.69-17.14,17.13-17.14,17.14,7.69,17.14,17.14-7.69,17.14-17.14,17.14ZM85.19,65.3c-9.31,0-16.88,7.57-16.88,16.89s7.57,16.89,16.88,16.89,16.89-7.57,16.89-16.89-7.57-16.89-16.89-16.89Z">
    <path class="st1" d="M85.19,100.74c-10.23,0-18.55-8.32-18.55-18.56s8.32-18.56,18.55-18.56,18.56,8.32,18.56,18.56-8.32,18.56-18.56,18.56ZM85.19,63.88c-10.09,0-18.3,8.21-18.3,18.31s8.21,18.31,18.3,18.31,18.31-8.21,18.31-18.31-8.21-18.31-18.31-18.31Z">
    <path class="st1" d="M85.19,97.9h0c-8.66,0-15.71-7.05-15.71-15.72s7.05-15.71,15.71-15.71c2.05,0,4.05.39,5.94,1.16,1.31.54,2.55,1.25,3.69,2.14,3.86,3,6.08,7.53,6.08,12.42,0,8.66-7.04,15.71-15.71,15.72h0ZM85.19,66.72c-8.53,0-15.46,6.94-15.46,15.46s6.93,15.46,15.46,15.47c8.53,0,15.46-6.94,15.46-15.47,0-4.81-2.18-9.27-5.98-12.22-1.12-.87-2.34-1.58-3.63-2.1-1.86-.76-3.83-1.14-5.84-1.14Z">
    <rect class="st1" x="96.75" y="80.06" width=".25" height="4.24">
    <polygon class="st1" points="100.63 84.43 96.75 84.43 96.75 79.94 100.63 79.94 100.63 80.19 97 80.19 97 84.18 100.63 84.18 100.63 84.43">
    <polygon class="st1" points="73.63 84.43 69.75 84.43 69.75 84.18 73.38 84.18 73.38 80.19 69.75 80.19 69.75 79.94 73.63 79.94 73.63 84.43">
    <polygon class="st1" points="92.91 73.3 89.03 71.05 90.98 67.68 91.19 67.81 89.38 70.96 92.82 72.95 94.64 69.8 94.85 69.93 92.91 73.3">
    <polygon class="st1" points="79.4 96.68 79.19 96.55 81.01 93.41 77.56 91.41 75.74 94.57 75.53 94.44 77.47 91.06 81.36 93.32 79.4 96.68">
    <polygon class="st1" points="77.47 73.3 75.53 69.93 75.74 69.8 77.56 72.95 81.01 70.96 79.19 67.81 79.4 67.68 81.36 71.05 77.47 73.3">
    <polygon class="st1" points="90.98 96.68 89.03 93.32 89.14 93.26 92.91 91.06 94.85 94.44 94.64 94.57 92.82 91.41 89.38 93.41 91.19 96.55 90.98 96.68">
    <rect class="st1" x="106.46" y="79.94" width="7.08" height=".25">
    <rect class="st1" x="106.46" y="84.18" width="7.08" height=".25">
    <rect class="st1" x="56.85" y="79.94" width="7.09" height=".25">
    <rect class="st1" x="56.85" y="84.18" width="7.09" height=".25">
    <rect class="st1" x="95.88" y="61.64" width="7.09" height=".25" transform="translate(-3.75 117.05) rotate(-60.03)">
    <rect class="st1" x="71.08" y="104.6" width="7.09" height=".25" transform="translate(-53.37 117.06) rotate(-60.03)">
    <rect class="st1" x="67.41" y="102.48" width="7.09" height=".25" transform="translate(-53.38 112.82) rotate(-60.03)">
    <rect class="st1" x="70.83" y="58.22" width=".25" height="7.09" transform="translate(-21.37 43.7) rotate(-29.97)">
    <polygon class="st1" points="97.43 107.86 93.88 101.72 94.09 101.59 97.64 107.73 97.43 107.86">
    <rect class="st1" x="99.3" y="99.06" width=".25" height="7.09" transform="translate(-37.96 63.38) rotate(-29.97)">
    <path class="st0" d="M90.71,59.04c.32.12.62.26.9.4l2.43-4.25h0c-2.79-.92-5.77-1.41-8.86-1.41s-6.08.5-8.86,1.41h0l2.43,4.25c.28-.15.58-.28.9-.4,1.81-.69,4.13-1.02,5.53-1.03v1.98-1.98c1.4,0,3.72.33,5.53,1.03h0Z">
    <g>
      <path class="st4" d="M85.19,60.06c1.4,0,3.72.33,5.53,1.03.86.33,1.61.74,2.08,1.24.34.11,1.95-.91,1.95-.91l1.33-2.31-.35-.38c-.32-.35-.38-.87-.14-1.29l2.14-3.74.03-.05c-3.84-1.69-8.1-2.64-12.57-2.64s-8.73.95-12.57,2.64l.03.05,2.14,3.74c.24.41.18.93-.14,1.29l-.35.38,1.33,2.31s1.61,1.02,1.95.91c.47-.5,1.22-.91,2.08-1.24,1.81-.69,4.13-1.02,5.53-1.03h0ZM79.67,59.1c-.32.12-.62.26-.9.4l-2.43-4.25h0c2.79-.92,5.77-1.41,8.86-1.41s6.08.5,8.86,1.41h0l-2.43,4.25c-.28-.15-.58-.28-.9-.4-1.81-.69-4.13-1.02-5.53-1.03h0c-1.4,0-3.72.33-5.53,1.03h0Z">
      <path class="st1" d="M77.54,62.46c-.45,0-1.6-.71-1.97-.94l-.04-.04-1.38-2.39.41-.45c.29-.32.34-.78.12-1.14l-2.24-3.91.13-.06c4-1.76,8.24-2.65,12.62-2.65s8.62.89,12.62,2.65l.13.06-.1.17-2.14,3.74c-.21.37-.16.83.12,1.14l.41.45-1.42,2.43c-.39.25-1.69,1.03-2.06.92l-.05-.03c-.42-.44-1.1-.85-2.03-1.21-1.81-.7-4.11-1.02-5.48-1.02-1.38,0-3.68.33-5.49,1.02-.93.36-1.62.76-2.03,1.21l-.05.03s-.06.01-.09.01ZM92.87,62.21h0c.23,0,1.08-.44,1.79-.88l1.27-2.2-.29-.31c-.36-.39-.42-.97-.16-1.44l2.1-3.67c-3.93-1.71-8.1-2.57-12.39-2.57s-8.46.87-12.39,2.57l2.1,3.67c.27.45.2,1.03-.16,1.44l-.29.31,1.27,2.2c.71.45,1.55.88,1.79.88h0c.45-.46,1.15-.88,2.1-1.24,1.83-.7,4.18-1.03,5.57-1.04h0c1.39,0,3.73.32,5.58,1.04.95.36,1.65.78,2.1,1.24ZM91.67,59.67l-.11-.06c-.25-.14-.54-.27-.88-.39-1.81-.69-4.11-1.01-5.49-1.02-1.37,0-3.67.32-5.48,1.02h0c-.35.13-.68.29-.89.4l-.11.05-2.56-4.49.15-.05c2.85-.94,5.84-1.42,8.9-1.42s6.03.48,8.9,1.42l.15.05-2.57,4.49ZM76.52,55.33l2.3,4.01c.21-.1.5-.24.81-.35,1.84-.71,4.18-1.04,5.57-1.04,1.4,0,3.74.34,5.57,1.04.3.11.57.23.81.35l2.29-4.01c-2.8-.9-5.72-1.36-8.68-1.36s-5.89.46-8.68,1.36ZM79.67,59.1h0,0Z">
    </g>
  </g>
  <path class="st1" d="M204.88,113.49c-17.26,0-31.3-14.04-31.3-31.31s14.04-31.31,31.3-31.31,31.31,14.04,31.31,31.31-14.04,31.31-31.31,31.31ZM204.88,51.13c-17.12,0-31.05,13.93-31.05,31.06s13.93,31.06,31.05,31.06,31.06-13.93,31.06-31.06-13.93-31.06-31.06-31.06Z">
  <path class="st1" d="M204.88,110.66c-15.7,0-28.47-12.77-28.47-28.48s12.77-28.48,28.47-28.48c11.4,0,21.68,6.78,26.19,17.27l-.23.1c-4.46-10.4-14.65-17.11-25.96-17.11-15.56,0-28.22,12.66-28.22,28.23s12.66,28.23,28.22,28.23c11.31,0,21.5-6.72,25.96-17.11l.23.1c-4.49,10.49-14.77,17.27-26.19,17.27Z">
  <path class="st1" d="M207,107.73l-.02-.25c7.57-.62,14.4-4.57,18.76-10.83l.21.14c-4.4,6.32-11.3,10.31-18.94,10.93Z">
  <path class="st1" d="M225.74,67.71c-4.36-6.26-11.19-10.21-18.76-10.83l.02-.25c7.64.63,14.54,4.61,18.94,10.93l-.21.14Z">
  <path class="st1" d="M184.03,67.71l-.21-.14c4.4-6.32,11.3-10.31,18.94-10.93l.02.25c-7.56.62-14.4,4.57-18.76,10.83Z">
  <path class="st1" d="M181.69,93.11c-1.62-3.43-2.44-7.11-2.44-10.93s.82-7.5,2.44-10.93l.23.11c-1.6,3.4-2.42,7.04-2.42,10.83s.81,7.43,2.42,10.83l-.23.11Z">
  <path class="st1" d="M202.75,107.73c-7.64-.63-14.54-4.61-18.94-10.93l.21-.14c4.36,6.26,11.19,10.21,18.76,10.83l-.02.25Z">
  <path class="st1" d="M207.02,106.31l-.02-.25c7.05-.62,13.43-4.31,17.52-10.12l.21.14c-4.13,5.87-10.58,9.6-17.7,10.22Z">
  <path class="st1" d="M224.5,68.43c-4.08-5.82-10.47-9.51-17.52-10.12l.02-.25c7.12.62,13.58,4.34,17.7,10.22l-.21.14Z">
  <path class="st1" d="M185.25,68.43l-.21-.14c4.13-5.88,10.58-9.61,17.71-10.22l.02.25c-7.05.61-13.44,4.3-17.53,10.12Z">
  <path class="st1" d="M182.92,92.41c-1.5-3.22-2.26-6.66-2.26-10.22s.76-7.03,2.26-10.22l.23.11c-1.49,3.16-2.24,6.57-2.24,10.12s.75,6.93,2.24,10.12l-.23.11Z">
  <path class="st1" d="M202.75,106.3c-7.12-.62-13.58-4.34-17.7-10.22l.21-.14c4.08,5.82,10.47,9.51,17.52,10.12l-.02.25Z">
  <path class="st1" d="M204.88,103.57c-11.79,0-21.38-9.59-21.38-21.39s9.59-21.39,21.38-21.39,21.38,9.59,21.38,21.39-9.59,21.39-21.38,21.39ZM204.88,61.05c-11.65,0-21.13,9.48-21.13,21.14s9.48,21.14,21.13,21.14,21.13-9.48,21.13-21.14-9.48-21.14-21.13-21.14Z">
  <path class="st1" d="M204.88,99.32c-9.45,0-17.13-7.69-17.13-17.14s7.69-17.14,17.13-17.14,17.13,7.69,17.13,17.14-7.69,17.14-17.13,17.14ZM204.88,65.3c-9.31,0-16.88,7.57-16.88,16.89s7.57,16.89,16.88,16.89,16.88-7.57,16.88-16.89-7.57-16.89-16.88-16.89Z">
  <path class="st1" d="M204.88,100.74c-10.23,0-18.55-8.32-18.55-18.56s8.32-18.56,18.55-18.56,18.56,8.32,18.56,18.56-8.32,18.56-18.56,18.56ZM204.88,63.88c-10.09,0-18.3,8.21-18.3,18.31s8.21,18.31,18.3,18.31,18.31-8.21,18.31-18.31-8.21-18.31-18.31-18.31Z">
  <path class="st1" d="M204.88,97.89c-8.66,0-15.71-7.04-15.71-15.7h0c0-8.67,7.05-15.71,15.71-15.71s15.71,7.05,15.71,15.71c0,2.05-.39,4.05-1.16,5.94-.54,1.31-1.25,2.55-2.14,3.69-3,3.86-7.53,6.08-12.42,6.08ZM189.42,82.18c0,8.52,6.94,15.46,15.46,15.46,4.82,0,9.27-2.18,12.22-5.98.87-1.12,1.58-2.34,2.1-3.63.76-1.86,1.14-3.83,1.14-5.84,0-8.53-6.94-15.46-15.46-15.46s-15.46,6.93-15.46,15.46Z">
  <rect class="st1" x="202.76" y="93.74" width="4.23" height=".25">
  <polygon class="st1" points="207.12 97.63 206.87 97.63 206.87 93.99 202.89 93.99 202.89 97.63 202.64 97.63 202.64 93.74 207.12 93.74 207.12 97.63">
  <polygon class="st1" points="207.12 70.63 202.64 70.63 202.64 66.73 202.89 66.73 202.89 70.38 206.87 70.38 206.87 66.73 207.12 66.73 207.12 70.63">
  <polygon class="st1" points="217.14 91.84 213.77 89.9 216.01 86.02 219.38 87.97 219.25 88.18 216.1 86.37 214.12 89.81 217.27 91.63 217.14 91.84">
  <polygon class="st1" points="193.75 78.35 190.38 76.4 190.51 76.19 193.66 78 195.65 74.55 192.5 72.73 192.63 72.52 196 74.46 193.75 78.35">
  <polygon class="st1" points="216.01 78.35 213.77 74.46 217.14 72.52 217.27 72.73 214.12 74.55 216.1 78 219.26 76.19 219.39 76.4 216.01 78.35">
  <polygon class="st1" points="192.63 91.84 192.5 91.63 195.65 89.81 193.66 86.37 190.51 88.18 190.38 87.97 193.75 86.02 196 89.9 192.63 91.84">
  <rect class="st1" x="206.87" y="103.45" width=".25" height="7.08">
  <rect class="st1" x="202.64" y="103.45" width=".25" height="7.08">
  <rect class="st1" x="206.87" y="53.83" width=".25" height="7.09">
  <rect class="st1" x="202.64" y="53.83" width=".25" height="7.09">
  <polygon class="st1" points="228.31 98.28 222.17 94.75 222.3 94.54 228.44 98.07 228.31 98.28">
  <rect class="st1" x="182.22" y="68.07" width=".25" height="7.09" transform="translate(29.23 193.82) rotate(-60.04)">
  <polygon class="st1" points="187.46 69.83 181.33 66.28 181.46 66.07 187.59 69.62 187.46 69.83">
  <polygon class="st1" points="222.3 69.83 222.17 69.62 228.31 66.07 228.44 66.28 222.3 69.83">
  <rect class="st1" x="178.8" y="92.63" width="7.09" height=".25" transform="translate(-21.95 103.48) rotate(-29.97)">
  <rect class="st1" x="180.92" y="96.28" width="7.07" height=".25" transform="translate(-23.5 105.03) rotate(-29.97)">
  <path class="st0" d="M228.02,87.71c-.12.32-.26.62-.4.9l4.25,2.43h0c.92-2.79,1.41-5.77,1.41-8.86s-.5-6.08-1.41-8.86h0l-4.25,2.43c.15.28.28.58.4.9.69,1.81,1.02,4.13,1.03,5.53h-1.98,1.98c0,1.4-.33,3.72-1.03,5.53h0Z">
  <g>
    <path class="st4" d="M227.01,82.18c0,1.4-.33,3.72-1.03,5.53-.33.86-.74,1.61-1.24,2.08-.11.34.91,1.95.91,1.95l2.31,1.33.38-.35c.35-.32.87-.38,1.29-.14l3.74,2.14.05.03c1.69-3.84,2.64-8.1,2.64-12.57s-.95-8.73-2.64-12.57l-.05.03-3.74,2.14c-.41.24-.93.18-1.29-.14l-.38-.35-2.31,1.33s-1.02,1.61-.91,1.95c.5.47.91,1.22,1.24,2.08.69,1.81,1.02,4.13,1.03,5.53h0ZM227.96,76.65c-.12-.32-.26-.62-.4-.9l4.25-2.43h0c.92,2.79,1.41,5.77,1.41,8.86s-.5,6.08-1.41,8.86h0l-4.25-2.43c.15-.28.28-.58.4-.9.69-1.81,1.02-4.13,1.03-5.53h0c0-1.4-.33-3.72-1.03-5.53h0Z">
    <path class="st1" d="M233.48,94.94l-.17-.1-3.74-2.14c-.37-.21-.83-.16-1.14.12l-.45.41-2.43-1.42c-.25-.39-1.04-1.69-.92-2.06v-.03s.03-.02.03-.02c.45-.42.85-1.1,1.21-2.03.7-1.82,1.02-4.12,1.02-5.48,0-1.38-.33-3.68-1.02-5.49-.36-.93-.76-1.62-1.21-2.03l-.02-.02v-.03c-.13-.37.67-1.67.91-2.06l.04-.04,2.39-1.38.45.41c.32.29.78.34,1.14.12l3.91-2.24.06.13c1.76,4,2.65,8.24,2.65,12.62s-.89,8.62-2.65,12.62l-.06.13ZM229.08,92.31c.21,0,.42.05.61.16l3.67,2.1c1.71-3.93,2.57-8.09,2.57-12.39s-.87-8.46-2.57-12.39l-3.67,2.1c-.46.27-1.03.2-1.44-.16l-.31-.29-2.2,1.27c-.45.72-.9,1.58-.88,1.79.46.45.88,1.15,1.24,2.1.7,1.84,1.03,4.18,1.04,5.57h0c0,1.39-.33,3.73-1.04,5.58-.36.95-.78,1.65-1.24,2.1-.01.22.43,1.08.88,1.79l2.2,1.27.31-.29c.23-.21.53-.32.82-.32ZM231.89,91.23l-4.49-2.57.06-.11c.14-.26.27-.55.39-.89.69-1.81,1.01-4.11,1.02-5.49,0-1.37-.32-3.67-1.02-5.48h0c-.13-.35-.29-.68-.39-.89l-.05-.11.1-.06,4.38-2.51.05.15c.94,2.85,1.42,5.84,1.42,8.9s-.48,6.03-1.42,8.9l-.05.15ZM227.73,88.57l4.01,2.29c.9-2.8,1.36-5.72,1.36-8.67s-.46-5.9-1.36-8.68l-4.01,2.3c.1.21.24.5.35.8h0c.71,1.84,1.04,4.18,1.04,5.58,0,1.4-.34,3.74-1.04,5.57-.11.3-.23.57-.35.81Z">
  </g>
  <path class="st1" d="M11.46,15.85c-3.98,0-7.21-3.24-7.21-7.22S7.49,1.42,11.46,1.42s7.22,3.24,7.22,7.21-3.24,7.22-7.22,7.22ZM11.46,1.67c-3.84,0-6.96,3.12-6.96,6.96s3.12,6.97,6.96,6.97,6.97-3.12,6.97-6.97S15.31,1.67,11.46,1.67Z">
  <path class="st1" d="M5.48,24.05l-1.22-15.36c0-4,3.25-7.25,7.24-7.25h8.42v.25h-8.42c-3.86,0-7,3.14-7,7l1.22,15.35-.25.02Z">
  <path class="st1" d="M11.46,14.43c-3.2,0-5.79-2.6-5.79-5.8s2.6-5.79,5.79-5.79,5.79,2.6,5.79,5.79-2.6,5.8-5.79,5.8ZM11.46,3.09c-3.06,0-5.54,2.49-5.54,5.54s2.49,5.55,5.54,5.55,5.54-2.49,5.54-5.55-2.49-5.54-5.54-5.54Z">
  <rect class="st1" x="5.6" y="53.86" width="278.18" height=".25">
  <rect class="st1" x="5.08" y="16.82" width="279.29" height=".25">
  <rect class="st1" x="5.6" y="107.72" width="278.18" height=".25">
  <path class="st1" d="M10.75,51.09c-1.24,0-2.25-1.01-2.25-2.25s1.01-2.25,2.25-2.25,2.25,1.01,2.25,2.25-1.01,2.25-2.25,2.25ZM10.75,46.83c-1.11,0-2,.9-2,2s.9,2,2,2,2-.9,2-2-.9-2-2-2Z">
  <path class="st1" d="M241.23,180.24H48.16l8.76-41.21c.19-.9,1-1.56,1.92-1.56h171.7c.92,0,1.73.66,1.92,1.56l8.76,41.21ZM48.47,179.99h192.45l-8.7-40.91c-.17-.79-.87-1.36-1.68-1.36H58.85c-.81,0-1.51.57-1.68,1.36l-8.7,40.91Z">
  <path class="st1" d="M269.92,132.06H19.46c-1.35,0-2.46-1.1-2.46-2.45v-20.85c0-1.35,1.1-2.46,2.46-2.46h250.46c1.35,0,2.46,1.1,2.46,2.46v20.85c0,1.35-1.1,2.45-2.46,2.45ZM19.46,106.55c-1.22,0-2.21.99-2.21,2.21v20.85c0,1.22.99,2.2,2.21,2.2h250.46c1.22,0,2.21-.99,2.21-2.2v-20.85c0-1.22-.99-2.21-2.21-2.21H19.46Z">
  <path class="st1" d="M278.63,51.09c-1.24,0-2.25-1.01-2.25-2.25s1.01-2.25,2.25-2.25,2.25,1.01,2.25,2.25-1.01,2.25-2.25,2.25ZM278.63,46.83c-1.11,0-2,.9-2,2s.9,2,2,2,2-.9,2-2-.9-2-2-2Z">
  <path class="st1" d="M144.69,25.94c-1.24,0-2.25-1.01-2.25-2.25s1.01-2.25,2.25-2.25,2.26,1.01,2.26,2.25-1.01,2.25-2.26,2.25ZM144.69,21.68c-1.11,0-2,.9-2,2s.9,2,2,2,2.01-.9,2.01-2-.9-2-2.01-2Z">
  <path class="st1" d="M30.98,175.26c-6.71,0-12.17-5.46-12.17-12.17s5.46-12.17,12.17-12.17,12.18,5.46,12.18,12.17-5.46,12.17-12.18,12.17ZM30.98,151.16c-6.58,0-11.92,5.35-11.92,11.92s5.35,11.92,11.92,11.92,11.93-5.35,11.93-11.92-5.35-11.92-11.93-11.92Z">
  <path class="st1" d="M30.98,167.46c-2.41,0-4.38-1.96-4.38-4.38s1.96-4.38,4.38-4.38,4.38,1.96,4.38,4.38-1.96,4.38-4.38,4.38ZM30.98,158.96c-2.27,0-4.12,1.85-4.12,4.12s1.85,4.12,4.12,4.12,4.12-1.85,4.12-4.12-1.85-4.12-4.12-4.12Z">
  <path class="st1" d="M30.98,165.34c-1.24,0-2.25-1.01-2.25-2.25s1.01-2.25,2.25-2.25,2.26,1.01,2.26,2.25-1.01,2.25-2.26,2.25ZM30.98,161.08c-1.11,0-2,.9-2,2s.9,2,2,2,2.01-.9,2.01-2-.9-2-2.01-2Z">
  <path class="st1" d="M258.39,165.56c-1.24,0-2.25-1.01-2.25-2.25s1.01-2.25,2.25-2.25,2.26,1.01,2.26,2.25-1.01,2.25-2.26,2.25ZM258.39,161.3c-1.11,0-2,.9-2,2s.9,2,2,2,2.01-.9,2.01-2-.9-2-2.01-2Z">
  <path class="st1" d="M277.41,144.13c-1.63,0-2.96-1.33-2.96-2.96s1.33-2.96,2.96-2.96,2.96,1.33,2.96,2.96-1.33,2.96-2.96,2.96ZM277.41,138.47c-1.49,0-2.71,1.21-2.71,2.71s1.21,2.71,2.71,2.71,2.71-1.21,2.71-2.71-1.21-2.71-2.71-2.71Z">
  <path class="st1" d="M11.46,11.59c-1.63,0-2.96-1.33-2.96-2.96s1.33-2.95,2.96-2.95,2.96,1.33,2.96,2.95-1.33,2.96-2.96,2.96ZM11.46,5.93c-1.49,0-2.71,1.21-2.71,2.7s1.21,2.71,2.71,2.71,2.71-1.21,2.71-2.71-1.21-2.7-2.71-2.7Z">
  <path class="st1" d="M85.27,99.32c-9.45,0-17.14-7.69-17.14-17.14s7.69-17.14,17.14-17.14,17.13,7.69,17.13,17.14-7.69,17.14-17.13,17.14ZM85.27,65.3c-9.31,0-16.89,7.57-16.89,16.89s7.57,16.89,16.89,16.89,16.88-7.57,16.88-16.89-7.57-16.89-16.88-16.89Z">
  <path class="st1" d="M85.27,100.74c-10.23,0-18.56-8.32-18.56-18.56s8.32-18.56,18.56-18.56,18.55,8.32,18.55,18.56-8.32,18.56-18.55,18.56ZM85.27,63.88c-10.09,0-18.31,8.21-18.31,18.31s8.21,18.31,18.31,18.31,18.3-8.21,18.3-18.31-8.21-18.31-18.3-18.31Z">
  <path class="st1" d="M204.88,99.32c-9.45,0-17.13-7.69-17.13-17.14s7.69-17.14,17.13-17.14,17.13,7.69,17.13,17.14-7.69,17.14-17.13,17.14ZM204.88,65.3c-9.31,0-16.88,7.57-16.88,16.89s7.57,16.89,16.88,16.89,16.88-7.57,16.88-16.89-7.57-16.89-16.88-16.89Z">
  <path class="st1" d="M204.88,100.74c-10.23,0-18.55-8.32-18.55-18.56s8.32-18.56,18.55-18.56,18.56,8.32,18.56,18.56-8.32,18.56-18.56,18.56ZM204.88,63.88c-10.09,0-18.3,8.21-18.3,18.31s8.21,18.31,18.3,18.31,18.31-8.21,18.31-18.31-8.21-18.31-18.31-18.31Z">
  <path class="st0" d="M62.12,76.65c.12-.32.26-.62.4-.9l-4.25-2.43h0c-.92,2.79-1.41,5.77-1.41,8.86s.5,6.08,1.41,8.86h0l4.25-2.43c-.15-.28-.28-.58-.4-.9-.69-1.81-1.02-4.13-1.03-5.53h1.98-1.98c0-1.4.33-3.72,1.03-5.53h0Z">
  <path class="st1" d="M286.3,166.26v-51.64l3.08,3.09v45.45l-3.08,3.09ZM286.55,115.23v50.42l2.58-2.59v-45.25l-2.58-2.59ZM289.25,163.12h0,0Z">
  <path class="st1" d="M3.08,166.26l-3.08-3.09v-45.45l.04-.04,3.04-3.05v51.64ZM.25,163.06l2.58,2.59v-50.42l-2.58,2.59v45.25Z">
  <path class="st1" d="M277.41,160.63c-1.63,0-2.96-1.33-2.96-2.96s1.33-2.96,2.96-2.96,2.96,1.33,2.96,2.96-1.33,2.96-2.96,2.96ZM277.41,154.97c-1.49,0-2.71,1.21-2.71,2.71s1.21,2.71,2.71,2.71,2.71-1.21,2.71-2.71-1.21-2.71-2.71-2.71Z">
  <path class="st1" d="M11.98,144.13c-1.63,0-2.96-1.33-2.96-2.96s1.33-2.96,2.96-2.96,2.96,1.33,2.96,2.96-1.33,2.96-2.96,2.96ZM11.98,138.47c-1.49,0-2.71,1.21-2.71,2.71s1.21,2.71,2.71,2.71,2.71-1.21,2.71-2.71-1.21-2.71-2.71-2.71Z">
  <path class="st1" d="M11.98,160.63c-1.63,0-2.96-1.33-2.96-2.96s1.33-2.96,2.96-2.96,2.96,1.33,2.96,2.96-1.33,2.96-2.96,2.96ZM11.98,154.97c-1.49,0-2.71,1.21-2.71,2.71s1.21,2.71,2.71,2.71,2.71-1.21,2.71-2.71-1.21-2.71-2.71-2.71Z">
  <path class="st1" d="M33.54,14.42h-13.74V0h18.68v9.48c0,2.73-2.22,4.94-4.94,4.94ZM20.05,14.17h13.49c2.59,0,4.69-2.11,4.69-4.69V.25h-18.18v13.92Z">
  <rect class="st1" x="41.04" width="9.92" height=".25">
  <path class="st1" d="M48.4,8.56h-8.75V2.64h8.75v5.92ZM39.9,8.31h8.25V2.89h-8.25v5.42Z">
  <path class="st1" d="M21.19,15.84h-5.48c-.07,0-.12-.06-.12-.12v-1.41c0-.07.06-.12.12-.12h5.48v.25h-5.35v1.16h5.35v.25Z">
  <rect class="st1" x="39.65" y="2.77" width=".25" height="5.67">
  <rect class="st1" x="10.75" width="10.44" height=".25">
  <path class="st1" d="M29.15,10.17c-1.63,0-2.96-1.33-2.96-2.96s1.33-2.96,2.96-2.96,2.96,1.33,2.96,2.96-1.33,2.96-2.96,2.96ZM29.15,4.51c-1.49,0-2.71,1.21-2.71,2.71s1.21,2.71,2.71,2.71,2.71-1.21,2.71-2.71-1.21-2.71-2.71-2.71Z">
  <g>
    <path class="st1" d="M277.95,15.85c-3.98,0-7.21-3.24-7.21-7.22s3.24-7.21,7.21-7.21,7.21,3.24,7.21,7.21-3.24,7.22-7.21,7.22ZM277.95,1.67c-3.84,0-6.96,3.12-6.96,6.96s3.12,6.97,6.96,6.97,6.96-3.12,6.96-6.97-3.12-6.96-6.96-6.96Z">
    <rect class="st1" x="5.48" y="24.02" width=".25" height="143.51">
    <rect class="st1" x="11.98" y="177.36" width="229.1" height=".25">
    <path class="st1" d="M283.9,167.66h-.25V24.04l1.25-15.37c0-3.85-3.14-6.98-7-6.98h-8.42v-.25s8.42,0,8.42,0c4,0,7.25,3.25,7.25,7.25l-1.25,15.37v143.6Z">
    <path class="st1" d="M277.95,14.43c-3.2,0-5.79-2.6-5.79-5.8s2.6-5.79,5.79-5.79,5.79,2.6,5.79,5.79-2.6,5.8-5.79,5.8ZM277.95,3.09c-3.06,0-5.54,2.49-5.54,5.54s2.49,5.55,5.54,5.55,5.54-2.49,5.54-5.55-2.49-5.54-5.54-5.54Z">
    <path class="st1" d="M277.95,11.59c-1.63,0-2.96-1.33-2.96-2.96s1.33-2.95,2.96-2.95,2.96,1.33,2.96,2.95-1.33,2.96-2.96,2.96ZM277.95,5.93c-1.49,0-2.71,1.21-2.71,2.7s1.21,2.71,2.71,2.71,2.71-1.21,2.71-2.71-1.21-2.7-2.71-2.7Z">
    <path class="st1" d="M269.6,14.43h-13.73c-2.73,0-4.95-2.22-4.95-4.95V0h18.68v14.42ZM251.17.26v9.23c0,2.59,2.11,4.7,4.7,4.7h13.48V.26h-18.18Z">
    <path class="st1" d="M249.76,8.56h-8.75V2.64h8.75v5.92ZM241.26,8.31h8.25V2.89h-8.25v5.42Z">
    <path class="st1" d="M260.26,10.17c-1.63,0-2.96-1.33-2.96-2.96s1.33-2.96,2.96-2.96,2.96,1.33,2.96,2.96-1.33,2.96-2.96,2.96ZM260.26,4.51c-1.49,0-2.71,1.21-2.71,2.71s1.21,2.71,2.71,2.71,2.71-1.21,2.71-2.71-1.21-2.71-2.71-2.71Z">
    <path class="st1" d="M273.59,15.84h-5.48v-.25h5.35v-1.16h-5.35v-.25h5.48c.07,0,.12.06.12.12v1.41c0,.07-.06.12-.12.12Z">
  </g>
  <path class="st1" d="M269.46,15.84h-13.61c-3.32,0-6.08-2.56-6.34-5.86h-6.74c-1.76,0-3.2-1.41-3.2-3.13v-3.95H49.81v3.95c0,1.73-1.43,3.13-3.19,3.13h-6.74c-.25,3.3-3.01,5.86-6.34,5.86h-13.61v-.25h13.61c3.23,0,5.91-2.52,6.09-5.74v-.12h6.99c1.62,0,2.94-1.29,2.94-2.88V2.65h190.27v4.2c0,1.59,1.32,2.88,2.95,2.88h6.98v.12c.19,3.22,2.87,5.74,6.1,5.74h13.61v.25Z">
  <path class="st1" d="M268.22,3.08h-15.91V0h15.91v3.08ZM252.56,2.83h15.41V.25h-15.41v2.58Z">
  <path class="st1" d="M277.92,178.83c-1.44,0-2.83-.43-4.03-1.23-1.99-1.34-3.18-3.57-3.18-5.98,0-3.98,3.24-7.21,7.21-7.21,2.38,0,4.61,1.18,5.96,3.15.82,1.21,1.25,2.62,1.25,4.06v.12c-.08,3.92-3.29,7.09-7.23,7.09ZM277.93,164.65c-3.84,0-6.96,3.12-6.96,6.96,0,2.33,1.15,4.49,3.06,5.78,1.16.78,2.5,1.19,3.89,1.19,3.84,0,6.96-3.12,6.96-6.96v-.12c-.01-1.35-.43-2.66-1.2-3.79-1.3-1.91-3.46-3.04-5.76-3.04Z">
  <path class="st1" d="M277.92,177.41c-3.2,0-5.79-2.6-5.79-5.79s2.6-5.79,5.79-5.79,5.79,2.6,5.79,5.79-2.6,5.79-5.79,5.79ZM277.92,166.07c-3.06,0-5.54,2.49-5.54,5.54s2.49,5.54,5.54,5.54,5.54-2.49,5.54-5.54-2.49-5.54-5.54-5.54Z">
  <path class="st1" d="M277.92,174.57c-1.63,0-2.96-1.33-2.96-2.96s1.33-2.96,2.96-2.96,2.96,1.33,2.96,2.96-1.33,2.96-2.96,2.96ZM277.92,168.91c-1.49,0-2.71,1.21-2.71,2.71s1.21,2.71,2.71,2.71,2.71-1.21,2.71-2.71-1.21-2.71-2.71-2.71Z">
  <g>
    <rect class="st1" x="2.96" y="133.86" width="283.46" height=".25">
    <rect class="st1" x="2.96" y="136.05" width="283.46" height=".25">
    <rect class="st1" x="2.96" y="138.22" width="283.46" height=".25">
    <rect class="st1" x="2.96" y="140.4" width="283.46" height=".25">
    <rect class="st1" x="2.96" y="142.57" width="283.46" height=".25">
    <rect class="st1" x="2.96" y="144.74" width="283.46" height=".25">
    <rect class="st1" x="2.96" y="146.92" width="283.46" height=".25">
    <rect class="st1" x="2.96" y="149.09" width="283.46" height=".25">
    <rect class="st1" x="2.96" y="151.27" width="283.46" height=".25">
    <rect class="st1" x="2.96" y="153.43" width="283.46" height=".25">
    <rect class="st1" x="2.96" y="155.61" width="283.46" height=".25">
    <rect class="st1" x="2.96" y="157.79" width="283.46" height=".25">
    <rect class="st1" x="2.96" y="159.97" width="283.46" height=".25">
    <rect class="st1" x="2.96" y="162.14" width="283.46" height=".25">
    <rect class="st1" x="2.96" y="164.32" width="283.46" height=".25">
    <rect class="st1" x="280.58" y="166.49" width="5.84" height=".25">
    <rect class="st1" x="14.17" y="166.49" width="261.09" height=".25">
    <rect class="st1" x="2.96" y="166.49" width="5.79" height=".25">
    <rect class="st1" x="282.83" y="168.66" width="3.59" height=".25">
    <rect class="st1" x="16.38" y="168.66" width="256.63" height=".25">
    <rect class="st1" x="2.96" y="168.66" width="3.57" height=".25">
    <rect class="st1" x="283.55" y="170.84" width="2.87" height=".25">
    <rect class="st1" x="17.1" y="170.84" width="255.2" height=".25">
    <rect class="st1" x="2.96" y="170.84" width="2.86" height=".25">
    <rect class="st1" x="283.38" y="173.01" width="3.04" height=".25">
    <rect class="st1" x="16.92" y="173.01" width="255.54" height=".25">
    <rect class="st1" x="2.96" y="173.01" width="3.04" height=".25">
    <rect class="st1" x="282.24" y="175.18" width="3.78" height=".25">
    <rect class="st1" x="15.75" y="175.18" width="257.87" height=".25">
    <rect class="st1" x="3.37" y="175.18" width="3.81" height=".25">
    <rect class="st1" x="281.87" y="177.36" width="2.93" height=".25">
    <rect class="st1" x="4.58" y="177.36" width="269.36" height=".25">
  </g>
  <path class="st1" d="M11.46,178.81c-3.94,0-7.15-3.17-7.21-7.09h-.01v-.12c0-1.44.43-2.85,1.25-4.06,1.35-1.98,3.58-3.16,5.96-3.16,3.98,0,7.21,3.24,7.21,7.21,0,2.41-1.19,4.65-3.18,5.98-1.2.81-2.59,1.23-4.03,1.23ZM4.49,171.48v.11c0,3.84,3.13,6.96,6.97,6.96,1.39,0,2.74-.41,3.89-1.19,1.92-1.29,3.06-3.45,3.06-5.78,0-3.84-3.12-6.96-6.96-6.96-2.3,0-4.45,1.14-5.76,3.05-.77,1.14-1.19,2.45-1.21,3.81Z">
  <path class="st1" d="M11.46,177.38c-1.68,0-3.28-.73-4.37-1.99-.56-.64-.98-1.41-1.21-2.22-.14-.5-.21-1.03-.21-1.57,0-.21.01-.43.03-.64.09-.78.34-1.54.73-2.22,1.03-1.8,2.96-2.92,5.04-2.92.97,0,1.93.24,2.77.71.95.51,1.73,1.28,2.27,2.22.39.67.63,1.41.73,2.22.03.21.03.43.03.64,0,.55-.07,1.08-.21,1.57-.23.81-.65,1.58-1.21,2.22-1.11,1.27-2.7,1.99-4.37,1.99ZM11.46,166.06c-1.98,0-3.83,1.07-4.82,2.8-.37.65-.61,1.38-.69,2.12-.02.2-.03.41-.03.62,0,.52.07,1.03.21,1.51.22.77.62,1.51,1.15,2.12,1.05,1.21,2.58,1.91,4.19,1.91s3.13-.7,4.19-1.91c.54-.61.93-1.35,1.15-2.12.14-.48.21-.98.21-1.51,0-.21,0-.42-.03-.61-.09-.78-.32-1.49-.69-2.12-.52-.9-1.27-1.64-2.17-2.12-.8-.44-1.72-.68-2.65-.68Z">
  <path class="st1" d="M11.46,174.55c-1.63,0-2.96-1.33-2.96-2.96s1.33-2.96,2.96-2.96,2.96,1.33,2.96,2.96-1.33,2.96-2.96,2.96ZM11.46,168.89c-1.49,0-2.71,1.21-2.71,2.71s1.21,2.71,2.71,2.71,2.71-1.21,2.71-2.71-1.21-2.71-2.71-2.71Z">
  <g>
    <circle class="st4" cx="76.67" cy="170.4" r="7.09">
    <path class="st1" d="M76.67,177.61c-3.98,0-7.21-3.24-7.21-7.22s3.24-7.21,7.21-7.21,7.21,3.24,7.21,7.21-3.24,7.22-7.21,7.22ZM76.67,163.43c-3.84,0-6.96,3.12-6.96,6.96s3.12,6.97,6.96,6.97,6.96-3.12,6.96-6.97-3.12-6.96-6.96-6.96Z">
  </g>
  <g>
    <circle class="st4" cx="212.73" cy="170.4" r="7.09">
    <path class="st1" d="M212.72,177.61c-3.98,0-7.21-3.24-7.21-7.22s3.24-7.21,7.21-7.21,7.22,3.24,7.22,7.21-3.24,7.22-7.22,7.22ZM212.72,163.43c-3.84,0-6.96,3.12-6.96,6.96s3.12,6.97,6.96,6.97,6.97-3.12,6.97-6.97-3.12-6.96-6.97-6.96Z">
  </g>
  <g>
    <rect class="st4" x="99.33" y="160.1" width="12.76" height="11.53" rx="3.95" ry="3.95">
    <path class="st1" d="M108.15,171.75h-4.86c-2.25,0-4.08-1.83-4.08-4.08v-3.63c0-2.25,1.83-4.08,4.08-4.08h4.86c2.25,0,4.08,1.83,4.08,4.08v3.63c0,2.25-1.83,4.08-4.08,4.08ZM103.29,160.22c-2.11,0-3.83,1.72-3.83,3.83v3.63c0,2.11,1.72,3.83,3.83,3.83h4.86c2.11,0,3.83-1.72,3.83-3.83v-3.63c0-2.11-1.72-3.83-3.83-3.83h-4.86Z">
  </g>
  <path class="st1" d="M258.39,153.33c-1.24,0-2.25-1.01-2.25-2.25s1.01-2.25,2.25-2.25,2.26,1.01,2.26,2.25-1.01,2.25-2.26,2.25ZM258.39,149.07c-1.11,0-2,.9-2,2s.9,2,2,2,2.01-.9,2.01-2-.9-2-2.01-2Z">
  <path class="st1" d="M98.06,180.22h-8.74c-.79,0-1.43-.64-1.43-1.42s.64-1.43,1.43-1.43h8.74c.79,0,1.43.64,1.43,1.42s-.64,1.43-1.43,1.43ZM89.33,177.61c-.65,0-1.18.53-1.18,1.17s.53,1.18,1.18,1.18h8.74c.65,0,1.18-.53,1.18-1.17s-.53-1.18-1.18-1.18h-8.74Z">
  <path class="st1" d="M200.12,180.22h-8.74c-.79,0-1.42-.64-1.42-1.42s.64-1.43,1.42-1.43h8.74c.79,0,1.42.64,1.42,1.42s-.64,1.43-1.42,1.43ZM191.38,177.61c-.65,0-1.17.53-1.17,1.17s.53,1.18,1.17,1.18h8.74c.65,0,1.17-.53,1.17-1.17s-.53-1.18-1.17-1.18h-8.74Z">
  <g>
    <circle class="st4" cx="76.68" cy="170.37" r="7.09">
    <path class="st1" d="M76.69,177.58c-3.98,0-7.21-3.24-7.21-7.21s3.24-7.21,7.21-7.21,7.21,3.24,7.21,7.21-3.24,7.21-7.21,7.21ZM76.69,163.4c-3.84,0-6.96,3.12-6.96,6.96s3.12,6.96,6.96,6.96,6.96-3.12,6.96-6.96-3.12-6.96-6.96-6.96Z">
  </g>
  <g>
    <circle class="st4" cx="212.76" cy="170.37" r="7.09">
    <path class="st1" d="M212.75,177.58c-3.98,0-7.21-3.24-7.21-7.21s3.24-7.21,7.21-7.21,7.21,3.24,7.21,7.21-3.24,7.21-7.21,7.21ZM212.75,163.4c-3.84,0-6.96,3.12-6.96,6.96s3.12,6.96,6.96,6.96,6.96-3.12,6.96-6.96-3.12-6.96-6.96-6.96Z">
  </g>
  <g>
    <rect class="st4" x="99.36" y="160.05" width="12.76" height="11.53" rx="3.95" ry="3.95">
    <path class="st1" d="M108.17,171.71h-4.86c-2.25,0-4.07-1.83-4.07-4.08v-3.63c0-2.25,1.83-4.08,4.07-4.08h4.86c2.25,0,4.08,1.83,4.08,4.08v3.63c0,2.25-1.83,4.08-4.08,4.08ZM103.31,160.18c-2.11,0-3.82,1.72-3.82,3.83v3.63c0,2.11,1.72,3.83,3.82,3.83h4.86c2.11,0,3.83-1.72,3.83-3.83v-3.63c0-2.11-1.72-3.83-3.83-3.83h-4.86Z">
  </g>
  <path class="st1" d="M122.75,180.22h-10.04c-.79,0-1.43-.64-1.43-1.42s.64-1.42,1.43-1.42h9.92v-14.4h1.67v15.71c0,.85-.7,1.54-1.54,1.54ZM112.71,177.62c-.65,0-1.18.53-1.18,1.17s.53,1.17,1.18,1.17h10.04c.71,0,1.29-.58,1.29-1.29v-15.46h-1.17v14.4h-10.17Z">
  <g>
    <rect class="st4" x="178.02" y="160.15" width="11.34" height="11.34" rx="5" ry="5">
    <path class="st1" d="M184.37,171.62h-1.34c-2.83,0-5.12-2.3-5.12-5.12v-1.34c0-2.83,2.3-5.12,5.12-5.12h1.34c2.83,0,5.12,2.3,5.12,5.12v1.34c0,2.83-2.3,5.12-5.12,5.12ZM183.03,160.28c-2.69,0-4.88,2.19-4.88,4.88v1.34c0,2.69,2.19,4.88,4.88,4.88h1.34c2.69,0,4.88-2.19,4.88-4.88v-1.34c0-2.69-2.19-4.88-4.88-4.88h-1.34Z">
  </g>
  <rect class="st1" x="82.21" y="165.79" width="1.83" height=".25">
  <path class="st1" d="M84.04,166.05v-.25c.11,0,.21-.08.23-.19l.25.04c-.04.23-.24.39-.47.39Z">
  <g>
    <path class="st1" d="M144.71,155.17c-2.2,0-3.99-1.79-3.99-4s1.79-4,3.99-4,4,1.79,4,4-1.79,4-4,4ZM144.71,147.43c-2.06,0-3.74,1.68-3.74,3.75s1.68,3.75,3.74,3.75,3.75-1.68,3.75-3.75-1.68-3.75-3.75-3.75Z">
    <path class="st1" d="M220.09,166.04h-1.82v-.25h1.82c.11,0,.21-.08.23-.19l.83-4.06h16.03v.25h-15.83l-.79,3.86c-.04.22-.24.39-.47.39Z">
    <path class="st1" d="M71.17,166.04h-1.82c-.23,0-.43-.17-.47-.39l-.79-3.86h-15.83v-.25h16.03l.83,4.06c.02.11.11.19.23.19h1.82v.25Z">
    <path class="st1" d="M236.61,158.96h-40.84l-22.7-4.25h-22.32s.1-.18.1-.18c.56-1.01.85-2.16.85-3.34,0-3.84-3.12-6.96-6.97-6.96s-6.96,3.12-6.96,6.96c0,1.16.3,2.31.85,3.34l.1.18h-22.34l-22.66,4.25h-40.86s0-.25,0-.25h40.84l22.66-4.25h21.95c-.52-1.02-.79-2.15-.79-3.28,0-3.98,3.24-7.21,7.21-7.21s7.22,3.24,7.22,7.21c0,1.15-.27,2.27-.79,3.28h21.92l22.7,4.25h40.82s0,.25,0,.25Z">
    <path class="st1" d="M190.8,166.32c-.85,0-1.54-.69-1.54-1.54v-4.19l-11.09-2.08v6.27c0,.85-.69,1.54-1.54,1.54s-1.54-.69-1.54-1.54v-6.85l-2.03-.38h-24.93c-1.04.56-2.22.85-3.4.85s-2.36-.29-3.4-.85h-24.95l-22.66,4.25h-8.42s-.79,3.86-.79,3.86l-.25-.05.83-4.06h8.6l22.66-4.25h25.03s.03.01.03.01c1.01.55,2.16.84,3.31.84s2.3-.29,3.31-.84h.06s24.98-.01,24.98-.01l2.25.42v7.05c0,.71.58,1.29,1.29,1.29s1.29-.58,1.29-1.29v-6.57l.15.03,11.44,2.15v4.39c0,.71.58,1.29,1.29,1.29s1.29-.58,1.29-1.29v-3.91l3.69.69h8.58s.83,4.06.83,4.06c.02.11.12.19.23.19h1.82v.25h-1.82c-.23,0-.43-.17-.47-.39l-.79-3.86h-8.4l-3.42-.63v3.61c0,.85-.69,1.54-1.54,1.54Z">
  </g>
  <path class="st1" d="M124.88,171.7h-.71v-.25h.71c.32,0,.58-.26.58-.58v-.99h.19c.28,0,.51-.23.51-.5s-.23-.5-.51-.5h-1.36v2h-.25v-2.25h1.61c.42,0,.76.34.76.75s-.31.72-.7.75v.74c0,.46-.37.83-.83.83Z">
  <path class="st1" d="M176.74,180.22h-10.04c-.85,0-1.54-.69-1.54-1.54v-15.71h1.67v14.4h9.92c.79,0,1.42.64,1.42,1.42s-.64,1.42-1.42,1.42ZM165.4,178.67c0,.71.58,1.29,1.29,1.29h10.04c.65,0,1.17-.53,1.17-1.17s-.53-1.17-1.17-1.17h-10.17v-14.4h-1.17v15.46Z">
  <path class="st1" d="M165.26,171.7h-.71c-.46,0-.83-.38-.83-.83v-.74c-.39-.03-.7-.36-.7-.75s.34-.75.76-.75h1.61v2.25h-.25v-2h-1.36c-.28,0-.51.22-.51.5s.22.5.51.5h.19v.99c0,.32.26.58.58.58h.71v.25Z">
  <polygon class="st1" points="95.24 177.58 92.15 177.58 92.15 161.67 92.4 161.67 92.4 177.33 94.99 177.33 94.99 161.41 95.24 161.41 95.24 177.58">
  <polygon class="st1" points="197.29 177.61 194.2 177.61 194.2 161.41 194.45 161.41 194.45 177.36 197.04 177.36 197.04 161.67 197.29 161.67 197.29 177.61">
  <path class="st1" d="M226.92,177.38c-2.41,0-4.38-1.96-4.38-4.38s1.96-4.38,4.38-4.38,4.38,1.96,4.38,4.38-1.96,4.38-4.38,4.38ZM226.92,168.88c-2.27,0-4.12,1.85-4.12,4.12s1.85,4.12,4.12,4.12,4.12-1.85,4.12-4.12-1.85-4.12-4.12-4.12Z">
  <path class="st1" d="M62.52,177.38c-2.41,0-4.38-1.96-4.38-4.38s1.96-4.38,4.38-4.38,4.38,1.96,4.38,4.38-1.96,4.38-4.38,4.38ZM62.52,168.88c-2.27,0-4.12,1.85-4.12,4.12s1.85,4.12,4.12,4.12,4.12-1.85,4.12-4.12-1.85-4.12-4.12-4.12Z">
  <g>
    <rect class="st4" x="243.51" y="141.35" width="29.76" height="17.52" rx="1.69" ry="1.69">
    <path class="st1" d="M271.58,158.99h-26.38c-1,0-1.82-.81-1.82-1.82v-14.14c0-1,.81-1.82,1.82-1.82h26.38c1,0,1.82.81,1.82,1.82v14.14c0,1-.81,1.82-1.82,1.82ZM245.21,141.47c-.86,0-1.57.7-1.57,1.57v14.14c0,.86.7,1.57,1.57,1.57h26.38c.86,0,1.57-.7,1.57-1.57v-14.14c0-.86-.7-1.57-1.57-1.57h-26.38Z">
  </g>
  <path class="st1" d="M258.39,152.49c-1.24,0-2.25-1.04-2.25-2.32s1.01-2.31,2.25-2.31,2.26,1.04,2.26,2.31-1.01,2.32-2.26,2.32ZM258.39,148.11c-1.11,0-2,.93-2,2.06s.9,2.07,2,2.07,2.01-.93,2.01-2.07-.9-2.06-2.01-2.06Z">
  <g>
    <polygon class="st4" points="243.51 157.15 243.51 143.05 254.85 150.1 243.51 157.15">
    <path class="st1" d="M243.51,157.27s-.04,0-.06-.02c-.04-.02-.06-.06-.06-.11v-14.09s.02-.09.06-.11.09-.02.13,0l11.34,7.05s.06.06.06.11-.02.08-.06.11l-11.34,7.04s-.04.02-.07.02ZM243.64,143.28v13.64l10.98-6.81-10.98-6.83Z">
  </g>
  <path class="st1" d="M258.43,175.27c-.66,0-1.32-.05-1.98-.16-6.63-1.08-11.14-7.34-10.07-13.97h0c1.08-6.62,7.33-11.15,13.97-10.07,6.62,1.08,11.14,7.34,10.07,13.97-.52,3.21-2.26,6.03-4.9,7.93-2.1,1.51-4.56,2.3-7.09,2.3ZM246.51,161.16l.12.02c-.51,3.14.23,6.3,2.1,8.88s4.62,4.29,7.76,4.8c3.14.51,6.3-.23,8.88-2.1s4.29-4.62,4.8-7.76c1.05-6.49-3.37-12.63-9.86-13.68-6.48-1.05-12.63,3.37-13.68,9.86l-.12-.02Z">
  <path class="st1" d="M258.39,167.46c-2.41,0-4.38-1.96-4.38-4.38s1.96-4.38,4.38-4.38,4.38,1.96,4.38,4.38-1.96,4.38-4.38,4.38ZM258.39,158.96c-2.27,0-4.12,1.85-4.12,4.12s1.85,4.12,4.12,4.12,4.12-1.85,4.12-4.12-1.85-4.12-4.12-4.12Z">
  <path class="st1" d="M37.1,3.08h-15.91V0h15.91v3.08ZM21.44,2.83h15.41V.25h-15.41v2.58Z">
  <g>
    <rect class="st1" x="32.73" y="32.68" width="58.11" height=".25">
    <rect class="st1" x="32.73" y="35.04" width="55.75" height=".25">
    <rect class="st1" x="32.73" y="37.4" width="53.39" height=".25">
    <rect class="st1" x="32.73" y="39.76" width="51.02" height=".25">
    <rect class="st1" x="32.73" y="42.13" width="48.66" height=".25">
    <rect class="st1" x="32.73" y="44.49" width="46.3" height=".25">
    <rect class="st1" x="32.73" y="46.85" width="43.94" height=".25">
    <rect class="st1" x="32.73" y="49.21" width="41.57" height=".25">
    <rect class="st1" x="32.73" y="51.58" width="39.21" height=".25">
    <rect class="st1" x="32.73" y="53.94" width="36.85" height=".25">
  </g>
  <g>
    <rect class="st1" x="32.73" y="32.69" width="41" height="1">
    <rect class="st1" x="32.73" y="35.04" width="38.64" height="1">
    <rect class="st1" x="32.73" y="37.4" width="36.28" height="1">
    <rect class="st1" x="32.73" y="39.77" width="33.92" height="1">
    <rect class="st1" x="32.73" y="42.12" width="31.56" height="1">
    <rect class="st1" x="32.73" y="44.5" width="29.19" height="1">
    <rect class="st1" x="32.73" y="46.85" width="26.83" height="1">
    <rect class="st1" x="32.73" y="49.21" width="24.47" height="1">
    <rect class="st1" x="32.73" y="51.58" width="22.11" height="1">
    <rect class="st1" x="32.73" y="53.94" width="19.74" height="1">
  </g>
  <g>
    <rect class="st1" x="32.73" y="32.71" width="23.67" height="1.5">
    <rect class="st1" x="32.73" y="35.08" width="21.3" height="1.5">
    <rect class="st1" x="32.73" y="37.44" width="18.94" height="1.5">
    <rect class="st1" x="32.73" y="39.79" width="16.58" height="1.5">
    <rect class="st1" x="32.73" y="42.15" width="14.22" height="1.5">
    <rect class="st1" x="32.73" y="44.52" width="11.86" height="1.5">
    <rect class="st1" x="32.73" y="46.88" width="9.49" height="1.5">
    <rect class="st1" x="32.73" y="49.25" width="7.13" height="1.5">
    <rect class="st1" x="32.73" y="51.6" width="4.77" height="1.5">
    <rect class="st1" x="32.73" y="53.96" width="2.41" height="1.5">
  </g>
  <g class="st2">
    <g class="st2">
      <g class="st2">
        <g class="st2">
          <path class="st1" d="M76.67,118.92h-1.86v-4.32h1.86c.27,0,.49.04.67.09.3.1.55.28.74.55.15.21.25.45.31.7s.08.49.08.71c0,.57-.12,1.06-.35,1.46-.31.54-.79.81-1.45.81ZM77.34,115.71c-.14-.23-.41-.35-.82-.35h-.83v2.82h.83c.43,0,.72-.21.89-.63.09-.23.14-.5.14-.82,0-.44-.07-.78-.21-1.01Z">
          <path class="st1" d="M82.63,114.61l-1.44,2.7v1.62h-.9v-1.62l-1.49-2.7h1.06l.9,1.88.86-1.88h1.02Z">
          <path class="st1" d="M86.64,118.92h-.9l-1.76-3.07v3.07h-.84v-4.32h.95l1.72,3.01v-3.01h.84v4.32Z">
          <path class="st1" d="M90.01,118.04h-1.59l-.3.89h-.94l1.54-4.32h1.02l1.53,4.32h-.98l-.28-.89ZM89.76,117.29l-.54-1.7-.56,1.7h1.1Z">
          <path class="st1" d="M92.64,118.92h-.84v-4.32h1.31l.79,3.4.78-3.4h1.3v4.32h-.84v-2.92c0-.08,0-.2,0-.35s0-.27,0-.35l-.82,3.62h-.88l-.81-3.62c0,.08,0,.2,0,.35s0,.27,0,.35v2.92Z">
          <path class="st1" d="M96.74,114.61h.9v4.32h-.9v-4.32Z">
          <path class="st1" d="M101.52,118.6c-.32.29-.73.44-1.24.44-.62,0-1.11-.2-1.46-.6-.36-.4-.53-.95-.53-1.65,0-.75.2-1.33.61-1.74.35-.36.8-.53,1.34-.53.73,0,1.26.24,1.59.71.19.27.29.54.3.81h-.9c-.06-.21-.13-.36-.23-.47-.16-.19-.41-.28-.73-.28s-.59.13-.78.4-.28.64-.28,1.12.1.85.3,1.09c.2.24.45.36.76.36s.56-.1.72-.31c.09-.11.17-.28.23-.5h.89c-.08.47-.28.85-.6,1.15Z">
          <path class="st1" d="M107.52,118.6c-.32.29-.73.44-1.24.44-.62,0-1.11-.2-1.46-.6-.36-.4-.53-.95-.53-1.65,0-.75.2-1.33.61-1.74.35-.36.8-.53,1.34-.53.73,0,1.26.24,1.59.71.19.27.29.54.3.81h-.9c-.06-.21-.13-.36-.23-.47-.16-.19-.41-.28-.73-.28s-.59.13-.78.4-.28.64-.28,1.12.1.85.3,1.09c.2.24.45.36.76.36s.56-.1.72-.31c.09-.11.17-.28.23-.5h.89c-.08.47-.28.85-.6,1.15Z">
          <path class="st1" d="M111.34,118.04h-1.59l-.3.89h-.94l1.54-4.32h1.02l1.53,4.32h-.98l-.28-.89ZM111.09,117.29l-.54-1.7-.56,1.7h1.1Z">
          <path class="st1" d="M114.71,118.3c.21,0,.39-.02.52-.07.25-.09.38-.26.38-.5,0-.14-.06-.25-.19-.33-.12-.08-.32-.14-.59-.2l-.46-.1c-.45-.1-.76-.21-.93-.33-.29-.2-.44-.51-.44-.93,0-.39.14-.71.42-.96s.69-.38,1.24-.38c.46,0,.84.12,1.16.36s.49.59.51,1.05h-.87c-.02-.26-.13-.44-.34-.55-.14-.07-.32-.11-.52-.11-.23,0-.42.05-.56.14s-.21.22-.21.39c0,.15.07.27.21.35.09.05.28.11.56.18l.74.18c.33.08.57.18.74.31.26.2.39.5.39.88s-.15.72-.45.98c-.3.26-.73.39-1.28.39s-1-.13-1.33-.38-.48-.61-.48-1.06h.86c.03.2.08.34.16.44.15.18.4.27.75.27Z">
          <path class="st1" d="M118.71,118.3c.21,0,.39-.02.52-.07.25-.09.38-.26.38-.5,0-.14-.06-.25-.19-.33-.12-.08-.32-.14-.59-.2l-.46-.1c-.45-.1-.76-.21-.93-.33-.29-.2-.44-.51-.44-.93,0-.39.14-.71.42-.96s.69-.38,1.24-.38c.46,0,.84.12,1.16.36s.49.59.51,1.05h-.87c-.02-.26-.13-.44-.34-.55-.14-.07-.32-.11-.52-.11-.23,0-.42.05-.56.14s-.21.22-.21.39c0,.15.07.27.21.35.09.05.28.11.56.18l.74.18c.33.08.57.18.74.31.26.2.39.5.39.88s-.15.72-.45.98c-.3.26-.73.39-1.28.39s-1-.13-1.33-.38-.48-.61-.48-1.06h.86c.03.2.08.34.16.44.15.18.4.27.75.27Z">
          <path class="st1" d="M124.15,117.04h-2.1v1.11h2.39v.78h-3.27v-4.32h3.17v.76h-2.29v.92h2.1v.75Z">
          <path class="st1" d="M128.29,114.61v.76h-1.29v3.55h-.91v-3.55h-1.3v-.76h3.5Z">
          <path class="st1" d="M131.95,114.61v.76h-1.29v3.55h-.91v-3.55h-1.3v-.76h3.5Z">
          <path class="st1" d="M135.49,117.04h-2.1v1.11h2.39v.78h-3.27v-4.32h3.17v.76h-2.29v.92h2.1v.75Z">
          <path class="st1" d="M138.15,114.61h.9v3.54h2.14v.78h-3.04v-4.32Z">
          <path class="st1" d="M143.72,119.04c-.62,0-1.09-.17-1.42-.5-.44-.41-.66-1.01-.66-1.78s.22-1.38.66-1.78c.33-.34.8-.5,1.42-.5s1.09.17,1.42.5c.44.4.65.99.65,1.78s-.22,1.37-.65,1.78c-.33.34-.8.5-1.42.5ZM144.58,117.88c.21-.26.31-.64.31-1.12s-.1-.86-.31-1.12c-.21-.26-.49-.4-.85-.4s-.64.13-.86.4-.32.64-.32,1.12.11.86.32,1.12.5.4.86.4.64-.13.85-.4Z">
          <path class="st1" d="M150.68,114.61h.92l-1.22,4.32h-.86l-.52-2.53-.15-.83-.15.83-.52,2.53h-.84l-1.22-4.32h.96l.57,2.47.12.69.13-.67.49-2.49h.95l.51,2.47.13.69.13-.66.58-2.5Z">
          <path class="st1" d="M157.3,118.92h-.9l-1.76-3.07v3.07h-.84v-4.32h.95l1.72,3.01v-3.01h.84v4.32Z">
          <path class="st1" d="M160.05,119.04c-.62,0-1.09-.17-1.42-.5-.44-.41-.66-1.01-.66-1.78s.22-1.38.66-1.78c.33-.34.8-.5,1.42-.5s1.09.17,1.41.5c.44.4.65.99.65,1.78s-.22,1.37-.65,1.78c-.33.34-.8.5-1.41.5ZM160.91,117.88c.21-.26.31-.64.31-1.12s-.11-.86-.32-1.12c-.21-.26-.49-.4-.85-.4s-.64.13-.86.4-.32.64-.32,1.12.11.86.32,1.12.5.4.86.4.64-.13.85-.4Z">
          <path class="st1" d="M162.74,114.61h.9v4.32h-.9v-4.32Z">
          <path class="st1" d="M166.04,118.3c.21,0,.39-.02.52-.07.25-.09.38-.26.38-.5,0-.14-.06-.25-.19-.33-.12-.08-.32-.14-.59-.2l-.46-.1c-.45-.1-.76-.21-.93-.33-.29-.2-.44-.51-.44-.93,0-.39.14-.71.42-.96s.7-.38,1.24-.38c.46,0,.84.12,1.16.36s.49.59.51,1.05h-.87c-.02-.26-.13-.44-.34-.55-.14-.07-.32-.11-.53-.11-.23,0-.42.05-.56.14s-.21.22-.21.39c0,.15.07.27.21.35.09.05.28.11.56.18l.74.18c.33.08.57.18.74.31.26.2.39.5.39.88s-.15.72-.45.98c-.3.26-.73.39-1.28.39s-1-.13-1.33-.38-.48-.61-.48-1.06h.86c.03.2.08.34.16.44.15.18.4.27.75.27Z">
          <path class="st1" d="M171.49,117.04h-2.1v1.11h2.39v.78h-3.27v-4.32h3.17v.76h-2.29v.92h2.1v.75Z">
          <path class="st1" d="M176.72,118.92v-1.93h-1.69v1.93h-.89v-4.32h.89v1.65h1.69v-1.65h.9v4.32h-.9Z">
          <path class="st1" d="M178.41,114.61h.9v4.32h-.9v-4.32Z">
          <path class="st1" d="M182.8,118.82c-.24.15-.53.22-.88.22-.57,0-1.04-.2-1.41-.59-.38-.4-.57-.94-.57-1.63s.19-1.26.58-1.68.89-.63,1.53-.63c.55,0,.99.14,1.32.42.33.28.52.62.57,1.04h-.89c-.07-.29-.24-.5-.5-.62-.15-.06-.31-.1-.49-.1-.35,0-.63.13-.86.39s-.34.66-.34,1.18.12.91.36,1.13.52.33.83.33.55-.09.74-.26c.19-.17.31-.4.36-.69h-1v-.72h1.8v2.32h-.6l-.09-.54c-.17.21-.33.35-.47.43Z">
          <path class="st1" d="M187.39,118.92v-1.93h-1.69v1.93h-.89v-4.32h.89v1.65h1.69v-1.65h.9v4.32h-.9Z">
          <path class="st1" d="M192.73,119.04c-.62,0-1.09-.17-1.42-.5-.44-.41-.66-1.01-.66-1.78s.22-1.38.66-1.78c.33-.34.8-.5,1.42-.5s1.09.17,1.41.5c.44.4.65.99.65,1.78s-.22,1.37-.65,1.78c-.33.34-.8.5-1.41.5ZM193.58,117.88c.21-.26.31-.64.31-1.12s-.11-.86-.32-1.12c-.21-.26-.49-.4-.85-.4s-.64.13-.86.4-.32.64-.32,1.12.11.86.32,1.12.5.4.86.4.64-.13.85-.4Z">
          <path class="st1" d="M198.04,117.26v-2.65h.92v2.65c0,.46-.07.82-.21,1.07-.27.47-.77.7-1.52.7s-1.26-.23-1.52-.7c-.14-.26-.21-.61-.21-1.07v-2.65h.92v2.65c0,.3.04.51.11.65.11.24.35.36.71.36s.6-.12.71-.36c.07-.14.11-.35.11-.65Z">
          <path class="st1" d="M202.95,114.61v.76h-1.29v3.55h-.91v-3.55h-1.3v-.76h3.5Z">
          <path class="st1" d="M205.31,117.37h-.92v1.55h-.9v-4.32h1.88c.43,0,.78.11,1.04.33s.39.57.39,1.03c0,.51-.13.87-.39,1.08s-.63.32-1.11.32ZM205.74,116.47c.12-.1.18-.27.18-.49s-.06-.38-.18-.48-.28-.14-.5-.14h-.84v1.27h.84c.21,0,.38-.05.5-.16Z">
          <path class="st1" d="M210.04,117.26v-2.65h.92v2.65c0,.46-.07.82-.21,1.07-.27.47-.77.7-1.52.7s-1.26-.23-1.52-.7c-.14-.26-.21-.61-.21-1.07v-2.65h.92v2.65c0,.3.04.51.11.65.11.24.35.36.71.36s.6-.12.71-.36c.07-.14.11-.35.11-.65Z">
          <path class="st1" d="M214.95,114.61v.76h-1.29v3.55h-.91v-3.55h-1.3v-.76h3.5Z">
        </g>
      </g>
    </g>
  </g>
  <g class="st2">
    <g class="st2">
      <g class="st2">
        <g class="st2">
          <path class="st1" d="M26.47,112.4h1.32l3.12,8.61h-1.28l-.87-2.58h-3.4l-.93,2.58h-1.2l3.24-8.61ZM28.39,117.48l-1.31-3.8-1.39,3.8h2.7Z">
          <path class="st1" d="M32.39,114.81h1.22v1.28h-1.22v-1.28ZM32.39,119.73h1.22v1.28h-1.22v-1.28Z">
        </g>
      </g>
    </g>
  </g>
  <g class="st2">
    <g class="st2">
      <g class="st2">
        <g class="st2">
          <path class="st1" d="M95.13,45.45v4.64h-1.02v-4.64h1.02Z">
          <path class="st1" d="M99.5,45.45v.86h-2.45v1h2.25v.79h-2.25v1.14h2.5v.86h-3.52v-4.64h3.47Z">
          <path class="st1" d="M103.22,46.69c-.06-.1-.14-.18-.23-.26-.09-.07-.19-.13-.31-.17-.11-.04-.23-.06-.36-.06-.23,0-.42.04-.58.13-.16.09-.29.21-.39.36-.1.15-.17.32-.22.51-.05.19-.07.39-.07.59s.02.38.07.57c.05.18.12.35.22.5.1.15.23.27.39.35.16.09.36.13.58.13.31,0,.56-.1.73-.29.18-.19.28-.44.32-.75h.99c-.03.29-.09.55-.2.79-.11.23-.25.43-.43.6-.18.17-.39.29-.62.38-.24.09-.5.13-.79.13-.35,0-.67-.06-.96-.18-.28-.12-.52-.29-.72-.51s-.34-.47-.45-.76c-.1-.29-.16-.61-.16-.95s.05-.67.16-.97.25-.56.45-.78.43-.39.72-.52c.28-.12.6-.19.96-.19.26,0,.5.04.73.11.23.07.43.18.61.32s.33.32.45.52c.12.21.19.45.22.71h-.99c-.02-.12-.06-.22-.12-.32Z">
          <path class="st1" d="M106.08,45.45v4.64h-1.02v-4.64h1.02Z">
          <path class="st1" d="M109.01,45.34l-1.81,4.86h-.73l1.81-4.86h.74Z">
          <path class="st1" d="M109.02,46.31v-.86h3.8v.86h-1.39v3.78h-1.02v-3.78h-1.39Z">
          <path class="st1" d="M112.86,45.45h1.14l1.09,1.83,1.08-1.83h1.14l-1.72,2.86v1.78h-1.02v-1.81l-1.7-2.83Z">
          <path class="st1" d="M119.79,45.45c.29,0,.54.04.74.13.2.08.37.2.5.33s.22.3.28.47c.06.18.09.36.09.55s-.03.37-.09.55c-.06.18-.15.34-.28.48-.13.14-.29.25-.5.33-.2.08-.45.13-.74.13h-1.07v1.66h-1.02v-4.64h2.09ZM119.51,47.64c.12,0,.23,0,.34-.03.11-.02.2-.05.29-.1.08-.05.15-.12.2-.21.05-.09.07-.21.07-.36s-.03-.27-.07-.36c-.05-.09-.12-.16-.2-.21-.08-.05-.18-.08-.29-.1-.11-.02-.22-.03-.34-.03h-.79v1.39h.79Z">
          <path class="st1" d="M125.5,45.45v.86h-2.45v1h2.25v.79h-2.25v1.14h2.5v.86h-3.52v-4.64h3.47Z">
          <path class="st1" d="M127.42,50.09v-2.95h-1.14v-.7c.16,0,.32,0,.46-.04.15-.03.28-.08.4-.15.12-.07.22-.17.3-.28.08-.12.14-.26.16-.44h.73v4.55h-.92Z">
          <path class="st1" d="M132.68,45.45l1.94,3.11h.01v-3.11h.96v4.64h-1.02l-1.93-3.11h-.01v3.11h-.96v-4.64h1.01Z">
          <path class="st1" d="M136.43,46.83c.1-.3.25-.56.45-.78s.43-.39.72-.52c.28-.12.6-.19.96-.19s.68.06.96.19c.28.13.52.3.71.52s.34.48.45.78.16.62.16.97-.05.65-.16.95c-.1.29-.25.55-.45.76s-.43.39-.71.51c-.28.12-.6.18-.96.18s-.67-.06-.96-.18c-.28-.12-.52-.29-.72-.51s-.34-.47-.45-.76c-.1-.29-.16-.61-.16-.95s.05-.67.16-.97ZM137.37,48.36c.05.18.12.35.22.5.1.15.23.27.39.35.16.09.36.13.58.13s.42-.04.58-.13c.16-.09.29-.21.39-.35.1-.15.17-.31.22-.5.05-.18.07-.37.07-.57,0-.2-.02-.4-.07-.59s-.12-.36-.22-.51c-.1-.15-.23-.27-.39-.36-.16-.09-.35-.13-.58-.13s-.42.04-.58.13c-.16.09-.29.21-.39.36-.1.15-.17.32-.22.51-.05.19-.07.39-.07.59s.02.38.07.57Z">
          <path class="st1" d="M144.04,45.45c.21,0,.4.03.56.1s.31.16.43.28c.12.12.21.25.27.41.06.15.09.32.09.5,0,.27-.06.51-.17.71-.11.2-.3.35-.56.46h0c.13.05.23.1.31.17.08.07.15.16.2.25.05.1.09.21.11.32s.04.23.05.35c0,.07,0,.16.01.26,0,.1.01.2.02.31.01.1.03.2.05.3.02.09.06.17.11.24h-1.02c-.06-.15-.09-.32-.1-.53-.01-.2-.03-.4-.06-.58-.04-.24-.11-.42-.22-.53s-.3-.17-.55-.17h-1.02v1.81h-1.02v-4.64h2.5ZM143.68,47.55c.23,0,.41-.05.53-.16.12-.1.18-.27.18-.51s-.06-.39-.18-.49c-.12-.1-.29-.15-.53-.15h-1.12v1.31h1.12Z">
          <path class="st1" d="M147.67,45.45l1.09,3.19h.01l1.03-3.19h1.44v4.64h-.96v-3.29h-.01l-1.14,3.29h-.79l-1.14-3.26h-.01v3.26h-.96v-4.64h1.44Z">
          <path class="st1" d="M154.44,45.45l1.74,4.64h-1.06l-.35-1.03h-1.74l-.36,1.03h-1.03l1.75-4.64h1.05ZM154.5,48.3l-.58-1.7h-.01l-.6,1.7h1.2Z">
          <path class="st1" d="M157.6,45.45v3.78h2.26v.86h-3.28v-4.64h1.02Z">
          <path class="st1" d="M164.33,45.45c.29,0,.54.04.74.13.2.08.37.2.5.33s.22.3.28.47c.06.18.09.36.09.55s-.03.37-.09.55c-.06.18-.15.34-.28.48-.13.14-.29.25-.5.33-.2.08-.45.13-.74.13h-1.07v1.66h-1.02v-4.64h2.09ZM164.05,47.64c.12,0,.23,0,.34-.03.11-.02.2-.05.29-.1s.15-.12.2-.21.08-.21.08-.36-.03-.27-.08-.36-.12-.16-.2-.21c-.08-.05-.18-.08-.29-.1-.11-.02-.22-.03-.34-.03h-.79v1.39h.79Z">
          <path class="st1" d="M166.53,46.83c.1-.3.25-.56.45-.78.2-.22.43-.39.72-.52.28-.12.6-.19.96-.19s.68.06.96.19c.28.13.52.3.71.52.19.22.34.48.45.78.1.3.16.62.16.97s-.05.65-.16.95c-.1.29-.25.55-.45.76-.2.22-.43.39-.71.51-.28.12-.6.18-.96.18s-.67-.06-.96-.18c-.28-.12-.52-.29-.72-.51-.19-.22-.34-.47-.45-.76-.1-.29-.16-.61-.16-.95s.05-.67.16-.97ZM167.46,48.36c.05.18.12.35.22.5.1.15.23.27.39.35.16.09.36.13.58.13s.42-.04.58-.13c.16-.09.29-.21.39-.35.1-.15.17-.31.22-.5.04-.18.07-.37.07-.57,0-.2-.02-.4-.07-.59-.05-.19-.12-.36-.22-.51-.1-.15-.23-.27-.39-.36-.16-.09-.35-.13-.58-.13s-.42.04-.58.13c-.16.09-.29.21-.39.36-.1.15-.17.32-.22.51s-.07.39-.07.59.02.38.07.57Z">
          <path class="st1" d="M172.41,48.95c.06.11.13.2.22.26.09.07.2.12.33.15s.26.05.39.05c.09,0,.19,0,.29-.02.1-.02.2-.04.29-.09.09-.04.17-.1.23-.18s.09-.17.09-.29c0-.13-.04-.23-.12-.31s-.18-.14-.31-.2c-.13-.05-.28-.1-.44-.14-.17-.04-.33-.08-.5-.13-.17-.04-.34-.1-.51-.16-.16-.06-.31-.14-.44-.24s-.24-.22-.32-.37-.12-.33-.12-.54c0-.24.05-.45.15-.62.1-.18.24-.32.4-.44.17-.12.35-.2.56-.26s.42-.08.62-.08c.24,0,.48.03.7.08.22.05.42.14.59.26.17.12.31.28.41.46s.15.42.15.69h-.99c0-.14-.04-.25-.09-.34-.05-.09-.12-.16-.2-.21s-.18-.09-.28-.11c-.11-.02-.22-.03-.35-.03-.08,0-.16,0-.25.03-.08.02-.16.05-.22.09-.07.04-.12.1-.17.16-.04.06-.07.15-.07.25,0,.09.02.16.05.22.03.06.1.11.2.16.1.05.24.09.42.14s.42.11.71.18c.09.02.21.05.36.09.15.05.31.12.46.22.15.1.28.23.39.4.11.17.17.38.17.64,0,.21-.04.41-.12.59-.08.18-.21.34-.37.47-.16.13-.36.24-.6.31-.24.07-.52.11-.84.11-.25,0-.5-.03-.74-.09-.24-.06-.45-.16-.64-.3-.18-.13-.33-.31-.44-.51s-.16-.46-.16-.74h.99c0,.16.03.29.08.4Z">
          <path class="st1" d="M176.87,45.45v4.64h-1.02v-4.64h1.02Z">
          <path class="st1" d="M177.4,46.31v-.86h3.8v.86h-1.39v3.78h-1.02v-3.78h-1.39Z">
          <path class="st1" d="M182.76,45.45v4.64h-1.02v-4.64h1.02Z">
          <path class="st1" d="M183.61,46.83c.1-.3.25-.56.45-.78.19-.22.43-.39.72-.52.28-.12.6-.19.96-.19s.68.06.96.19c.28.13.52.3.71.52.2.22.34.48.45.78.1.3.16.62.16.97s-.05.65-.16.95c-.1.29-.25.55-.45.76-.19.22-.43.39-.71.51-.28.12-.6.18-.96.18s-.67-.06-.96-.18c-.28-.12-.52-.29-.72-.51-.2-.22-.34-.47-.45-.76-.1-.29-.16-.61-.16-.95s.05-.67.16-.97ZM184.54,48.36c.04.18.12.35.22.5.1.15.23.27.39.35s.36.13.58.13.42-.04.58-.13.29-.21.39-.35c.1-.15.17-.31.22-.5.05-.18.07-.37.07-.57,0-.2-.02-.4-.07-.59-.04-.19-.12-.36-.22-.51-.1-.15-.23-.27-.39-.36s-.36-.13-.58-.13-.42.04-.58.13-.29.21-.39.36c-.1.15-.17.32-.22.51-.05.19-.07.39-.07.59s.02.38.07.57Z">
          <path class="st1" d="M189.73,45.45l1.94,3.11h.01v-3.11h.96v4.64h-1.02l-1.93-3.11h-.01v3.11h-.96v-4.64h1.01Z">
        </g>
      </g>
    </g>
  </g>
  <g class="st2">
    <g class="st2">
      <g class="st2">
        <g class="st2">
          <path class="st1" d="M112.03,32.94v1.66h-2.8v7.7h-1.97v-7.7h-2.81v-1.66h7.58Z">
          <path class="st1" d="M117.21,42.29h-4.03v-9.36h4.03c.58,0,1.06.08,1.45.2.66.22,1.19.61,1.59,1.19.33.47.55.97.67,1.51.12.54.18,1.06.18,1.55,0,1.24-.25,2.3-.75,3.16-.68,1.16-1.72,1.75-3.14,1.75ZM118.66,35.33c-.3-.51-.9-.76-1.78-.76h-1.8v6.11h1.8c.92,0,1.57-.46,1.93-1.37.2-.5.3-1.09.3-1.78,0-.95-.15-1.68-.44-2.2Z">
          <path class="st1" d="M130.85,42.29h-2.51l-2.89-4.09-.93.96v3.13h-1.92v-9.36h1.92v3.85l3.61-3.85h2.53l-3.83,3.85,4.03,5.5Z">
        </g>
      </g>
    </g>
  </g>
  <g>
    <g>
      <polyline class="st3" points="101.18 33.08 99.24 35.01 97.28 33.08">
      <g>
        <rect class="st0" x="97.28" y="33.08" width="3.91" height="3.89">
        <polyline class="st3" points="101.18 36.97 99.24 35.01 97.28 36.97">
      </g>
    </g>
    <g>
      <polyline class="st3" points="101.18 36.97 101.89 39.62 99.24 40.35">
      <g>
        <rect class="st0" x="99.94" y="37.69" width="3.91" height="3.89" transform="translate(16.62 108.07) rotate(-60)">
        <polyline class="st3" points="102.6 42.29 101.89 39.62 104.56 38.9 101.18 36.97 101.18 33.08 104.56 38.9">
      </g>
    </g>
    <polyline class="st3" points="95.86 42.29 96.57 39.62 93.9 38.9 97.28 36.97 97.28 33.08 93.9 38.9">
    <polyline points="97.28 36.97 96.57 39.62 99.24 40.35">
    <polyline class="st3" points="99.24 40.35 95.86 42.29 102.6 42.29">
  </g>
  <g>
    <g>
      <path class="st0" d="M228.62,28.2c-1.42-1.32-3.34-1.29-4.05-1.28-2.08.03-3.55,1-4.11,1.41-4.27,6.02-8.55,12.04-12.82,18.06-.08.18-.24.62-.06,1.06.14.34.44.58.94.77,1.75.68,4.09.17,4.09.17,2.47-.54,4.23-1.41,4.39-1.49,2.77-1.4,5.19-2.63,7.84-5.2,2.51-2.43,5.18-5.03,5.32-8.77.03-.82.12-3.19-1.53-4.73,0,0,0,0,0,0Z">
      <g>
        <g>
          <path class="st1" d="M257.58,33.87c-1.6-1.39-5.93.98-9.68,5.29s-5.49,8.93-3.89,10.32,5.93-.98,9.68-5.29c3.75-4.31,5.49-8.93,3.89-10.32h0ZM252.51,42.79c-3.04,4.01-6.23,6.72-7.13,6.04s.84-4.49,3.87-8.5c3.04-4.01,6.23-6.72,7.13-6.04.9.68-.84,4.49-3.87,8.5h0Z">
          <path class="st1" d="M245.22,49.91c-.5,0-.92-.13-1.23-.4-.79-.68-.81-2.14-.07-4.11.74-1.95,2.14-4.18,3.96-6.27,3.76-4.32,8.12-6.69,9.74-5.29.79.68.81,2.14.07,4.11-.74,1.95-2.14,4.18-3.96,6.27-3.03,3.48-6.45,5.7-8.51,5.7ZM256.37,33.51c-2.03,0-5.42,2.21-8.43,5.67-1.81,2.08-3.21,4.3-3.94,6.24-.73,1.93-.71,3.36.05,4.02,1.58,1.38,5.9-1,9.62-5.29,1.81-2.08,3.21-4.3,3.94-6.24.73-1.93.71-3.36-.05-4.02h0c-.3-.26-.71-.39-1.19-.39ZM245.73,48.98c-.15,0-.27-.04-.38-.11-.45-.34-.29-1.42.45-3.05.73-1.61,1.94-3.56,3.41-5.51,2.77-3.65,5.58-6.16,6.81-6.16.15,0,.27.04.37.11.45.34.29,1.42-.45,3.05-.73,1.61-1.94,3.56-3.41,5.51h0c-2.77,3.65-5.58,6.16-6.81,6.16ZM256.03,34.23c-1.08,0-3.73,2.13-6.76,6.12-1.47,1.94-2.67,3.89-3.41,5.49-.71,1.56-.89,2.64-.47,2.95.08.06.19.09.32.09,1.08,0,3.73-2.13,6.76-6.12,1.47-1.94,2.67-3.89,3.41-5.49.71-1.56.89-2.64.47-2.95-.08-.06-.19-.09-.32-.09Z">
        </g>
        <path class="st0" d="M256.38,34.29c-.9-.68-4.09,2.02-7.13,6.04-3.04,4.01-4.77,7.82-3.87,8.5s4.09-2.02,7.13-6.04c3.04-4.01,4.77-7.82,3.87-8.5Z">
      </g>
    </g>
    <g>
      <path class="st1" d="M228.57,51.76c.32-.05.76-.13,1.29-.26.58-.14,2.38-.6,5.32-2.18,2.25-1.22,3.93-2.42,4.86-3.13,2.12-1.62,3.54-3.06,4.22-3.79.49-.52,1.48-1.61,2.44-3.16.17-.27.75-1.22,1.12-2.56.27-.99.23-1.45.11-1.81-.04-.14-.29-.91-1.01-1.26-.17-.08-.4-.16-1.01-.17-.59,0-1.43-.02-2.5.34-.62.21-1.16.5-1.87.98-.36.24-1.77,1.17-3.39,2.96-.64.71-1.16,1.38-1.64,2.13-.93,1.46-.96,2.09-.92,2.5.02.18.09.83.52,1.24.74.7,2.41.53,3.99-.63.04-.04.09-.09.08-.14-.02-.06-.17-.07-.27-.07-.41,0-.65.03-.81.04-.29,0-.66-.1-.83-.29-.31-.34-.11-1.01.07-1.49.64-1.73,1.67-3.02,2.18-3.61.65-.76,1.35-1.57,2.53-2.34.51-.33.96-.56,1.3-.71.07-.03.18-.08.32-.1.04,0,.41-.05.67.11.13.08.32.27.37.83.1.95-.3,1.87-.57,2.44-.7,1.48-1.43,2.5-1.69,2.86-.57.78-1.05,1.31-1.46,1.77-.94,1.04-1.72,1.75-2.49,2.44-.85.76-1.45,1.31-2.36,1.97-.65.48-1.25.84-2.45,1.58-1.04.63-1.68,1.03-2.62,1.51-1.09.57-1.82.87-2.36,1.07-.36.13-.66.24-.88.31-.03,0-.16,0-.28.1-.02.02-.12.11-.13.26,0,.17.09.28.1.3l.05-.04h0Z">
      <path class="st1" d="M228.51,51.87l-.03-.05s-.1-.15-.1-.31c0-.11.05-.2.14-.28h0c.06-.06.16-.11.3-.12.19-.06.44-.15.74-.26l.14-.05c.46-.17,1.21-.47,2.36-1.07.83-.43,1.44-.79,2.28-1.3l.7-.43c.97-.6,1.5-.93,2.08-1.35.84-.61,1.43-1.14,2.17-1.8l.19-.17c.82-.73,1.57-1.42,2.49-2.44l.06-.07c.4-.45.86-.96,1.4-1.7.24-.34.98-1.36,1.69-2.85.31-.66.66-1.53.57-2.42-.04-.41-.15-.68-.35-.8-.15-.09-.36-.13-.62-.11-.01,0-.02,0-.03,0-.12.02-.22.06-.29.09h-.01c-.29.13-.75.36-1.29.71-1.19.78-1.9,1.6-2.52,2.33-.96,1.11-1.71,2.36-2.17,3.6-.17.47-.37,1.13-.08,1.45.16.18.53.28.8.28.04,0,.08,0,.13,0,.16-.01.37-.03.68-.03.25,0,.29.06.31.1.02.07-.04.13-.08.18h0c-1.51,1.12-3.25,1.39-4.04.64-.29-.28-.47-.7-.53-1.26-.05-.47.03-1.13.92-2.53.47-.74.99-1.41,1.65-2.14,1.07-1.18,2.21-2.17,3.39-2.96h.01c.73-.5,1.28-.79,1.88-.99,1.09-.37,1.94-.35,2.51-.34.63.01.86.1,1.03.17.73.36.99,1.13,1.03,1.29.11.33.18.79-.11,1.83-.34,1.21-.85,2.13-1.12,2.57-.7,1.12-1.5,2.16-2.45,3.17-.83.9-2.25,2.28-4.22,3.79-1.02.78-2.69,1.96-4.87,3.13-1.39.74-3.43,1.73-5.33,2.18-.43.11-.86.19-1.28.26l-.08.06ZM228.83,51.19c-.12,0-.21.05-.25.09-.03.03-.11.11-.12.23,0,.11.04.19.07.24l.02-.02h.01c.42-.07.85-.16,1.29-.26,1.89-.45,3.93-1.43,5.31-2.18,2.17-1.18,3.84-2.35,4.85-3.13,1.98-1.51,3.38-2.89,4.21-3.79.95-1,1.74-2.04,2.44-3.15.27-.44.78-1.34,1.12-2.55.28-1.02.22-1.46.11-1.79-.04-.15-.29-.9-.99-1.24-.16-.08-.38-.16-.99-.17-.56-.01-1.41-.02-2.49.34-.59.2-1.13.48-1.86.98h-.01c-1.17.79-2.31,1.78-3.37,2.95-.65.72-1.17,1.39-1.64,2.12-.88,1.39-.96,2.03-.91,2.47.06.55.23.95.51,1.22.77.72,2.46.45,3.94-.63.03-.03.07-.07.06-.1,0,0-.05-.04-.23-.04-.31,0-.52.02-.68.03-.05,0-.09,0-.13,0h0c-.29,0-.68-.1-.86-.3-.32-.36-.12-1.04.06-1.53.46-1.25,1.22-2.5,2.19-3.62.63-.73,1.34-1.56,2.54-2.35.55-.36,1.02-.59,1.31-.71h.01c.07-.04.18-.08.32-.1,0,0,.02,0,.03,0,.1,0,.43-.03.67.12.22.13.35.42.39.86.1.91-.26,1.79-.57,2.46-.71,1.5-1.45,2.53-1.69,2.87-.54.74-1,1.26-1.4,1.71l-.06.07c-.92,1.02-1.68,1.71-2.49,2.44l-.19.17c-.75.67-1.33,1.19-2.18,1.81-.58.43-1.12.76-2.09,1.36l-.7.43c-.84.51-1.45.88-2.28,1.31-1.15.6-1.9.9-2.37,1.07l-.14.05c-.3.11-.55.2-.74.26h-.01Z">
    </g>
  </g>
  <path class="st1" d="M218.45,49.6h-6.62l.5-.85c.65,0,1.18-.05,1.57-.16.39-.11.74-.33,1.05-.68.31-.34.66-.85,1.05-1.52l6.18-10.31c.38-.62.58-1.07.61-1.37.03-.29-.1-.48-.4-.58-.29-.09-.75-.14-1.38-.14l.55-.88h6.92c1.28,0,2.37.13,3.26.4s1.56.67,2.03,1.2c.47.54.71,1.2.74,2.01.02.8-.19,1.75-.65,2.83-.76,1.81-1.69,3.35-2.8,4.63-1.1,1.28-2.33,2.32-3.68,3.11-1.35.79-2.78,1.38-4.29,1.74-1.5.37-3.06.55-4.66.55l.02.02h0ZM218.93,48.47c1.79,0,3.42-.29,4.88-.87s2.77-1.5,3.93-2.77,2.16-2.93,3.01-4.97c.34-.82.55-1.57.65-2.24.09-.68.02-1.27-.21-1.77-.23-.5-.67-.89-1.32-1.18-.65-.28-1.55-.43-2.71-.43-.19,0-.36,0-.51,0-.15,0-.35.03-.61.06l-8.53,14.09c.2.03.43.05.67.05h.77l-.02.02h0Z">
  <rect class="st1" x="256.22" y="85.03" width=".25" height="63.73" transform="translate(-5.83 220.05) rotate(-45.99)">
  <rect class="st1" x="260.21" y="155.3" width="28.73" height=".25" transform="translate(25.73 349.4) rotate(-67.45)">
  <rect class="st1" x="14.71" y="141.12" width=".25" height="28.76" transform="translate(-58.29 17.47) rotate(-22.46)">
  <polygon class="st1" points="9.27 141.18 9.02 141.17 13.66 76.95 13.91 76.96 9.27 141.18">
</svg>