<?xml version="1.0" encoding="UTF-8"?>
<svg xmlns="http://www.w3.org/2000/svg" version="1.1" viewBox="0 0 392.22 299.67">
  <!-- Generator: Adobe Illustrator 30.0.0, SVG Export Plug-In . SVG Version: 2.1.1 Build 123)  -->
  <defs>
    <style>
      .st0 {
        fill: #1d1d1b;
      }

      .st1, .st2 {
        isolation: isolate;
      }

      .st2 {
        mix-blend-mode: hard-light;
        opacity: .2;
      }
    </style>
  </defs>
  <g class="st1">
    <g id="Ebene_1">
      <g class="st1">
        <g id="Ebene_11">
          <g>
            <path class="st0" d="M278.95,277.56c-15.32-11.57-23.62-9.36-42.74-27.9l-.07.08c-2.33-3.46-23.72-22.53-27.47-23.49-3.78-1.83-17.41-8.77-17.41-8.77.55.32,3.45,13.84-2.33,23.02,2.93-1.18,3.03-.15,7.48-5.51-.53,6.73,2.76,10.33,8.33,13.84-8.3-3.16-13.28-4.81-18.34-2.44,3.97,2.49,48,18.69,61.23,31.94,7.94,7.61,19.94,19.1,32.3,19.68,13.4.75,9.14-13.57-.98-20.44h0Z"/>
            <path class="st0" d="M77.69,250.51c-7.16,18.85-17.62-9.36-31.92,1.26-.03.07-2.98,6.51-21.65,8.72-3.61.39-4.68,6.45-1.06,7.9,2.8,1.17,37.74,1.17,47.08.77.66.3,12.68-.62,11.94-6.37.06-.55-.6-9.98-4.38-12.27h-.01Z"/>
            <path class="st0" d="M50.68,244.91l.23.37c.82,0,9.61,1.28,16.56,8.09,19.55.74-8.98-19.36-12.3-30.06-.41-.95-8.77-19.93-18.55-18.63-.16-.27-14.73-.31-22.51,9.96,1.67,1.1,29.12,18.84,36.58,30.27h-.01Z"/>
            <path class="st0" d="M30.76,202.04c-.77-1.12-3.72-2.36-4.22-2.31-19.93,2.08-19.82,5.05-15.8,13.14,3.23-6.24,18.7-10.31,20.01-10.82h.01Z"/>
            <path class="st0" d="M90.28,209.82c-4.54-2.87-17.5-25.17-19.82-30.09-11.13-20.39-93.07-14.97-64.21,23.75,5.84-5.48,19.4-6.4,20.2-6.38-.47-3.1-2.36-3.69-6.18-6.4,27.97,12.98,41.41,30.46,64.16,23.67-13.14-1.92-14.22-1.5-27.83-10.4,7.21,2.63,40.54,12.75,33.69,5.86h-.01Z"/>
            <path class="st0" d="M80.66,42.49c4.86,1.04,7.67-.51,8.8-2.8-.08,2.13-.26,4.53-.42,6.68,7.74-4.8,4.46-12.03,15.45-15.27-4.41-8.34-24.89-3.87-27.52-.16-.55,3.62-.79,9.23,3.69,11.55h0Z"/>
            <path class="st0" d="M94.48,53.52c8.29,7.32-2.19-11.79,19.19-18.93-6.27,1.02-18.62,23.43-7.61,23.7,1.81.04,2.47-3.44,2.5-4.02.61-12.55,7.99-15.99,15.35-18.07-12.95-9.21-30.61-4.8-29.42,17.32h-.01Z"/>
            <path class="st0" d="M221.67,141.76l1.29.47c-.93-5.62,2.96-14.24,3.44-15.08-2.89-.63-11.11-5.52-13.84-2.94-8.76,8.15,7.07,17.6,9.1,17.54h0Z"/>
            <path class="st0" d="M179.17,208.15c.09,2.58.12,5.54-.18,8.36-1.41-9.96-28.24-34.98-42.1-35.55h.02c-.97-26.34-30.22-20.54-35.77,18.03,1.23.69,19.98,11.25,39.48,20.01-7.45-1.44-27.61-6.07-27.61-6.07,6.72,2.22,38.55,25.18,61.34,14.82-.42,3.3-7.29,5.86-13.89,5.4,28.87,20.52,37.38-15.88,18.71-25.01h0Z"/>
            <path class="st0" d="M138.6,72.36c-1.64,5.07-5.04,8.47-11.45,8.47-10.19,0-12.78-8.59-12.78-18.77s2.59-18.77,12.78-18.77c6.42,0,9.81,3.41,11.45,8.47h4.06c-1.97-7.38-6.62-12.41-15.51-12.41-12.62,0-16.71,10.09-16.71,22.7s4.08,22.7,16.71,22.7c8.9,0,13.54-5.03,15.51-12.41h-4.06v.02Z"/>
            <path class="st0" d="M141.99,109.66c-1.57,1.57-9.93,3.3-13.64,15.43"/>
            <g>
              <path class="st0" d="M68.87,41.82c2.43,2.16,6.35,2.01,8.74,1.35-6.32-4.97-2.17-14.95-1.93-16.14-6.87,1.35-11.7,6.58-6.8,14.79h0Z"/>
              <path class="st0" d="M209.84,121.66c-5.27-.23-11.35-2.15-11.21-2.28-10.44-3.43-24.98-3.6-32.01-6.89-6.55-2.62-8.1-5.49-16.35-4.4,6.35-4.21-7.09-6.99-10.69-5.98,11.14-5.91-11.73-11.28-11.98-10.52l-.64-.06c-11.23,20.6-28.71,11.99-34.61,3.54-7.3-10.45-6.99-22.89-6.99-22.89-8.5-1.9-13-6.85-19.17-6.4-10.6-7.19-13.04-5.96-13.97-4.74v-.19c-2.09,1.06-6.81,5.15-15.88,3.41,4.41-.2,12.17-2.86,16.8-7.29-3.68.11-5.43.77-12.33-.52,7.51.99,19.9-5.64,26.66-8.97-2.22-1.15-3.53-1.83-8.32-4.3l10.1,1.84c-5.16-3.45-4.97-9.85-3.86-15.44-25.29,12.87-67.38,15.02-22.08,52.46,1.3.46,14.27,13.8,15.72,21.41.96-1.97-3.2-14.36.04-23.48l1.93,11.6c1.55-1.2,5.59-2.98,7.74-7.75-23.46,49.73,12.94,116.39,31.09,129.7h3.84c-10.25-6.53-5.01-28.62-4.55-28.85,11.33-27.66,29.65-24.66,29.65-24.66-5.18-14.42-15.94-6.28-27.6-5.67,14.13-5.66,26.02-9.92,29.11-18.58-8.86,6.91-20.63,6.46-26.45,1.61,24.51,1.1,16.26-22.21,38.15-27.71l-13.64,15.43c5.21-2.62,8.15-3.52,16.1-6.21-7.75,6.37-9.54,8.37-11.49,10.28,6.83,2.24,16.93-3.62,23.78-6.26-4.94,3.68-8.12,5.4-8.12,5.4-22.21,9.62,8.54,11.48,17.77,1.41-2.51,5-2.34,5.91-2.84,8.12,4.21-.5,6.89-3.83,12.25-7.67-3.83,7.45-3.52,8.08-2.26,9.8,6.32-4.25,10.62-7.61,19.9-8.05-5.85,1.74-10.84,3.33-12.69,7.23,6.24.48,25.05-1.31,27.82-3.48-2.93-5.8.7-12.74,1.29-14h0Z"/>
            </g>
            <path class="st0" d="M113.97,82.28c-5.98-5.27-6.81-16.2-6.67-19.15,0,0-2.26-1.22-4.92-2.57-.65-.34-1.44.08-1.5.81-.37,3.76-1.79,8.66-.28,16.99,0,0-3.73-7.96-3.14-18.85.04-.77-.31-1.52-1.02-1.83-1.09-.47-2.51-1.36-2.85-1.36-17.66,26.02,13.86,66.76,32.97,30.95-3.21-.93-6.75.16-12.58-4.98h-.01Z"/>
            <path class="st0" d="M390.57,253.33l-1.07.31c-3.07-6.22-37.98-63.84-134.58-113.21l-.2.37c5.19-10.34-1.31-26.63-19.5-15.71-17.72,10.63-8.51,42.47,12.99,24.71-4.49-3.4-7.7-12.41-6.59-10.19s10.63,6.43,10.63,6.43c1.9,1.04,105.99,55.01,134.78,108.93l-.54.51,1.89,3.49,3.84-1.33-1.63-4.3h-.02Z"/>
          </g>
        </g>
      </g>
      <g class="st2">
        <g id="Ebene_111" data-name="Ebene_11">
          <g>
            <path class="st0" d="M278.95,317.74h0c10.12-6.87,14.38-21.19.98-20.44-12.36.58-24.36,12.07-32.3,19.68-13.23,13.25-57.26,29.45-61.23,31.94,5.06,2.37,10.04.72,18.34-2.44-5.57,3.51-8.86,7.11-8.33,13.84-4.45-5.36-4.55-4.33-7.48-5.51,5.78,9.18,2.88,22.7,2.33,23.02,0,0,13.63-6.94,17.41-8.77,3.75-.96,25.14-20.03,27.47-23.49l.07.08c19.12-18.54,27.42-16.33,42.74-27.9h0Z"/>
            <path class="st0" d="M77.7,286.76h0c3.78-2.29,4.44-11.72,4.38-12.27.74-5.75-11.28-6.67-11.94-6.37-9.34-.4-44.28-.4-47.08.77-3.62,1.45-2.55,7.51,1.06,7.9,18.67,2.21,21.62,8.65,21.65,8.72,14.3,10.62,24.76-17.59,31.92,1.26h.01Z"/>
            <path class="st0" d="M50.69,292.37h0c-7.46,11.43-34.91,29.17-36.58,30.27,7.78,10.27,22.35,10.23,22.51,9.96,9.78,1.3,18.14-17.68,18.55-18.63,3.32-10.7,31.85-30.8,12.3-30.06-6.95,6.81-15.74,8.09-16.56,8.09l-.23.37h.01Z"/>
            <path class="st0" d="M30.75,335.23c-1.31-.51-16.78-4.58-20.01-10.82-4.02,8.09-4.13,11.06,15.8,13.14.5.05,3.45-1.19,4.22-2.31h-.01Z"/>
            <path class="st0" d="M90.29,327.45h0c6.85-6.89-26.48,3.23-33.69,5.86,13.61-8.9,14.69-8.48,27.83-10.4-22.75-6.79-36.19,10.69-64.16,23.67,3.82-2.71,5.71-3.3,6.18-6.4-.8.02-14.36-.9-20.2-6.38-28.86,38.72,53.08,44.14,64.21,23.75,2.32-4.92,15.28-27.22,19.82-30.09h.01Z"/>
            <path class="st0" d="M80.66,494.79c-4.48,2.32-4.24,7.93-3.69,11.55,2.63,3.71,23.11,8.18,27.52-.16-10.99-3.24-7.71-10.47-15.45-15.27.16,2.15.34,4.55.42,6.68-1.13-2.29-3.94-3.84-8.8-2.8h0Z"/>
            <path class="st0" d="M94.49,483.76h0c-1.19,22.12,16.47,26.53,29.42,17.32-7.36-2.08-14.74-5.52-15.35-18.07-.03-.58-.69-4.06-2.5-4.02-11.01.27,1.34,22.68,7.61,23.7-21.38-7.14-10.9-26.25-19.19-18.93h.01Z"/>
            <path class="st0" d="M221.66,395.53h0c-2.03-.06-17.86,9.39-9.1,17.54,2.73,2.58,10.95-2.31,13.84-2.94-.48-.84-4.37-9.46-3.44-15.08l-1.29.47h0Z"/>
            <path class="st0" d="M138.6,464.94h4.06c-1.97-7.38-6.61-12.41-15.51-12.41-12.63,0-16.71,10.09-16.71,22.7s4.09,22.7,16.71,22.7c8.89,0,13.54-5.03,15.51-12.41h-4.06c-1.64,5.06-5.03,8.47-11.45,8.47-10.19,0-12.78-8.59-12.78-18.77s2.59-18.77,12.78-18.77c6.41,0,9.81,3.4,11.45,8.47v.02Z"/>
            <path class="st0" d="M128.35,412.19c3.71,12.13,12.07,13.86,13.64,15.43"/>
            <g>
              <path class="st0" d="M68.88,495.46h0c-4.9,8.21-.07,13.44,6.8,14.79-.24-1.19-4.39-11.17,1.93-16.14-2.39-.66-6.31-.81-8.74,1.35h0Z"/>
              <path class="st0" d="M209.85,415.62h0c-.59-1.26-4.22-8.2-1.29-14-2.77-2.17-21.58-3.96-27.82-3.48,1.85,3.9,6.84,5.49,12.69,7.23-9.28-.44-13.58-3.8-19.9-8.05-1.26,1.72-1.57,2.35,2.26,9.8-5.36-3.84-8.04-7.17-12.25-7.67.5,2.21.33,3.12,2.84,8.12-9.23-10.07-39.98-8.21-17.77,1.41,0,0,3.18,1.72,8.12,5.4-6.85-2.64-16.95-8.5-23.78-6.26,1.95,1.91,3.74,3.91,11.49,10.28-7.95-2.69-10.89-3.59-16.1-6.21l13.64,15.43c-21.89-5.5-13.64-28.81-38.15-27.71,5.82-4.85,17.59-5.3,26.45,1.61-3.09-8.66-14.98-12.92-29.11-18.58,11.66.61,22.42,8.75,27.6-5.67,0,0-18.32,3-29.65-24.66-.46-.23-5.7-22.32,4.55-28.85h-3.84c-18.15,13.31-54.55,79.97-31.09,129.7-2.15-4.77-6.19-6.55-7.74-7.75l-1.93,11.6c-3.24-9.12.92-21.51-.04-23.48-1.45,7.61-14.42,20.95-15.72,21.41-45.3,37.44-3.21,39.59,22.08,52.46-1.11-5.59-1.3-11.99,3.86-15.44l-10.1,1.84c4.79-2.47,6.1-3.15,8.32-4.3-6.76-3.33-19.15-9.96-26.66-8.97,6.9-1.29,8.65-.63,12.33-.52-4.63-4.43-12.39-7.09-16.8-7.29,9.07-1.74,13.79,2.35,15.88,3.41v-.19c.93,1.22,3.37,2.45,13.97-4.74,6.17.45,10.67-4.5,19.17-6.4,0,0-.31-12.44,6.99-22.89,5.9-8.45,23.38-17.06,34.61,3.54l.64-.06c.25.76,23.12-4.61,11.98-10.52,3.6,1.01,17.04-1.77,10.69-5.98,8.25,1.09,9.8-1.78,16.35-4.4,7.03-3.29,21.57-3.46,32.01-6.89-.14-.13,5.94-2.05,11.21-2.28h0Z"/>
            </g>
            <path class="st0" d="M113.98,454.99h0c5.83-5.14,9.37-4.05,12.58-4.98-19.11-35.81-50.63,4.93-32.97,30.95.34,0,1.76-.89,2.85-1.36.71-.31,1.06-1.06,1.02-1.83-.59-10.89,3.14-18.85,3.14-18.85-1.51,8.33-.09,13.23.28,16.99.06.73.85,1.15,1.5.81,2.66-1.35,4.92-2.57,4.92-2.57-.14-2.95.69-13.88,6.67-19.15h.01Z"/>
          </g>
        </g>
      </g>
    </g>
  </g>
</svg>