<?xml version="1.0" encoding="UTF-8"?>
<svg id="Ebene_1" xmlns="http://www.w3.org/2000/svg" version="1.1" viewBox="0 0 559.95 241.92">
  <!-- Generator: Adobe Illustrator 30.0.0, SVG Export Plug-In . SVG Version: 2.1.1 Build 123)  -->
  <defs>
    <style>
      .st0 {
        mix-blend-mode: hard-light;
        opacity: .3;
      }

      .st1 {
        isolation: isolate;
      }

      .st2 {
        fill: #ddd;
      }
    </style>
  </defs>
  <g class="st1">
    <g id="Ebene_11" data-name="Ebene_1">
      <path d="M26.44,204.13h3.19v-51.76h26.45v65.66c0,6.84-5.47,12.54-12.31,12.54H12.31c-6.84,0-12.31-5.7-12.31-12.54V83.29c0-6.84,5.47-12.31,12.31-12.31h31.46c6.84,0,12.31,5.47,12.31,12.31v65.89h-26.45v-51.75h-3.19v106.7Z">
      <path d="M59.27,83.29c0-6.84,5.47-12.31,12.31-12.31h31.46c6.84,0,12.31,5.47,12.31,12.31v134.75c0,6.84-5.47,12.54-12.31,12.54h-31.46c-6.84,0-12.31-5.7-12.31-12.54,0,0,0-134.75,0-134.75ZM85.72,204.13h3.19v-106.7h-3.19v106.7Z">
      <path d="M145,97.42v133.15h-26.45V83.29c0-6.84,5.7-12.31,12.31-12.31h43.78v133.15h3.19V70.98h26.45v147.29c0,6.84-5.7,12.31-12.31,12.31h-43.78V97.42h-3.19Z">
      <path d="M207.47,70.98h43.78c6.84,0,12.31,5.47,12.31,12.31v134.75c0,6.84-5.47,12.54-12.31,12.54h-43.78V70.98ZM233.92,204.13h3.19v-106.7h-3.19v106.7Z">
      <path d="M293.2,116.58h29.64v26.45h-29.64v61.1h3.19v-57.91h26.45v84.36h-56.09V70.98h56.09v42.41h-26.45v-15.96h-3.19v19.15h0Z">
      <path d="M352.47,97.42v133.15h-26.45V83.29c0-6.84,5.7-12.31,12.31-12.31h43.78v133.15h3.19V70.98h26.45v147.29c0,6.84-5.7,12.31-12.31,12.31h-43.78V97.42h-3.19Z">
      <path d="M414.95,218.03v-77.06h26.68v63.38h2.96v-66.35h-29.64v-54.72c0-6.84,5.47-12.31,12.31-12.31h31.46c6.84,0,12.31,5.47,12.31,12.31v33.29h-26.45v-19.38h-2.96v22.34h29.41v98.49c0,5.24-3.42,10.03-7.98,11.86-.91.23-2.51.68-4.1.68h-31.69c-6.84,0-12.31-5.7-12.31-12.54h0Z">
      <path d="M500.67,70.98v159.6h-26.45V70.98h26.45Z">
      <path d="M516.18,70.98h31.46c6.61,0,12.31,5.47,12.31,12.31v147.29h-26.45v-70.68h-3.19v70.68h-26.45V83.29c0-6.84,5.7-12.31,12.31-12.31,0,0,.01,0,.01,0ZM533.5,141.66v-44.23h-3.19v44.23h3.19Z">
      <rect class="st2" y="230.58" width="559.95" height="295.23">
      <g class="st0">
        <path d="M26.44,363.74h3.19v-51.75h26.45v65.89c0,6.84-5.47,12.31-12.31,12.31H12.31c-6.84,0-12.31-5.47-12.31-12.31v-134.74c0-6.84,5.47-12.54,12.31-12.54h31.46c6.84,0,12.31,5.7,12.31,12.54v65.66h-26.45v-51.76h-3.19v106.7Z">
        <path d="M59.27,243.13c0-6.84,5.47-12.54,12.31-12.54h31.46c6.84,0,12.31,5.7,12.31,12.54v134.75c0,6.84-5.47,12.31-12.31,12.31h-31.46c-6.84,0-12.31-5.47-12.31-12.31v-134.75ZM85.72,363.74h3.19v-106.7h-3.19v106.7Z">
        <path d="M148.19,363.75v-133.16h43.78c6.61,0,12.31,5.47,12.31,12.31v147.29h-26.45v-133.15h-3.19v133.15h-43.78c-6.61,0-12.31-5.47-12.31-12.31v-147.28h26.45v133.15h3.19Z">
        <path d="M207.47,230.59h43.78c6.84,0,12.31,5.7,12.31,12.54v134.75c0,6.84-5.47,12.31-12.31,12.31h-43.78v-159.6h0ZM233.92,363.74h3.19v-106.7h-3.19v106.7Z">
        <path d="M293.2,344.59v19.15h3.19v-15.96h26.45v42.41h-56.09v-159.6h56.09v84.36h-26.45v-57.91h-3.19v61.1h29.64v26.45h-29.64Z">
        <path d="M355.66,363.75v-133.16h43.78c6.61,0,12.31,5.47,12.31,12.31v147.29h-26.45v-133.15h-3.19v133.15h-43.78c-6.61,0-12.31-5.47-12.31-12.31v-147.28h26.45v133.15h3.19Z">
        <path d="M414.95,243.15h0c0-6.84,5.47-12.54,12.31-12.54h31.69c1.59,0,3.19.45,4.1.68,4.56,1.83,7.98,6.62,7.98,11.86v98.49h-29.41v22.34h2.96v-19.38h26.45v33.29c0,6.84-5.47,12.31-12.31,12.31h-31.46c-6.84,0-12.31-5.47-12.31-12.31v-54.72h29.64v-66.35h-2.96v63.38h-26.68v-77.06h0Z">
        <path d="M474.22,390.19v-159.6h26.45v159.6h-26.45Z">
        <path d="M516.17,390.19c-6.61,0-12.31-5.47-12.31-12.31v-147.29h26.45v70.68h3.19v-70.68h26.45v147.29c0,6.84-5.7,12.31-12.31,12.31h-31.47ZM530.31,319.51v44.23h3.19v-44.23h-3.19Z">
      </g>
    </g>
  </g>
</svg>