<?xml version="1.0" encoding="UTF-8"?>
<svg id="Ebene_1" xmlns="http://www.w3.org/2000/svg" version="1.1" viewBox="0 0 289.38 232.94">
  <!-- Generator: Adobe Illustrator 30.0.0, SVG Export Plug-In . SVG Version: 2.1.1 Build 123)  -->
  <defs>
    <style>
      .st0 {
        fill: none;
      }

      .st1 {
        opacity: .2;
      }

      .st1, .st2, .st3 {
        mix-blend-mode: hard-light;
      }

      .st2, .st3 {
        opacity: .3;
      }

      .st4, .st3 {
        fill: #1d1d1b;
      }

      .st5, .st3 {
        isolation: isolate;
      }

      .st6 {
        fill: #020202;
      }

      .st7 {
        fill: #fff;
      }

      .st8 {
        fill: #2d2d2d;
      }
    </style>
  </defs>
  <g class="st5">
    <g id="Ebene_11" data-name="Ebene_1">
      <g>
        <rect class="st7" x="2.96" y="42.25" width="283.46" height="180" rx="7.2" ry="7.2">
        <path class="st4" d="M279.23,222.38H10.17c-4.04,0-7.33-3.29-7.33-7.33V49.45c0-4.04,3.29-7.33,7.33-7.33h269.06c4.04,0,7.33,3.29,7.33,7.33v165.6c0,4.04-3.29,7.33-7.33,7.33h0ZM10.17,42.38c-3.9,0-7.08,3.17-7.08,7.08v165.6c0,3.9,3.17,7.08,7.08,7.08h269.06c3.9,0,7.08-3.17,7.08-7.08V49.45c0-3.9-3.17-7.08-7.08-7.08H10.17Z">
      </g>
      <g class="st1">
        <rect class="st8" x="2.96" y="222.51" width="283.46" height="180" rx="7.2" ry="7.2">
        <path class="st8" d="M279.23,402.64H10.17c-4.04,0-7.33-3.29-7.33-7.33v-165.6c0-4.04,3.29-7.33,7.33-7.33h269.06c4.04,0,7.33,3.29,7.33,7.33v165.6c0,4.04-3.29,7.33-7.33,7.33h0ZM10.17,222.64c-3.9,0-7.08,3.17-7.08,7.08v165.6c0,3.9,3.17,7.08,7.08,7.08h269.06c3.9,0,7.08-3.17,7.08-7.08v-165.61c0-3.9-3.17-7.08-7.08-7.08H10.17Z">
      </g>
      <circle class="st0" cx="158.93" cy="240.1" r="2.13">
      <g>
        <path class="st4" d="M85.26,196.12c-19.18,0-37.21-7.47-50.77-21.03s-21.03-31.59-21.03-50.77,7.47-37.21,21.03-50.77,31.59-21.03,50.77-21.03,37.21,7.47,50.77,21.03,21.03,31.59,21.03,50.77-7.47,37.21-21.03,50.77-31.59,21.03-50.77,21.03ZM85.26,52.75c-19.11,0-37.08,7.44-50.6,20.96-13.52,13.52-20.96,31.48-20.96,50.6s7.44,37.08,20.96,50.6c13.52,13.51,31.48,20.96,50.6,20.96s37.08-7.44,50.6-20.96c13.51-13.52,20.96-31.48,20.96-50.6s-7.44-37.08-20.96-50.6-31.48-20.96-50.6-20.96h0Z">
        <path class="st4" d="M85.19,155.62c-17.26,0-31.31-14.04-31.31-31.31s14.04-31.3,31.31-31.3,31.31,14.04,31.31,31.3-14.04,31.31-31.31,31.31ZM85.19,93.25c-17.12,0-31.06,13.93-31.06,31.05s13.93,31.06,31.06,31.06,31.06-13.93,31.06-31.06-13.93-31.05-31.06-31.05Z">
        <path class="st4" d="M85.19,152.79c-15.7,0-28.48-12.77-28.48-28.48,0-11.4,6.78-21.68,17.27-26.18l.1.23c-10.4,4.46-17.11,14.65-17.11,25.95,0,15.56,12.66,28.23,28.23,28.23s28.22-12.66,28.22-28.23c0-11.31-6.72-21.5-17.11-25.95l.1-.23c10.49,4.49,17.27,14.77,17.27,26.18,0,15.7-12.77,28.48-28.47,28.48,0,0-.02,0-.02,0Z">
        <path class="st4" d="M110.49,122.21c-.62-7.56-4.57-14.4-10.83-18.76l.14-.21c6.32,4.4,10.31,11.3,10.93,18.94l-.25.02h.01Z">
        <path class="st4" d="M59.89,122.2l-.25-.02c.63-7.64,4.61-14.54,10.93-18.94l.14.21c-6.26,4.36-10.21,11.19-10.83,18.76h.01Z">
        <path class="st4" d="M70.57,145.37c-6.32-4.4-10.31-11.3-10.93-18.94l.25-.02c.62,7.56,4.57,14.4,10.83,18.76l-.14.21h-.01Z">
        <path class="st4" d="M85.19,149.95c-3.83,0-7.51-.82-10.93-2.44l.11-.23c3.39,1.61,7.04,2.42,10.83,2.42s7.43-.81,10.83-2.42l.11.23c-3.43,1.62-7.11,2.44-10.93,2.44h-.02Z">
        <path class="st4" d="M99.81,145.38l-.14-.21c6.26-4.36,10.21-11.19,10.83-18.76l.25.02c-.63,7.64-4.61,14.54-10.93,18.94h-.01Z">
        <path class="st4" d="M109.07,122.2c-.62-7.05-4.31-13.43-10.12-17.52l.14-.2c5.87,4.13,9.6,10.58,10.22,17.7l-.25.02s.01,0,.01,0Z">
        <path class="st4" d="M61.31,122.2l-.25-.02c.62-7.13,4.34-13.58,10.22-17.7l.14.21c-5.82,4.08-9.51,10.47-10.12,17.52h.01Z">
        <path class="st4" d="M71.29,144.14c-5.88-4.13-9.61-10.58-10.22-17.71l.25-.02c.61,7.05,4.3,13.44,10.12,17.53l-.14.21h-.01Z">
        <path class="st4" d="M85.19,148.54c-3.59,0-7.03-.76-10.22-2.26l.11-.23c3.16,1.49,6.57,2.24,10.12,2.24s6.93-.75,10.12-2.24l.11.23c-3.22,1.5-6.66,2.26-10.22,2.26h-.02Z">
        <path class="st4" d="M99.1,144.14l-.14-.21c5.82-4.08,9.51-10.47,10.12-17.52l.25.02c-.62,7.13-4.34,13.58-10.22,17.7h-.01Z">
        <path class="st4" d="M85.19,145.7c-11.79,0-21.38-9.59-21.38-21.39s9.59-21.38,21.38-21.38,21.39,9.59,21.39,21.38-9.59,21.39-21.39,21.39ZM85.19,103.17c-11.65,0-21.13,9.48-21.13,21.13s9.48,21.14,21.13,21.14,21.14-9.48,21.14-21.14-9.48-21.13-21.14-21.13Z">
        <path class="st4" d="M85.19,141.45c-9.45,0-17.13-7.69-17.13-17.14s7.69-17.13,17.13-17.13,17.14,7.69,17.14,17.13-7.69,17.14-17.14,17.14ZM85.19,107.42c-9.31,0-16.88,7.57-16.88,16.88s7.57,16.89,16.88,16.89,16.89-7.58,16.89-16.89-7.57-16.88-16.89-16.88Z">
        <path class="st4" d="M85.19,142.87c-10.23,0-18.56-8.32-18.56-18.56s8.32-18.55,18.56-18.55,18.56,8.32,18.56,18.55-8.32,18.56-18.56,18.56ZM85.19,106c-10.09,0-18.31,8.21-18.31,18.3s8.21,18.31,18.31,18.31,18.31-8.21,18.31-18.31-8.21-18.3-18.31-18.3Z">
        <path class="st4" d="M85.19,140.03h0c-8.66,0-15.71-7.05-15.71-15.72s7.05-15.71,15.71-15.71c2.05,0,4.05.39,5.94,1.16,1.31.54,2.55,1.25,3.69,2.14,3.86,3,6.08,7.53,6.08,12.42,0,8.66-7.04,15.71-15.71,15.72h0ZM85.19,108.85c-8.53,0-15.46,6.94-15.46,15.46s6.93,15.46,15.46,15.47c8.53,0,15.46-6.94,15.46-15.47,0-4.81-2.18-9.27-5.98-12.22-1.12-.87-2.34-1.58-3.63-2.1-1.86-.76-3.83-1.14-5.84-1.14h0Z">
        <rect class="st4" x="96.75" y="122.19" width=".25" height="4.24">
        <polygon class="st4" points="100.63 126.55 96.75 126.55 96.75 122.07 100.63 122.07 100.63 122.32 97 122.32 97 126.3 100.63 126.3 100.63 126.55">
        <polygon class="st4" points="73.63 126.55 69.74 126.55 69.74 126.3 73.38 126.3 73.38 122.32 69.74 122.32 69.74 122.07 73.63 122.07 73.63 126.55">
        <polygon class="st4" points="92.91 115.42 89.03 113.18 90.98 109.81 91.19 109.93 89.38 113.08 92.82 115.08 94.64 111.93 94.85 112.05 92.91 115.42">
        <polygon class="st4" points="79.4 138.8 79.19 138.68 81.01 135.54 77.56 133.53 75.74 136.69 75.53 136.57 77.47 133.19 81.36 135.45 79.4 138.8">
        <polygon class="st4" points="77.47 115.42 75.53 112.05 75.74 111.93 77.56 115.08 81.01 113.08 79.19 109.93 79.4 109.81 81.36 113.18 77.47 115.42">
        <polygon class="st4" points="90.98 138.8 89.03 135.45 89.14 135.38 92.91 133.19 94.85 136.57 94.64 136.69 92.82 133.53 89.38 135.54 91.19 138.68 90.98 138.8">
        <rect class="st4" x="106.46" y="122.07" width="7.08" height=".25">
        <rect class="st4" x="106.46" y="126.3" width="7.08" height=".25">
        <rect class="st4" x="56.84" y="122.07" width="7.09" height=".25">
        <rect class="st4" x="56.84" y="126.3" width="7.09" height=".25">
        <rect class="st4" x="95.88" y="103.76" width="7.09" height=".25" transform="translate(-40.24 138.12) rotate(-60.03)">
        <rect class="st4" x="71.07" y="146.74" width="7.09" height=".25" transform="translate(-89.89 138.13) rotate(-60.03)">
        <rect class="st4" x="67.4" y="144.62" width="7.09" height=".25" transform="translate(-89.89 133.89) rotate(-60.03)">
        <rect class="st4" x="70.83" y="100.34" width=".25" height="7.09" transform="translate(-42.41 49.34) rotate(-29.97)">
        <polygon class="st4" points="97.43 149.98 93.88 143.84 94.09 143.72 97.64 149.86 97.43 149.98">
        <rect class="st4" x="99.31" y="141.18" width=".25" height="7.09" transform="translate(-59 69.02) rotate(-29.97)">
        <path class="st0" d="M90.71,101.17c.32.12.62.26.9.4l2.43-4.25h0c-2.79-.92-5.77-1.41-8.86-1.41s-6.08.5-8.86,1.41h0l2.43,4.25c.28-.15.58-.28.9-.4,1.81-.69,4.13-1.02,5.53-1.03v1.98-1.98c1.4,0,3.72.33,5.53,1.03h0Z">
        <g>
          <path class="st7" d="M85.19,102.18c1.4,0,3.72.33,5.53,1.03.86.33,1.61.74,2.08,1.24.34.11,1.95-.91,1.95-.91l1.33-2.31-.35-.38c-.32-.35-.38-.87-.14-1.29l2.14-3.74.03-.05c-3.84-1.69-8.1-2.64-12.57-2.64s-8.73.95-12.57,2.64l.03.05,2.14,3.74c.24.41.18.93-.14,1.29l-.35.38,1.33,2.31s1.61,1.02,1.95.91c.47-.5,1.22-.91,2.08-1.24,1.81-.69,4.13-1.02,5.53-1.03h0ZM79.66,101.23c-.32.12-.62.26-.9.4l-2.43-4.25h0c2.79-.92,5.77-1.41,8.86-1.41s6.08.5,8.86,1.41h0l-2.43,4.25c-.28-.15-.58-.28-.9-.4-1.81-.69-4.13-1.02-5.53-1.03h0c-1.4,0-3.72.33-5.53,1.03h0Z">
          <path class="st4" d="M92.85,104.58s-.06,0-.09-.01l-.05-.03c-.42-.44-1.1-.85-2.03-1.21-1.81-.7-4.11-1.02-5.48-1.02s-3.68.33-5.49,1.02c-.93.36-1.62.76-2.03,1.21l-.05.03c-.37.12-1.67-.68-2.06-.92l-.04-.04-1.38-2.39.41-.45c.29-.32.34-.78.12-1.14l-2.24-3.91.13-.06c4-1.76,8.24-2.65,12.62-2.65s8.62.89,12.62,2.65l.13.06-.1.17-2.14,3.74c-.21.37-.16.83.12,1.14l.41.45-1.42,2.43c-.36.23-1.51.94-1.97.94h0ZM92.87,104.34h0c.23,0,1.08-.44,1.79-.88l1.27-2.2-.29-.31c-.36-.39-.42-.97-.16-1.44l2.1-3.67c-3.93-1.71-8.1-2.57-12.39-2.57s-8.46.87-12.39,2.57l2.1,3.67c.27.45.2,1.03-.16,1.44l-.29.31,1.27,2.2c.71.45,1.55.88,1.79.88h0c.45-.46,1.15-.88,2.1-1.24,1.83-.7,4.18-1.03,5.57-1.04h0c1.39,0,3.73.32,5.58,1.04.95.36,1.65.78,2.1,1.24h.01ZM91.67,101.8l-.11-.06c-.26-.14-.55-.27-.88-.39-1.81-.69-4.11-1.01-5.49-1.02-1.37,0-3.67.32-5.48,1.02h0c-.27.1-.54.22-.89.4l-.11.05-2.56-4.49.15-.05c2.85-.94,5.84-1.42,8.9-1.42s6.03.48,8.9,1.42l.15.05-2.57,4.49s-.01,0-.01,0ZM76.52,97.45l2.3,4.01c.3-.15.56-.26.81-.35,1.84-.71,4.18-1.04,5.57-1.04s3.74.34,5.57,1.04c.3.11.57.23.81.35l2.29-4.01c-2.8-.9-5.72-1.36-8.67-1.36s-5.89.46-8.68,1.36ZM79.67,101.23h0Z">
        </g>
      </g>
      <path class="st4" d="M204.89,155.62c-17.26,0-31.31-14.04-31.31-31.31s14.04-31.3,31.31-31.3,31.3,14.04,31.3,31.3-14.04,31.31-31.3,31.31ZM204.89,93.25c-17.12,0-31.06,13.93-31.06,31.05s13.93,31.06,31.06,31.06,31.05-13.93,31.05-31.06-13.93-31.05-31.05-31.05Z">
      <path class="st4" d="M204.87,152.79c-15.7,0-28.47-12.77-28.47-28.48s12.77-28.47,28.47-28.47c11.4,0,21.68,6.78,26.19,17.27l-.23.1c-4.46-10.4-14.65-17.11-25.96-17.11-15.56,0-28.22,12.66-28.22,28.22s12.66,28.23,28.22,28.23c11.31,0,21.5-6.72,25.96-17.11l.23.1c-4.49,10.49-14.77,17.27-26.19,17.27v-.02h0Z">
      <path class="st4" d="M207,149.86l-.02-.25c7.56-.62,14.4-4.57,18.76-10.83l.21.14c-4.4,6.32-11.3,10.31-18.94,10.93h0Z">
      <path class="st4" d="M225.74,109.83c-4.36-6.26-11.19-10.21-18.76-10.83l.02-.25c7.64.63,14.54,4.61,18.94,10.93l-.21.14h0Z">
      <path class="st4" d="M184.03,109.83l-.21-.14c4.4-6.32,11.3-10.31,18.94-10.93l.02.25c-7.56.62-14.4,4.57-18.76,10.83h0Z">
      <path class="st4" d="M181.69,135.23c-1.62-3.43-2.44-7.11-2.44-10.93s.82-7.51,2.44-10.93l.23.11c-1.61,3.39-2.42,7.04-2.42,10.83s.81,7.43,2.42,10.83l-.23.11v-.02Z">
      <path class="st4" d="M202.76,149.86c-7.64-.63-14.54-4.61-18.94-10.93l.21-.14c4.36,6.26,11.19,10.21,18.76,10.83l-.02.25h0Z">
      <path class="st4" d="M207.02,148.43l-.02-.25c7.05-.62,13.43-4.31,17.52-10.12l.21.14c-4.13,5.87-10.58,9.6-17.7,10.22h-.01Z">
      <path class="st4" d="M224.5,110.55c-4.08-5.82-10.47-9.51-17.52-10.12l.02-.25c7.13.62,13.58,4.34,17.7,10.22l-.21.14h.01Z">
      <path class="st4" d="M185.25,110.55l-.21-.14c4.13-5.88,10.58-9.61,17.71-10.22l.02.25c-7.05.61-13.44,4.3-17.53,10.12h0Z">
      <path class="st4" d="M182.92,134.53c-1.5-3.22-2.26-6.66-2.26-10.22s.76-7.02,2.26-10.22l.23.11c-1.49,3.17-2.24,6.57-2.24,10.12s.75,6.93,2.24,10.12l-.23.11v-.02Z">
      <path class="st4" d="M202.75,148.42c-7.13-.62-13.58-4.34-17.7-10.22l.21-.14c4.08,5.82,10.47,9.51,17.52,10.12l-.02.25h-.01Z">
      <path class="st4" d="M204.89,145.7c-11.79,0-21.39-9.59-21.39-21.39s9.59-21.38,21.39-21.38,21.38,9.59,21.38,21.38-9.59,21.39-21.38,21.39ZM204.89,103.17c-11.65,0-21.14,9.48-21.14,21.13s9.48,21.14,21.14,21.14,21.13-9.48,21.13-21.14-9.48-21.13-21.13-21.13Z">
      <path class="st4" d="M204.89,141.45c-9.45,0-17.14-7.69-17.14-17.14s7.69-17.13,17.14-17.13,17.13,7.69,17.13,17.13-7.69,17.14-17.13,17.14ZM204.89,107.42c-9.31,0-16.89,7.57-16.89,16.88s7.58,16.89,16.89,16.89,16.88-7.58,16.88-16.89-7.57-16.88-16.88-16.88Z">
      <path class="st4" d="M204.89,142.87c-10.23,0-18.56-8.32-18.56-18.56s8.32-18.55,18.56-18.55,18.55,8.32,18.55,18.55-8.32,18.56-18.55,18.56ZM204.89,106c-10.09,0-18.31,8.21-18.31,18.3s8.21,18.31,18.31,18.31,18.3-8.21,18.3-18.31-8.21-18.3-18.3-18.3Z">
      <path class="st4" d="M204.89,140.01c-8.66,0-15.71-7.04-15.72-15.71h0c0-8.67,7.05-15.71,15.72-15.71s15.71,7.05,15.71,15.71c0,2.05-.39,4.05-1.16,5.94-.54,1.31-1.26,2.55-2.14,3.69-3,3.86-7.53,6.08-12.42,6.08h0ZM189.42,124.3c0,8.53,6.94,15.46,15.47,15.46,4.82,0,9.27-2.18,12.22-5.98.87-1.12,1.58-2.34,2.1-3.63.76-1.86,1.14-3.83,1.14-5.84,0-8.53-6.94-15.46-15.46-15.46s-15.46,6.93-15.47,15.46h0Z">
      <rect class="st4" x="202.77" y="135.87" width="4.23" height=".25">
      <polygon class="st4" points="207.12 139.76 206.87 139.76 206.87 136.12 202.89 136.12 202.89 139.76 202.64 139.76 202.64 135.87 207.12 135.87 207.12 139.76">
      <polygon class="st4" points="207.12 112.75 202.64 112.75 202.64 108.86 202.89 108.86 202.89 112.5 206.87 112.5 206.87 108.86 207.12 108.86 207.12 112.75">
      <polygon class="st4" points="217.14 133.97 213.77 132.03 216.01 128.15 219.38 130.09 219.25 130.31 216.1 128.49 214.12 131.93 217.27 133.75 217.14 133.97">
      <polygon class="st4" points="193.75 120.47 190.38 118.53 190.51 118.31 193.66 120.13 195.65 116.68 192.5 114.86 192.63 114.64 196 116.58 193.75 120.47">
      <polygon class="st4" points="216.01 120.47 213.77 116.58 217.14 114.64 217.27 114.86 214.12 116.68 216.1 120.13 219.26 118.31 219.39 118.53 216.01 120.47">
      <polygon class="st4" points="192.63 133.97 192.5 133.75 195.65 131.93 193.66 128.49 190.51 130.31 190.38 130.09 193.75 128.15 196 132.03 192.63 133.97">
      <rect class="st4" x="206.87" y="145.57" width=".25" height="7.08">
      <rect class="st4" x="202.64" y="145.57" width=".25" height="7.08">
      <rect class="st4" x="206.87" y="95.96" width=".25" height="7.09">
      <rect class="st4" x="202.64" y="95.96" width=".25" height="7.09">
      <polygon class="st4" points="228.31 140.41 222.17 136.88 222.3 136.66 228.44 140.19 228.31 140.41">
      <rect class="st4" x="182.21" y="110.19" width=".25" height="7.09" transform="translate(-7.26 214.91) rotate(-60.04)">
      <polygon class="st4" points="187.46 111.96 181.33 108.41 181.46 108.19 187.59 111.74 187.46 111.96">
      <polygon class="st4" points="222.3 111.96 222.17 111.74 228.31 108.19 228.44 108.41 222.3 111.96">
      <rect class="st4" x="178.8" y="134.74" width="7.09" height=".25" transform="translate(-42.99 109.12) rotate(-29.97)">
      <rect class="st4" x="180.92" y="138.4" width="7.07" height=".25" transform="translate(-44.54 110.66) rotate(-29.97)">
      <path class="st0" d="M228.02,129.84c-.12.32-.26.62-.4.9l4.25,2.43h0c.92-2.79,1.41-5.77,1.41-8.86s-.5-6.08-1.41-8.86h0l-4.25,2.43c.15.28.28.58.4.9.69,1.81,1.02,4.13,1.03,5.53h-1.98,1.98c0,1.4-.33,3.72-1.03,5.53h0Z">
      <g>
        <path class="st7" d="M227.01,124.31c0,1.4-.33,3.72-1.03,5.53-.33.86-.74,1.61-1.24,2.08-.11.34.91,1.95.91,1.95l2.31,1.33.38-.35c.35-.32.87-.38,1.29-.14l3.74,2.14.05.03c1.69-3.84,2.64-8.1,2.64-12.57s-.95-8.73-2.64-12.57l-.05.03-3.74,2.14c-.41.24-.93.18-1.29-.14l-.38-.35-2.31,1.33s-1.02,1.61-.91,1.95c.5.47.91,1.22,1.24,2.08.69,1.81,1.02,4.13,1.03,5.53h0ZM227.96,118.78c-.12-.32-.26-.62-.4-.9l4.25-2.43h0c.92,2.79,1.41,5.77,1.41,8.86s-.5,6.08-1.41,8.86h0l-4.25-2.43c.15-.28.28-.58.4-.9.69-1.81,1.02-4.13,1.03-5.53h0c0-1.4-.33-3.72-1.03-5.53h0Z">
        <path class="st4" d="M233.48,137.06l-.17-.1-3.74-2.14c-.37-.21-.83-.16-1.14.12l-.45.41-2.43-1.42c-.25-.39-1.04-1.69-.92-2.05v-.03l.03-.02c.45-.42.85-1.1,1.21-2.03.7-1.81,1.02-4.11,1.02-5.48s-.33-3.68-1.02-5.49c-.36-.93-.76-1.62-1.21-2.03l-.03-.05c-.12-.37.68-1.67.92-2.06l.04-.04,2.39-1.38.45.41c.32.29.78.34,1.14.12l3.91-2.24.06.13c1.76,4,2.65,8.24,2.65,12.62s-.89,8.62-2.65,12.62l-.06.13ZM229.08,134.44c.21,0,.42.05.61.16l3.67,2.1c1.71-3.93,2.57-8.1,2.57-12.39s-.87-8.46-2.57-12.39l-3.67,2.1c-.46.27-1.03.2-1.44-.16l-.31-.29-2.2,1.27c-.45.72-.9,1.58-.88,1.79.46.45.88,1.15,1.24,2.1.7,1.83,1.03,4.17,1.04,5.57h0c0,1.39-.33,3.73-1.04,5.58-.36.95-.78,1.65-1.24,2.1,0,.22.43,1.08.88,1.79l2.2,1.27.31-.29c.23-.21.53-.32.82-.32h0ZM231.89,133.35l-4.49-2.57.06-.11c.14-.26.27-.54.39-.88.69-1.81,1.01-4.11,1.02-5.49,0-1.37-.32-3.67-1.02-5.48h0c-.13-.34-.28-.66-.4-.89l-.05-.11.1-.06,4.38-2.51.05.15c.94,2.85,1.42,5.84,1.42,8.9s-.48,6.03-1.42,8.9l-.05.15h0ZM227.73,130.69l4.01,2.29c.9-2.8,1.36-5.72,1.36-8.68s-.46-5.89-1.36-8.67l-4.01,2.29c.11.22.24.5.35.81.71,1.84,1.04,4.18,1.04,5.57s-.34,3.74-1.04,5.58c-.11.3-.23.57-.35.81h0Z">
      </g>
      <path class="st4" d="M11.46,57.98c-3.98,0-7.21-3.24-7.21-7.22s3.24-7.21,7.21-7.21,7.21,3.24,7.21,7.21-3.24,7.22-7.21,7.22ZM11.46,43.79c-3.84,0-6.96,3.12-6.96,6.96s3.12,6.97,6.96,6.97,6.96-3.12,6.96-6.97-3.12-6.96-6.96-6.96Z">
      <path class="st4" d="M5.48,66.17l-1.22-15.36c0-4,3.25-7.25,7.24-7.25h8.54v.12h-.12v.12h-8.42c-3.86,0-7,3.14-7,6.99l1.22,15.35-.25.02h0Z">
      <path class="st4" d="M11.46,56.56c-3.2,0-5.79-2.6-5.79-5.8s2.6-5.79,5.79-5.79,5.79,2.6,5.79,5.79-2.6,5.8-5.79,5.8ZM11.46,45.21c-3.06,0-5.54,2.49-5.54,5.54s2.49,5.55,5.54,5.55,5.54-2.49,5.54-5.55-2.49-5.54-5.54-5.54Z">
      <rect class="st4" x="5.6" y="95.98" width="278.18" height=".25">
      <rect class="st4" x="5.08" y="58.94" width="279.29" height=".25">
      <rect class="st4" x="5.6" y="149.84" width="278.18" height=".25">
      <path class="st4" d="M10.75,93.21c-1.24,0-2.25-1.01-2.25-2.25s1.01-2.25,2.25-2.25,2.25,1.01,2.25,2.25-1.01,2.25-2.25,2.25ZM10.75,88.96c-1.11,0-2,.9-2,2s.9,2,2,2,2-.9,2-2-.9-2-2-2Z">
      <path class="st4" d="M241.23,222.37H48.16l8.76-41.21c.19-.9,1-1.56,1.92-1.56h171.7c.92,0,1.73.66,1.92,1.56l8.76,41.21h.01ZM48.47,222.12h192.45l-8.7-40.91c-.17-.79-.87-1.36-1.68-1.36H58.84c-.8,0-1.51.57-1.68,1.36l-8.7,40.91h.01Z">
      <path class="st4" d="M269.93,174.18H19.46c-1.35,0-2.46-1.1-2.46-2.45v-20.85c0-1.35,1.1-2.46,2.46-2.46h250.46c1.35,0,2.45,1.1,2.45,2.46v20.85c0,1.35-1.1,2.45-2.45,2.45h0ZM19.46,148.67c-1.22,0-2.21.99-2.21,2.21v20.85c0,1.22.99,2.2,2.21,2.2h250.46c1.22,0,2.2-.99,2.2-2.2v-20.85c0-1.22-.99-2.21-2.2-2.21H19.46Z">
      <path class="st4" d="M278.64,93.21c-1.24,0-2.26-1.01-2.26-2.25s1.01-2.25,2.26-2.25,2.25,1.01,2.25,2.25-1.01,2.25-2.25,2.25ZM278.64,88.96c-1.11,0-2.01.9-2.01,2s.9,2,2.01,2,2-.9,2-2-.9-2-2-2Z">
      <path class="st4" d="M144.69,68.06c-1.24,0-2.25-1.01-2.25-2.25s1.01-2.25,2.25-2.25,2.25,1.01,2.25,2.25-1.01,2.25-2.25,2.25ZM144.69,63.81c-1.11,0-2,.9-2,2s.9,2,2,2,2-.9,2-2-.9-2-2-2Z">
      <path class="st4" d="M30.98,217.38c-6.71,0-12.17-5.46-12.17-12.17s5.46-12.17,12.17-12.17,12.17,5.46,12.17,12.17-5.46,12.17-12.17,12.17ZM30.98,193.29c-6.58,0-11.92,5.35-11.92,11.92s5.35,11.92,11.92,11.92,11.92-5.35,11.92-11.92-5.35-11.92-11.92-11.92Z">
      <path class="st4" d="M30.98,209.58c-2.41,0-4.38-1.96-4.38-4.38s1.96-4.38,4.38-4.38,4.38,1.96,4.38,4.38-1.96,4.38-4.38,4.38ZM30.98,201.08c-2.27,0-4.12,1.85-4.12,4.12s1.85,4.12,4.12,4.12,4.12-1.85,4.12-4.12-1.85-4.12-4.12-4.12Z">
      <path class="st4" d="M30.98,207.46c-1.24,0-2.25-1.01-2.25-2.25s1.01-2.25,2.25-2.25,2.25,1.01,2.25,2.25-1.01,2.25-2.25,2.25ZM30.98,203.21c-1.11,0-2,.9-2,2s.9,2,2,2,2-.9,2-2-.9-2-2-2Z">
      <path class="st4" d="M258.4,207.68c-1.24,0-2.25-1.01-2.25-2.25s1.01-2.25,2.25-2.25,2.25,1.01,2.25,2.25-1.01,2.25-2.25,2.25ZM258.4,203.42c-1.11,0-2,.9-2,2s.9,2,2,2,2-.9,2-2-.9-2-2-2Z">
      <path class="st4" d="M277.4,186.25c-1.63,0-2.96-1.33-2.96-2.96s1.33-2.96,2.96-2.96,2.96,1.33,2.96,2.96-1.33,2.96-2.96,2.96ZM277.4,180.59c-1.49,0-2.71,1.21-2.71,2.71s1.21,2.71,2.71,2.71,2.71-1.21,2.71-2.71-1.21-2.71-2.71-2.71Z">
      <path class="st4" d="M11.46,53.71c-1.63,0-2.96-1.33-2.96-2.96s1.33-2.95,2.96-2.95,2.96,1.33,2.96,2.95-1.33,2.96-2.96,2.96ZM11.46,48.06c-1.49,0-2.71,1.21-2.71,2.7s1.21,2.71,2.71,2.71,2.71-1.21,2.71-2.71-1.21-2.7-2.71-2.7Z">
      <path class="st4" d="M85.26,141.45c-9.45,0-17.13-7.69-17.13-17.14s7.69-17.13,17.13-17.13,17.14,7.69,17.14,17.13-7.69,17.14-17.14,17.14ZM85.26,107.42c-9.31,0-16.88,7.57-16.88,16.88s7.57,16.89,16.88,16.89,16.89-7.58,16.89-16.89-7.57-16.88-16.89-16.88Z">
      <path class="st4" d="M85.26,142.87c-10.23,0-18.55-8.32-18.55-18.56s8.32-18.55,18.55-18.55,18.56,8.32,18.56,18.55-8.32,18.56-18.56,18.56ZM85.26,106c-10.09,0-18.3,8.21-18.3,18.3s8.21,18.31,18.3,18.31,18.31-8.21,18.31-18.31-8.21-18.3-18.31-18.3Z">
      <path class="st4" d="M204.89,141.45c-9.45,0-17.14-7.69-17.14-17.14s7.69-17.13,17.14-17.13,17.13,7.69,17.13,17.13-7.69,17.14-17.13,17.14ZM204.89,107.42c-9.31,0-16.89,7.57-16.89,16.88s7.58,16.89,16.89,16.89,16.88-7.58,16.88-16.89-7.57-16.88-16.88-16.88Z">
      <path class="st4" d="M204.89,142.87c-10.23,0-18.56-8.32-18.56-18.56s8.32-18.55,18.56-18.55,18.55,8.32,18.55,18.55-8.32,18.56-18.55,18.56ZM204.89,106c-10.09,0-18.31,8.21-18.31,18.3s8.21,18.31,18.31,18.31,18.3-8.21,18.3-18.31-8.21-18.3-18.3-18.3Z">
      <path class="st0" d="M62.12,118.78c.12-.32.26-.62.4-.9l-4.25-2.43h0c-.92,2.79-1.41,5.77-1.41,8.86s.5,6.08,1.41,8.86h0l4.25-2.43c-.15-.28-.28-.58-.4-.9-.69-1.81-1.02-4.13-1.03-5.53h1.98-1.98c0-1.4.33-3.72,1.03-5.53h0Z">
      <path class="st4" d="M286.3,208.38v-51.64l3.08,3.09v45.45l-3.08,3.09h0ZM286.55,157.35v50.42l2.58-2.59v-45.25l-2.58-2.59h0ZM289.25,205.24h0Z">
      <path class="st4" d="M3.08,208.38l-3.08-3.09v-45.45l.04-.04,3.04-3.05v51.64h0ZM.25,205.19l2.58,2.59v-50.42l-2.58,2.59v45.25H.25Z">
      <path class="st4" d="M277.4,202.75c-1.63,0-2.96-1.33-2.96-2.96s1.33-2.96,2.96-2.96,2.96,1.33,2.96,2.96-1.33,2.96-2.96,2.96ZM277.4,197.09c-1.49,0-2.71,1.21-2.71,2.71s1.21,2.71,2.71,2.71,2.71-1.21,2.71-2.71-1.21-2.71-2.71-2.71Z">
      <path class="st4" d="M11.98,186.25c-1.63,0-2.96-1.33-2.96-2.96s1.33-2.96,2.96-2.96,2.96,1.33,2.96,2.96-1.33,2.96-2.96,2.96ZM11.98,180.59c-1.49,0-2.71,1.21-2.71,2.71s1.21,2.71,2.71,2.71,2.71-1.21,2.71-2.71-1.21-2.71-2.71-2.71Z">
      <path class="st4" d="M11.98,202.75c-1.63,0-2.96-1.33-2.96-2.96s1.33-2.96,2.96-2.96,2.96,1.33,2.96,2.96-1.33,2.96-2.96,2.96ZM11.98,197.09c-1.49,0-2.71,1.21-2.71,2.71s1.21,2.71,2.71,2.71,2.71-1.21,2.71-2.71-1.21-2.71-2.71-2.71Z">
      <path class="st4" d="M33.53,56.54h-13.73v-14.42h18.68v9.48c0,2.73-2.22,4.94-4.95,4.94ZM20.05,56.29h13.48c2.59,0,4.7-2.11,4.7-4.69v-9.23h-18.18v13.92Z">
      <rect class="st4" x="41.03" y="42.12" width="9.92" height=".25">
      <path class="st4" d="M48.4,50.69h-8.75v-5.92h8.75v5.92ZM39.9,50.44h8.25v-5.42h-8.25v5.42Z">
      <path class="st4" d="M21.19,57.96h-5.48c-.07,0-.12-.06-.12-.12v-1.41c0-.07.06-.12.12-.12h5.48v.25h-5.35v1.16h5.35v.25h0Z">
      <rect class="st4" x="39.65" y="44.89" width=".25" height="5.67">
      <rect class="st4" x="10.75" y="42.12" width="10.44" height=".25">
      <path class="st4" d="M29.15,52.29c-1.63,0-2.96-1.33-2.96-2.96s1.33-2.96,2.96-2.96,2.96,1.33,2.96,2.96-1.33,2.96-2.96,2.96ZM29.15,46.63c-1.49,0-2.71,1.21-2.71,2.71s1.21,2.71,2.71,2.71,2.71-1.21,2.71-2.71-1.21-2.71-2.71-2.71Z">
      <g>
        <path class="st4" d="M277.94,57.98c-3.98,0-7.21-3.24-7.21-7.22s3.24-7.21,7.21-7.21,7.21,3.24,7.21,7.21-3.24,7.22-7.21,7.22ZM277.94,43.79c-3.84,0-6.96,3.12-6.96,6.96s3.12,6.97,6.96,6.97,6.96-3.12,6.96-6.97-3.12-6.96-6.96-6.96Z">
        <rect class="st4" x="5.48" y="66.15" width=".25" height="143.51">
        <rect class="st4" x="11.98" y="219.49" width="229.1" height=".25">
        <path class="st4" d="M283.9,209.77h-.25V66.16l1.25-15.37c0-3.85-3.14-6.98-7-6.98h-8.42v-.12h-.13l.13-.13h8.42c4,0,7.25,3.25,7.25,7.24l-1.25,15.37v143.6h0Z">
        <path class="st4" d="M277.94,56.56c-3.2,0-5.79-2.6-5.79-5.8s2.6-5.79,5.79-5.79,5.79,2.6,5.79,5.79-2.6,5.8-5.79,5.8ZM277.94,45.21c-3.06,0-5.54,2.49-5.54,5.54s2.49,5.55,5.54,5.55,5.54-2.49,5.54-5.55-2.49-5.54-5.54-5.54Z">
        <path class="st4" d="M277.94,53.71c-1.63,0-2.96-1.33-2.96-2.96s1.33-2.95,2.96-2.95,2.96,1.33,2.96,2.95-1.33,2.96-2.96,2.96ZM277.94,48.06c-1.49,0-2.71,1.21-2.71,2.7s1.21,2.71,2.71,2.71,2.71-1.21,2.71-2.71-1.21-2.7-2.71-2.7Z">
        <path class="st4" d="M269.6,56.56h-13.74c-2.73,0-4.95-2.22-4.95-4.95v-9.48h18.68v14.42h.01ZM251.17,42.38v9.23c0,2.59,2.11,4.7,4.7,4.7h13.49v-13.92h-18.19,0Z">
        <path class="st4" d="M249.76,50.69h-8.75v-5.92h8.75v5.92ZM241.26,50.44h8.25v-5.42h-8.25v5.42Z">
        <path class="st4" d="M260.27,52.29c-1.63,0-2.96-1.33-2.96-2.96s1.33-2.96,2.96-2.96,2.96,1.33,2.96,2.96-1.33,2.96-2.96,2.96ZM260.27,46.63c-1.49,0-2.71,1.21-2.71,2.71s1.21,2.71,2.71,2.71,2.71-1.21,2.71-2.71-1.21-2.71-2.71-2.71Z">
        <path class="st4" d="M273.6,57.96h-5.48v-.25h5.36v-1.16h-5.36v-.25h5.48c.07,0,.12.06.12.12v1.41c0,.07-.06.12-.12.12h0Z">
      </g>
      <path class="st4" d="M269.47,57.96h-13.61c-3.32,0-6.08-2.56-6.34-5.86h-6.74c-1.76,0-3.2-1.41-3.2-3.13v-3.95H49.81v3.95c0,1.73-1.43,3.13-3.2,3.13h-6.74c-.25,3.3-3.01,5.86-6.34,5.86h-13.61v-.25h13.61c3.23,0,5.91-2.52,6.1-5.74v-.12h6.98c1.62,0,2.95-1.29,2.95-2.88v-4.2h190.27v4.2c0,1.59,1.32,2.88,2.95,2.88h6.98v.12c.19,3.22,2.87,5.74,6.1,5.74h13.61v.25Z">
      <path class="st4" d="M268.22,45.21h-15.91v-3.08h15.91v3.08ZM252.56,44.96h15.41v-2.58h-15.41v2.58Z">
      <path class="st4" d="M277.93,220.96c-1.44,0-2.83-.43-4.03-1.23-1.99-1.34-3.18-3.57-3.18-5.98,0-3.98,3.24-7.21,7.21-7.21,2.38,0,4.61,1.18,5.96,3.15.82,1.21,1.25,2.62,1.25,4.06v.12c-.08,3.92-3.29,7.09-7.22,7.09h.01ZM277.94,206.78c-3.84,0-6.96,3.12-6.96,6.96,0,2.33,1.15,4.49,3.06,5.78,1.16.78,2.5,1.19,3.89,1.19,3.84,0,6.96-3.12,6.96-6.96v-.12c-.02-1.35-.43-2.66-1.2-3.79-1.3-1.91-3.46-3.04-5.76-3.04v-.02h.01Z">
      <path class="st4" d="M277.93,219.54c-3.2,0-5.8-2.6-5.8-5.79s2.6-5.79,5.8-5.79,5.79,2.6,5.79,5.79-2.6,5.79-5.79,5.79ZM277.93,208.2c-3.06,0-5.55,2.49-5.55,5.54s2.49,5.54,5.55,5.54,5.54-2.49,5.54-5.54-2.49-5.54-5.54-5.54Z">
      <path class="st4" d="M277.93,216.7c-1.63,0-2.96-1.33-2.96-2.96s1.33-2.96,2.96-2.96,2.95,1.33,2.95,2.96-1.33,2.96-2.95,2.96ZM277.93,211.04c-1.49,0-2.71,1.21-2.71,2.71s1.21,2.71,2.71,2.71,2.7-1.21,2.7-2.71-1.21-2.71-2.7-2.71Z">
      <g>
        <rect class="st4" x="2.96" y="175.99" width="283.46" height=".25">
        <rect class="st4" x="2.96" y="178.17" width="283.46" height=".25">
        <rect class="st4" x="2.96" y="180.34" width="283.46" height=".25">
        <rect class="st4" x="2.96" y="182.53" width="283.46" height=".25">
        <rect class="st4" x="2.96" y="184.7" width="283.46" height=".25">
        <rect class="st4" x="2.96" y="186.87" width="283.46" height=".25">
        <rect class="st4" x="2.96" y="189.04" width="283.46" height=".25">
        <rect class="st4" x="2.96" y="191.21" width="283.46" height=".25">
        <rect class="st4" x="2.96" y="193.39" width="283.46" height=".25">
        <rect class="st4" x="2.96" y="195.55" width="283.46" height=".25">
        <rect class="st4" x="2.96" y="197.74" width="283.46" height=".25">
        <rect class="st4" x="2.96" y="199.92" width="283.46" height=".25">
        <rect class="st4" x="2.96" y="202.09" width="283.46" height=".25">
        <rect class="st4" x="2.96" y="204.26" width="283.46" height=".25">
        <rect class="st4" x="2.96" y="206.45" width="283.46" height=".25">
        <rect class="st4" x="280.58" y="208.62" width="5.84" height=".25">
        <rect class="st4" x="14.17" y="208.62" width="261.09" height=".25">
        <rect class="st4" x="2.96" y="208.62" width="5.79" height=".25">
        <rect class="st4" x="282.83" y="210.79" width="3.59" height=".25">
        <rect class="st4" x="16.38" y="210.79" width="256.63" height=".25">
        <rect class="st4" x="2.96" y="210.79" width="3.57" height=".25">
        <rect class="st4" x="283.56" y="212.96" width="2.87" height=".25">
        <rect class="st4" x="17.09" y="212.96" width="255.2" height=".25">
        <rect class="st4" x="2.96" y="212.96" width="2.86" height=".25">
        <rect class="st4" x="283.39" y="215.13" width="3.04" height=".25">
        <rect class="st4" x="16.92" y="215.13" width="255.54" height=".25">
        <rect class="st4" x="2.96" y="215.13" width="3.04" height=".25">
        <rect class="st4" x="282.23" y="217.3" width="3.78" height=".25">
        <rect class="st4" x="15.74" y="217.3" width="257.87" height=".25">
        <rect class="st4" x="3.36" y="217.3" width="3.81" height=".25">
        <rect class="st4" x="281.86" y="219.49" width="2.93" height=".25">
        <rect class="st4" x="4.58" y="219.49" width="269.36" height=".25">
      </g>
      <path class="st4" d="M11.46,220.93c-3.94,0-7.15-3.17-7.21-7.09h-.01v-.12c0-1.44.43-2.85,1.25-4.06,1.35-1.98,3.58-3.16,5.96-3.16,3.98,0,7.21,3.24,7.21,7.21,0,2.41-1.19,4.65-3.18,5.98-1.2.81-2.59,1.23-4.03,1.23h.01ZM4.49,213.61v.11c0,3.84,3.13,6.96,6.97,6.96,1.39,0,2.74-.41,3.89-1.19,1.92-1.29,3.06-3.45,3.06-5.78,0-3.84-3.12-6.96-6.96-6.96-2.3,0-4.45,1.14-5.76,3.05-.77,1.14-1.19,2.45-1.21,3.81h.01Z">
      <path class="st4" d="M11.46,219.5c-1.68,0-3.28-.73-4.37-1.99-.56-.64-.98-1.41-1.21-2.22-.14-.5-.21-1.03-.21-1.57,0-.21.01-.43.03-.64.09-.78.34-1.54.73-2.22,1.03-1.8,2.96-2.92,5.04-2.92.97,0,1.93.24,2.77.71.95.51,1.73,1.28,2.27,2.22.39.66.63,1.41.73,2.22.03.21.03.43.03.64,0,.55-.07,1.08-.21,1.57-.23.81-.65,1.58-1.21,2.22-1.11,1.27-2.7,1.99-4.37,1.99h-.02ZM11.46,208.18c-1.99,0-3.83,1.07-4.82,2.8-.37.65-.61,1.38-.69,2.12-.02.2-.03.41-.03.62,0,.52.07,1.03.21,1.51.22.77.62,1.51,1.15,2.12,1.05,1.21,2.58,1.91,4.19,1.91s3.13-.7,4.19-1.91c.54-.62.94-1.35,1.15-2.12.14-.48.21-.98.21-1.51,0-.21,0-.42-.03-.61-.09-.78-.32-1.49-.69-2.12-.52-.9-1.27-1.64-2.17-2.12-.8-.44-1.72-.68-2.65-.68h-.02,0Z">
      <path class="st4" d="M11.46,216.67c-1.63,0-2.96-1.33-2.96-2.96s1.33-2.96,2.96-2.96,2.96,1.33,2.96,2.96-1.33,2.96-2.96,2.96ZM11.46,211.01c-1.49,0-2.71,1.21-2.71,2.71s1.21,2.71,2.71,2.71,2.71-1.21,2.71-2.71-1.21-2.71-2.71-2.71Z">
      <g>
        <circle class="st7" cx="76.66" cy="212.52" r="7.09">
        <path class="st4" d="M76.67,219.74c-3.98,0-7.22-3.24-7.22-7.22s3.24-7.21,7.22-7.21,7.21,3.24,7.21,7.21-3.24,7.22-7.21,7.22ZM76.67,205.55c-3.84,0-6.97,3.12-6.97,6.96s3.12,6.97,6.97,6.97,6.96-3.12,6.96-6.97-3.12-6.96-6.96-6.96Z">
      </g>
      <g>
        <circle class="st7" cx="212.72" cy="212.52" r="7.09">
        <path class="st4" d="M212.73,219.74c-3.98,0-7.21-3.24-7.21-7.22s3.24-7.21,7.21-7.21,7.21,3.24,7.21,7.21-3.24,7.22-7.21,7.22ZM212.73,205.55c-3.84,0-6.96,3.12-6.96,6.96s3.12,6.97,6.96,6.97,6.96-3.12,6.96-6.97-3.12-6.96-6.96-6.96Z">
      </g>
      <g>
        <rect class="st7" x="99.33" y="202.22" width="12.76" height="11.53" rx="3.95" ry="3.95">
        <path class="st4" d="M108.15,213.88h-4.86c-2.25,0-4.07-1.83-4.07-4.08v-3.63c0-2.25,1.83-4.08,4.07-4.08h4.86c2.25,0,4.07,1.83,4.07,4.08v3.63c0,2.25-1.83,4.08-4.07,4.08ZM103.28,202.34c-2.11,0-3.82,1.72-3.82,3.83v3.63c0,2.11,1.72,3.83,3.82,3.83h4.86c2.11,0,3.82-1.72,3.82-3.83v-3.63c0-2.11-1.72-3.83-3.82-3.83h-4.86Z">
      </g>
      <path class="st4" d="M258.4,195.46c-1.24,0-2.25-1.01-2.25-2.25s1.01-2.25,2.25-2.25,2.25,1.01,2.25,2.25-1.01,2.25-2.25,2.25ZM258.4,191.2c-1.11,0-2,.9-2,2s.9,2,2,2,2-.9,2-2-.9-2-2-2Z">
      <path class="st4" d="M98.06,222.34h-8.74c-.79,0-1.42-.64-1.42-1.42s.64-1.43,1.42-1.43h8.74c.79,0,1.42.64,1.42,1.42s-.64,1.43-1.42,1.43ZM89.32,219.74c-.65,0-1.17.53-1.17,1.17s.53,1.18,1.17,1.18h8.74c.65,0,1.17-.53,1.17-1.17s-.53-1.18-1.17-1.18h-8.74Z">
      <path class="st4" d="M200.11,222.34h-8.74c-.79,0-1.42-.64-1.42-1.42s.64-1.43,1.42-1.43h8.74c.79,0,1.42.64,1.42,1.42s-.64,1.43-1.42,1.43ZM191.37,219.74c-.65,0-1.17.53-1.17,1.17s.53,1.18,1.17,1.18h8.74c.65,0,1.17-.53,1.17-1.17s-.53-1.18-1.17-1.18h-8.74Z">
      <g>
        <circle class="st7" cx="76.68" cy="212.49" r="7.09">
        <path class="st4" d="M76.69,219.71c-3.98,0-7.22-3.24-7.22-7.21s3.24-7.21,7.22-7.21,7.21,3.24,7.21,7.21-3.24,7.21-7.21,7.21ZM76.69,205.53c-3.84,0-6.97,3.12-6.97,6.96s3.12,6.96,6.97,6.96,6.96-3.12,6.96-6.96-3.12-6.96-6.96-6.96Z">
      </g>
      <g>
        <circle class="st7" cx="212.75" cy="212.49" r="7.09">
        <path class="st4" d="M212.75,219.71c-3.98,0-7.21-3.24-7.21-7.21s3.24-7.21,7.21-7.21,7.22,3.24,7.22,7.21-3.24,7.21-7.22,7.21ZM212.75,205.53c-3.84,0-6.96,3.12-6.96,6.96s3.12,6.96,6.96,6.96,6.97-3.12,6.97-6.96-3.12-6.96-6.97-6.96Z">
      </g>
      <g>
        <rect class="st7" x="99.36" y="202.18" width="12.76" height="11.53" rx="3.95" ry="3.95">
        <path class="st4" d="M108.17,213.83h-4.86c-2.25,0-4.08-1.83-4.08-4.08v-3.63c0-2.25,1.83-4.08,4.08-4.08h4.86c2.25,0,4.08,1.83,4.08,4.08v3.63c0,2.25-1.83,4.08-4.08,4.08ZM103.31,202.3c-2.11,0-3.83,1.72-3.83,3.83v3.63c0,2.11,1.72,3.83,3.83,3.83h4.86c2.11,0,3.83-1.72,3.83-3.83v-3.63c0-2.11-1.72-3.83-3.83-3.83h-4.86Z">
      </g>
      <path class="st4" d="M122.74,222.34h-10.04c-.79,0-1.43-.64-1.43-1.42s.64-1.42,1.43-1.42h9.91v-14.4h1.67v15.71c0,.85-.7,1.54-1.55,1.54h.01ZM112.71,219.75c-.65,0-1.18.53-1.18,1.17s.53,1.17,1.18,1.17h10.04c.71,0,1.3-.58,1.3-1.29v-15.46h-1.17v14.4h-10.17Z">
      <g>
        <rect class="st7" x="178.02" y="202.28" width="11.34" height="11.34" rx="5" ry="5">
        <path class="st4" d="M184.36,213.75h-1.34c-2.83,0-5.12-2.3-5.12-5.12v-1.34c0-2.83,2.3-5.12,5.12-5.12h1.34c2.83,0,5.12,2.3,5.12,5.12v1.34c0,2.83-2.3,5.12-5.12,5.12ZM183.02,202.41c-2.69,0-4.88,2.19-4.88,4.88v1.34c0,2.69,2.19,4.88,4.88,4.88h1.34c2.69,0,4.88-2.19,4.88-4.88v-1.34c0-2.69-2.19-4.88-4.88-4.88h-1.34Z">
      </g>
      <rect class="st4" x="82.21" y="207.92" width="1.83" height=".25">
      <path class="st4" d="M84.03,208.17v-.25c.11,0,.21-.08.23-.19l.25.04c-.04.23-.24.39-.47.39h-.01Z">
      <g>
        <path class="st4" d="M144.71,197.29c-2.2,0-4-1.79-4-4s1.79-4,4-4,3.99,1.79,3.99,4-1.79,4-3.99,4ZM144.71,189.55c-2.06,0-3.75,1.68-3.75,3.75s1.68,3.75,3.75,3.75,3.74-1.68,3.74-3.75-1.68-3.75-3.74-3.75Z">
        <path class="st4" d="M220.1,208.17h-1.82v-.25h1.82c.11,0,.21-.08.23-.19l.83-4.06h16.03v.25h-15.83l-.79,3.86c-.04.22-.24.39-.47.39Z">
        <path class="st4" d="M71.17,208.17h-1.82c-.23,0-.43-.17-.47-.39l-.79-3.86h-15.83v-.25h16.03l.83,4.06c.02.11.12.19.23.19h1.82v.25Z">
        <path class="st4" d="M236.6,201.08h-40.84l-22.7-4.25h-22.32l.1-.18c.56-1.01.85-2.16.85-3.34,0-3.84-3.12-6.96-6.96-6.96s-6.96,3.12-6.96,6.96c0,1.16.3,2.31.85,3.34l.1.18h-22.34l-22.66,4.25h-40.86v-.25h40.84l22.66-4.25h21.95c-.52-1.02-.79-2.15-.79-3.28,0-3.98,3.24-7.21,7.21-7.21s7.21,3.24,7.21,7.21c0,1.15-.27,2.28-.79,3.28h21.92l22.7,4.25h40.82v.25h0Z">
        <path class="st4" d="M190.81,208.45c-.85,0-1.54-.69-1.54-1.54v-4.19l-11.09-2.08v6.27c0,.85-.69,1.54-1.54,1.54s-1.54-.69-1.54-1.54v-6.85l-2.03-.38h-24.92c-1.04.56-2.22.85-3.4.85s-2.36-.29-3.4-.85h-24.95l-22.66,4.25h-8.42l-.79,3.86-.25-.05.83-4.06h8.6l22.66-4.25h25.06c1.01.56,2.16.85,3.31.85s2.3-.29,3.31-.84h25.04l2.25.41v7.05c0,.71.58,1.29,1.29,1.29s1.29-.58,1.29-1.29v-6.57l.15.03,11.44,2.15v4.39c0,.71.58,1.29,1.29,1.29s1.29-.58,1.29-1.29v-3.91l3.69.69h8.58l.83,4.06c.02.11.12.19.23.19h1.82v.25h-1.82c-.23,0-.43-.17-.47-.39l-.79-3.86h-8.4l-3.42-.63v3.61c0,.85-.69,1.54-1.54,1.54h0Z">
      </g>
      <path class="st4" d="M124.88,213.83h-.71v-.25h.71c.32,0,.58-.26.58-.58v-.99h.19c.28,0,.5-.22.5-.5s-.22-.5-.5-.5h-1.36v2h-.25v-2.25h1.61c.42,0,.75.34.75.75s-.31.72-.7.75v.74c0,.46-.37.83-.83.83h0Z">
      <path class="st4" d="M176.73,222.34h-10.04c-.85,0-1.54-.69-1.54-1.54v-15.71h1.67v14.4h9.92c.79,0,1.42.64,1.42,1.42s-.64,1.42-1.42,1.42h-.01ZM165.4,220.8c0,.71.58,1.29,1.29,1.29h10.04c.65,0,1.17-.53,1.17-1.17s-.53-1.17-1.17-1.17h-10.17v-14.4h-1.17v15.46h.01Z">
      <path class="st4" d="M165.27,213.83h-.71c-.46,0-.83-.38-.83-.83v-.74c-.39-.03-.7-.36-.7-.75s.34-.75.75-.75h1.62v2.25h-.25v-2h-1.37c-.28,0-.5.23-.5.5s.23.5.5.5h.2v.99c0,.32.26.58.58.58h.71v.25Z">
      <polygon class="st4" points="95.24 219.71 92.15 219.71 92.15 203.79 92.4 203.79 92.4 219.46 94.99 219.46 94.99 203.53 95.24 203.53 95.24 219.71">
      <polygon class="st4" points="197.29 219.74 194.2 219.74 194.2 203.53 194.45 203.53 194.45 219.49 197.04 219.49 197.04 203.79 197.29 203.79 197.29 219.74">
      <path class="st4" d="M226.93,219.5c-2.41,0-4.38-1.96-4.38-4.38s1.96-4.38,4.38-4.38,4.38,1.96,4.38,4.38-1.96,4.38-4.38,4.38ZM226.93,211c-2.27,0-4.12,1.85-4.12,4.12s1.85,4.12,4.12,4.12,4.12-1.85,4.12-4.12-1.85-4.12-4.12-4.12Z">
      <path class="st4" d="M62.51,219.5c-2.41,0-4.38-1.96-4.38-4.38s1.96-4.38,4.38-4.38,4.38,1.96,4.38,4.38-1.96,4.38-4.38,4.38ZM62.51,211c-2.27,0-4.12,1.85-4.12,4.12s1.85,4.12,4.12,4.12,4.12-1.85,4.12-4.12-1.85-4.12-4.12-4.12Z">
      <g>
        <rect class="st7" x="243.51" y="183.47" width="29.76" height="17.52" rx="1.69" ry="1.69">
        <path class="st4" d="M271.58,201.12h-26.38c-1,0-1.81-.81-1.81-1.82v-14.14c0-1,.81-1.82,1.81-1.82h26.38c1,0,1.82.81,1.82,1.82v14.14c0,1-.81,1.82-1.82,1.82ZM245.2,183.59c-.86,0-1.56.7-1.56,1.57v14.14c0,.86.7,1.57,1.56,1.57h26.38c.86,0,1.57-.7,1.57-1.57v-14.14c0-.86-.7-1.57-1.57-1.57h-26.38,0Z">
      </g>
      <path class="st4" d="M258.4,194.62c-1.24,0-2.25-1.04-2.25-2.32s1.01-2.31,2.25-2.31,2.25,1.04,2.25,2.31-1.01,2.32-2.25,2.32ZM258.4,190.24c-1.11,0-2,.93-2,2.06s.9,2.07,2,2.07,2-.93,2-2.07-.9-2.06-2-2.06Z">
      <g>
        <polygon class="st7" points="243.51 199.27 243.51 185.18 254.85 192.23 243.51 199.27">
        <path class="st4" d="M243.52,199.39s-.04,0-.06-.02c-.04-.02-.06-.06-.06-.11v-14.09s.02-.09.06-.11.09-.02.13,0l11.34,7.05s.06.06.06.11-.02.08-.06.11l-11.34,7.04s-.04.02-.07.02ZM243.64,185.4v13.64l10.98-6.81-10.98-6.83Z">
      </g>
      <path class="st4" d="M258.4,217.38c-6.71,0-12.17-5.46-12.17-12.17s5.46-12.17,12.17-12.17,12.17,5.46,12.17,12.17-5.46,12.17-12.17,12.17ZM258.4,193.29c-6.58,0-11.92,5.35-11.92,11.92s5.35,11.92,11.92,11.92,11.92-5.35,11.92-11.92-5.35-11.92-11.92-11.92Z">
      <path class="st4" d="M258.4,209.58c-2.41,0-4.38-1.96-4.38-4.38s1.96-4.38,4.38-4.38,4.38,1.96,4.38,4.38-1.96,4.38-4.38,4.38ZM258.4,201.08c-2.27,0-4.12,1.85-4.12,4.12s1.85,4.12,4.12,4.12,4.12-1.85,4.12-4.12-1.85-4.12-4.12-4.12Z">
      <path class="st4" d="M37.1,45.21h-15.91v-3.08h15.91v3.08ZM21.44,44.96h15.41v-2.58h-15.41s0,2.58,0,2.58Z">
      <g>
        <rect class="st4" x="32.73" y="74.81" width="58.11" height=".25">
        <rect class="st4" x="32.73" y="77.17" width="55.75" height=".25">
        <rect class="st4" x="32.73" y="79.52" width="53.39" height=".25">
        <rect class="st4" x="32.73" y="81.88" width="51.02" height=".25">
        <rect class="st4" x="32.73" y="84.25" width="48.66" height=".25">
        <rect class="st4" x="32.73" y="86.62" width="46.3" height=".25">
        <rect class="st4" x="32.73" y="88.98" width="43.94" height=".25">
        <rect class="st4" x="32.73" y="91.33" width="41.57" height=".25">
        <rect class="st4" x="32.73" y="93.71" width="39.21" height=".25">
        <rect class="st4" x="32.73" y="96.06" width="36.85" height=".25">
      </g>
      <g>
        <rect class="st4" x="32.73" y="74.81" width="41" height="1">
        <rect class="st4" x="32.73" y="77.17" width="38.64" height="1">
        <rect class="st4" x="32.73" y="79.53" width="36.28" height="1">
        <rect class="st4" x="32.73" y="81.89" width="33.92" height="1">
        <rect class="st4" x="32.73" y="84.25" width="31.56" height="1">
        <rect class="st4" x="32.73" y="86.62" width="29.19" height="1">
        <rect class="st4" x="32.73" y="88.98" width="26.83" height="1">
        <rect class="st4" x="32.73" y="91.34" width="24.47" height="1">
        <rect class="st4" x="32.73" y="93.7" width="22.11" height="1">
        <rect class="st4" x="32.73" y="96.07" width="19.74" height="1">
      </g>
      <g>
        <rect class="st4" x="32.73" y="74.83" width="23.67" height="1.5">
        <rect class="st4" x="32.73" y="77.2" width="21.3" height="1.5">
        <rect class="st4" x="32.73" y="79.56" width="18.94" height="1.5">
        <rect class="st4" x="32.73" y="81.92" width="16.58" height="1.5">
        <rect class="st4" x="32.73" y="84.28" width="14.22" height="1.5">
        <rect class="st4" x="32.73" y="86.64" width="11.86" height="1.5">
        <rect class="st4" x="32.73" y="89.01" width="9.49" height="1.5">
        <rect class="st4" x="32.73" y="91.37" width="7.13" height="1.5">
        <rect class="st4" x="32.73" y="93.73" width="4.77" height="1.5">
        <rect class="st4" x="32.73" y="96.09" width="2.41" height="1.5">
      </g>
      <g class="st5">
        <g class="st5">
          <g class="st5">
            <path class="st4" d="M76.67,161.05h-1.86v-4.32h1.86c.27,0,.49.04.67.09.3.1.55.28.74.55.15.21.25.45.31.7s.08.49.08.71c0,.57-.12,1.06-.35,1.46-.31.54-.79.81-1.45.81ZM77.34,157.83c-.14-.23-.41-.35-.82-.35h-.83v2.82h.83c.43,0,.72-.21.89-.63.09-.23.14-.5.14-.82,0-.44-.07-.78-.21-1.01h0Z">
            <path class="st4" d="M82.63,156.73l-1.44,2.7v1.62h-.9v-1.62l-1.49-2.7h1.06l.9,1.88.86-1.88h1.02,0Z">
            <path class="st4" d="M86.64,161.05h-.9l-1.76-3.07v3.07h-.84v-4.32h.95l1.72,3.01v-3.01h.84v4.32h0Z">
            <path class="st4" d="M90.01,160.16h-1.59l-.3.89h-.94l1.54-4.32h1.02l1.53,4.32h-.98s-.28-.89-.28-.89ZM89.76,159.42l-.54-1.7-.56,1.7h1.1Z">
            <path class="st4" d="M92.64,161.05h-.84v-4.32h1.31l.79,3.4.78-3.4h1.3v4.32h-.84v-3.62l-.82,3.62h-.88l-.81-3.62v3.62h0Z">
            <path class="st4" d="M96.74,156.73h.9v4.32h-.9v-4.32Z">
            <path class="st4" d="M101.52,160.73c-.32.29-.73.44-1.24.44-.62,0-1.11-.2-1.46-.6-.36-.4-.53-.95-.53-1.65,0-.75.2-1.33.61-1.74.35-.36.8-.53,1.34-.53.73,0,1.26.24,1.59.71.19.27.29.54.3.81h-.9c-.06-.21-.13-.36-.23-.47-.16-.19-.41-.28-.73-.28s-.59.13-.78.4-.28.64-.28,1.12.1.85.3,1.09c.2.24.45.36.76.36s.56-.1.72-.31c.09-.11.17-.28.23-.5h.89c-.08.47-.28.85-.6,1.15h0Z">
            <path class="st4" d="M107.52,160.73c-.32.29-.73.44-1.24.44-.62,0-1.11-.2-1.46-.6-.36-.4-.53-.95-.53-1.65,0-.75.2-1.33.61-1.74.35-.36.8-.53,1.34-.53.73,0,1.26.24,1.59.71.19.27.29.54.3.81h-.9c-.06-.21-.13-.36-.23-.47-.16-.19-.41-.28-.73-.28s-.59.13-.78.4-.28.64-.28,1.12.1.85.3,1.09c.2.24.45.36.76.36s.56-.1.72-.31c.09-.11.17-.28.23-.5h.89c-.08.47-.28.85-.6,1.15h0Z">
            <path class="st4" d="M111.34,160.16h-1.59l-.3.89h-.94l1.54-4.32h1.02l1.53,4.32h-.98s-.28-.89-.28-.89ZM111.09,159.42l-.54-1.7-.56,1.7h1.1Z">
            <path class="st4" d="M114.71,160.43c.21,0,.39-.02.52-.07.25-.09.38-.26.38-.5,0-.14-.06-.25-.19-.33-.12-.08-.32-.14-.59-.2l-.46-.1c-.45-.1-.76-.21-.93-.33-.29-.2-.44-.51-.44-.93,0-.39.14-.71.42-.96s.69-.38,1.24-.38c.46,0,.84.12,1.16.36s.49.59.51,1.05h-.87c-.02-.26-.13-.44-.34-.55-.14-.07-.32-.11-.52-.11-.23,0-.42.05-.56.14s-.21.22-.21.39c0,.15.07.27.21.35.09.05.28.11.56.18l.74.18c.33.08.57.18.74.31.26.2.39.5.39.88s-.15.72-.45.98c-.3.26-.73.39-1.28.39s-1-.13-1.33-.38-.48-.61-.48-1.06h.86c.03.2.08.34.16.44.15.18.4.27.75.27v-.02h.01Z">
            <path class="st4" d="M118.71,160.43c.21,0,.39-.02.52-.07.25-.09.38-.26.38-.5,0-.14-.06-.25-.19-.33-.12-.08-.32-.14-.59-.2l-.46-.1c-.45-.1-.76-.21-.93-.33-.29-.2-.44-.51-.44-.93,0-.39.14-.71.42-.96s.69-.38,1.24-.38c.46,0,.84.12,1.16.36s.49.59.51,1.05h-.87c-.02-.26-.13-.44-.34-.55-.14-.07-.32-.11-.52-.11-.23,0-.42.05-.56.14s-.21.22-.21.39c0,.15.07.27.21.35.09.05.28.11.56.18l.74.18c.33.08.57.18.74.31.26.2.39.5.39.88s-.15.72-.45.98c-.3.26-.73.39-1.28.39s-1-.13-1.33-.38-.48-.61-.48-1.06h.86c.03.2.08.34.16.44.15.18.4.27.75.27v-.02h.01Z">
            <path class="st4" d="M124.15,159.16h-2.1v1.11h2.39v.78h-3.27v-4.32h3.17v.76h-2.29v.92h2.1v.75h0Z">
            <path class="st4" d="M128.29,156.73v.76h-1.29v3.55h-.91v-3.55h-1.3v-.76h3.5Z">
            <path class="st4" d="M131.95,156.73v.76h-1.29v3.55h-.91v-3.55h-1.3v-.76h3.5Z">
            <path class="st4" d="M135.49,159.16h-2.1v1.11h2.39v.78h-3.27v-4.32h3.17v.76h-2.29v.92h2.1v.75h0Z">
            <path class="st4" d="M138.15,156.73h.9v3.54h2.14v.78h-3.04v-4.32h0Z">
            <path class="st4" d="M143.72,161.17c-.62,0-1.09-.17-1.42-.5-.44-.41-.66-1.01-.66-1.78s.22-1.38.66-1.78c.33-.34.8-.5,1.42-.5s1.09.17,1.42.5c.44.4.65.99.65,1.78s-.22,1.37-.65,1.78c-.33.34-.8.5-1.42.5ZM144.58,160.01c.21-.26.31-.64.31-1.12s-.1-.86-.31-1.12c-.21-.26-.49-.4-.85-.4s-.64.13-.86.4-.32.64-.32,1.12.11.86.32,1.12.5.4.86.4.64-.13.85-.4Z">
            <path class="st4" d="M150.68,156.73h.92l-1.22,4.32h-.86l-.52-2.53-.15-.83-.15.83-.52,2.53h-.84l-1.22-4.32h.96l.57,2.47.12.69.13-.67.49-2.49h.95l.51,2.47.13.69.13-.66.58-2.5h-.01Z">
            <path class="st4" d="M157.3,161.05h-.9l-1.76-3.07v3.07h-.84v-4.32h.95l1.72,3.01v-3.01h.84v4.32h-.01Z">
            <path class="st4" d="M160.05,161.17c-.62,0-1.09-.17-1.42-.5-.44-.41-.66-1.01-.66-1.78s.22-1.38.66-1.78c.33-.34.8-.5,1.42-.5s1.09.17,1.42.5c.44.4.65.99.65,1.78s-.22,1.37-.65,1.78c-.33.34-.8.5-1.42.5ZM160.91,160.01c.21-.26.31-.64.31-1.12s-.11-.86-.32-1.12-.49-.4-.85-.4-.64.13-.86.4-.32.64-.32,1.12.11.86.32,1.12.5.4.86.4.64-.13.85-.4h.01Z">
            <path class="st4" d="M162.74,156.73h.9v4.32h-.9v-4.32Z">
            <path class="st4" d="M166.05,160.43c.21,0,.39-.02.52-.07.25-.09.38-.26.38-.5,0-.14-.06-.25-.19-.33-.12-.08-.32-.14-.59-.2l-.46-.1c-.45-.1-.76-.21-.93-.33-.29-.2-.44-.51-.44-.93,0-.39.14-.71.42-.96s.69-.38,1.24-.38c.46,0,.84.12,1.16.36s.49.59.51,1.05h-.87c-.02-.26-.13-.44-.34-.55-.14-.07-.32-.11-.52-.11-.23,0-.42.05-.56.14s-.21.22-.21.39c0,.15.07.27.21.35.09.05.28.11.56.18l.74.18c.33.08.57.18.74.31.26.2.39.5.39.88s-.15.72-.45.98-.73.39-1.28.39-1-.13-1.33-.38-.48-.61-.48-1.06h.86c.03.2.08.34.16.44.15.18.4.27.75.27v-.02h0Z">
            <path class="st4" d="M171.49,159.16h-2.1v1.11h2.39v.78h-3.27v-4.32h3.17v.76h-2.29v.92h2.1v.75h0Z">
            <path class="st4" d="M176.72,161.05v-1.93h-1.69v1.93h-.89v-4.32h.89v1.65h1.69v-1.65h.9v4.32h-.9Z">
            <path class="st4" d="M178.41,156.73h.9v4.32h-.9v-4.32Z">
            <path class="st4" d="M182.8,160.94c-.24.15-.53.22-.88.22-.57,0-1.04-.2-1.41-.59-.38-.4-.57-.94-.57-1.63s.19-1.26.58-1.68.89-.63,1.53-.63c.55,0,.99.14,1.32.42s.52.62.57,1.04h-.89c-.07-.29-.24-.5-.5-.62-.15-.06-.31-.1-.5-.1-.35,0-.63.13-.86.39s-.33.66-.33,1.18.12.91.36,1.13.52.33.83.33.55-.09.74-.26.31-.4.36-.69h-1v-.72h1.8v2.32h-.6l-.09-.54c-.17.21-.33.35-.47.43h0Z">
            <path class="st4" d="M187.39,161.05v-1.93h-1.69v1.93h-.89v-4.32h.89v1.65h1.69v-1.65h.9v4.32h-.9Z">
            <path class="st4" d="M192.73,161.17c-.62,0-1.09-.17-1.42-.5-.44-.41-.66-1.01-.66-1.78s.22-1.38.66-1.78c.33-.34.8-.5,1.42-.5s1.09.17,1.42.5c.44.4.65.99.65,1.78s-.22,1.37-.65,1.78c-.33.34-.8.5-1.42.5ZM193.58,160.01c.21-.26.31-.64.31-1.12s-.11-.86-.32-1.12-.49-.4-.85-.4-.64.13-.86.4-.32.64-.32,1.12.11.86.32,1.12.5.4.86.4.64-.13.85-.4h.01Z">
            <path class="st4" d="M198.04,159.39v-2.65h.92v2.65c0,.46-.07.82-.21,1.07-.27.47-.77.7-1.52.7s-1.26-.23-1.52-.7c-.14-.26-.21-.61-.21-1.07v-2.65h.92v2.65c0,.3.04.51.11.65.11.24.35.36.71.36s.6-.12.71-.36c.07-.14.11-.35.11-.65h-.02,0Z">
            <path class="st4" d="M202.95,156.73v.76h-1.29v3.55h-.91v-3.55h-1.3v-.76h3.5Z">
            <path class="st4" d="M205.31,159.5h-.92v1.55h-.9v-4.32h1.88c.43,0,.78.11,1.04.33s.39.57.39,1.03c0,.51-.13.87-.39,1.08s-.63.32-1.1.32h0ZM205.74,158.6c.12-.1.18-.27.18-.49s-.06-.38-.18-.48-.28-.14-.5-.14h-.84v1.27h.84c.21,0,.38-.05.5-.16Z">
            <path class="st4" d="M210.04,159.39v-2.65h.92v2.65c0,.46-.07.82-.21,1.07-.27.47-.77.7-1.52.7s-1.26-.23-1.52-.7c-.14-.26-.21-.61-.21-1.07v-2.65h.92v2.65c0,.3.04.51.11.65.11.24.35.36.71.36s.6-.12.71-.36c.07-.14.11-.35.11-.65h-.02,0Z">
            <path class="st4" d="M214.95,156.73v.76h-1.29v3.55h-.91v-3.55h-1.3v-.76h3.5Z">
          </g>
        </g>
      </g>
      <g class="st5">
        <g class="st5">
          <g class="st5">
            <path class="st4" d="M26.47,154.52h1.32l3.12,8.61h-1.28l-.87-2.58h-3.4l-.93,2.58h-1.2s3.24-8.61,3.24-8.61ZM28.39,159.6l-1.31-3.8-1.39,3.8s2.7,0,2.7,0Z">
            <path class="st4" d="M32.39,156.94h1.22v1.28h-1.22v-1.28ZM32.39,161.85h1.22v1.28h-1.22v-1.28Z">
          </g>
        </g>
      </g>
      <g class="st5">
        <g class="st5">
          <g class="st5">
            <path class="st4" d="M95.13,87.58v4.64h-1.02v-4.64h1.02Z">
            <path class="st4" d="M99.5,87.58v.86h-2.45v1h2.25v.79h-2.25v1.14h2.5v.86h-3.52v-4.64h3.47,0Z">
            <path class="st4" d="M103.22,88.82c-.06-.1-.14-.18-.23-.26-.09-.07-.19-.13-.31-.17-.11-.04-.23-.06-.36-.06-.23,0-.42.04-.58.13s-.29.21-.39.36-.17.32-.22.51-.07.39-.07.59.02.38.07.57c.05.18.12.35.22.5s.23.27.39.35c.16.09.36.13.58.13.31,0,.56-.1.73-.29.18-.19.28-.44.32-.75h.99c-.03.29-.09.55-.2.79-.11.23-.25.43-.43.6s-.39.29-.62.38c-.24.09-.5.13-.79.13-.35,0-.67-.06-.96-.18-.28-.12-.52-.29-.72-.51s-.34-.47-.45-.76c-.1-.29-.16-.61-.16-.95s.05-.67.16-.97.25-.56.45-.78.43-.39.72-.52c.28-.12.6-.19.96-.19.26,0,.5.04.73.11s.43.18.61.32.33.32.45.52c.12.21.19.45.22.71h-.99c-.02-.12-.06-.22-.12-.32h0Z">
            <path class="st4" d="M106.08,87.58v4.64h-1.02v-4.64h1.02Z">
            <path class="st4" d="M109.01,87.47l-1.81,4.86h-.73l1.81-4.86h.74,0Z">
            <path class="st4" d="M109.02,88.44v-.86h3.8v.86h-1.39v3.78h-1.02v-3.78h-1.39Z">
            <path class="st4" d="M112.86,87.58h1.14l1.09,1.83,1.08-1.83h1.14l-1.72,2.86v1.78h-1.02v-1.81l-1.7-2.83h-.01Z">
            <path class="st4" d="M119.79,87.58c.29,0,.54.04.74.13.2.08.37.2.5.33s.22.3.28.47c.06.18.09.36.09.55s-.03.37-.09.55-.15.34-.28.48c-.13.14-.29.25-.5.33-.2.08-.45.13-.74.13h-1.07v1.66h-1.02v-4.64h2.09ZM119.51,89.76c.12,0,.23,0,.34-.03.11-.02.2-.05.29-.1.08-.05.15-.12.2-.21.05-.09.07-.21.07-.36s-.03-.27-.07-.36c-.05-.09-.12-.16-.2-.21-.08-.05-.18-.08-.29-.1s-.22-.03-.34-.03h-.79v1.39h.79Z">
            <path class="st4" d="M125.5,87.58v.86h-2.45v1h2.25v.79h-2.25v1.14h2.5v.86h-3.52v-4.64h3.47,0Z">
            <path class="st4" d="M127.42,92.22v-2.95h-1.14v-.7c.16,0,.32,0,.46-.04.15-.03.28-.08.4-.15s.22-.17.3-.28c.08-.12.14-.26.16-.44h.73v4.55h-.92,0Z">
            <path class="st4" d="M132.68,87.58l1.94,3.11h0v-3.11h.96v4.64h-1.02l-1.93-3.11h0v3.11h-.96v-4.64h1.01Z">
            <path class="st4" d="M136.43,88.95c.1-.3.25-.56.45-.78s.43-.39.72-.52c.28-.12.6-.19.96-.19s.68.06.96.19c.28.13.52.3.71.52s.34.48.45.78.16.62.16.97-.05.65-.16.95c-.1.29-.25.55-.45.76s-.43.39-.71.51c-.28.12-.6.18-.96.18s-.67-.06-.96-.18c-.28-.12-.52-.29-.72-.51s-.34-.47-.45-.76c-.1-.29-.16-.61-.16-.95s.05-.67.16-.97ZM137.37,90.49c.05.18.12.35.22.5s.23.27.39.35c.16.09.36.13.58.13s.42-.04.58-.13.29-.21.39-.35c.1-.15.17-.31.22-.5.05-.18.07-.37.07-.57s-.02-.4-.07-.59-.12-.36-.22-.51-.23-.27-.39-.36c-.16-.09-.35-.13-.58-.13s-.42.04-.58.13-.29.21-.39.36-.17.32-.22.51-.07.39-.07.59.02.38.07.57Z">
            <path class="st4" d="M144.04,87.58c.21,0,.4.03.56.1s.31.16.43.28c.12.12.21.25.27.41.06.15.09.32.09.5,0,.27-.06.51-.17.71s-.3.35-.56.46h0c.13.05.23.1.31.17s.15.16.2.25c.05.1.09.21.11.32s.04.23.05.35v.26c0,.1,0,.2.02.31,0,.1.03.2.05.3.02.09.06.17.11.24h-1.02c-.06-.15-.09-.32-.1-.53,0-.2-.03-.4-.06-.58-.04-.24-.11-.42-.22-.53s-.3-.17-.55-.17h-1.02v1.81h-1.02v-4.64h2.5v-.02h.02ZM143.68,89.68c.23,0,.41-.05.53-.16.12-.1.18-.27.18-.51s-.06-.39-.18-.49-.29-.15-.53-.15h-1.12v1.31s1.12,0,1.12,0Z">
            <path class="st4" d="M147.67,87.58l1.09,3.19h0l1.03-3.19h1.44v4.64h-.96v-3.29h0l-1.14,3.29h-.79l-1.14-3.26h0v3.26h-.96v-4.64h1.44,0Z">
            <path class="st4" d="M154.44,87.58l1.74,4.64h-1.06l-.35-1.03h-1.74l-.36,1.03h-1.03l1.75-4.64h1.05ZM154.5,90.43l-.58-1.7h0l-.6,1.7h1.2-.02Z">
            <path class="st4" d="M157.6,87.58v3.78h2.26v.86h-3.28v-4.64h1.02Z">
            <path class="st4" d="M164.33,87.58c.29,0,.54.04.74.13.2.08.37.2.5.33s.22.3.28.47.09.36.09.55-.03.37-.09.55-.15.34-.28.48c-.13.14-.29.25-.5.33-.2.08-.45.13-.74.13h-1.07v1.66h-1.02v-4.64h2.09ZM164.05,89.76c.12,0,.23,0,.34-.03.11-.02.2-.05.29-.1.08-.05.15-.12.2-.21s.07-.21.07-.36-.03-.27-.07-.36c-.05-.09-.12-.16-.2-.21-.08-.05-.18-.08-.29-.1s-.22-.03-.34-.03h-.79v1.39h.79Z">
            <path class="st4" d="M166.53,88.95c.1-.3.25-.56.45-.78.19-.22.43-.39.72-.52.28-.12.6-.19.96-.19s.68.06.96.19c.28.13.52.3.71.52.2.22.34.48.45.78.1.3.16.62.16.97s-.05.65-.16.95c-.1.29-.25.55-.45.76-.19.22-.43.39-.71.51-.28.12-.6.18-.96.18s-.67-.06-.96-.18c-.28-.12-.52-.29-.72-.51s-.34-.47-.45-.76c-.1-.29-.16-.61-.16-.95s.05-.67.16-.97ZM167.46,90.49c.04.18.12.35.22.5s.23.27.39.35.36.13.58.13.42-.04.58-.13.29-.21.39-.35c.1-.15.17-.31.22-.5.05-.18.07-.37.07-.57s-.02-.4-.07-.59c-.04-.19-.12-.36-.22-.51s-.23-.27-.39-.36-.36-.13-.58-.13-.42.04-.58.13-.29.21-.39.36-.17.32-.22.51-.07.39-.07.59.02.38.07.57Z">
            <path class="st4" d="M172.41,91.08c.06.11.13.2.22.26.09.07.2.12.33.15s.26.05.39.05c.09,0,.19,0,.29-.02.1-.02.2-.04.29-.09s.17-.1.23-.18.09-.17.09-.29c0-.13-.04-.23-.12-.31s-.19-.14-.32-.2-.28-.1-.44-.14-.33-.08-.5-.13c-.17-.04-.34-.1-.51-.16-.17-.06-.31-.14-.44-.24s-.24-.22-.32-.37-.12-.33-.12-.54c0-.24.05-.45.15-.62.1-.18.23-.32.4-.44s.35-.2.56-.26.42-.08.62-.08c.24,0,.48.03.7.08s.42.14.59.26.31.28.41.46c.1.19.15.42.15.69h-.99c0-.14-.04-.25-.09-.34s-.12-.16-.2-.21c-.08-.05-.18-.09-.28-.11s-.22-.03-.35-.03c-.08,0-.17,0-.25.03s-.16.05-.22.09c-.07.04-.12.1-.17.16-.04.06-.07.15-.07.25,0,.09.02.16.05.22.04.06.1.11.21.16s.24.09.42.14.41.11.71.18c.09.02.21.05.36.09.15.05.31.12.46.22.15.1.28.23.39.4s.17.38.17.64c0,.21-.04.41-.12.59-.08.18-.2.34-.37.47-.16.13-.36.24-.6.31s-.52.11-.83.11c-.26,0-.5-.03-.74-.09s-.45-.16-.64-.3c-.18-.13-.33-.31-.44-.51s-.16-.46-.16-.74h.99c0,.16.03.29.08.4h.03Z">
            <path class="st4" d="M176.87,87.58v4.64h-1.02v-4.64h1.02Z">
            <path class="st4" d="M177.4,88.44v-.86h3.8v.86h-1.39v3.78h-1.02v-3.78h-1.39Z">
            <path class="st4" d="M182.76,87.58v4.64h-1.02v-4.64h1.02Z">
            <path class="st4" d="M183.61,88.95c.1-.3.25-.56.45-.78s.43-.39.72-.52c.28-.12.6-.19.96-.19s.68.06.96.19c.28.13.52.3.71.52.19.22.34.48.45.78.1.3.16.62.16.97s-.05.65-.16.95c-.1.29-.25.55-.45.76-.2.22-.43.39-.71.51-.28.12-.6.18-.96.18s-.67-.06-.96-.18c-.28-.12-.52-.29-.72-.51-.19-.22-.34-.47-.45-.76-.1-.29-.16-.61-.16-.95s.05-.67.16-.97ZM184.54,90.49c.05.18.12.35.22.5s.23.27.39.35c.16.09.36.13.58.13s.42-.04.58-.13.29-.21.39-.35c.1-.15.17-.31.22-.5.04-.18.07-.37.07-.57s-.02-.4-.07-.59c-.05-.19-.12-.36-.22-.51s-.23-.27-.39-.36c-.16-.09-.35-.13-.58-.13s-.42.04-.58.13-.29.21-.39.36-.17.32-.22.51-.07.39-.07.59.02.38.07.57Z">
            <path class="st4" d="M189.73,87.58l1.94,3.11h0v-3.11h.96v4.64h-1.02l-1.93-3.11h0v3.11h-.96v-4.64h1.01Z">
          </g>
        </g>
      </g>
      <g class="st5">
        <g class="st5">
          <g class="st5">
            <path class="st4" d="M112.03,75.06v1.66h-2.8v7.7h-1.97v-7.7h-2.81v-1.66h7.58Z">
            <path class="st4" d="M117.21,84.42h-4.03v-9.36h4.03c.58,0,1.06.08,1.45.2.66.22,1.19.61,1.59,1.19.33.47.55.97.67,1.51.12.54.18,1.06.18,1.55,0,1.24-.25,2.3-.75,3.16-.68,1.16-1.72,1.75-3.14,1.75ZM118.66,77.45c-.3-.51-.9-.76-1.78-.76h-1.8v6.11h1.8c.92,0,1.57-.46,1.93-1.37.2-.5.3-1.09.3-1.78,0-.95-.15-1.68-.44-2.2h-.01Z">
            <path class="st4" d="M130.85,84.42h-2.51l-2.89-4.09-.93.96v3.13h-1.92v-9.36h1.92v3.85l3.61-3.85h2.53l-3.83,3.85,4.03,5.5h0Z">
          </g>
        </g>
      </g>
      <g>
        <g>
          <polyline class="st6" points="101.18 75.2 99.23 77.14 97.27 75.2">
          <g>
            <rect class="st0" x="97.27" y="75.2" width="3.91" height="3.89">
            <polyline class="st6" points="101.18 79.09 99.23 77.14 97.27 79.09">
          </g>
        </g>
        <g>
          <polyline class="st6" points="101.18 79.09 101.89 81.75 99.23 82.47">
          <g>
            <rect class="st0" x="99.94" y="79.81" width="3.91" height="3.89" transform="translate(-19.85 129.12) rotate(-60)">
            <polyline class="st6" points="102.59 84.42 101.89 81.75 104.55 81.03 101.18 79.09 101.18 75.2 104.55 81.03">
          </g>
        </g>
        <polyline class="st6" points="95.86 84.42 96.57 81.75 93.9 81.03 97.27 79.09 97.27 75.2 93.9 81.03">
        <polyline points="97.27 79.09 96.57 81.75 99.23 82.47">
        <polyline class="st6" points="99.23 82.47 95.86 84.42 102.59 84.42">
      </g>
      <g>
        <g>
          <path class="st0" d="M228.62,70.33c-1.42-1.32-3.34-1.29-4.05-1.28-2.08.03-3.55,1-4.11,1.41-4.27,6.02-8.55,12.04-12.82,18.06-.08.18-.24.62-.06,1.06.14.34.44.58.94.77,1.75.68,4.09.17,4.09.17,2.47-.54,4.23-1.41,4.39-1.49,2.77-1.4,5.19-2.63,7.84-5.2,2.51-2.43,5.18-5.03,5.32-8.77.03-.82.12-3.19-1.53-4.73h0Z">
          <g>
            <g>
              <path class="st4" d="M257.58,75.99c-1.6-1.39-5.93.98-9.68,5.29s-5.49,8.93-3.89,10.32,5.93-.98,9.68-5.29c3.75-4.31,5.49-8.93,3.89-10.32h0ZM252.5,84.92c-3.04,4.01-6.23,6.72-7.13,6.04s.84-4.49,3.87-8.5c3.04-4.01,6.23-6.72,7.13-6.04.9.68-.84,4.49-3.87,8.5h0Z">
              <path class="st4" d="M245.22,92.03c-.5,0-.92-.13-1.23-.4-.79-.68-.81-2.14-.07-4.11.74-1.95,2.14-4.18,3.96-6.27,3.76-4.32,8.13-6.69,9.74-5.29h0c.36.31.56.78.6,1.39.15,2.12-1.65,5.73-4.49,8.99-3.03,3.48-6.45,5.7-8.51,5.7h0ZM256.37,75.63c-2.03,0-5.42,2.21-8.43,5.67-1.81,2.08-3.21,4.3-3.94,6.24-.73,1.93-.71,3.36.05,4.02,1.57,1.37,5.89-1,9.62-5.29,2.82-3.24,4.61-6.83,4.47-8.93-.04-.59-.23-1.04-.57-1.33h0c-.3-.26-.71-.39-1.19-.39h0ZM245.73,91.1c-.15,0-.27-.04-.38-.11-.93-.7.77-4.46,3.86-8.56,2.77-3.65,5.58-6.16,6.81-6.16.15,0,.27.04.37.11.45.34.29,1.42-.45,3.05-.73,1.61-1.94,3.56-3.41,5.51h0c-2.77,3.65-5.58,6.16-6.81,6.16h.01ZM256.03,76.36c-1.08,0-3.73,2.13-6.76,6.12-3.02,3.99-4.76,7.78-3.88,8.44.77.58,3.69-1.57,7.07-6.03,1.47-1.94,2.67-3.89,3.41-5.49.71-1.56.89-2.64.47-2.95-.08-.06-.19-.09-.32-.09h.01Z">
            </g>
            <path class="st0" d="M256.37,76.42c-.9-.68-4.09,2.02-7.13,6.04-3.04,4.01-4.77,7.82-3.87,8.5s4.09-2.02,7.13-6.04c3.04-4.01,4.77-7.82,3.87-8.5Z">
          </g>
        </g>
        <g>
          <path class="st4" d="M228.57,93.89c.32-.05.76-.13,1.29-.26.58-.14,2.38-.6,5.32-2.18,2.25-1.22,3.93-2.42,4.86-3.13,2.12-1.62,3.54-3.06,4.22-3.79.49-.52,1.48-1.61,2.44-3.16.17-.27.75-1.22,1.12-2.56.27-.99.23-1.45.11-1.81-.04-.14-.29-.91-1.01-1.26-.17-.08-.4-.16-1.01-.17-.59-.01-1.43-.02-2.5.34-.62.21-1.16.5-1.87.98-.36.24-1.77,1.17-3.39,2.96-.64.71-1.16,1.38-1.64,2.13-.93,1.46-.96,2.09-.92,2.5.02.18.09.83.52,1.24.74.7,2.41.53,3.99-.63.04-.04.09-.09.08-.14-.02-.06-.17-.07-.27-.07-.41,0-.65.03-.81.04-.29,0-.66-.1-.83-.29-.31-.34-.11-1.01.07-1.49.64-1.73,1.67-3.02,2.18-3.61.65-.76,1.35-1.57,2.53-2.34.51-.33.96-.56,1.3-.71.07-.03.18-.08.32-.1.04,0,.41-.05.67.11.13.08.32.27.37.83.1.95-.3,1.87-.57,2.44-.7,1.48-1.43,2.5-1.69,2.86-.57.78-1.05,1.31-1.46,1.77-.94,1.04-1.72,1.75-2.49,2.44-.85.76-1.45,1.31-2.36,1.97-.65.48-1.25.84-2.45,1.58-1.04.63-1.68,1.03-2.62,1.51-1.09.57-1.82.87-2.36,1.07-.36.13-.66.24-.88.31-.03,0-.16,0-.28.1-.02.02-.12.11-.13.26,0,.17.09.28.1.3l.05-.04h0Z">
          <path class="st4" d="M228.51,93.99l-.02-.04h0c-.03-.05-.11-.16-.1-.32,0-.11.05-.2.14-.28s.19-.11.3-.11c.18-.06.42-.14.7-.25l.17-.06c.46-.17,1.21-.47,2.35-1.07.83-.42,1.43-.79,2.27-1.3l.69-.42c.98-.6,1.52-.94,2.11-1.37.84-.61,1.42-1.13,2.16-1.79l.2-.18c.82-.73,1.57-1.42,2.49-2.44l.07-.07c.4-.45.85-.96,1.39-1.69.65-.89,1.21-1.85,1.69-2.85.2-.42.67-1.42.57-2.42-.04-.41-.16-.68-.35-.8-.15-.09-.35-.12-.62-.11h-.03c-.12.02-.22.06-.29.09h-.02c-.29.14-.75.36-1.29.71-1.19.78-1.9,1.6-2.52,2.33-.96,1.12-1.71,2.36-2.17,3.6-.17.47-.37,1.12-.08,1.45.16.18.53.28.8.28h.13c.16-.01.37-.03.68-.03.25,0,.29.06.31.1,0,.08-.05.14-.09.18-1.51,1.11-3.25,1.38-4.05.63-.29-.28-.47-.7-.53-1.27-.04-.46.03-1.12.93-2.53.47-.73.99-1.41,1.64-2.14,1.06-1.17,2.2-2.17,3.38-2.96h.02c.73-.51,1.28-.79,1.88-1,1.09-.37,1.94-.35,2.51-.34.63.01.86.1,1.03.17.73.36.99,1.13,1.03,1.29.11.33.18.79-.11,1.83-.34,1.21-.85,2.13-1.12,2.57-1.03,1.66-2.09,2.79-2.44,3.17-.84.9-2.25,2.29-4.23,3.79-1.02.78-2.69,1.96-4.86,3.13-1.39.74-3.44,1.73-5.33,2.18-.43.11-.86.19-1.28.26l-.08.06-.03.02h0ZM228.83,93.31c-.09,0-.18.03-.25.09-.07.07-.11.15-.12.23,0,.11.04.19.07.24l.02-.02h0c.42-.07.85-.15,1.29-.26,1.89-.45,3.93-1.43,5.31-2.18,2.17-1.17,3.83-2.35,4.85-3.13,1.97-1.51,3.38-2.89,4.22-3.79.35-.37,1.41-1.5,2.43-3.15.27-.44.78-1.34,1.12-2.55.28-1.02.22-1.46.11-1.79-.04-.15-.29-.9-.99-1.24-.16-.08-.38-.16-.99-.17-.56,0-1.41-.02-2.49.34-.59.2-1.13.48-1.86.98h-.02c-1.18.79-2.31,1.78-3.37,2.95-.65.72-1.17,1.4-1.63,2.12-.88,1.39-.96,2.03-.91,2.47.06.54.23.95.51,1.22.77.72,2.46.45,3.94-.63.03-.03.07-.07.06-.1,0,0-.05-.04-.23-.04-.31,0-.52.02-.68.03-.05,0-.09,0-.13.01h0c-.29,0-.68-.1-.86-.3-.33-.36-.12-1.04.06-1.53.46-1.25,1.22-2.5,2.19-3.62.63-.73,1.34-1.57,2.54-2.35.55-.36,1.01-.58,1.3-.71h.02c.07-.04.18-.08.31-.1h.03c.11,0,.43-.03.67.12.22.13.35.42.39.86.11,1.02-.37,2.03-.57,2.46-.48,1.01-1.05,1.97-1.69,2.87-.54.74-1,1.25-1.4,1.7l-.07.07c-.92,1.02-1.67,1.71-2.49,2.44l-.2.18c-.74.66-1.33,1.19-2.17,1.8-.59.43-1.13.77-2.11,1.37l-.69.42c-.84.51-1.44.88-2.27,1.3-1.15.6-1.9.9-2.36,1.07l-.17.06c-.28.1-.52.19-.71.25h-.02.01Z">
        </g>
      </g>
      <path class="st4" d="M218.44,91.72h-6.62l.5-.85c.65,0,1.18-.05,1.57-.16.39-.11.74-.33,1.05-.68.31-.34.66-.85,1.05-1.52l6.18-10.31c.38-.62.58-1.07.61-1.37.03-.29-.1-.48-.4-.58-.29-.09-.75-.14-1.38-.14l.55-.88h6.92c1.28,0,2.37.13,3.26.4s1.56.67,2.03,1.2c.47.54.71,1.2.74,2.01.02.8-.19,1.75-.65,2.83-.76,1.81-1.69,3.35-2.8,4.63-1.1,1.28-2.33,2.32-3.68,3.11-1.35.79-2.78,1.38-4.29,1.74-1.5.37-3.06.55-4.66.55l.02.02h0ZM218.93,90.59c1.79,0,3.42-.29,4.88-.87s2.77-1.5,3.93-2.77,2.16-2.93,3.01-4.97c.34-.82.55-1.57.65-2.24.09-.68.02-1.27-.21-1.77-.23-.5-.67-.89-1.32-1.18-.65-.28-1.55-.43-2.71-.43-.19,0-.36,0-.51.01-.15,0-.35.03-.61.06l-8.53,14.09c.2.03.43.05.67.05h.77l-.02.02h0Z">
      <rect class="st4" x="256.22" y="127.15" width=".25" height="63.73" transform="translate(-36.13 232.91) rotate(-45.99)">
      <rect class="st4" x="260.21" y="197.43" width="28.73" height=".25" transform="translate(-13.17 375.38) rotate(-67.45)">
      <rect class="st4" x="14.7" y="183.25" width=".25" height="28.76" transform="translate(-74.38 20.66) rotate(-22.46)">
      <polygon class="st4" points="9.27 183.31 9.02 183.29 13.66 119.07 13.91 119.09 9.27 183.31">
      <circle class="st0" cx="158.93" cy="204.5" r="2.13">
      <path class="st3" d="M241.22,222.23l-8.76,41.21c-.19.9-1,1.56-1.92,1.56H58.84c-.92,0-1.73-.66-1.92-1.56l-8.76-41.21h193.07-.01ZM48.46,222.48l8.7,40.91c.17.79.88,1.36,1.68,1.36h171.7c.81,0,1.51-.57,1.68-1.36l8.7-40.91H48.46Z">
      <path class="st3" d="M43.15,239.39c0,6.71-5.46,12.17-12.17,12.17s-12.17-5.46-12.17-12.17,5.46-12.17,12.17-12.17,12.17,5.46,12.17,12.17ZM42.9,239.39c0-6.57-5.35-11.92-11.92-11.92s-11.92,5.35-11.92,11.92,5.34,11.92,11.92,11.92,11.92-5.35,11.92-11.92Z">
      <path class="st3" d="M35.36,239.4c0,2.42-1.96,4.38-4.38,4.38s-4.38-1.96-4.38-4.38,1.97-4.38,4.38-4.38,4.38,1.96,4.38,4.38ZM35.1,239.4c0-2.27-1.85-4.12-4.12-4.12s-4.12,1.85-4.12,4.12,1.85,4.12,4.12,4.12,4.12-1.85,4.12-4.12Z">
      <path class="st3" d="M33.23,239.39c0,1.24-1.01,2.25-2.25,2.25s-2.25-1.01-2.25-2.25,1.01-2.25,2.25-2.25,2.25,1.01,2.25,2.25ZM32.98,239.39c0-1.1-.9-2-2-2s-2,.9-2,2,.89,2,2,2,2-.9,2-2Z">
      <path class="st3" d="M260.65,239.17c0,1.24-1.01,2.25-2.25,2.25s-2.25-1.01-2.25-2.25,1.01-2.25,2.25-2.25,2.25,1.01,2.25,2.25ZM260.4,239.18c0-1.1-.9-2-2-2s-2,.9-2,2,.89,2,2,2,2-.9,2-2Z">
      <path class="st3" d="M280.36,261.31c0,1.63-1.33,2.96-2.96,2.96s-2.96-1.33-2.96-2.96,1.33-2.96,2.96-2.96,2.96,1.33,2.96,2.96ZM280.11,261.3c0-1.5-1.21-2.71-2.71-2.71s-2.71,1.21-2.71,2.71,1.22,2.71,2.71,2.71,2.71-1.21,2.71-2.71Z">
      <path class="st3" d="M280.36,244.81c0,1.63-1.33,2.96-2.96,2.96s-2.96-1.33-2.96-2.96,1.33-2.96,2.96-2.96,2.96,1.33,2.96,2.96ZM280.11,244.8c0-1.5-1.21-2.71-2.71-2.71s-2.71,1.21-2.71,2.71,1.22,2.71,2.71,2.71,2.71-1.21,2.71-2.71Z">
      <path class="st3" d="M14.94,261.31c0,1.63-1.33,2.96-2.96,2.96s-2.96-1.33-2.96-2.96,1.33-2.96,2.96-2.96,2.96,1.33,2.96,2.96ZM14.69,261.3c0-1.5-1.21-2.71-2.71-2.71s-2.71,1.21-2.71,2.71,1.22,2.71,2.71,2.71,2.71-1.21,2.71-2.71Z">
      <path class="st3" d="M14.94,244.81c0,1.63-1.33,2.96-2.96,2.96s-2.96-1.33-2.96-2.96,1.33-2.96,2.96-2.96,2.96,1.33,2.96,2.96ZM14.69,244.8c0-1.5-1.21-2.71-2.71-2.71s-2.71,1.21-2.71,2.71,1.22,2.71,2.71,2.71,2.71-1.21,2.71-2.71Z">
      <path class="st3" d="M277.92,223.64c3.93,0,7.14,3.17,7.22,7.09v.12c0,1.44-.43,2.85-1.25,4.06-1.35,1.97-3.58,3.15-5.96,3.15-3.97,0-7.21-3.23-7.21-7.21,0-2.41,1.19-4.64,3.18-5.98,1.2-.8,2.59-1.23,4.03-1.23h-.01ZM277.93,237.79c2.3,0,4.46-1.13,5.76-3.04.77-1.13,1.18-2.44,1.2-3.79v-.12c0-3.84-3.12-6.96-6.96-6.96-1.39,0-2.73.41-3.89,1.19-1.91,1.29-3.06,3.45-3.06,5.78,0,3.84,3.12,6.96,6.96,6.96v-.02h-.01Z">
      <path class="st3" d="M283.72,230.85c0,3.19-2.59,5.79-5.79,5.79s-5.8-2.6-5.8-5.79,2.6-5.79,5.8-5.79,5.79,2.6,5.79,5.79ZM283.47,230.86c0-3.05-2.48-5.54-5.54-5.54s-5.55,2.49-5.55,5.54,2.49,5.54,5.55,5.54,5.54-2.49,5.54-5.54Z">
      <path class="st3" d="M280.88,230.86c0,1.63-1.32,2.96-2.95,2.96s-2.96-1.33-2.96-2.96,1.33-2.96,2.96-2.96,2.95,1.33,2.95,2.96ZM280.63,230.85c0-1.5-1.2-2.71-2.7-2.71s-2.71,1.21-2.71,2.71,1.22,2.71,2.71,2.71,2.7-1.21,2.7-2.71Z">
      <g class="st2">
        <rect class="st4" x="2.96" y="268.36" width="283.46" height=".25">
        <rect class="st4" x="2.96" y="266.18" width="283.46" height=".25">
        <rect class="st4" x="2.96" y="264.01" width="283.46" height=".25">
        <rect class="st4" x="2.96" y="261.82" width="283.46" height=".25">
        <rect class="st4" x="2.96" y="259.65" width="283.46" height=".25">
        <rect class="st4" x="2.96" y="257.48" width="283.46" height=".25">
        <rect class="st4" x="2.96" y="255.31" width="283.46" height=".25">
        <rect class="st4" x="2.96" y="253.14" width="283.46" height=".25">
        <rect class="st4" x="2.96" y="250.96" width="283.46" height=".25">
        <rect class="st4" x="2.96" y="248.8" width="283.46" height=".25">
        <rect class="st4" x="2.96" y="246.61" width="283.46" height=".25">
        <rect class="st4" x="2.96" y="244.43" width="283.46" height=".25">
        <rect class="st4" x="2.96" y="242.26" width="283.46" height=".25">
        <rect class="st4" x="2.96" y="240.09" width="283.46" height=".25">
        <rect class="st4" x="2.96" y="237.9" width="283.46" height=".25">
        <rect class="st4" x="280.58" y="235.73" width="5.84" height=".25">
        <rect class="st4" x="14.17" y="235.73" width="261.09" height=".25">
        <rect class="st4" x="2.96" y="235.73" width="5.79" height=".25">
        <rect class="st4" x="282.83" y="233.56" width="3.59" height=".25">
        <rect class="st4" x="16.38" y="233.56" width="256.63" height=".25">
        <rect class="st4" x="2.96" y="233.56" width="3.57" height=".25">
        <rect class="st4" x="283.56" y="231.39" width="2.87" height=".25">
        <rect class="st4" x="17.09" y="231.39" width="255.2" height=".25">
        <rect class="st4" x="2.96" y="231.39" width="2.86" height=".25">
        <rect class="st4" x="283.39" y="229.22" width="3.04" height=".25">
        <rect class="st4" x="16.92" y="229.22" width="255.54" height=".25">
        <rect class="st4" x="2.96" y="229.22" width="3.04" height=".25">
        <rect class="st4" x="282.23" y="227.05" width="3.78" height=".25">
        <rect class="st4" x="15.74" y="227.05" width="257.87" height=".25">
        <rect class="st4" x="3.36" y="227.05" width="3.81" height=".25">
        <rect class="st4" x="281.86" y="224.86" width="2.93" height=".25">
        <rect class="st4" x="4.58" y="224.86" width="269.36" height=".25">
      </g>
      <path class="st3" d="M11.45,223.68c1.44,0,2.83.42,4.03,1.23,1.99,1.33,3.18,3.57,3.18,5.98,0,3.97-3.23,7.21-7.21,7.21-2.38,0-4.61-1.18-5.96-3.16-.82-1.21-1.25-2.62-1.25-4.06v-.12h.01c.06-3.92,3.27-7.09,7.21-7.09h-.01ZM4.48,230.99c.02,1.36.44,2.67,1.21,3.81,1.31,1.91,3.46,3.05,5.76,3.05,3.84,0,6.96-3.12,6.96-6.96,0-2.33-1.14-4.49-3.06-5.78-1.15-.78-2.5-1.19-3.89-1.19-3.84,0-6.97,3.12-6.97,6.96v.11h-.01Z">
      <path class="st3" d="M11.48,225.09c1.67,0,3.26.72,4.37,1.99.56.64.98,1.41,1.21,2.22.14.49.21,1.02.21,1.57,0,.21,0,.43-.03.64-.1.81-.34,1.56-.73,2.22-.54.94-1.32,1.71-2.27,2.22-.84.47-1.8.71-2.77.71-2.08,0-4.01-1.12-5.04-2.92-.39-.68-.64-1.44-.73-2.22-.02-.21-.03-.43-.03-.64,0-.54.07-1.07.21-1.57.23-.81.65-1.58,1.21-2.22,1.09-1.26,2.69-1.99,4.37-1.99h.02ZM11.48,236.41c.93,0,1.85-.24,2.65-.68.9-.48,1.65-1.22,2.17-2.12.37-.63.6-1.34.69-2.12.03-.19.03-.4.03-.61,0-.53-.07-1.03-.21-1.51-.21-.77-.61-1.5-1.15-2.12-1.06-1.21-2.58-1.91-4.19-1.91s-3.14.7-4.19,1.91c-.53.61-.93,1.35-1.15,2.12-.14.48-.21.99-.21,1.51,0,.21.01.42.03.62.08.74.32,1.47.69,2.12.99,1.73,2.83,2.8,4.82,2.8h.02,0Z">
      <path class="st3" d="M14.42,230.89c0,1.63-1.33,2.96-2.96,2.96s-2.96-1.33-2.96-2.96,1.33-2.96,2.96-2.96,2.96,1.33,2.96,2.96ZM14.17,230.88c0-1.5-1.21-2.71-2.71-2.71s-2.71,1.21-2.71,2.71,1.22,2.71,2.71,2.71,2.71-1.21,2.71-2.71Z">
      <path class="st3" d="M260.65,251.39c0,1.24-1.01,2.25-2.25,2.25s-2.25-1.01-2.25-2.25,1.01-2.25,2.25-2.25,2.25,1.01,2.25,2.25ZM260.4,251.4c0-1.1-.9-2-2-2s-2,.9-2,2,.89,2,2,2,2-.9,2-2Z">
      <path class="st3" d="M99.48,223.69c0,.78-.63,1.42-1.42,1.42h-8.74c-.78,0-1.42-.65-1.42-1.43s.63-1.42,1.42-1.42h8.74c.78,0,1.42.65,1.42,1.43ZM98.06,224.86c.64,0,1.17-.54,1.17-1.18s-.52-1.17-1.17-1.17h-8.74c-.64,0-1.17.54-1.17,1.18s.52,1.17,1.17,1.17h8.74Z">
      <path class="st3" d="M201.53,223.69c0,.78-.63,1.42-1.42,1.42h-8.74c-.78,0-1.42-.65-1.42-1.43s.63-1.42,1.42-1.42h8.74c.78,0,1.42.65,1.42,1.43ZM200.11,224.86c.64,0,1.17-.54,1.17-1.18s-.52-1.17-1.17-1.17h-8.74c-.64,0-1.17.54-1.17,1.18s.52,1.17,1.17,1.17h8.74Z">
      <path class="st3" d="M122.73,222.25c.85,0,1.55.69,1.55,1.54v15.71h-1.67v-14.4h-9.91c-.79,0-1.43-.64-1.43-1.42s.64-1.42,1.43-1.42h10.04-.01ZM112.72,224.86h10.16v14.4h1.17v-15.46c0-.71-.59-1.29-1.3-1.29h-10.04c-.65,0-1.18.53-1.18,1.17s.53,1.17,1.18,1.17h.01Z">
      <rect class="st3" x="82.21" y="236.43" width="1.83" height=".25">
      <path class="st3" d="M84.04,236.44c.23,0,.43.16.47.39l-.25.04c-.02-.11-.12-.19-.23-.19v-.25h.01Z">
      <g class="st2">
        <path class="st4" d="M148.7,251.31c0,2.21-1.78,4-3.99,4s-4-1.79-4-4,1.8-4,4-4,3.99,1.79,3.99,4ZM148.45,251.3c0-2.07-1.67-3.75-3.74-3.75s-3.75,1.68-3.75,3.75,1.69,3.75,3.75,3.75,3.74-1.68,3.74-3.75Z">
        <path class="st4" d="M220.57,236.82l.79,3.86h15.83v.25h-16.03l-.83-4.06c-.02-.11-.12-.19-.23-.19h-1.82v-.25h1.82c.23,0,.43.17.47.39Z">
        <path class="st4" d="M71.17,236.68h-1.82c-.11,0-.21.08-.23.19l-.83,4.06h-16.03v-.25h15.83l.79-3.86c.04-.22.24-.39.47-.39h1.82v.25Z">
        <path class="st4" d="M236.59,243.52v.25h-40.82l-22.7,4.25h-21.92c.52,1,.79,2.13.79,3.28,0,3.97-3.24,7.21-7.21,7.21s-7.21-3.23-7.21-7.21c0-1.13.27-2.26.79-3.28h-21.95l-22.66-4.25h-40.84v-.25h40.86l22.66,4.25h22.34l-.1.18c-.55,1.03-.85,2.18-.85,3.34,0,3.84,3.12,6.96,6.96,6.96s6.96-3.12,6.96-6.96c0-1.18-.29-2.33-.85-3.34l-.1-.18h22.32l22.7-4.25h40.84,0Z">
        <path class="st4" d="M190.8,236.15c.85,0,1.54.69,1.54,1.54v3.61l3.42-.63h8.4l.79-3.86c.04-.22.24-.39.47-.39h1.82v.25h-1.82c-.11,0-.21.08-.23.19l-.83,4.06h-8.58l-3.69.69v-3.91c0-.71-.58-1.29-1.29-1.29s-1.29.58-1.29,1.29v4.39l-11.44,2.15-.15.03v-6.57c0-.71-.58-1.29-1.29-1.29s-1.29.58-1.29,1.29v7.05l-2.25.42h-25.04c-1.01-.55-2.16-.84-3.31-.84s-2.3.29-3.31.84h-25.06l-22.66-4.25h-8.6l-.83-4.06.25-.05.79,3.86h8.42l22.66,4.25h24.95c1.04-.56,2.22-.85,3.4-.85s2.36.29,3.4.85h24.92l2.03-.38v-6.85c0-.85.69-1.54,1.54-1.54s1.54.69,1.54,1.54v6.27l11.09-2.08v-4.19c0-.85.69-1.54,1.54-1.54h0Z">
      </g>
      <path class="st3" d="M124.87,230.77c.46,0,.83.37.83.83v.74c.39.03.7.34.7.75s-.33.75-.75.75h-1.61v-2.25h.25v2h1.36c.28,0,.5-.22.5-.5s-.22-.5-.5-.5h-.19v-.99c0-.32-.26-.58-.58-.58h-.71v-.25h.71,0Z">
      <path class="st3" d="M176.74,222.27c.78,0,1.42.64,1.42,1.42s-.63,1.42-1.42,1.42h-9.92v14.4h-1.67v-15.71c0-.85.69-1.54,1.54-1.54h10.05ZM165.39,223.78v15.46h1.17v-14.4h10.17c.64,0,1.17-.53,1.17-1.17s-.52-1.17-1.17-1.17h-10.04c-.71,0-1.29.58-1.29,1.29h-.01Z">
      <path class="st3" d="M165.27,231.02h-.71c-.32,0-.58.26-.58.58v.99h-.2c-.27,0-.5.23-.5.5s.22.5.5.5h1.37v-2h.25v2.25h-1.62c-.41,0-.75-.36-.75-.75s.31-.72.7-.75v-.74c0-.45.37-.83.83-.83h.71v.25Z">
      <polygon class="st3" points="95.24 241.07 94.99 241.07 94.99 225.14 92.4 225.14 92.4 240.81 92.15 240.81 92.15 224.89 95.24 224.89 95.24 241.07">
      <polygon class="st3" points="197.29 240.81 197.04 240.81 197.04 225.11 194.45 225.11 194.45 241.07 194.2 241.07 194.2 224.86 197.29 224.86 197.29 240.81">
      <path class="st3" d="M231.31,229.48c0,2.42-1.96,4.38-4.38,4.38s-4.38-1.96-4.38-4.38,1.97-4.38,4.38-4.38,4.38,1.96,4.38,4.38ZM231.05,229.48c0-2.27-1.85-4.12-4.12-4.12s-4.12,1.85-4.12,4.12,1.85,4.12,4.12,4.12,4.12-1.85,4.12-4.12Z">
      <path class="st3" d="M66.89,229.48c0,2.42-1.96,4.38-4.38,4.38s-4.38-1.96-4.38-4.38,1.97-4.38,4.38-4.38,4.38,1.96,4.38,4.38ZM66.63,229.48c0-2.27-1.85-4.12-4.12-4.12s-4.12,1.85-4.12,4.12,1.85,4.12,4.12,4.12,4.12-1.85,4.12-4.12Z">
      <path class="st3" d="M260.65,252.3c0,1.27-1.01,2.31-2.25,2.31s-2.25-1.03-2.25-2.31,1.01-2.32,2.25-2.32,2.25,1.05,2.25,2.32ZM260.4,252.3c0-1.14-.9-2.07-2-2.07s-2,.94-2,2.07.89,2.06,2,2.06,2-.92,2-2.06Z">
      <path class="st3" d="M270.57,239.39c0,6.71-5.46,12.17-12.17,12.17s-12.17-5.46-12.17-12.17,5.46-12.17,12.17-12.17,12.17,5.46,12.17,12.17ZM270.32,239.39c0-6.57-5.35-11.92-11.92-11.92s-11.92,5.35-11.92,11.92,5.34,11.92,11.92,11.92,11.92-5.35,11.92-11.92Z">
      <path class="st3" d="M262.78,239.4c0,2.42-1.96,4.38-4.38,4.38s-4.38-1.96-4.38-4.38,1.97-4.38,4.38-4.38,4.38,1.96,4.38,4.38ZM262.52,239.4c0-2.27-1.85-4.12-4.12-4.12s-4.12,1.85-4.12,4.12,1.85,4.12,4.12,4.12,4.12-1.85,4.12-4.12Z">
      <rect class="st3" x="274.45" y="232.68" width=".25" height="28.73" transform="translate(-73.74 124.19) rotate(-22.55)">
      <rect class="st3" x=".45" y="246.83" width="28.76" height=".25" transform="translate(-219.06 166.31) rotate(-67.54)">
    </g>
  </g>
</svg>